<svg width="134" height="107" viewBox="0 0 134 107" fill="none" xmlns="http://www.w3.org/2000/svg">
<g filter="url(#filter0_d_244_2157)">
<rect x="4" width="126" height="98.7216" rx="30" fill="#F99C08"/>
</g>
<path fill-rule="evenodd" clip-rule="evenodd" d="M58.2282 21.775C60.801 21.775 63.3739 21.8148 65.9432 21.7476C66.6248 21.7298 67.8475 22.2936 67.7927 20.877C67.7509 19.7242 66.6817 20.1414 66.0337 20.1311C63.1314 20.0852 60.2195 19.9749 57.3288 20.1564C55.2718 20.2845 54.6656 19.5036 54.9238 17.6172C55.0129 16.9664 54.9273 16.2924 54.941 15.6293C55.0314 11.2139 56.0986 9.71103 60.3811 8.6219C65.0993 7.42317 69.9278 7.4629 74.633 8.49586C78.8628 9.4247 80.6198 12.7154 80.4061 15.7595C80.1458 19.4742 80.3472 23.2211 80.3438 26.9542C80.3376 31.6485 77.9121 34.1398 73.1795 34.2049C69.2819 34.2583 65.3795 34.3008 61.484 34.1925C56.8411 34.0624 53.4354 37.9189 53.4121 42.2891C53.4121 42.6206 53.4689 42.9631 53.4032 43.283C53.0689 44.8879 54.4046 47.482 52.7031 47.9587C50.1138 48.6862 47.0821 48.6862 44.7983 46.3757C44.0243 45.5948 43.3722 44.7201 43.0283 43.7091C41.1932 38.3216 40.9035 32.8657 42.631 27.394C43.7078 23.9787 46.6368 21.8545 50.2652 21.7935C52.9189 21.749 55.5732 21.7846 58.2269 21.7846L58.2282 21.775ZM62.956 14.158C62.845 12.8544 62.1443 11.903 60.6983 11.8633C59.1167 11.8222 58.2995 12.7784 58.2974 14.3347C58.296 15.7773 59.0817 16.7013 60.5175 16.7431C62.095 16.789 62.8587 15.8115 62.956 14.158Z" fill="white"/>
<path fill-rule="evenodd" clip-rule="evenodd" d="M78.0861 48.1844C75.1818 48.1844 72.2761 48.1591 69.3717 48.205C68.7175 48.2132 67.6202 47.7994 67.5859 48.918C67.5476 50.1866 68.7251 49.8565 69.4731 49.864C72.3774 49.9003 75.2845 49.9311 78.1882 49.8503C79.6801 49.8092 80.2891 50.0948 80.4007 51.8539C80.9055 59.8169 77.4498 60.5053 71.0759 61.954C67.4195 62.7849 63.4993 62.3445 59.8935 60.7293C56.9118 59.3956 55.0822 57.4735 55.313 53.8746C55.5418 50.3222 55.5801 46.724 55.3068 43.1751C54.978 38.8918 57.6426 35.7416 62.8246 35.7402C66.3112 35.7395 69.8211 35.4738 73.2775 35.7916C78.2197 36.245 82.0947 31.9611 82.2646 26.9799C82.2714 26.8148 82.2289 26.6374 82.2714 26.484C82.7071 24.953 81.1576 22.6775 83.2304 21.9041C86.3628 20.7362 89.8953 21.9637 91.4955 24.3406C93.5128 27.3333 93.7854 30.8549 94.1114 34.2935C94.4642 38 93.4244 41.4893 91.8674 44.8328C90.8098 47.1001 89.0316 48.196 86.554 48.1995C83.7318 48.2015 80.9103 48.1995 78.0875 48.1995C78.0861 48.194 78.0861 48.1892 78.0861 48.1844ZM77.3299 55.5823C77.0196 54.1671 76.3812 53.2013 74.7372 53.1608C73.0275 53.1197 72.5864 54.3986 72.5953 55.5405C72.6048 56.7543 72.9432 58.2476 74.7941 58.1078C76.3326 57.99 77.0826 57.0372 77.3299 55.5823Z" fill="white"/>
<path fill-rule="evenodd" clip-rule="evenodd" d="M32.4008 84.6791C32.4008 86.4477 32.481 88.104 32.3632 89.7459C32.3125 90.4542 33.0934 91.7872 31.6076 91.7858C30.2979 91.7858 29.9616 90.7433 30.0034 89.4836C30.0835 87.0793 30.0267 84.6702 30.0267 82.2638V76.7853C30.0267 73.4836 30.9123 72.3657 34.0701 71.6821C37.006 71.0437 39.313 72.0321 40.4994 74.6022C41.6859 77.173 41.7776 79.8218 40.5906 82.4371C39.4206 85.014 37.2656 85.9758 34.5051 85.212C33.8763 85.0408 33.2413 84.8921 32.4008 84.6791ZM32.4008 78.2073C32.4008 79.1183 32.5241 80.0472 32.3755 80.9336C32.0316 82.9824 33.3399 83.4872 34.8825 83.8516C36.408 84.2119 37.454 83.5632 38.0657 82.2193C39.0939 79.9657 39.2665 77.6415 38.4856 75.2584C37.7924 73.1405 36.1916 72.8925 34.3229 73.1555C32.4775 73.4179 32.2275 74.6728 32.3885 76.2243C32.457 76.8784 32.4008 77.5463 32.4008 78.2073ZM52.2566 84.5695C50.9928 84.8983 49.8954 85.249 48.7721 85.46C46.3129 85.9196 44.4922 84.5695 43.8518 82.1076C43.0572 79.0608 43.7299 76.0256 43.7504 72.9856C43.7593 71.5999 45.0416 72.1404 45.9287 71.3978C45.9287 74.6515 45.941 77.46 45.9246 80.2664C45.9157 81.6761 46.2801 82.8351 47.6131 83.5783C49.0844 84.3989 50.2914 83.6174 51.5723 83.0906C52.4902 82.7132 52.3758 81.9426 52.3772 81.2096C52.384 78.5573 52.3765 75.9078 52.3854 73.2555C52.3867 72.6014 52.3189 71.802 53.2848 71.8342C54.1458 71.8623 54.5205 72.3739 54.5061 73.3124C54.4438 77.7011 54.5677 82.096 54.3896 86.4785C54.2547 89.7925 51.9168 91.8167 48.5535 91.9653C48.0501 91.9865 47.5226 92.0331 47.3343 91.4084C47.0473 90.4467 47.8261 90.6282 48.3378 90.4645C52.0374 89.2877 52.521 88.5849 52.2566 84.5695ZM67.8908 73.1816C68.8696 72.7192 69.432 72.2959 70.0505 72.1815C73.5214 71.5396 76.1812 71.7842 76.1743 76.4592C76.1695 78.867 76.1757 81.2754 76.1695 83.6824C76.1682 84.3565 76.2113 85.0127 75.2065 85.0709C74.1468 85.1339 73.9139 84.5277 73.9187 83.6968C73.931 81.3768 73.994 79.0567 73.992 76.7373C73.9906 74.9358 73.6228 73.3412 71.3315 73.3466C69.3217 73.3501 67.8983 74.8502 67.888 76.9202C67.8765 79.161 67.8772 81.4019 67.8901 83.6427C67.8921 84.4387 67.9093 85.1367 66.7585 85.0709C65.7221 85.0092 65.8495 84.3106 65.8495 83.6674C65.8427 77.7765 65.8714 71.8794 65.8214 65.9844C65.8125 64.9514 66.2201 64.3103 67.1366 64.2664C68.4299 64.2068 67.8373 65.3377 67.8565 65.9049C67.9408 68.214 67.8908 70.5286 67.8908 73.1816ZM78.8437 78.4635C78.7129 73.8638 80.8946 71.4081 84.8442 71.5506C86.8266 71.6232 88.3137 72.5027 89.2734 74.2152C90.9687 77.2442 90.7393 80.2746 88.9049 83.1111C87.6445 85.0593 85.706 85.9778 83.3427 85.4764C81.0124 84.9832 79.1876 82.8851 78.8574 80.4397C78.7698 79.7924 78.8437 79.1218 78.8437 78.4635ZM87.9678 78.571C87.8637 77.7682 87.8822 76.649 87.5479 75.6502C87.091 74.2803 86.2581 73.1774 84.5586 73.1021C82.8441 73.0281 81.9885 74.0303 81.4166 75.4174C80.5185 77.5949 80.5768 79.7814 81.5494 81.9199C82.1742 83.2975 83.1386 84.3058 84.81 84.0263C86.456 83.7516 87.4273 82.6728 87.7637 81.0719C87.9164 80.3465 87.8918 79.5869 87.9678 78.5717V78.571ZM92.7675 79.1841C92.7675 78.3539 92.7518 77.5251 92.7702 76.699C92.8086 75.1064 92.301 73.3418 94.4485 72.5281C96.9076 71.5992 99.3448 70.9033 101.82 72.3411C102.746 72.8795 103.088 73.8576 103.097 74.8961C103.122 77.7943 103.084 80.6938 103.123 83.592C103.137 84.6031 102.871 85.1086 101.735 85.0812C100.489 85.0517 100.752 84.2023 100.76 83.5242C100.789 81.2089 100.95 78.8957 100.907 76.5839C100.849 73.6727 99.2516 72.4856 96.5301 73.2C95.4013 73.4973 94.6957 74.0453 94.7512 75.4427C94.8615 78.1703 94.7766 80.9075 94.7868 83.64C94.7896 84.4318 94.8012 85.1332 93.6587 85.0668C92.612 85.0065 92.7833 84.2825 92.775 83.6543C92.7559 82.1638 92.7696 80.6726 92.7675 79.1841ZM62.9239 72.7288C62.7527 72.9315 62.6088 73.2494 62.4581 73.2521C59.7428 73.2898 60.4963 75.3167 60.4265 76.8202C60.36 78.221 60.4265 79.6287 60.4066 81.0336C60.386 82.4296 60.5073 83.7269 62.2061 84.0975C62.6931 84.203 62.915 84.4839 62.8136 84.9702C62.702 85.5072 62.2739 85.486 61.8499 85.4805C59.8976 85.4463 58.4503 84.066 58.3927 82.0453C58.3338 79.9807 58.414 77.9114 58.3653 75.8489C58.34 74.8694 58.8489 73.6193 57.2693 73.2309C57.096 73.1891 57.0344 72.6979 56.9214 72.4178C59.0284 71.7568 58.1543 69.9395 58.4434 68.5606C58.5804 67.9078 59.2003 67.729 59.786 67.6736C60.3785 67.6174 60.3833 68.0969 60.4025 68.4976C60.4806 70.0868 59.6579 72.2137 62.5835 72.0979C62.6814 72.0945 62.7958 72.4829 62.9239 72.7281V72.7288Z" fill="white"/>
<defs>
<filter id="filter0_d_244_2157" x="0" y="0" width="134" height="106.722" filterUnits="userSpaceOnUse" color-interpolation-filters="sRGB">
<feFlood flood-opacity="0" result="BackgroundImageFix"/>
<feColorMatrix in="SourceAlpha" type="matrix" values="0 0 0 0 0 0 0 0 0 0 0 0 0 0 0 0 0 0 127 0" result="hardAlpha"/>
<feOffset dy="4"/>
<feGaussianBlur stdDeviation="2"/>
<feComposite in2="hardAlpha" operator="out"/>
<feColorMatrix type="matrix" values="0 0 0 0 0 0 0 0 0 0 0 0 0 0 0 0 0 0 0.25 0"/>
<feBlend mode="normal" in2="BackgroundImageFix" result="effect1_dropShadow_244_2157"/>
<feBlend mode="normal" in="SourceGraphic" in2="effect1_dropShadow_244_2157" result="shape"/>
</filter>
</defs>
</svg>
