<svg width="131" height="84" viewBox="0 0 131 84" fill="none" xmlns="http://www.w3.org/2000/svg">
<g filter="url(#filter0_d_246_2202)">
<rect x="4" width="123" height="76" rx="30" fill="#F99C08"/>
</g>
<path d="M19.7345 62.8023C19.2938 62.5819 19 62.0678 19 61.4802C19 60.5989 19.661 59.9379 20.5424 59.9379C20.8362 59.9379 21.1299 60.0113 21.3503 60.1582C22.9661 61.2599 24.7288 61.774 26.2712 61.774C27.9605 61.774 28.9153 61.0395 28.9153 59.9379V59.8644C28.9153 58.5424 27.0791 58.1017 25.096 57.5141C22.5989 56.7797 19.8079 55.7514 19.8079 52.5198V52.4463C19.8079 49.2147 22.452 47.3051 25.8305 47.3051C27.6667 47.3051 29.5028 47.8192 31.1921 48.7006C31.7062 48.9944 32.1469 49.5085 32.1469 50.1695C32.1469 51.0508 31.4124 51.7119 30.5311 51.7119C30.2373 51.7119 30.0169 51.6384 29.7232 51.4915C28.3277 50.7571 26.9322 50.3164 25.7571 50.3164C24.2147 50.3164 23.4068 51.0508 23.4068 52.0056V52.0791C23.4068 53.3277 25.2429 53.8418 27.226 54.5028C29.7232 55.2373 32.5141 56.4124 32.5141 59.4237V59.4972C32.5141 63.096 29.7232 64.8588 26.1977 64.8588C24.0678 64.8588 21.7175 64.1977 19.7345 62.8023ZM47.7175 56.1186C47.7175 52.8136 45.5141 50.6836 42.8701 50.6836C40.226 50.6836 37.9492 52.887 37.9492 56.1186V56.1921C37.9492 59.4237 40.226 61.6271 42.8701 61.6271C45.5141 61.4802 47.7175 59.4237 47.7175 56.1186ZM34.2034 49.2881C34.2034 48.1864 35.0113 47.3051 36.113 47.3051C37.2147 47.3051 38.096 48.1864 38.096 49.2881V50.4633C39.3446 48.7006 41.1073 47.3051 43.8249 47.3051C47.791 47.3051 51.6836 50.4633 51.6836 56.0452V56.1186C51.6836 61.7006 47.8644 64.8588 43.8249 64.8588C41.0339 64.8588 39.2712 63.4633 38.096 61.9209V67.8701C38.096 68.9717 37.2147 69.7797 36.113 69.7797C35.0847 69.7797 34.2034 68.9717 34.2034 67.8701V49.2881ZM53.2994 49.2147C53.2994 48.113 54.1073 47.2316 55.209 47.2316C56.3107 47.2316 57.1921 48.113 57.1921 49.2147V50.1695C57.4124 48.7006 59.7627 47.3051 61.452 47.3051C62.7006 47.3051 63.3616 48.113 63.3616 49.2147C63.3616 50.2429 62.7006 50.904 61.8192 51.0508C59.0282 51.565 57.1186 53.9153 57.1186 57.2938V62.8757C57.1186 63.9039 56.2373 64.7853 55.1356 64.7853C54.1073 64.7853 53.226 63.9774 53.226 62.8757V49.2147M65.1243 49.2147C65.1243 48.113 66.0056 47.2316 67.1073 47.2316C68.209 47.2316 69.0904 48.113 69.0904 49.2147V62.8757C69.0904 63.9774 68.209 64.7853 67.1073 64.7853C66.0056 64.7853 65.1243 63.9774 65.1243 62.8757V49.2147ZM70.7797 49.2881C70.7797 48.1864 71.661 47.3051 72.7627 47.3051C73.8644 47.3051 74.8192 48.1864 74.8192 49.2881V50.096C75.9209 48.5537 77.6102 47.3051 80.3277 47.3051C84.2938 47.3051 86.5706 49.8757 86.5706 53.7684V62.8757C86.5706 63.9774 85.6893 64.7853 84.5876 64.7853C83.4859 64.7853 82.5311 63.9774 82.5311 62.8757V54.9435C82.5311 52.2994 81.1356 50.8305 78.7853 50.8305C76.435 50.8305 74.8192 52.3729 74.8192 55.0169V62.8757C74.8192 63.9774 73.9379 64.7853 72.7627 64.7853C71.661 64.7853 70.7797 63.9774 70.7797 62.8757V49.2881ZM96.7062 61.5537C93.9887 61.5537 91.7119 59.4972 91.7119 56.1186V56.0452C91.7119 52.7401 93.9887 50.6102 96.7062 50.6102C99.4237 50.6102 101.774 52.8136 101.774 56.0452V56.1186C101.774 59.3503 99.4237 61.5537 96.7062 61.5537ZM103.684 47.3785C102.582 47.3785 101.701 48.2599 101.701 49.3616V50.5367C100.379 48.774 98.6158 47.3785 95.7514 47.3785C91.6384 47.3785 87.6723 50.5367 87.6723 56.1921V56.2655C87.6723 61.8475 91.6384 65.0791 95.7514 65.0791C98.6158 65.0791 100.452 63.6836 101.701 62.1412C101.48 65.226 99.5706 66.7684 96.1921 66.7684C94.209 66.7684 92.4463 66.2542 90.8305 65.4463C90.6102 65.3729 90.3898 65.2994 90.096 65.2994C89.1412 65.2994 88.4068 66.0339 88.4068 66.9152C88.4068 67.6497 88.8475 68.1638 89.5085 68.4576C91.6384 69.4859 93.7684 70 96.2655 70C99.4237 70 101.847 69.2655 103.463 67.7232C104.932 66.3277 105.74 64.1977 105.74 61.3333V49.2881C105.667 48.1864 104.785 47.3785 103.684 47.3785ZM69.0904 42.6045C69.0904 43.6328 68.209 44.5141 67.1073 44.5141C66.0056 44.5141 65.1243 43.6328 65.1243 42.6045C65.1243 41.5763 66.0056 40.6949 67.1073 40.6949C68.209 40.6949 69.0904 41.5763 69.0904 42.6045ZM79.3729 29.8983C75.0396 35.6271 65.7119 33.7175 59.6893 33.9379C59.6893 33.9379 58.661 34.0113 57.5593 34.1582C57.5593 34.1582 58 34.0113 58.4407 33.791C62.6271 32.3955 64.6102 32.1017 67.1808 30.7797C71.9548 28.3559 76.7288 23.1412 77.6836 17.7062C75.8475 22.9209 70.339 27.4011 65.2712 29.2373C61.8192 30.4859 55.5763 31.661 55.5763 31.661L55.3559 31.5141C51.096 29.5311 50.9492 20.4972 58.7345 17.6328C62.113 16.3842 65.3446 17.0452 69.017 16.2373C72.9096 15.3559 77.4633 12.4915 79.2994 8.74576C81.3559 14.8418 83.8531 24.1695 79.3729 29.8983ZM79.4463 6.98305C78.9322 8.15819 78.2712 9.25989 77.5367 10.2147C74.3051 6.98305 69.8249 5 64.8305 5C55.0621 5 47.1299 12.7853 47.1299 22.2599C47.1299 27.2542 49.3333 31.7345 52.7853 34.8927L53.1525 35.2599C52.4915 34.7458 52.4181 33.791 52.9322 33.2034C53.4463 32.5424 54.4011 32.4689 55.0621 32.983C55.7232 33.4972 55.7966 34.452 55.2825 35.0395C54.7684 35.7006 53.8136 35.774 53.1525 35.2599L53.4463 35.4802C56.5311 37.9774 60.4972 39.5198 64.8305 39.5198C74.1582 39.5198 81.7966 32.3955 82.4576 23.5085C83.0452 19.1751 81.7232 13.5932 79.4463 6.98305ZM110.367 48.5537H109.706V49.435H110.367C110.588 49.435 110.808 49.2881 110.808 48.9944C110.808 48.7006 110.588 48.5537 110.367 48.5537ZM110.734 50.7571L110.073 49.7288H109.633V50.7571H109.266V48.2599H110.294C110.734 48.2599 111.102 48.5537 111.102 48.9944C111.102 49.5819 110.588 49.7288 110.441 49.7288L111.102 50.7571H110.734ZM110.147 47.5989C109.119 47.5989 108.237 48.4068 108.237 49.435C108.237 50.4633 109.119 51.2712 110.147 51.2712C111.175 51.2712 112.057 50.4633 112.057 49.435C112.057 48.4802 111.175 47.5989 110.147 47.5989ZM110.147 51.7119C108.898 51.7119 107.87 50.7571 107.87 49.5085C107.87 48.2599 108.898 47.3051 110.147 47.3051C111.395 47.3051 112.424 48.2599 112.424 49.5085C112.424 50.6836 111.395 51.7119 110.147 51.7119Z" fill="white"/>
<defs>
<filter id="filter0_d_246_2202" x="0" y="0" width="131" height="84" filterUnits="userSpaceOnUse" color-interpolation-filters="sRGB">
<feFlood flood-opacity="0" result="BackgroundImageFix"/>
<feColorMatrix in="SourceAlpha" type="matrix" values="0 0 0 0 0 0 0 0 0 0 0 0 0 0 0 0 0 0 127 0" result="hardAlpha"/>
<feOffset dy="4"/>
<feGaussianBlur stdDeviation="2"/>
<feComposite in2="hardAlpha" operator="out"/>
<feColorMatrix type="matrix" values="0 0 0 0 0 0 0 0 0 0 0 0 0 0 0 0 0 0 0.25 0"/>
<feBlend mode="normal" in2="BackgroundImageFix" result="effect1_dropShadow_246_2202"/>
<feBlend mode="normal" in="SourceGraphic" in2="effect1_dropShadow_246_2202" result="shape"/>
</filter>
</defs>
</svg>
