<svg width="115" height="113" viewBox="0 0 115 113" fill="none" xmlns="http://www.w3.org/2000/svg">
<g filter="url(#filter0_d_244_2167)">
<rect x="4" width="107" height="105" rx="30" fill="#F99C08"/>
</g>
<path d="M50.684 55.6839C41.3858 58.2813 56.3399 63.6468 68.1777 58.5752C66.2392 57.8221 64.8484 56.9517 64.8484 56.9517C59.5694 57.9494 57.1211 58.0282 52.3293 57.4811C48.3742 57.0283 50.684 55.6839 50.684 55.6839ZM66.7602 50.6165C59.7641 51.963 55.7226 51.9201 50.6031 51.3921C46.6452 50.9828 49.2362 49.064 49.2362 49.064C38.9966 52.4629 54.9358 56.3189 69.2465 52.1332C67.7263 51.5981 66.7602 50.6165 66.7602 50.6165ZM72.2439 21.2744C72.2439 21.2744 51.5446 26.4431 61.4298 37.8344C64.3485 41.1939 60.6648 44.2146 60.6648 44.2146C60.6648 44.2146 68.0708 40.3917 64.6698 35.6027C61.4931 31.1385 59.0575 28.9216 72.2439 21.2744ZM39.3531 65.1677C63.4872 69.0792 83.3455 63.4057 77.087 60.5812C77.087 60.5812 78.7963 61.991 75.2033 63.0808C68.3725 65.1501 46.7661 65.7745 40.765 63.1631C38.6092 62.2244 42.6543 60.9222 43.9262 60.6487C45.253 60.3611 46.011 60.4139 46.011 60.4139C43.6119 58.7235 30.5036 63.7312 39.3531 65.1677ZM68.7915 45.888C69.9517 45.0963 71.5548 44.4086 71.5548 44.4086C71.5548 44.4086 66.9901 45.225 62.4416 45.6067C56.8743 46.0736 50.9019 46.1657 47.9038 45.7649C40.8058 44.8157 51.7949 42.205 51.7949 42.205C51.7949 42.205 47.5269 41.916 42.2795 44.4543C36.073 47.456 57.6301 48.8235 68.7915 45.888ZM71.5091 53.223C71.4571 53.3636 71.2827 53.5218 71.2827 53.5218C86.4322 49.5393 80.8621 39.4839 73.6185 42.0292C72.9836 42.2535 72.6496 42.7767 72.6496 42.7767C72.6496 42.7767 73.0511 42.615 73.9469 42.4279C77.608 41.6657 82.8547 47.3301 71.5091 53.223ZM58.7073 42.096C56.4721 37.0434 48.8938 32.6242 58.7108 24.8709C70.9522 15.2085 64.6705 8.92261 64.6705 8.92261C67.2046 18.9049 55.7331 21.9206 51.5924 28.1376C48.7729 32.3732 52.9769 36.926 58.7073 42.096ZM71.919 67.1632C62.6244 68.9125 51.16 68.7093 44.3629 67.5871C44.3629 67.5871 45.7551 68.7403 52.9108 69.2001C63.7979 69.8962 80.5218 68.8127 80.9176 63.6609C80.9176 63.6602 80.1568 65.6128 71.919 67.1632ZM48.9515 77.9857C46.9215 77.9857 45.189 78.4877 43.7427 79.1261L44.1815 80.879C45.3198 80.4607 46.7254 80.0725 48.171 80.0725C50.1749 80.0725 50.9687 80.879 50.9687 82.5482V83.9376H50.125C45.2586 83.9376 43.0628 85.7552 43.0628 88.5951C43.0628 91.0413 44.5105 92.3969 47.2344 92.3969C48.9852 92.3969 50.2937 91.8028 51.5151 90.7446L51.7372 92.3751H53.7812V82.1854C53.7812 79.6549 52.4284 77.9857 48.9515 77.9857ZM50.9687 88.8855C50.2656 89.7757 48.9346 90.2763 47.9601 90.2763C46.5728 90.2763 45.8591 89.3123 45.8591 87.9771C45.8591 86.5314 46.7043 85.3439 49.933 85.3439H50.9687V88.8855ZM61.9452 89.3383L61.3581 86.8014L58.7172 78.3126H55.6304L59.8851 92.3751H63.419C65.4468 87.4532 66.8945 82.5314 67.6982 78.3126H64.6951C64.2233 81.8282 63.2776 85.642 61.9452 89.3383ZM74.8855 77.9857C72.8542 77.9857 71.0809 78.4877 69.6353 79.1261L70.0544 80.879C71.1941 80.4607 72.6714 80.0725 74.117 80.0725C76.1181 80.0725 76.9844 80.879 76.9844 82.5482V83.9376H75.9803C71.1126 83.9376 68.9174 85.7552 68.9174 88.5951C68.9174 91.0413 70.363 92.3969 73.0869 92.3969C74.8391 92.3969 76.1448 91.8028 77.3697 90.7446L77.5933 92.3751H79.7969V82.1854C79.7969 79.6549 78.3597 77.9857 74.8855 77.9857ZM73.8934 90.2636C72.5047 90.2636 71.7517 89.3053 71.7517 87.9707C71.7517 86.5258 72.5596 85.3439 75.7848 85.3439H76.9844V88.8595H76.9372C75.9072 89.5626 74.8651 90.2636 73.8934 90.2636ZM38.3125 89.1217C38.3125 91.4217 37.9996 92.3828 37.6241 93.1303C37.1917 93.9691 36.1806 94.8705 35.0922 95.4288L36.452 97.0776C37.8808 96.551 39.2244 95.6165 40.0323 94.436C40.8409 93.2245 41.125 91.9814 41.125 88.9045V73.3907H38.3125V89.1217Z" fill="white"/>
<defs>
<filter id="filter0_d_244_2167" x="0" y="0" width="115" height="113" filterUnits="userSpaceOnUse" color-interpolation-filters="sRGB">
<feFlood flood-opacity="0" result="BackgroundImageFix"/>
<feColorMatrix in="SourceAlpha" type="matrix" values="0 0 0 0 0 0 0 0 0 0 0 0 0 0 0 0 0 0 127 0" result="hardAlpha"/>
<feOffset dy="4"/>
<feGaussianBlur stdDeviation="2"/>
<feComposite in2="hardAlpha" operator="out"/>
<feColorMatrix type="matrix" values="0 0 0 0 0 0 0 0 0 0 0 0 0 0 0 0 0 0 0.25 0"/>
<feBlend mode="normal" in2="BackgroundImageFix" result="effect1_dropShadow_244_2167"/>
<feBlend mode="normal" in="SourceGraphic" in2="effect1_dropShadow_244_2167" result="shape"/>
</filter>
</defs>
</svg>
