<svg width="137" height="87" viewBox="0 0 137 87" fill="none" xmlns="http://www.w3.org/2000/svg">
<g filter="url(#filter0_d_248_2382)">
<rect x="4.02318" y="4.44677" width="128.954" height="74.4818" rx="30" fill="#F99C08"/>
</g>
<path d="M48.6786 14.5411C39.9461 14.5411 32.8703 21.6103 32.8703 30.3296C32.8703 32.5605 33.3323 34.6859 34.1706 36.6067C32.098 37.8213 30.3801 39.5582 29.1883 41.6441C27.9965 43.73 27.3726 46.0919 27.3786 48.4942C27.3786 56.0716 33.4577 62.2167 40.9625 62.2167C41.9196 62.2167 42.8569 62.1177 43.7546 61.9263C45.8139 67.517 51.1802 71.5037 57.4837 71.5037C63.5364 71.5037 68.7244 67.8272 70.9554 62.5864C72.7018 63.4416 74.6213 63.8842 76.5658 63.8801C81.371 63.8801 85.5623 61.2333 87.7603 57.3125C88.8824 57.537 90.0375 57.6558 91.219 57.6558C100.909 57.6558 108.763 49.7285 108.763 39.9531C108.763 30.1843 100.909 22.2571 91.219 22.2571C88.691 22.2571 86.295 22.7983 84.1234 23.7686C81.6284 19.3199 76.942 16.3232 71.5692 16.3232C67.5231 16.3232 63.873 18.0196 61.246 20.7522C58.3615 16.9767 53.8006 14.5345 48.6786 14.5411ZM74.7705 34.4285C75.0147 34.4285 75.2325 34.4417 75.4107 34.4747C75.5889 34.5077 75.7275 34.5407 75.8794 34.5869C75.9124 34.6001 76.0048 34.6463 75.9652 34.7585L75.6021 35.7486C75.5757 35.8212 75.5493 35.8674 75.3975 35.8212C75.3579 35.808 75.2985 35.7948 75.1533 35.7618C75.0254 35.7338 74.8948 35.7206 74.7639 35.7222C74.5724 35.7222 74.4074 35.7486 74.2556 35.7948C74.1104 35.841 73.9784 35.9202 73.8596 36.039C73.7408 36.1578 73.6022 36.3294 73.5296 36.5407C73.358 37.0357 73.2853 37.5703 73.2787 37.6033H74.7903C74.9157 37.6033 74.9553 37.6627 74.9421 37.7552L74.7639 38.7386C74.7375 38.8838 74.6055 38.8772 74.6055 38.8772H73.0543L71.9916 44.8903C71.8794 45.5108 71.7408 46.0454 71.5758 46.4745C71.4108 46.9101 71.2392 47.2269 70.962 47.5305C70.7045 47.8078 70.4207 48.019 70.0907 48.1378C69.7673 48.2566 69.3712 48.316 68.9356 48.316C68.7244 48.316 68.5066 48.3094 68.2425 48.25C68.0978 48.2145 67.9546 48.1727 67.8135 48.1246C67.7541 48.0982 67.7079 48.0256 67.7409 47.9332C67.7739 47.8408 68.0511 47.0751 68.0907 46.9761C68.1435 46.8573 68.2623 46.9035 68.2623 46.9035C68.3481 46.9365 68.4076 46.9629 68.5198 46.9827C68.632 47.0025 68.7838 47.0223 68.896 47.0223C69.1006 47.0223 69.2854 46.9959 69.4504 46.9431C69.6485 46.8771 69.7607 46.7649 69.8795 46.6131C70.0049 46.4481 70.1039 46.2302 70.2095 45.9398C70.3151 45.6428 70.4141 45.2534 70.4933 44.7781L71.5494 38.8772H70.5065C70.3811 38.8772 70.3415 38.8178 70.3547 38.7254L70.5329 37.742C70.5593 37.5967 70.6913 37.6033 70.6913 37.6033H71.7606L71.82 37.2865C71.985 36.3426 72.3019 35.6232 72.7705 35.1479C73.2457 34.6727 73.919 34.4285 74.7705 34.4285ZM53.4177 34.5737H54.6718C54.751 34.5737 54.8105 34.6397 54.8105 34.7189V44.7847C54.8105 44.8639 54.751 44.9299 54.6718 44.9299H53.4177C53.3385 44.9299 53.2857 44.8639 53.2857 44.7847V34.7189C53.2857 34.6397 53.3385 34.5737 53.4177 34.5737ZM91.3378 37.4449C91.7272 37.4449 92.0771 37.4713 92.3807 37.5175C92.7041 37.5637 93.1331 37.6759 93.3114 37.7486C93.3444 37.7618 93.4368 37.808 93.3972 37.9136C93.2652 38.2832 93.1727 38.5274 93.0539 38.864C93.0011 39.0093 92.8889 38.9631 92.8889 38.9631C92.4335 38.8178 91.9913 38.7518 91.417 38.7518C90.7306 38.7518 90.2091 38.9829 89.8725 39.4317C89.5293 39.8805 89.3378 40.4746 89.3378 41.2666C89.3378 42.1379 89.5557 42.7782 89.9385 43.1742C90.3279 43.5702 90.8626 43.7682 91.5358 43.7682C91.813 43.7682 92.0705 43.7484 92.3015 43.7154C92.5325 43.6824 92.7437 43.6098 92.9483 43.5306C92.9483 43.5306 93.0803 43.4778 93.1265 43.6164L93.4764 44.5537C93.516 44.6725 93.417 44.7187 93.417 44.7187C92.8889 44.9233 92.1563 45.0685 91.4434 45.0685C90.2355 45.0685 89.3048 44.7187 88.691 44.0323C88.0705 43.3524 87.7603 42.4151 87.7603 41.26C87.7603 40.7254 87.8329 40.2238 87.9847 39.7617C88.1365 39.2997 88.3676 38.897 88.6646 38.5538C88.9616 38.2106 89.3444 37.94 89.7867 37.742C90.2289 37.5439 90.7504 37.4449 91.3378 37.4449ZM41.946 37.4515H42.111C43.0087 37.4515 43.8734 37.709 44.5004 38.0918C44.5532 38.1248 44.6126 38.1908 44.5796 38.2766C44.5532 38.3558 44.276 39.1017 44.243 39.1875C44.1836 39.3459 44.0252 39.2403 44.0252 39.2403C43.4773 38.9367 42.6259 38.699 41.9064 38.699C41.2596 38.699 40.8437 39.0423 40.8437 39.5109V39.5373C40.8437 40.0785 41.5632 40.3096 42.3882 40.5802L42.5335 40.6264C43.6357 40.9696 44.804 41.4515 44.804 42.7716V42.798C44.804 44.2237 43.7678 45.1148 42.0978 45.1148C41.2728 45.1148 40.4939 44.9893 39.6622 44.5471C39.5104 44.4547 39.352 44.3755 39.2002 44.2633C39.187 44.2369 39.1144 44.2105 39.1672 44.0785L39.484 43.1742C39.5368 43.0224 39.6556 43.0686 39.7018 43.1016C39.7942 43.1544 39.8602 43.2072 39.9791 43.2732C40.9493 43.8871 41.847 43.8937 42.1308 43.8937C42.8569 43.8937 43.3057 43.5042 43.3057 42.9894V42.963C43.3057 42.4019 42.6127 42.1841 41.8074 41.9399L41.6292 41.8871C40.5269 41.5703 39.352 41.1148 39.352 39.7221V39.6957C39.352 38.3756 40.4213 37.4515 41.946 37.4515ZM48.8304 37.4515C49.7742 37.4515 50.5003 37.6693 50.9953 38.105C51.497 38.534 51.7478 39.2403 51.7478 40.1842V44.5009C51.7478 44.5009 51.761 44.6263 51.6422 44.6527C51.6422 44.6527 51.4706 44.6989 51.3122 44.7385C51.1538 44.7781 50.5861 44.8903 50.1241 44.9695C49.6554 45.0487 49.1736 45.0883 48.6918 45.0883C48.2725 45.0935 47.8541 45.0514 47.4443 44.9629C47.068 44.8771 46.7446 44.7385 46.4806 44.5471C46.2166 44.3557 46.0119 44.1049 45.8667 43.8078C45.7215 43.5108 45.6489 43.1478 45.6489 42.732C45.6489 42.3227 45.7347 41.9531 45.8997 41.6429C46.0713 41.3326 46.3024 41.0686 46.5862 40.864C46.87 40.6594 47.2 40.5076 47.5697 40.4086C47.9393 40.3096 48.3287 40.2568 48.7314 40.2568C49.0284 40.2568 49.2792 40.2634 49.4706 40.2766C49.4706 40.2766 49.8402 40.3096 50.2561 40.3624V40.1643C50.2561 39.5373 50.1241 39.2403 49.8667 39.0423C49.6026 38.8376 49.2066 38.7386 48.6984 38.7386C48.6984 38.7386 47.5565 38.7254 46.6456 39.2205C46.5994 39.2469 46.5664 39.2601 46.5664 39.2601C46.5664 39.2601 46.4542 39.2997 46.4146 39.1809L46.0779 38.2832C46.0251 38.1578 46.1175 38.0984 46.1175 38.0984C46.54 37.7684 47.5697 37.5703 47.5697 37.5703C47.9063 37.4977 48.4739 37.4515 48.8304 37.4515ZM66.3878 37.4515H66.5528C67.4505 37.4515 68.3151 37.709 68.9422 38.0918C68.995 38.1248 69.0544 38.1908 69.0214 38.2766C68.995 38.3558 68.7178 39.1017 68.6848 39.1875C68.6254 39.3459 68.467 39.2403 68.467 39.2403C67.9191 38.9367 67.0676 38.699 66.3482 38.699C65.7013 38.699 65.2855 39.0423 65.2855 39.5109V39.5373C65.2855 40.0785 66.005 40.3096 66.83 40.5802L66.9752 40.6264C68.0775 40.9696 69.2458 41.4515 69.2458 42.7716V42.798C69.2458 44.2237 68.2095 45.1148 66.5396 45.1148C65.7145 45.1148 64.9357 44.9893 64.104 44.5471C63.9522 44.4547 63.7938 44.3755 63.642 44.2633C63.6288 44.2369 63.5562 44.2105 63.609 44.0785L63.9258 43.1742C63.972 43.029 64.1106 43.0818 64.1436 43.1016C64.236 43.1544 64.302 43.2072 64.4208 43.2732C65.3911 43.8871 66.2888 43.8937 66.5726 43.8937C67.2987 43.8937 67.7475 43.5042 67.7475 42.9894V42.963C67.7475 42.4019 67.0544 42.1841 66.2492 41.9399L66.071 41.8871C64.9687 41.5703 63.7938 41.1148 63.7938 39.7221V39.6957C63.7938 38.3756 64.8631 37.4515 66.3878 37.4515ZM59.6288 37.4647C60.1371 37.4647 60.5991 37.5703 60.982 37.7354C61.279 37.8608 61.576 38.0852 61.8796 38.4152C62.071 38.6198 62.3615 39.0687 62.4803 39.5175C62.7839 40.5802 62.6255 41.4977 62.6255 41.5637C62.6123 41.6891 62.4869 41.6891 62.4869 41.6891L57.7675 41.6825C57.7939 42.4019 57.9655 42.9102 58.3153 43.2534C58.652 43.59 59.1932 43.8078 59.9259 43.8078C61.0414 43.8078 61.5232 43.5834 61.8598 43.458C61.8598 43.458 61.9918 43.4118 62.038 43.5372L62.3483 44.4019C62.4077 44.5471 62.3615 44.5999 62.3087 44.6263C62.0116 44.7847 61.2922 45.0883 59.9325 45.0949C59.2724 45.0949 58.6982 45.0025 58.2229 44.8177C57.7411 44.6329 57.3451 44.3689 57.0348 44.0323C56.7197 43.6877 56.4852 43.2774 56.3484 42.831C56.2045 42.3424 56.1333 41.8353 56.1372 41.326C56.1372 40.7914 56.2032 40.2832 56.3418 39.8211C56.4804 39.3591 56.6982 38.9433 56.982 38.6C57.2725 38.2502 57.6355 37.973 58.0711 37.7684C58.5068 37.5637 59.0414 37.4647 59.6288 37.4647ZM78.4866 37.4647C79.0476 37.4647 79.5559 37.5637 79.9783 37.7618C80.4073 37.9598 80.7638 38.2304 81.0476 38.5736C81.3314 38.9102 81.5426 39.3195 81.6812 39.7815C81.8198 40.237 81.8858 40.7452 81.8858 41.2798C81.8858 41.8145 81.8198 42.3161 81.6812 42.7782C81.5426 43.2402 81.3314 43.6494 81.0476 43.9861C80.7638 44.3227 80.4007 44.5999 79.9783 44.7913C79.5559 44.9827 79.0542 45.0818 78.4866 45.0818C77.9255 45.0818 77.4239 44.9827 76.9948 44.7913C76.5815 44.6083 76.2156 44.3328 75.9256 43.9861C75.6417 43.6494 75.4305 43.2402 75.2919 42.7782C75.1512 42.2913 75.0823 41.7866 75.0873 41.2798C75.0873 40.7452 75.1533 40.2436 75.2919 39.7815C75.4305 39.3195 75.6417 38.9168 75.9256 38.5736C76.2094 38.237 76.5658 37.9598 76.9948 37.7618C77.4173 37.5637 77.9189 37.4647 78.4866 37.4647ZM97.3971 37.4647C97.9053 37.4647 98.3674 37.5703 98.7502 37.7354C99.0472 37.8608 99.3443 38.0852 99.6479 38.4152C99.8459 38.6198 100.136 39.0687 100.255 39.5175C100.559 40.5802 100.4 41.4977 100.394 41.5637C100.381 41.6891 100.255 41.6891 100.255 41.6891L95.5357 41.6825C95.5621 42.4019 95.7338 42.9102 96.0836 43.2534C96.4202 43.59 96.9615 43.8078 97.6941 43.8078C98.8096 43.8078 99.2914 43.5834 99.6281 43.458C99.6281 43.458 99.7601 43.4118 99.8063 43.5372L100.117 44.4019C100.176 44.5471 100.13 44.5999 100.077 44.6263C99.7799 44.7847 99.0604 45.0883 97.7007 45.0949C97.0407 45.0949 96.4664 45.0025 95.9912 44.8177C95.5093 44.6329 95.1133 44.3689 94.8031 44.0323C94.4929 43.6956 94.2618 43.293 94.1166 42.831C93.9727 42.3424 93.9016 41.8353 93.9054 41.326C93.9054 40.7914 93.9714 40.2832 94.11 39.8211C94.2486 39.3591 94.4665 38.9433 94.7503 38.6C95.0407 38.2502 95.4037 37.973 95.8394 37.7684C96.275 37.5637 96.8096 37.4647 97.3971 37.4647ZM86.2521 37.5354C86.3709 37.5288 86.5029 37.5288 86.6514 37.5367C86.9617 37.5565 87.3643 37.6429 87.4435 37.676C87.4765 37.6892 87.5491 37.742 87.5161 37.8476C87.4699 37.973 87.2389 38.6198 87.1663 38.831C87.1333 38.9102 87.0871 38.9697 86.9947 38.9565C86.9947 38.9565 86.7174 38.8904 86.4732 38.8904C86.3016 38.8904 86.0574 38.9169 85.8396 38.9829C85.6283 39.0489 85.4303 39.1677 85.2587 39.3327C85.0871 39.4977 84.9419 39.7353 84.8429 40.0257C84.7373 40.3228 84.6845 40.798 84.6845 41.2666V44.7847C84.6845 44.8639 84.6185 44.9299 84.5393 44.9299H83.2984C83.2191 44.9299 83.1531 44.8639 83.1531 44.7847V37.7486C83.1531 37.6693 83.2126 37.6033 83.2918 37.6033H84.4996C84.5789 37.6033 84.6383 37.6693 84.6383 37.7486V38.3228C84.8231 38.0786 85.1465 37.8674 85.4369 37.7354C85.6547 37.6363 85.895 37.5558 86.2521 37.5354ZM59.5166 38.6997C58.8962 38.6997 58.4599 38.9433 58.1695 39.3855C57.978 39.6759 57.8526 40.0521 57.7866 40.501H61.1463C61.1133 40.0653 61.0275 39.6759 60.8361 39.3855C60.5457 38.9433 60.1364 38.699 59.516 38.699L59.5166 38.6997ZM97.2981 38.6997C96.6776 38.6997 96.2413 38.9433 95.9509 39.3855C95.7595 39.6759 95.6341 40.0521 95.5681 40.501H98.9278C98.8948 40.0653 98.8155 39.6759 98.6175 39.3855C98.3271 38.9433 97.9179 38.699 97.2974 38.699L97.2981 38.6997ZM78.4866 38.738C77.8661 38.738 77.4239 38.9492 77.1335 39.3914C76.8364 39.8403 76.6912 40.4739 76.6912 41.2792C76.6912 42.0844 76.843 42.7254 77.1335 43.1742C77.4239 43.6164 77.8661 43.8343 78.4866 43.8343C79.1004 43.8343 79.5486 43.6164 79.839 43.1742C80.136 42.7254 80.2878 42.0851 80.2878 41.2798C80.2878 40.468 80.136 39.8343 79.8456 39.3921C79.5486 38.9499 79.1064 38.7386 78.4859 38.7386L78.4866 38.738ZM48.969 41.4442C48.0053 41.431 47.5954 41.7887 47.602 41.7887C47.3182 41.9868 47.1796 42.2825 47.1796 42.6983C47.1796 42.9623 47.2258 43.1669 47.3182 43.3121C47.3776 43.4046 47.404 43.4442 47.5888 43.5894C47.5888 43.5894 48.0112 43.9273 48.9749 43.8745C49.6482 43.8283 50.2488 43.7029 50.2488 43.7029V41.5577C50.2488 41.5577 49.6416 41.4508 48.9683 41.4442H48.969Z" fill="white"/>
<defs>
<filter id="filter0_d_248_2382" x="0" y="4.44677" width="137" height="82.5283" filterUnits="userSpaceOnUse" color-interpolation-filters="sRGB">
<feFlood flood-opacity="0" result="BackgroundImageFix"/>
<feColorMatrix in="SourceAlpha" type="matrix" values="0 0 0 0 0 0 0 0 0 0 0 0 0 0 0 0 0 0 127 0" result="hardAlpha"/>
<feOffset dy="4"/>
<feGaussianBlur stdDeviation="2"/>
<feComposite in2="hardAlpha" operator="out"/>
<feColorMatrix type="matrix" values="0 0 0 0 0 0 0 0 0 0 0 0 0 0 0 0 0 0 0.25 0"/>
<feBlend mode="normal" in2="BackgroundImageFix" result="effect1_dropShadow_248_2382"/>
<feBlend mode="normal" in="SourceGraphic" in2="effect1_dropShadow_248_2382" result="shape"/>
</filter>
</defs>
</svg>
