<svg width="182" height="128" viewBox="0 0 182 128" fill="none" xmlns="http://www.w3.org/2000/svg">
<g filter="url(#filter0_d_246_2180)">
<rect x="4" y="26" width="174" height="76" rx="30" fill="#F99C08"/>
</g>
<path d="M27 42.6001H47.2L27 62.5001V42.6001ZM27 85.4001L69.8 42.6001H48.6L27 63.9001V85.4001ZM69.8 85.4001L48.6 65.2001L28.4 85.4001H69.8ZM77 75.2001V52.4001H82.1V62.1001L91.4 52.4001H97.2L87.9 62.1001L97.2 75.2001H91.4L84.6 65.7001L82.1 68.2001V75.2001H77Z" fill="white"/>
<path d="M104.5 57.8C99.4 57.8 95.3 61.7 95.3 66.5C95.3 71.3 99.4 75.2 104.5 75.2C109.6 75.2 113.7 71.3 113.7 66.5C113.7 61.7 109.6 57.8 104.5 57.8ZM104.5 71.4001C101.8 71.4001 99.6 69.2 99.6 66.5C99.6 63.8 101.8 61.6 104.5 61.6C107.2 61.6 109.4 63.8 109.4 66.5C109.4 69.2 107.2 71.4001 104.5 71.4001Z" fill="white"/>
<path d="M114.9 53.4001H120V57.9001H124V62.1001H120V70.3001C120 70.3001 121.5 72.4001 124 70.3001V74.8001C124 74.8001 120 76.8001 116.5 74.8001C116.5 74.8001 114.9 73.2001 114.9 71.3001V62.1001H112.9V57.7001L114.9 57.8001V53.4001ZM125.5 51.4001H130.4V75.1001H125.5V51.4001ZM132.2 51.4001H137.2V55.6001H132.2V51.4001ZM132.2 57.9001H137.2V75.2001H132.2V57.9001ZM138.9 57.9001H144V60.6001C144 60.6001 148.7 53.4001 154.4 60.6001L154.9 62.1001V75.2001H149.9V64.6001C149.9 64.6001 147.1 59.3001 144 64.6001V75.2001H138.9V57.9001Z" fill="white"/>
<defs>
<filter id="filter0_d_246_2180" x="0" y="26" width="182" height="84" filterUnits="userSpaceOnUse" color-interpolation-filters="sRGB">
<feFlood flood-opacity="0" result="BackgroundImageFix"/>
<feColorMatrix in="SourceAlpha" type="matrix" values="0 0 0 0 0 0 0 0 0 0 0 0 0 0 0 0 0 0 127 0" result="hardAlpha"/>
<feOffset dy="4"/>
<feGaussianBlur stdDeviation="2"/>
<feComposite in2="hardAlpha" operator="out"/>
<feColorMatrix type="matrix" values="0 0 0 0 0 0 0 0 0 0 0 0 0 0 0 0 0 0 0.25 0"/>
<feBlend mode="normal" in2="BackgroundImageFix" result="effect1_dropShadow_246_2180"/>
<feBlend mode="normal" in="SourceGraphic" in2="effect1_dropShadow_246_2180" result="shape"/>
</filter>
</defs>
</svg>
