<svg width="207" height="166" viewBox="0 0 207 166" fill="none" xmlns="http://www.w3.org/2000/svg">
<g filter="url(#filter0_d_244_2150)">
<rect x="4" y="49" width="199" height="76" rx="30" fill="#F99C08"/>
</g>
<path d="M169.265 104.721C168.889 104.721 168.516 104.623 168.186 104.431L164.75 102.397C164.236 102.111 164.486 102.008 164.656 101.95C165.341 101.711 165.48 101.655 166.21 101.243C166.286 101.2 166.386 101.216 166.465 101.263L169.104 102.83C169.153 102.857 169.208 102.87 169.264 102.87C169.32 102.87 169.374 102.857 169.423 102.83L179.717 96.8895C179.765 96.8609 179.805 96.8201 179.833 96.7712C179.861 96.7222 179.875 96.6669 179.875 96.6106V84.7313C179.875 84.6742 179.86 84.6181 179.832 84.5683C179.804 84.5186 179.764 84.4769 179.715 84.4472L169.426 78.5114C169.377 78.4847 169.323 78.4706 169.267 78.4706C169.212 78.4706 169.157 78.4847 169.108 78.5114L158.82 84.4485C158.771 84.478 158.731 84.5195 158.703 84.5689C158.674 84.6184 158.659 84.6742 158.658 84.7313V96.6106C158.658 96.7248 158.722 96.8324 158.82 96.8856L161.64 98.5157C163.17 99.2796 164.108 98.3796 164.108 97.4744V85.7441C164.108 85.5794 164.241 85.4484 164.406 85.4484H165.712C165.874 85.4484 166.009 85.5794 166.009 85.7441V97.4744C166.009 99.5156 164.897 100.687 162.961 100.687C162.366 100.687 161.898 100.687 160.59 100.043L157.892 98.4898C157.563 98.2984 157.291 98.0243 157.102 97.6948C156.912 97.3653 156.813 96.992 156.813 96.6119V84.7326C156.813 83.9609 157.224 83.2411 157.892 82.8573L168.185 76.9085C168.517 76.7279 168.888 76.6333 169.266 76.6333C169.644 76.6333 170.015 76.7279 170.347 76.9085L180.64 82.8573C181.307 83.2424 181.72 83.9622 181.72 84.7326V96.6119C181.72 96.992 181.62 97.3652 181.43 97.6947C181.241 98.0241 180.968 98.2982 180.64 98.4898L170.347 104.432C170.018 104.623 169.645 104.723 169.265 104.721ZM172.446 96.5367C167.94 96.5367 166.997 94.4682 166.997 92.7343C166.997 92.6554 167.029 92.5798 167.085 92.5242C167.141 92.4685 167.216 92.4373 167.295 92.4373H168.626C168.697 92.437 168.766 92.4622 168.82 92.5084C168.874 92.5545 168.91 92.6186 168.922 92.6889C169.121 94.0441 169.722 94.7276 172.446 94.7276C174.614 94.7276 175.537 94.2374 175.537 93.0857C175.537 92.4217 175.275 91.9302 171.906 91.5995C169.089 91.3207 167.347 90.6995 167.347 88.4442C167.347 86.3679 169.098 85.1281 172.031 85.1281C175.329 85.1281 176.961 86.2732 177.167 88.7295C177.17 88.7709 177.165 88.8124 177.152 88.8517C177.138 88.8909 177.117 88.927 177.089 88.9578C177.061 88.9873 177.027 89.0108 176.99 89.0271C176.952 89.0434 176.912 89.052 176.871 89.0524H175.534C175.467 89.0525 175.401 89.0296 175.349 88.9873C175.296 88.9451 175.26 88.8862 175.245 88.8203C174.923 87.3937 174.145 86.9385 172.03 86.9385C169.663 86.9385 169.388 87.7646 169.388 88.3807C169.388 89.129 169.713 89.3468 172.909 89.7696C176.073 90.1885 177.576 90.7799 177.576 93.004C177.577 95.2515 175.707 96.5367 172.446 96.5367Z" fill="white"/>
<path d="M148.07 88.7452C148.476 88.5079 148.727 88.0748 148.727 87.604V84.5511C148.727 84.0817 148.478 83.6485 148.07 83.4112L137.223 77.1136C137.023 76.9969 136.795 76.9353 136.563 76.9348C136.331 76.9344 136.103 76.9951 135.902 77.111L124.987 83.4125C124.787 83.5283 124.621 83.6947 124.505 83.895C124.39 84.0953 124.329 84.3225 124.328 84.5537V97.1542C124.328 97.6275 124.583 98.0659 124.995 98.3006L135.841 104.48C136.24 104.71 136.731 104.711 137.134 104.488L143.693 100.841C143.796 100.785 143.881 100.702 143.94 100.601C144 100.501 144.032 100.386 144.033 100.27C144.033 100.153 144.003 100.038 143.945 99.9367C143.887 99.8354 143.803 99.7515 143.701 99.6935L132.719 93.3906C132.619 93.3332 132.535 93.2502 132.476 93.15C132.418 93.0498 132.387 92.936 132.387 92.82V88.8697C132.387 88.6337 132.513 88.4171 132.717 88.3004L136.137 86.3292C136.236 86.2712 136.35 86.2407 136.465 86.2407C136.581 86.2407 136.694 86.2712 136.794 86.3292L140.214 88.3004C140.314 88.3579 140.398 88.4407 140.456 88.5407C140.514 88.6407 140.544 88.7541 140.545 88.8697V91.977C140.544 92.0932 140.574 92.2075 140.632 92.3083C140.69 92.4091 140.773 92.4927 140.874 92.5507C140.975 92.6087 141.089 92.6389 141.205 92.6384C141.321 92.6379 141.435 92.6066 141.535 92.5477L148.07 88.7452Z" fill="white"/>
<path d="M136.401 88.1538C136.44 88.1322 136.483 88.1208 136.528 88.1208C136.572 88.1208 136.615 88.1322 136.654 88.1538L138.748 89.3637C138.826 89.4091 138.874 89.4934 138.874 89.5829V92.0016C138.874 92.0924 138.826 92.1754 138.748 92.2208L136.654 93.4294C136.616 93.4518 136.572 93.4635 136.528 93.4635C136.483 93.4635 136.44 93.4518 136.401 93.4294L134.308 92.2208C134.269 92.1987 134.237 92.1668 134.215 92.1283C134.193 92.0898 134.181 92.0461 134.181 92.0016V89.5829C134.181 89.4934 134.229 89.4091 134.308 89.3637L136.401 88.1538Z" fill="white"/>
<path d="M107.998 93.1857C107.998 93.3024 107.936 93.4114 107.834 93.471L104.086 95.6316C104.036 95.6609 103.979 95.6764 103.921 95.6764C103.863 95.6764 103.806 95.6609 103.756 95.6316L100.008 93.471C99.9583 93.442 99.9168 93.4004 99.8879 93.3504C99.859 93.3003 99.8437 93.2435 99.8436 93.1857V88.8568C99.8436 88.74 99.9071 88.6298 100.008 88.5702L103.756 86.407C103.806 86.377 103.863 86.3612 103.922 86.3612C103.98 86.3612 104.037 86.377 104.087 86.407L107.836 88.5702C107.886 88.5997 107.927 88.6417 107.956 88.6919C107.984 88.7422 107.999 88.7989 108 88.8568V93.1857H107.998ZM109.011 61.1322C108.911 61.0773 108.798 61.0493 108.683 61.0511C108.569 61.0529 108.457 61.0843 108.358 61.1423C108.259 61.2003 108.177 61.2829 108.12 61.382C108.062 61.4812 108.032 61.5935 108.031 61.708V78.4571C108.03 78.5379 108.009 78.6172 107.969 78.6872C107.929 78.7573 107.871 78.8156 107.801 78.8566C107.731 78.8967 107.651 78.9178 107.57 78.9178C107.489 78.9178 107.41 78.8967 107.339 78.8566L104.606 77.2809C104.405 77.1656 104.179 77.1049 103.948 77.1049C103.717 77.1049 103.49 77.1656 103.289 77.2809L92.3723 83.5811C92.1717 83.6969 92.0051 83.8634 91.8892 84.064C91.7734 84.2645 91.7123 84.492 91.7122 84.7236V97.3279C91.7122 97.7987 91.9638 98.2332 92.371 98.4705L103.288 104.775C103.695 105.011 104.198 105.011 104.607 104.775L115.527 98.4705C115.727 98.3543 115.893 98.1877 116.009 97.9872C116.124 97.7867 116.185 97.5594 116.185 97.3279V65.9086C116.185 65.4313 115.926 64.9904 115.51 64.7569L109.011 61.1322Z" fill="white"/>
<path d="M70.59 77.0434C70.7902 76.9275 71.0174 76.8665 71.2488 76.8665C71.4801 76.8665 71.7074 76.9275 71.9076 77.0434L82.8247 83.3423C83.2319 83.5783 83.4835 84.0141 83.4835 84.4848V97.0931C83.4835 97.5638 83.2319 97.9996 82.8247 98.2356L71.9089 104.54C71.7083 104.655 71.4809 104.716 71.2494 104.716C71.018 104.716 70.7906 104.655 70.59 104.54L59.6768 98.2356C59.4766 98.1194 59.3104 97.9528 59.1948 97.7523C59.0792 97.5518 59.0182 97.3245 59.0179 97.0931V84.4836C59.0179 84.0141 59.2695 83.5783 59.6768 83.3423L70.59 77.0434Z" fill="white"/>
<path d="M50.7374 84.3799C50.7374 83.9052 50.4884 83.4695 50.0786 83.2347L39.1654 76.954C38.9821 76.8477 38.7753 76.7885 38.5636 76.7815H38.4508C38.2391 76.7886 38.0324 76.8479 37.849 76.954L26.9345 83.2347C26.7337 83.351 26.5671 83.518 26.4512 83.719C26.3353 83.9199 26.2744 84.1479 26.2744 84.3799L26.2978 101.291C26.2978 101.527 26.421 101.746 26.6272 101.86C26.7259 101.92 26.8392 101.952 26.9546 101.952C27.0701 101.952 27.1834 101.92 27.2821 101.86L33.7665 98.1462C34.1763 97.9024 34.4266 97.4731 34.4266 97.0024V89.1018C34.4266 88.6297 34.6756 88.1953 35.0841 87.9593L37.8464 86.3693C38.0461 86.252 38.2737 86.1906 38.5052 86.1916C38.7309 86.1916 38.9617 86.2487 39.1628 86.3693L41.9225 87.9593C42.331 88.1953 42.5826 88.6297 42.5826 89.1018V97.0024C42.5826 97.4731 42.8355 97.905 43.2427 98.1462L49.7271 101.86C49.8271 101.918 49.9403 101.948 50.0555 101.947C50.1706 101.947 50.2837 101.917 50.3834 101.859C50.4832 101.801 50.566 101.719 50.6238 101.619C50.6816 101.519 50.7123 101.406 50.7127 101.291L50.7374 84.3799Z" fill="white"/>
<defs>
<filter id="filter0_d_244_2150" x="0" y="49" width="207" height="84" filterUnits="userSpaceOnUse" color-interpolation-filters="sRGB">
<feFlood flood-opacity="0" result="BackgroundImageFix"/>
<feColorMatrix in="SourceAlpha" type="matrix" values="0 0 0 0 0 0 0 0 0 0 0 0 0 0 0 0 0 0 127 0" result="hardAlpha"/>
<feOffset dy="4"/>
<feGaussianBlur stdDeviation="2"/>
<feComposite in2="hardAlpha" operator="out"/>
<feColorMatrix type="matrix" values="0 0 0 0 0 0 0 0 0 0 0 0 0 0 0 0 0 0 0.25 0"/>
<feBlend mode="normal" in2="BackgroundImageFix" result="effect1_dropShadow_244_2150"/>
<feBlend mode="normal" in="SourceGraphic" in2="effect1_dropShadow_244_2150" result="shape"/>
</filter>
</defs>
</svg>
