<svg width="147" height="128" viewBox="0 0 147 128" fill="none" xmlns="http://www.w3.org/2000/svg">
<g filter="url(#filter0_d_246_2196)">
<rect x="4" y="16" width="139" height="103" rx="30" fill="#F99C08"/>
</g>
<path d="M132 72.2999H126.7V69.5999H137.2V63.6999H127.2C124.6 63.6999 121.1 65.7999 121.1 69.7999V71.7999C121.1 75.7999 124.5 77.7999 127.2 77.7999H132.2V80.5999L121.4 80.6999V86.5999H132C134.2 86.5999 137.9 84.9999 138 80.5999V78.2999C138 74.4999 134.9 72.2999 132 72.2999ZM70.4 71.3999C70.4 64.0999 63.5 63.3999 63.5 63.3999H51.2V86.4999H57.4V80.9999L62.7999 86.5999H72L64.7 79.1999C64.7 79.1999 70.4 78.6999 70.4 71.3999ZM62.2999 74.4999H57.2999V69.1999H62.2999C62.2999 69.1999 63.7 69.6999 63.7 71.7999C63.7 73.9999 62.2999 74.4999 62.2999 74.4999ZM85.6999 63.5999H79.4C74.9 63.5999 73.4 67.6999 73.4 69.5999V86.4999H79.6999V82.4999H85.5999V86.4999H91.6999V69.5999C91.6999 64.6999 87.2999 63.5999 85.6999 63.5999ZM85.5999 75.8999H79.5999V70.2999C79.5999 70.2999 79.5999 68.9999 81.5999 68.9999H83.8C85.5 68.9999 85.5999 70.2999 85.5999 70.2999V75.8999ZM94.5999 63.5999H101.2V86.4999H94.5999V63.5999ZM110.4 63.5999H103.9V86.4999H119.2V80.5999H110.4V63.5999Z" fill="white"/>
<path d="M82.2 60.6999C82.7999 60.1999 83.3 59.7999 83.3 59.7999C83.3 59.7999 66.5 42.9999 47.7 44.8999C38.3 45.6999 26.7 54.2999 19.9 65.5999C13.1 76.8999 12.2 86.4999 12.2 86.4999H37.7999C37.7999 86.4999 32.8999 64.1999 49.0999 55.1999C52.5999 53.4999 63.9 47.0999 82.2 60.6999ZM65.5 44.4999C65.2 44.2999 64.4 43.8999 62.4 43.3999L62.2999 45.4999C63.3999 45.8999 64.4 46.2999 65.4 46.6999L65.5 44.4999Z" fill="white"/>
<path d="M65.5 55.9L65.6 53.9C64.5 53.7 63.4 53.6 62.4 53.5L62.3 55.5C63.4 55.5 64.4 55.7 65.5 55.9ZM50.4 43.5H50.7L50.1 41.5C49.1 41.5 48.1 41.6 47 41.7L47.6 43.6C48.5 43.5 49.4 43.5 50.4 43.5ZM52.6 57.6C53.5 57.1 54.5 56.8 55.4 56.5L54.7 54.4C53.7 54.6 52.7 55 51.9 55.4L52.6 57.6ZM37.2 46.9L35.7 44.7C35 45 34.1 45.5 33.3 46L34.8 48.3C35.6 47.8 36.4 47.3 37.2 46.9ZM43.9 61.4L45.5 63.7C46.1 62.9 46.7 62.1 47.4 61.4L45.9 59.2C45.1 59.9 44.5 60.7 43.9 61.4ZM40.2 68.3C39.7 69.5 39.4 70.7 39.2 71.8L41.8 73.9C41.9 72.6 42.2 71.4 42.5 70.1L40.2 68.3ZM25 56.5L22.7 54.5C21.9 55.3 21 56.1 20.3 56.9L22.8 59C23.5 58.1 24.2 57.3 25 56.5ZM15.2 70.9L11.5 69.5C10.9 70.9 10.2 72.5 9.90002 73.4L13.6 74.8C14 73.7 14.7 72.1 15.2 70.9ZM38.7 80C38.8 81.7 38.9 83.1 39.1 84.1L43 85.5C42.7 84.2 42.4 82.8 42.2 81.3L38.7 80Z" fill="white"/>
<defs>
<filter id="filter0_d_246_2196" x="0" y="16" width="147" height="111" filterUnits="userSpaceOnUse" color-interpolation-filters="sRGB">
<feFlood flood-opacity="0" result="BackgroundImageFix"/>
<feColorMatrix in="SourceAlpha" type="matrix" values="0 0 0 0 0 0 0 0 0 0 0 0 0 0 0 0 0 0 127 0" result="hardAlpha"/>
<feOffset dy="4"/>
<feGaussianBlur stdDeviation="2"/>
<feComposite in2="hardAlpha" operator="out"/>
<feColorMatrix type="matrix" values="0 0 0 0 0 0 0 0 0 0 0 0 0 0 0 0 0 0 0.25 0"/>
<feBlend mode="normal" in2="BackgroundImageFix" result="effect1_dropShadow_246_2196"/>
<feBlend mode="normal" in="SourceGraphic" in2="effect1_dropShadow_246_2196" result="shape"/>
</filter>
</defs>
</svg>
