<svg width="126" height="93" viewBox="0 0 126 93" fill="none" xmlns="http://www.w3.org/2000/svg">
<g filter="url(#filter0_d_244_2162)">
<rect x="4" width="118" height="84.9024" rx="30" fill="#F99C08"/>
</g>
<path d="M33.0278 11.9956V72.4234H93.4556V11.9956H33.0278ZM64.9912 63.4864C64.0993 65.2987 62.3967 66.4894 60.4239 67.0642C57.3923 67.7603 54.4927 67.3634 52.3357 66.0688C50.8922 65.1832 49.7649 63.8199 48.9996 62.2493L53.6018 59.4309C53.6419 59.4478 53.7628 59.6664 53.9242 59.9487C54.5111 60.932 55.0173 61.6281 56.0121 62.1168C56.9896 62.4504 59.1355 62.6636 59.9641 60.9436C60.4703 60.0686 60.3093 57.256 60.3093 54.1442C60.3088 49.2544 60.3315 44.3849 60.3315 39.5507H65.9919C65.9919 44.8683 66.0209 49.9046 65.9919 55.0937C66.004 58.2746 66.28 61.1103 64.9912 63.4864ZM88.473 61.8872C86.5055 68.6174 75.5356 68.8359 71.152 64.3894C70.2257 63.3428 69.6451 62.796 69.0926 61.588C71.4222 60.2479 71.4222 60.2479 73.689 58.9364C74.9202 60.829 76.0587 61.8698 78.107 62.2957C80.8857 62.6351 83.6813 61.6803 83.0543 58.729C82.4099 56.3187 77.3644 55.7323 73.9307 53.1547C70.4447 50.8134 69.6277 45.1245 72.4925 41.874C73.4473 40.6717 75.0754 39.7745 76.7838 39.3433L78.5667 39.1127C81.9898 39.0436 84.1294 39.9476 85.7001 41.7014C86.1371 42.1442 86.4938 42.6219 87.161 43.6569C85.3375 44.819 85.3433 44.8079 82.7314 46.4989C82.1735 45.2971 81.2477 44.543 80.2693 44.2152C78.7504 43.755 76.8351 44.2553 76.4377 45.8603C76.2999 46.3548 76.3284 46.8151 76.5474 47.632C77.1628 49.0354 79.228 49.6455 81.0805 50.4968C86.4131 52.6596 88.2139 54.9786 88.6567 57.739C89.0831 60.1155 88.5537 61.6571 88.473 61.8872Z" fill="white"/>
<defs>
<filter id="filter0_d_244_2162" x="0" y="0" width="126" height="92.9023" filterUnits="userSpaceOnUse" color-interpolation-filters="sRGB">
<feFlood flood-opacity="0" result="BackgroundImageFix"/>
<feColorMatrix in="SourceAlpha" type="matrix" values="0 0 0 0 0 0 0 0 0 0 0 0 0 0 0 0 0 0 127 0" result="hardAlpha"/>
<feOffset dy="4"/>
<feGaussianBlur stdDeviation="2"/>
<feComposite in2="hardAlpha" operator="out"/>
<feColorMatrix type="matrix" values="0 0 0 0 0 0 0 0 0 0 0 0 0 0 0 0 0 0 0.25 0"/>
<feBlend mode="normal" in2="BackgroundImageFix" result="effect1_dropShadow_244_2162"/>
<feBlend mode="normal" in="SourceGraphic" in2="effect1_dropShadow_244_2162" result="shape"/>
</filter>
</defs>
</svg>
