<svg width="66" height="69" viewBox="0 0 66 69" fill="none" xmlns="http://www.w3.org/2000/svg">
<path d="M48.435 66.2661V45.6313C48.4288 45.6385 48.4224 45.6458 48.4162 45.6531C47.6911 46.5088 46.9817 47.4166 46.3251 48.2525C45.7112 49.0341 45.0645 49.8557 44.563 50.3717C43.6409 51.3196 42.1243 51.3402 41.1759 50.4185C40.228 49.4964 40.2074 47.9799 41.1292 47.0316C41.4125 46.7399 41.8772 46.159 42.5576 45.2929C43.1956 44.4806 43.966 43.4944 44.761 42.5562C45.5473 41.6283 46.4277 40.664 47.3075 39.9147C47.7483 39.5393 48.2451 39.1684 48.7796 38.8824C49.2951 38.6066 50.0055 38.3226 50.8302 38.3226C51.6549 38.3226 52.3653 38.6066 52.8808 38.8824C53.4153 39.1684 53.9121 39.5393 54.3529 39.9147C55.2327 40.664 56.1131 41.6283 56.8994 42.5562C57.6944 43.4944 58.4648 44.4806 59.1028 45.2929C59.7832 46.159 60.2479 46.7399 60.5313 47.0316C61.453 47.9799 61.4324 49.4964 60.4845 50.4185C59.5361 51.3402 58.0195 51.3196 57.0974 50.3717C56.5959 49.8557 55.9492 49.0341 55.3353 48.2525C54.6787 47.4166 53.9693 46.5088 53.2442 45.6531C53.238 45.6458 53.2316 45.6385 53.2254 45.6313V66.2661C53.2254 67.5889 52.1531 68.6613 50.8302 68.6613C49.5073 68.6613 48.435 67.5889 48.435 66.2661Z" fill="#F99C08"/>
<path d="M11.71 8.78226V2.39516C11.71 1.07235 12.7823 0 14.1051 0C15.4279 0 16.5003 1.07235 16.5003 2.39516V8.78226C16.5003 10.1051 15.4279 11.1774 14.1051 11.1774C12.7823 11.1774 11.71 10.1051 11.71 8.78226ZM50.0325 8.78226V2.39516C50.0325 1.07235 51.1049 0 52.4277 0C53.7505 0 54.8229 1.07235 54.8229 2.39516V8.78226C54.8229 10.1051 53.7505 11.1774 52.4277 11.1774C51.1049 11.1774 50.0325 10.1051 50.0325 8.78226Z" fill="#F99C08"/>
<path d="M1.54447e-06 36.7476V35.1072C1.43701e-06 28.2126 -0.00479953 22.8185 0.521927 18.6171C1.05509 14.3646 2.1692 10.9705 4.67375 8.28482C7.203 5.57283 10.4411 4.34373 14.4929 3.75959C18.4546 3.18847 23.5274 3.19354 29.9416 3.19354H36.06C42.4741 3.19354 47.547 3.18847 51.5087 3.75959C55.5604 4.34373 58.7986 5.57283 61.3278 8.28482C63.6851 10.8126 64.8103 13.9679 65.379 17.8764C65.9399 21.7309 65.9935 26.5994 66 32.7307C66.0014 34.0536 64.9221 35.1276 63.5885 35.129C62.2551 35.1303 61.1723 34.0595 61.1706 32.737C61.1641 26.5214 61.1022 22.013 60.6 18.5609C60.1055 15.1627 59.2208 13.0796 57.7828 11.5376C56.281 9.92729 54.2589 8.99657 50.8154 8.50001C47.2813 7.99049 42.6216 7.98387 36.06 7.98387H29.9416C23.38 7.98387 18.7202 7.99049 15.1861 8.50001C11.7427 8.99657 9.7206 9.92729 8.21876 11.5376C6.692 13.1748 5.78982 15.4222 5.31515 19.2081C4.83411 23.0449 4.82939 28.087 4.82939 35.1072V36.7476C4.82939 43.7679 4.83411 48.8099 5.31515 52.6468C5.78982 56.4326 6.692 58.68 8.21876 60.3172C9.7206 61.9275 11.7427 62.8583 15.1861 63.3548C18.7202 63.8643 23.38 63.871 29.9416 63.871H34.6106C35.9442 63.871 37.0253 64.9433 37.0253 66.2661C37.0253 67.5889 35.9442 68.6613 34.6106 68.6613H29.9416C23.5274 68.6613 18.4546 68.6663 14.4929 68.0952C10.4411 67.5111 7.203 66.282 4.67375 63.57C2.1692 60.8843 1.05509 57.4902 0.521927 53.2378C-0.00479953 49.0364 1.43702e-06 43.6422 1.54447e-06 36.7476Z" fill="#F99C08"/>
<path d="M62.0079 19.1613C63.3308 19.1613 64.4031 20.2337 64.4031 21.5565C64.4031 22.8793 63.3308 23.9516 62.0079 23.9516H4.52407C3.20126 23.9516 2.12891 22.8793 2.12891 21.5565C2.12891 20.2337 3.20126 19.1613 4.52407 19.1613H62.0079Z" fill="#F99C08"/>
</svg>
