<svg width="94" height="86" viewBox="0 0 94 86" fill="none" xmlns="http://www.w3.org/2000/svg">
<path d="M15.482 54.3506C29.3599 46.1775 46.9388 46.1775 60.8167 54.3506C63.2032 55.756 68.7671 58.5292 72.3228 61.9715C74.1343 63.7251 75.9202 66.0952 76.2462 69.0449C76.5951 72.2052 75.1884 75.1223 72.5017 77.654C67.9239 81.9673 62.3965 85.4543 55.2372 85.4545H21.0615C13.9022 85.4543 8.37481 81.9673 3.79703 77.654C1.1103 75.1223 -0.296427 72.2052 0.0524822 69.0449C0.378472 66.0952 2.16443 63.7251 3.97585 61.9715C7.5316 58.5292 13.0955 55.756 15.482 54.3506ZM57.5107 60.0187C45.6749 53.0483 30.6238 53.0483 18.788 60.0187C15.6919 61.842 11.3279 63.9794 8.51443 66.7028C7.14111 68.0323 6.63204 69.0621 6.55381 69.7699C6.49907 70.267 6.57968 71.2683 8.26962 72.8607C12.2453 76.6068 16.2444 78.8835 21.0615 78.8838H55.2372C60.0543 78.8835 64.0534 76.6068 68.0291 72.8607C69.719 71.2683 69.7996 70.267 69.7449 69.7699C69.6667 69.0621 69.1576 68.0323 67.7843 66.7028C64.9708 63.9794 60.6068 61.842 57.5107 60.0187Z" fill="#29D9C3"/>
<path d="M52.654 20.7532C52.654 12.911 46.2966 6.55366 38.4544 6.55366C30.6122 6.55366 24.2548 12.911 24.2548 20.7532C24.2548 28.5955 30.6122 34.9528 38.4544 34.9528C46.2966 34.9528 52.654 28.5955 52.654 20.7532ZM59.2077 20.7532C59.2077 32.2149 49.9161 41.5065 38.4544 41.5065C26.9927 41.5065 17.7012 32.2149 17.7012 20.7532C17.7012 9.29154 26.9927 0 38.4544 0C49.9161 0 59.2077 9.29154 59.2077 20.7532Z" fill="#29D9C3"/>
<path d="M89.3102 0.352186C90.9105 -0.470135 92.857 0.196661 93.6571 1.8413C94.4573 3.48595 93.8084 5.48633 92.2081 6.30866C88.6236 8.15061 85.2237 12.0297 82.5969 15.8091C81.3208 17.6453 80.2955 19.3561 79.5914 20.6059C79.2407 21.2286 78.9708 21.7323 78.7921 22.0755C78.7029 22.2469 78.6366 22.3784 78.5938 22.4635C78.5725 22.5061 78.5568 22.5379 78.5474 22.5567C78.5429 22.566 78.5406 22.573 78.539 22.5762C78.0204 23.6422 76.9865 24.3409 75.8288 24.41C74.6711 24.4789 73.5659 23.9072 72.9309 22.91C72.1669 21.7099 70.9123 20.5642 69.6934 19.6587C69.1091 19.2247 68.5823 18.8821 68.2065 18.6508C68.0194 18.5357 67.8711 18.4492 67.7762 18.395C67.7299 18.3685 67.6965 18.3494 67.6771 18.3386C67.6727 18.3362 67.6694 18.3315 67.6665 18.33H67.6644C67.6619 18.3286 67.659 18.3283 67.6581 18.3278L67.6602 18.33H67.6623C66.0776 17.4793 65.4628 15.4706 66.2893 13.8409C67.1165 12.2106 69.0729 11.5777 70.6594 12.4277L69.4297 14.851L70.6615 12.4277L70.6657 12.4299C70.6676 12.4309 70.6696 12.4329 70.672 12.4342C70.6771 12.4369 70.6839 12.4412 70.691 12.445C70.7052 12.4528 70.7239 12.4632 70.7458 12.4754C70.7907 12.5002 70.8525 12.5324 70.9272 12.5751C71.0768 12.6606 71.2835 12.7825 71.5346 12.9371C72.0361 13.2457 72.7247 13.6952 73.4898 14.2636C73.9615 14.6141 74.4821 15.0291 75.021 15.4991C75.6675 14.4289 76.4388 13.2117 77.3242 11.9378C80.0967 7.94875 84.256 2.94936 89.3102 0.352186Z" fill="#29D9C3"/>
</svg>
