<svg width="227" height="55" viewBox="0 0 227 55" fill="none" xmlns="http://www.w3.org/2000/svg">
<path d="M2.2427 17.28V0.480028H13.0907V2.80803H5.1227V7.63203H12.3707V9.91203H5.1227V14.952H13.0907V17.28H2.2427ZM19.5566 17.568C18.0206 17.568 16.7486 17.208 15.7406 16.488C14.7326 15.768 14.1566 14.776 14.0126 13.512H16.9646C17.0766 14.072 17.3726 14.52 17.8526 14.856C18.3486 15.176 18.9486 15.336 19.6526 15.336C20.3726 15.336 20.9246 15.2 21.3086 14.928C21.7086 14.64 21.9086 14.288 21.9086 13.872C21.9086 13.536 21.7726 13.28 21.5006 13.104C21.2446 12.912 20.7806 12.768 20.1086 12.672C19.8526 12.624 19.5326 12.576 19.1486 12.528C18.7806 12.464 18.4606 12.4 18.1886 12.336C17.5646 12.224 16.9806 12.032 16.4366 11.76C15.8926 11.472 15.4526 11.088 15.1166 10.608C14.7966 10.128 14.6366 9.53603 14.6366 8.83203C14.6366 7.77603 15.0286 6.88803 15.8126 6.16803C16.6126 5.44803 17.7486 5.08803 19.2206 5.08803C20.6926 5.08803 21.8686 5.41603 22.7486 6.07203C23.6286 6.71203 24.1326 7.65603 24.2606 8.90403H21.4526C21.4046 8.37603 21.1646 7.98403 20.7326 7.72803C20.3166 7.47203 19.8126 7.34403 19.2206 7.34403C18.5806 7.34403 18.0846 7.47203 17.7326 7.72803C17.3806 7.96803 17.2046 8.27203 17.2046 8.64003C17.2046 9.29603 17.7566 9.72003 18.8606 9.91203C19.0206 9.94403 19.2206 9.98403 19.4606 10.032C19.7166 10.064 19.9726 10.104 20.2286 10.152C20.4846 10.184 20.7006 10.216 20.8766 10.248C21.3086 10.296 21.7406 10.392 22.1726 10.536C22.6206 10.68 23.0286 10.88 23.3966 11.136C23.7646 11.376 24.0526 11.696 24.2606 12.096C24.4846 12.496 24.5966 13 24.5966 13.608C24.5966 14.392 24.3966 15.08 23.9966 15.672C23.6126 16.264 23.0446 16.728 22.2926 17.064C21.5406 17.4 20.6286 17.568 19.5566 17.568ZM32.0663 17.568C30.8663 17.568 29.8023 17.304 28.8743 16.776C27.9463 16.248 27.2183 15.52 26.6903 14.592C26.1623 13.648 25.8983 12.56 25.8983 11.328C25.8983 10.096 26.1623 9.01603 26.6903 8.08803C27.2183 7.14403 27.9463 6.40803 28.8743 5.88003C29.8023 5.35203 30.8663 5.08803 32.0663 5.08803C33.5543 5.08803 34.8103 5.48003 35.8343 6.26403C36.8583 7.04803 37.5143 8.12003 37.8023 9.48003H34.8023C34.6423 8.87203 34.3143 8.40003 33.8183 8.06403C33.3223 7.72803 32.7303 7.56003 32.0423 7.56003C31.4663 7.56003 30.9303 7.71203 30.4343 8.01603C29.9543 8.30403 29.5703 8.72803 29.2823 9.28803C28.9943 9.83203 28.8503 10.512 28.8503 11.328C28.8503 12.128 28.9943 12.816 29.2823 13.392C29.5703 13.952 29.9543 14.384 30.4343 14.688C30.9303 14.976 31.4663 15.12 32.0423 15.12C32.7303 15.12 33.3223 14.952 33.8183 14.616C34.3143 14.28 34.6423 13.8 34.8023 13.176H37.8023C37.5303 14.488 36.8743 15.552 35.8343 16.368C34.8103 17.168 33.5543 17.568 32.0663 17.568ZM43.2071 17.568C42.2951 17.568 41.5191 17.408 40.8791 17.088C40.2391 16.752 39.7511 16.312 39.4151 15.768C39.0791 15.224 38.9111 14.632 38.9111 13.992C38.9111 12.744 39.3591 11.776 40.2551 11.088C41.1671 10.4 42.3591 10.056 43.8311 10.056C44.5031 10.056 45.0951 10.112 45.6071 10.224C46.1351 10.32 46.5591 10.416 46.8791 10.512V9.96003C46.8791 9.08003 46.6311 8.43203 46.1351 8.01603C45.6551 7.60003 45.0231 7.39203 44.2391 7.39203C43.6631 7.39203 43.1511 7.51203 42.7031 7.75203C42.2551 7.97603 41.9671 8.39203 41.8391 9.00003H39.1031C39.1991 8.13603 39.4871 7.41603 39.9671 6.84003C40.4471 6.26403 41.0551 5.83203 41.7911 5.54403C42.5431 5.24003 43.3591 5.08803 44.2391 5.08803C45.9831 5.08803 47.3351 5.52003 48.2951 6.38403C49.2711 7.23203 49.7591 8.42403 49.7591 9.96003V12.864C49.7591 13.472 49.7911 13.92 49.8551 14.208C49.9351 14.48 50.0551 14.656 50.2151 14.736C50.3911 14.8 50.6151 14.832 50.8871 14.832H51.0071V17.28H50.3591C49.5431 17.28 48.8551 17.168 48.2951 16.944C47.7511 16.704 47.3671 16.24 47.1431 15.552C46.7431 16.128 46.2151 16.608 45.5591 16.992C44.9031 17.376 44.1191 17.568 43.2071 17.568ZM43.8311 15.336C44.3911 15.336 44.8711 15.208 45.2711 14.952C45.6711 14.68 45.9911 14.328 46.2311 13.896C46.4871 13.448 46.6551 12.96 46.7351 12.432C46.3991 12.336 45.9991 12.24 45.5351 12.144C45.0711 12.048 44.5991 12 44.1191 12C43.3991 12 42.8311 12.16 42.4151 12.48C42.0151 12.8 41.8151 13.232 41.8151 13.776C41.8151 14.224 41.9911 14.6 42.3431 14.904C42.7111 15.192 43.2071 15.336 43.8311 15.336ZM52.5356 17.28V2.86102e-05H55.4156V17.28H52.5356ZM61.6056 17.568C60.6936 17.568 59.9176 17.408 59.2776 17.088C58.6376 16.752 58.1496 16.312 57.8136 15.768C57.4776 15.224 57.3096 14.632 57.3096 13.992C57.3096 12.744 57.7576 11.776 58.6536 11.088C59.5656 10.4 60.7576 10.056 62.2296 10.056C62.9016 10.056 63.4936 10.112 64.0056 10.224C64.5336 10.32 64.9576 10.416 65.2776 10.512V9.96003C65.2776 9.08003 65.0296 8.43203 64.5336 8.01603C64.0536 7.60003 63.4216 7.39203 62.6376 7.39203C62.0616 7.39203 61.5496 7.51203 61.1016 7.75203C60.6536 7.97603 60.3656 8.39203 60.2376 9.00003H57.5016C57.5976 8.13603 57.8856 7.41603 58.3656 6.84003C58.8456 6.26403 59.4536 5.83203 60.1896 5.54403C60.9416 5.24003 61.7576 5.08803 62.6376 5.08803C64.3816 5.08803 65.7336 5.52003 66.6936 6.38403C67.6696 7.23203 68.1576 8.42403 68.1576 9.96003V12.864C68.1576 13.472 68.1896 13.92 68.2536 14.208C68.3336 14.48 68.4536 14.656 68.6136 14.736C68.7896 14.8 69.0136 14.832 69.2856 14.832H69.4056V17.28H68.7576C67.9416 17.28 67.2536 17.168 66.6936 16.944C66.1496 16.704 65.7656 16.24 65.5416 15.552C65.1416 16.128 64.6136 16.608 63.9576 16.992C63.3016 17.376 62.5176 17.568 61.6056 17.568ZM62.2296 15.336C62.7896 15.336 63.2696 15.208 63.6696 14.952C64.0696 14.68 64.3896 14.328 64.6296 13.896C64.8856 13.448 65.0536 12.96 65.1336 12.432C64.7976 12.336 64.3976 12.24 63.9336 12.144C63.4696 12.048 62.9976 12 62.5176 12C61.7976 12 61.2296 12.16 60.8136 12.48C60.4136 12.8 60.2136 13.232 60.2136 13.776C60.2136 14.224 60.3896 14.6 60.7416 14.904C61.1096 15.192 61.6056 15.336 62.2296 15.336ZM82.9255 17.28C82.1575 17.28 81.5095 17.192 80.9815 17.016C80.4535 16.824 80.0535 16.472 79.7815 15.96C79.5095 15.448 79.3735 14.704 79.3735 13.728V7.80003H77.3335V5.37603H79.3735V2.25603H82.2535V5.37603H85.3735V7.80003H82.2535V13.344C82.2535 13.776 82.2935 14.096 82.3735 14.304C82.4695 14.512 82.6295 14.656 82.8535 14.736C83.0775 14.8 83.4055 14.832 83.8375 14.832H85.2535V17.28H82.9255ZM91.0007 17.568C89.6567 17.568 88.5847 17.112 87.7847 16.2C87.0007 15.272 86.6087 13.92 86.6087 12.144V5.37603H89.4647V11.856C89.4647 12.928 89.6727 13.744 90.0887 14.304C90.5047 14.848 91.1047 15.12 91.8887 15.12C92.7687 15.12 93.4567 14.808 93.9527 14.184C94.4647 13.56 94.7207 12.672 94.7207 11.52V5.37603H97.6007V17.28H94.7207V15.48C94.3687 16.136 93.8807 16.648 93.2567 17.016C92.6327 17.384 91.8807 17.568 91.0007 17.568ZM104.518 17.568C102.982 17.568 101.71 17.208 100.702 16.488C99.6936 15.768 99.1176 14.776 98.9736 13.512H101.926C102.038 14.072 102.334 14.52 102.814 14.856C103.31 15.176 103.91 15.336 104.614 15.336C105.334 15.336 105.886 15.2 106.27 14.928C106.67 14.64 106.87 14.288 106.87 13.872C106.87 13.536 106.734 13.28 106.462 13.104C106.206 12.912 105.742 12.768 105.07 12.672C104.814 12.624 104.494 12.576 104.11 12.528C103.742 12.464 103.422 12.4 103.15 12.336C102.526 12.224 101.942 12.032 101.398 11.76C100.854 11.472 100.414 11.088 100.078 10.608C99.7576 10.128 99.5976 9.53603 99.5976 8.83203C99.5976 7.77603 99.9896 6.88803 100.774 6.16803C101.574 5.44803 102.71 5.08803 104.182 5.08803C105.654 5.08803 106.83 5.41603 107.71 6.07203C108.59 6.71203 109.094 7.65603 109.222 8.90403H106.414C106.366 8.37603 106.126 7.98403 105.694 7.72803C105.278 7.47203 104.774 7.34403 104.182 7.34403C103.542 7.34403 103.046 7.47203 102.694 7.72803C102.342 7.96803 102.166 8.27203 102.166 8.64003C102.166 9.29603 102.718 9.72003 103.822 9.91203C103.982 9.94403 104.182 9.98403 104.422 10.032C104.678 10.064 104.934 10.104 105.19 10.152C105.446 10.184 105.662 10.216 105.838 10.248C106.27 10.296 106.702 10.392 107.134 10.536C107.582 10.68 107.99 10.88 108.358 11.136C108.726 11.376 109.014 11.696 109.222 12.096C109.446 12.496 109.558 13 109.558 13.608C109.558 14.392 109.358 15.08 108.958 15.672C108.574 16.264 108.006 16.728 107.254 17.064C106.502 17.4 105.59 17.568 104.518 17.568ZM118.84 22.56V5.37603H121.72V7.12803C122.104 6.58403 122.624 6.11203 123.28 5.71203C123.936 5.29603 124.768 5.08803 125.776 5.08803C126.912 5.08803 127.92 5.36003 128.8 5.90403C129.68 6.44803 130.368 7.19203 130.864 8.13603C131.376 9.08003 131.632 10.152 131.632 11.352C131.632 12.536 131.376 13.6 130.864 14.544C130.368 15.488 129.68 16.232 128.8 16.776C127.92 17.304 126.912 17.568 125.776 17.568C124.864 17.568 124.064 17.392 123.376 17.04C122.688 16.688 122.136 16.2 121.72 15.576V22.56H118.84ZM125.2 15.048C125.888 15.048 126.496 14.888 127.024 14.568C127.552 14.248 127.96 13.816 128.248 13.272C128.552 12.712 128.704 12.072 128.704 11.352C128.704 10.616 128.552 9.96803 128.248 9.40803C127.96 8.83203 127.552 8.39203 127.024 8.08803C126.496 7.76803 125.888 7.60803 125.2 7.60803C124.512 7.60803 123.904 7.76803 123.376 8.08803C122.848 8.39203 122.432 8.82403 122.128 9.38403C121.824 9.94403 121.672 10.592 121.672 11.328C121.672 12.064 121.824 12.712 122.128 13.272C122.432 13.816 122.848 14.248 123.376 14.568C123.904 14.888 124.512 15.048 125.2 15.048ZM133.277 17.28V5.37603H136.157V7.20003C136.461 6.60803 136.853 6.14403 137.333 5.80803C137.813 5.45603 138.365 5.28003 138.989 5.28003H140.597V7.84803H138.701C138.141 7.84803 137.669 8.00003 137.285 8.30403C136.917 8.59203 136.637 9.04803 136.445 9.67203C136.253 10.28 136.157 11.048 136.157 11.976V17.28H133.277ZM147.055 17.568C145.871 17.568 144.799 17.312 143.839 16.8C142.895 16.272 142.143 15.536 141.583 14.592C141.023 13.648 140.743 12.56 140.743 11.328C140.743 10.08 141.023 8.99203 141.583 8.06403C142.143 7.12003 142.903 6.39203 143.863 5.88003C144.823 5.35203 145.887 5.08803 147.055 5.08803C148.255 5.08803 149.327 5.35203 150.271 5.88003C151.215 6.39203 151.967 7.12003 152.527 8.06403C153.087 8.99203 153.367 10.08 153.367 11.328C153.367 12.56 153.087 13.648 152.527 14.592C151.967 15.536 151.207 16.272 150.247 16.8C149.303 17.312 148.239 17.568 147.055 17.568ZM147.055 15.072C147.663 15.072 148.215 14.936 148.711 14.664C149.223 14.376 149.631 13.96 149.935 13.416C150.239 12.856 150.391 12.16 150.391 11.328C150.391 10.496 150.239 9.80803 149.935 9.26403C149.631 8.70403 149.223 8.28803 148.711 8.01603C148.215 7.72803 147.671 7.58403 147.079 7.58403C146.471 7.58403 145.911 7.72803 145.399 8.01603C144.887 8.28803 144.479 8.70403 144.175 9.26403C143.871 9.80803 143.719 10.496 143.719 11.328C143.719 12.16 143.871 12.856 144.175 13.416C144.479 13.96 144.879 14.376 145.375 14.664C145.887 14.936 146.447 15.072 147.055 15.072ZM153.803 22.56V20.256H156.323C156.563 20.256 156.755 20.224 156.899 20.16C157.059 20.096 157.211 19.968 157.355 19.776C157.515 19.584 157.683 19.272 157.859 18.84L158.963 16.416L158.795 17.736L153.587 5.37603H156.731L160.163 13.896L163.763 5.37603H166.835L160.451 19.776C160.179 20.384 159.947 20.872 159.755 21.24C159.563 21.608 159.371 21.888 159.179 22.08C158.987 22.272 158.755 22.4 158.483 22.464C158.227 22.528 157.907 22.56 157.523 22.56H153.803ZM172.738 17.568C171.538 17.568 170.474 17.312 169.546 16.8C168.634 16.272 167.914 15.544 167.386 14.616C166.874 13.688 166.618 12.616 166.618 11.4C166.618 10.168 166.874 9.08003 167.386 8.13603C167.898 7.17603 168.618 6.43203 169.546 5.90403C170.474 5.36003 171.546 5.08803 172.762 5.08803C173.93 5.08803 174.954 5.34403 175.834 5.85603C176.73 6.36803 177.418 7.06403 177.898 7.94403C178.394 8.80803 178.642 9.78403 178.642 10.872C178.642 11.032 178.642 11.208 178.642 11.4C178.642 11.592 178.626 11.8 178.594 12.024H168.706V10.152H175.738C175.69 9.32003 175.386 8.66403 174.826 8.18403C174.266 7.68803 173.578 7.44003 172.762 7.44003C172.17 7.44003 171.618 7.57603 171.106 7.84803C170.61 8.10403 170.21 8.49603 169.906 9.02403C169.602 9.53603 169.45 10.192 169.45 10.992V11.688C169.45 12.424 169.594 13.056 169.882 13.584C170.186 14.112 170.586 14.512 171.082 14.784C171.578 15.056 172.13 15.192 172.738 15.192C173.394 15.192 173.946 15.048 174.394 14.76C174.842 14.456 175.17 14.056 175.378 13.56H178.306C178.098 14.328 177.73 15.016 177.202 15.624C176.69 16.216 176.058 16.688 175.306 17.04C174.554 17.392 173.698 17.568 172.738 17.568ZM186.121 17.568C184.921 17.568 183.857 17.304 182.929 16.776C182.001 16.248 181.273 15.52 180.745 14.592C180.217 13.648 179.953 12.56 179.953 11.328C179.953 10.096 180.217 9.01603 180.745 8.08803C181.273 7.14403 182.001 6.40803 182.929 5.88003C183.857 5.35203 184.921 5.08803 186.121 5.08803C187.609 5.08803 188.865 5.48003 189.889 6.26403C190.913 7.04803 191.569 8.12003 191.857 9.48003H188.857C188.697 8.87203 188.369 8.40003 187.873 8.06403C187.377 7.72803 186.785 7.56003 186.097 7.56003C185.521 7.56003 184.985 7.71203 184.489 8.01603C184.009 8.30403 183.625 8.72803 183.337 9.28803C183.049 9.83203 182.905 10.512 182.905 11.328C182.905 12.128 183.049 12.816 183.337 13.392C183.625 13.952 184.009 14.384 184.489 14.688C184.985 14.976 185.521 15.12 186.097 15.12C186.785 15.12 187.377 14.952 187.873 14.616C188.369 14.28 188.697 13.8 188.857 13.176H191.857C191.585 14.488 190.929 15.552 189.889 16.368C188.865 17.168 187.609 17.568 186.121 17.568ZM198.027 17.28C197.259 17.28 196.611 17.192 196.083 17.016C195.555 16.824 195.155 16.472 194.883 15.96C194.611 15.448 194.475 14.704 194.475 13.728V7.80003H192.435V5.37603H194.475V2.25603H197.355V5.37603H200.475V7.80003H197.355V13.344C197.355 13.776 197.395 14.096 197.475 14.304C197.571 14.512 197.731 14.656 197.955 14.736C198.179 14.8 198.507 14.832 198.939 14.832H200.355V17.28H198.027ZM207.266 17.568C206.082 17.568 205.01 17.312 204.05 16.8C203.106 16.272 202.354 15.536 201.794 14.592C201.234 13.648 200.954 12.56 200.954 11.328C200.954 10.08 201.234 8.99203 201.794 8.06403C202.354 7.12003 203.114 6.39203 204.074 5.88003C205.034 5.35203 206.098 5.08803 207.266 5.08803C208.466 5.08803 209.538 5.35203 210.482 5.88003C211.426 6.39203 212.178 7.12003 212.738 8.06403C213.298 8.99203 213.578 10.08 213.578 11.328C213.578 12.56 213.298 13.648 212.738 14.592C212.178 15.536 211.418 16.272 210.458 16.8C209.514 17.312 208.45 17.568 207.266 17.568ZM207.266 15.072C207.874 15.072 208.426 14.936 208.922 14.664C209.434 14.376 209.842 13.96 210.146 13.416C210.45 12.856 210.602 12.16 210.602 11.328C210.602 10.496 210.45 9.80803 210.146 9.26403C209.842 8.70403 209.434 8.28803 208.922 8.01603C208.426 7.72803 207.882 7.58403 207.29 7.58403C206.682 7.58403 206.122 7.72803 205.61 8.01603C205.098 8.28803 204.69 8.70403 204.386 9.26403C204.082 9.80803 203.93 10.496 203.93 11.328C203.93 12.16 204.082 12.856 204.386 13.416C204.69 13.96 205.09 14.376 205.586 14.664C206.098 14.936 206.658 15.072 207.266 15.072ZM219.947 17.568C218.411 17.568 217.139 17.208 216.131 16.488C215.123 15.768 214.547 14.776 214.403 13.512H217.355C217.467 14.072 217.763 14.52 218.243 14.856C218.739 15.176 219.339 15.336 220.043 15.336C220.763 15.336 221.315 15.2 221.699 14.928C222.099 14.64 222.299 14.288 222.299 13.872C222.299 13.536 222.163 13.28 221.891 13.104C221.635 12.912 221.171 12.768 220.499 12.672C220.243 12.624 219.923 12.576 219.539 12.528C219.171 12.464 218.851 12.4 218.579 12.336C217.955 12.224 217.371 12.032 216.827 11.76C216.283 11.472 215.843 11.088 215.507 10.608C215.187 10.128 215.027 9.53603 215.027 8.83203C215.027 7.77603 215.419 6.88803 216.203 6.16803C217.003 5.44803 218.139 5.08803 219.611 5.08803C221.083 5.08803 222.259 5.41603 223.139 6.07203C224.019 6.71203 224.523 7.65603 224.651 8.90403H221.843C221.795 8.37603 221.555 7.98403 221.123 7.72803C220.707 7.47203 220.203 7.34403 219.611 7.34403C218.971 7.34403 218.475 7.47203 218.123 7.72803C217.771 7.96803 217.595 8.27203 217.595 8.64003C217.595 9.29603 218.147 9.72003 219.251 9.91203C219.411 9.94403 219.611 9.98403 219.851 10.032C220.107 10.064 220.363 10.104 220.619 10.152C220.875 10.184 221.091 10.216 221.267 10.248C221.699 10.296 222.131 10.392 222.563 10.536C223.011 10.68 223.419 10.88 223.787 11.136C224.155 11.376 224.443 11.696 224.651 12.096C224.875 12.496 224.987 13 224.987 13.608C224.987 14.392 224.787 15.08 224.387 15.672C224.003 16.264 223.435 16.728 222.683 17.064C221.931 17.4 221.019 17.568 219.947 17.568ZM6.16783 49.568C4.96783 49.568 3.90383 49.304 2.97583 48.776C2.04783 48.248 1.31983 47.52 0.791828 46.592C0.263828 45.648 -0.00017187 44.56 -0.00017187 43.328C-0.00017187 42.096 0.263828 41.016 0.791828 40.088C1.31983 39.144 2.04783 38.408 2.97583 37.88C3.90383 37.352 4.96783 37.088 6.16783 37.088C7.65583 37.088 8.91183 37.48 9.93583 38.264C10.9598 39.048 11.6158 40.12 11.9038 41.48H8.90383C8.74383 40.872 8.41583 40.4 7.91983 40.064C7.42383 39.728 6.83183 39.56 6.14383 39.56C5.56783 39.56 5.03183 39.712 4.53583 40.016C4.05583 40.304 3.67183 40.728 3.38383 41.288C3.09583 41.832 2.95183 42.512 2.95183 43.328C2.95183 44.128 3.09583 44.816 3.38383 45.392C3.67183 45.952 4.05583 46.384 4.53583 46.688C5.03183 46.976 5.56783 47.12 6.14383 47.12C6.83183 47.12 7.42383 46.952 7.91983 46.616C8.41583 46.28 8.74383 45.8 8.90383 45.176H11.9038C11.6318 46.488 10.9758 47.552 9.93583 48.368C8.91183 49.168 7.65583 49.568 6.16783 49.568ZM19.4843 49.568C18.3003 49.568 17.2283 49.312 16.2683 48.8C15.3243 48.272 14.5723 47.536 14.0123 46.592C13.4523 45.648 13.1723 44.56 13.1723 43.328C13.1723 42.08 13.4523 40.992 14.0123 40.064C14.5723 39.12 15.3323 38.392 16.2923 37.88C17.2523 37.352 18.3163 37.088 19.4843 37.088C20.6843 37.088 21.7563 37.352 22.7003 37.88C23.6443 38.392 24.3963 39.12 24.9563 40.064C25.5163 40.992 25.7963 42.08 25.7963 43.328C25.7963 44.56 25.5163 45.648 24.9563 46.592C24.3963 47.536 23.6363 48.272 22.6763 48.8C21.7323 49.312 20.6683 49.568 19.4843 49.568ZM19.4843 47.072C20.0923 47.072 20.6443 46.936 21.1403 46.664C21.6523 46.376 22.0603 45.96 22.3643 45.416C22.6683 44.856 22.8203 44.16 22.8203 43.328C22.8203 42.496 22.6683 41.808 22.3643 41.264C22.0603 40.704 21.6523 40.288 21.1403 40.016C20.6443 39.728 20.1003 39.584 19.5083 39.584C18.9003 39.584 18.3403 39.728 17.8283 40.016C17.3163 40.288 16.9083 40.704 16.6043 41.264C16.3003 41.808 16.1483 42.496 16.1483 43.328C16.1483 44.16 16.3003 44.856 16.6043 45.416C16.9083 45.96 17.3083 46.376 17.8043 46.664C18.3163 46.936 18.8763 47.072 19.4843 47.072ZM27.4804 49.28V37.376H30.3604V39.224C30.7604 38.568 31.2964 38.048 31.9684 37.664C32.6564 37.28 33.4404 37.088 34.3204 37.088C35.7924 37.088 36.9364 37.552 37.7524 38.48C38.5684 39.392 38.9764 40.736 38.9764 42.512V49.28H36.0964V42.8C36.0964 41.728 35.8724 40.92 35.4244 40.376C34.9924 39.816 34.3284 39.536 33.4324 39.536C32.5524 39.536 31.8164 39.848 31.2244 40.472C30.6484 41.096 30.3604 41.984 30.3604 43.136V49.28H27.4804ZM48.5278 49.28V37.376H51.4078V38.888C51.7918 38.328 52.2958 37.888 52.9198 37.568C53.5438 37.248 54.2558 37.088 55.0558 37.088C55.9678 37.088 56.7518 37.272 57.4078 37.64C58.0638 37.992 58.5838 38.528 58.9678 39.248C59.3998 38.576 59.9758 38.048 60.6958 37.664C61.4318 37.28 62.2318 37.088 63.0958 37.088C64.6158 37.088 65.7918 37.552 66.6238 38.48C67.4558 39.392 67.8718 40.736 67.8718 42.512V49.28H65.0158V42.8C65.0158 41.728 64.8078 40.92 64.3918 40.376C63.9758 39.816 63.3518 39.536 62.5198 39.536C61.6718 39.536 60.9838 39.848 60.4558 40.472C59.9278 41.096 59.6638 41.984 59.6638 43.136V49.28H56.7838V42.8C56.7838 41.728 56.5678 40.92 56.1358 40.376C55.7198 39.816 55.0878 39.536 54.2398 39.536C53.4078 39.536 52.7278 39.848 52.1998 40.472C51.6718 41.096 51.4078 41.984 51.4078 43.136V49.28H48.5278ZM74.0978 49.568C73.1858 49.568 72.4098 49.408 71.7698 49.088C71.1298 48.752 70.6418 48.312 70.3058 47.768C69.9698 47.224 69.8018 46.632 69.8018 45.992C69.8018 44.744 70.2498 43.776 71.1458 43.088C72.0578 42.4 73.2498 42.056 74.7218 42.056C75.3938 42.056 75.9858 42.112 76.4978 42.224C77.0258 42.32 77.4498 42.416 77.7698 42.512V41.96C77.7698 41.08 77.5218 40.432 77.0258 40.016C76.5458 39.6 75.9138 39.392 75.1298 39.392C74.5538 39.392 74.0418 39.512 73.5938 39.752C73.1458 39.976 72.8578 40.392 72.7298 41H69.9938C70.0898 40.136 70.3778 39.416 70.8578 38.84C71.3378 38.264 71.9458 37.832 72.6818 37.544C73.4338 37.24 74.2498 37.088 75.1298 37.088C76.8738 37.088 78.2258 37.52 79.1858 38.384C80.1618 39.232 80.6498 40.424 80.6498 41.96V44.864C80.6498 45.472 80.6818 45.92 80.7458 46.208C80.8258 46.48 80.9458 46.656 81.1058 46.736C81.2818 46.8 81.5058 46.832 81.7778 46.832H81.8978V49.28H81.2498C80.4338 49.28 79.7458 49.168 79.1858 48.944C78.6418 48.704 78.2578 48.24 78.0338 47.552C77.6338 48.128 77.1058 48.608 76.4498 48.992C75.7938 49.376 75.0098 49.568 74.0978 49.568ZM74.7218 47.336C75.2818 47.336 75.7618 47.208 76.1618 46.952C76.5618 46.68 76.8818 46.328 77.1218 45.896C77.3778 45.448 77.5458 44.96 77.6258 44.432C77.2898 44.336 76.8898 44.24 76.4258 44.144C75.9618 44.048 75.4898 44 75.0098 44C74.2898 44 73.7218 44.16 73.3058 44.48C72.9058 44.8 72.7058 45.232 72.7058 45.776C72.7058 46.224 72.8818 46.6 73.2338 46.904C73.6018 47.192 74.0978 47.336 74.7218 47.336ZM81.8263 54.56V52.256H84.3463C84.5863 52.256 84.7783 52.224 84.9223 52.16C85.0823 52.096 85.2343 51.968 85.3783 51.776C85.5383 51.584 85.7063 51.272 85.8823 50.84L86.9863 48.416L86.8183 49.736L81.6103 37.376H84.7543L88.1863 45.896L91.7863 37.376H94.8583L88.4743 51.776C88.2023 52.384 87.9703 52.872 87.7783 53.24C87.5863 53.608 87.3943 53.888 87.2023 54.08C87.0103 54.272 86.7783 54.4 86.5063 54.464C86.2503 54.528 85.9303 54.56 85.5463 54.56H81.8263ZM100.953 49.568C99.769 49.568 98.697 49.312 97.737 48.8C96.793 48.272 96.041 47.536 95.481 46.592C94.921 45.648 94.641 44.56 94.641 43.328C94.641 42.08 94.921 40.992 95.481 40.064C96.041 39.12 96.801 38.392 97.761 37.88C98.721 37.352 99.785 37.088 100.953 37.088C102.153 37.088 103.225 37.352 104.169 37.88C105.113 38.392 105.865 39.12 106.425 40.064C106.985 40.992 107.265 42.08 107.265 43.328C107.265 44.56 106.985 45.648 106.425 46.592C105.865 47.536 105.105 48.272 104.145 48.8C103.201 49.312 102.137 49.568 100.953 49.568ZM100.953 47.072C101.561 47.072 102.113 46.936 102.609 46.664C103.121 46.376 103.529 45.96 103.833 45.416C104.137 44.856 104.289 44.16 104.289 43.328C104.289 42.496 104.137 41.808 103.833 41.264C103.529 40.704 103.121 40.288 102.609 40.016C102.113 39.728 101.569 39.584 100.977 39.584C100.369 39.584 99.809 39.728 99.297 40.016C98.785 40.288 98.377 40.704 98.073 41.264C97.769 41.808 97.617 42.496 97.617 43.328C97.617 44.16 97.769 44.856 98.073 45.416C98.377 45.96 98.777 46.376 99.273 46.664C99.785 46.936 100.345 47.072 100.953 47.072ZM108.949 49.28V37.376H111.829V39.2C112.133 38.608 112.525 38.144 113.005 37.808C113.485 37.456 114.037 37.28 114.661 37.28H116.269V39.848H114.373C113.813 39.848 113.341 40 112.957 40.304C112.589 40.592 112.309 41.048 112.117 41.672C111.925 42.28 111.829 43.048 111.829 43.976V49.28H108.949ZM131.089 49.568C129.889 49.568 128.825 49.312 127.897 48.8C126.985 48.272 126.265 47.544 125.737 46.616C125.225 45.688 124.969 44.616 124.969 43.4C124.969 42.168 125.225 41.08 125.737 40.136C126.249 39.176 126.969 38.432 127.897 37.904C128.825 37.36 129.897 37.088 131.113 37.088C132.281 37.088 133.305 37.344 134.185 37.856C135.081 38.368 135.769 39.064 136.249 39.944C136.745 40.808 136.993 41.784 136.993 42.872C136.993 43.032 136.993 43.208 136.993 43.4C136.993 43.592 136.977 43.8 136.945 44.024H127.057V42.152H134.089C134.041 41.32 133.737 40.664 133.177 40.184C132.617 39.688 131.929 39.44 131.113 39.44C130.521 39.44 129.969 39.576 129.457 39.848C128.961 40.104 128.561 40.496 128.257 41.024C127.953 41.536 127.801 42.192 127.801 42.992V43.688C127.801 44.424 127.945 45.056 128.233 45.584C128.537 46.112 128.937 46.512 129.433 46.784C129.929 47.056 130.481 47.192 131.089 47.192C131.745 47.192 132.297 47.048 132.745 46.76C133.193 46.456 133.521 46.056 133.729 45.56H136.657C136.449 46.328 136.081 47.016 135.553 47.624C135.041 48.216 134.409 48.688 133.657 49.04C132.905 49.392 132.049 49.568 131.089 49.568ZM139.393 49.28V39.8H137.713V37.376H139.393V35.72C139.393 34.664 139.513 33.872 139.753 33.344C140.009 32.8 140.417 32.44 140.977 32.264C141.537 32.088 142.281 32 143.209 32H144.625V34.448H143.761C143.153 34.448 142.753 34.544 142.561 34.736C142.369 34.912 142.273 35.296 142.273 35.888V37.376H149.161V49.28H146.281V39.8H142.273V49.28H139.393ZM145.897 35.504V32.12H149.569V35.504H145.897ZM157.316 49.568C156.116 49.568 155.052 49.304 154.124 48.776C153.196 48.248 152.468 47.52 151.94 46.592C151.412 45.648 151.148 44.56 151.148 43.328C151.148 42.096 151.412 41.016 151.94 40.088C152.468 39.144 153.196 38.408 154.124 37.88C155.052 37.352 156.116 37.088 157.316 37.088C158.804 37.088 160.06 37.48 161.084 38.264C162.108 39.048 162.764 40.12 163.052 41.48H160.052C159.892 40.872 159.564 40.4 159.068 40.064C158.572 39.728 157.98 39.56 157.292 39.56C156.716 39.56 156.18 39.712 155.684 40.016C155.204 40.304 154.82 40.728 154.532 41.288C154.244 41.832 154.1 42.512 154.1 43.328C154.1 44.128 154.244 44.816 154.532 45.392C154.82 45.952 155.204 46.384 155.684 46.688C156.18 46.976 156.716 47.12 157.292 47.12C157.98 47.12 158.572 46.952 159.068 46.616C159.564 46.28 159.892 45.8 160.052 45.176H163.052C162.78 46.488 162.124 47.552 161.084 48.368C160.06 49.168 158.804 49.568 157.316 49.568ZM164.825 49.28V37.376H167.705V49.28H164.825ZM164.825 35.336V32.384H167.729V35.336H164.825ZM175.527 49.568C174.327 49.568 173.263 49.312 172.335 48.8C171.423 48.272 170.703 47.544 170.175 46.616C169.663 45.688 169.407 44.616 169.407 43.4C169.407 42.168 169.663 41.08 170.175 40.136C170.687 39.176 171.407 38.432 172.335 37.904C173.263 37.36 174.335 37.088 175.551 37.088C176.719 37.088 177.743 37.344 178.623 37.856C179.519 38.368 180.207 39.064 180.687 39.944C181.183 40.808 181.431 41.784 181.431 42.872C181.431 43.032 181.431 43.208 181.431 43.4C181.431 43.592 181.415 43.8 181.383 44.024H171.495V42.152H178.527C178.479 41.32 178.175 40.664 177.615 40.184C177.055 39.688 176.367 39.44 175.551 39.44C174.959 39.44 174.407 39.576 173.895 39.848C173.399 40.104 172.999 40.496 172.695 41.024C172.391 41.536 172.239 42.192 172.239 42.992V43.688C172.239 44.424 172.383 45.056 172.671 45.584C172.975 46.112 173.375 46.512 173.871 46.784C174.367 47.056 174.919 47.192 175.527 47.192C176.183 47.192 176.735 47.048 177.183 46.76C177.631 46.456 177.959 46.056 178.167 45.56H181.095C180.887 46.328 180.519 47.016 179.991 47.624C179.479 48.216 178.847 48.688 178.095 49.04C177.343 49.392 176.487 49.568 175.527 49.568ZM183.246 49.28V37.376H186.126V39.224C186.526 38.568 187.062 38.048 187.734 37.664C188.422 37.28 189.206 37.088 190.086 37.088C191.558 37.088 192.702 37.552 193.518 38.48C194.334 39.392 194.742 40.736 194.742 42.512V49.28H191.862V42.8C191.862 41.728 191.638 40.92 191.19 40.376C190.758 39.816 190.094 39.536 189.198 39.536C188.318 39.536 187.582 39.848 186.99 40.472C186.414 41.096 186.126 41.984 186.126 43.136V49.28H183.246ZM202.574 49.568C201.374 49.568 200.31 49.304 199.382 48.776C198.454 48.248 197.726 47.52 197.198 46.592C196.67 45.648 196.406 44.56 196.406 43.328C196.406 42.096 196.67 41.016 197.198 40.088C197.726 39.144 198.454 38.408 199.382 37.88C200.31 37.352 201.374 37.088 202.574 37.088C204.062 37.088 205.318 37.48 206.342 38.264C207.366 39.048 208.022 40.12 208.31 41.48H205.31C205.15 40.872 204.822 40.4 204.326 40.064C203.83 39.728 203.238 39.56 202.55 39.56C201.974 39.56 201.438 39.712 200.942 40.016C200.462 40.304 200.078 40.728 199.79 41.288C199.502 41.832 199.358 42.512 199.358 43.328C199.358 44.128 199.502 44.816 199.79 45.392C200.078 45.952 200.462 46.384 200.942 46.688C201.438 46.976 201.974 47.12 202.55 47.12C203.238 47.12 203.83 46.952 204.326 46.616C204.822 46.28 205.15 45.8 205.31 45.176H208.31C208.038 46.488 207.382 47.552 206.342 48.368C205.318 49.168 204.062 49.568 202.574 49.568ZM210.083 49.28V37.376H212.963V49.28H210.083ZM210.083 35.336V32.384H212.987V35.336H210.083ZM219.152 49.568C218.24 49.568 217.464 49.408 216.824 49.088C216.184 48.752 215.696 48.312 215.36 47.768C215.024 47.224 214.856 46.632 214.856 45.992C214.856 44.744 215.304 43.776 216.2 43.088C217.112 42.4 218.304 42.056 219.776 42.056C220.448 42.056 221.04 42.112 221.552 42.224C222.08 42.32 222.504 42.416 222.824 42.512V41.96C222.824 41.08 222.576 40.432 222.08 40.016C221.6 39.6 220.968 39.392 220.184 39.392C219.608 39.392 219.096 39.512 218.648 39.752C218.2 39.976 217.912 40.392 217.784 41H215.048C215.144 40.136 215.432 39.416 215.912 38.84C216.392 38.264 217 37.832 217.736 37.544C218.488 37.24 219.304 37.088 220.184 37.088C221.928 37.088 223.28 37.52 224.24 38.384C225.216 39.232 225.704 40.424 225.704 41.96V44.864C225.704 45.472 225.736 45.92 225.8 46.208C225.88 46.48 226 46.656 226.16 46.736C226.336 46.8 226.56 46.832 226.832 46.832H226.952V49.28H226.304C225.488 49.28 224.8 49.168 224.24 48.944C223.696 48.704 223.312 48.24 223.088 47.552C222.688 48.128 222.16 48.608 221.504 48.992C220.848 49.376 220.064 49.568 219.152 49.568ZM219.776 47.336C220.336 47.336 220.816 47.208 221.216 46.952C221.616 46.68 221.936 46.328 222.176 45.896C222.432 45.448 222.6 44.96 222.68 44.432C222.344 44.336 221.944 44.24 221.48 44.144C221.016 44.048 220.544 44 220.064 44C219.344 44 218.776 44.16 218.36 44.48C217.96 44.8 217.76 45.232 217.76 45.776C217.76 46.224 217.936 46.6 218.288 46.904C218.656 47.192 219.152 47.336 219.776 47.336Z" fill="white"/>
</svg>
