<svg width="1645" height="542" viewBox="0 0 1645 542" fill="none" xmlns="http://www.w3.org/2000/svg">
<path d="M95.2389 507.974C148.668 524.748 207.905 524.243 260.912 506.357C323.951 485.136 375.796 441.482 422.574 395.808C469.351 350.133 513.488 301.022 568.29 264.543C623.198 228.064 691.938 204.923 757.088 219.07C797.952 227.963 834.698 250.8 875.985 257.773C1006.6 279.802 1124.44 139.746 1254.21 166.019C1309.65 177.235 1354.21 217.555 1408.48 233.42C1479.44 254.236 1562.86 226.548 1605.2 168.141M89.4145 499.008C134.771 510.818 184.673 512.231 231.51 503.248C240.708 501.532 249.8 499.311 258.681 496.787C295.262 486.289 328.037 469.533 357.746 449.951C380.477 435.011 401.516 418.457 422.027 401.095C434.08 390.9 446.133 380.402 458.503 369.601C486.731 344.669 515.277 317.515 545.092 292.987C553.655 285.921 562.325 279.158 571.1 272.697C593.091 256.547 616.985 242.516 641.936 232.22C677.249 217.684 714.781 210.517 752.208 216.271C792.067 222.428 828.859 242.415 870.515 248.673C876.753 249.582 882.885 250.187 889.017 250.591C928.77 252.913 967.042 243.727 1005.21 229.696C1066.11 207.287 1126.37 172.261 1187.9 161.662C1209.05 158.028 1230.3 157.321 1251.97 160.955C1295.11 168.223 1332.01 192.045 1371.87 209.71C1383.6 214.858 1395.65 219.602 1408.13 223.034C1479.92 243.323 1563.23 219.501 1605.2 167.617M85.0462 489.366C131.147 499.037 182.111 499.742 229.903 491.985C239.314 490.474 248.513 488.661 257.606 486.444C294.825 477.479 328.237 463.274 358.055 446.955C380.788 434.363 401.618 420.662 422.553 405.753C434.818 396.989 447.189 387.821 460.195 377.848C489.801 354.981 519.724 327.278 549.33 301.589C557.789 294.236 566.247 287.083 574.918 280.132C596.276 263.007 618.903 247.694 642.482 236.009C676 219.588 711.422 209.716 747.9 212.94C786.6 216.264 823.607 233.591 865.478 239.132C871.716 239.938 877.955 240.542 884.193 240.844C924.267 243.161 962.543 236.11 1001.03 223.517C1062.46 203.571 1123.79 169.119 1185.64 157.534C1206.79 153.605 1228.26 152.396 1249.93 155.317C1293.18 161.16 1330.71 182.819 1371.21 199.34C1383.16 204.176 1395.32 208.608 1407.9 212.033C1480.33 231.677 1563.54 211.932 1605.2 166.499M80.678 479.654C127.533 487.109 179.57 487.31 228.434 480.762C238.059 479.453 247.472 477.941 256.674 476.128C294.644 468.572 328.701 456.987 358.528 443.79C381.267 433.615 401.998 422.634 423.151 410.041C435.526 402.687 448.429 394.829 461.968 385.661C492.852 364.808 524.37 336.499 553.562 309.601C561.917 301.944 570.273 294.288 578.628 287.035C599.359 268.8 620.724 252.278 643.04 239.182C674.665 220.746 708.087 206.944 743.625 208.858C781.066 210.873 818.296 224.071 860.497 228.906C866.737 229.611 873.083 230.115 879.324 230.518C919.727 232.835 958.014 227.899 996.725 216.817C1058.7 199.288 1121 165.438 1183.4 152.846C1204.66 148.615 1226.13 146.902 1247.92 149.118C1291.39 153.551 1329.47 173.095 1370.51 188.509C1382.56 193.042 1394.94 197.273 1407.63 200.598C1480.82 219.739 1563.85 203.821 1605.2 164.834M77.0378 471.29C124.499 476.544 177.669 476.241 227.456 470.784C237.181 469.774 246.8 468.46 256.208 467.045C294.896 460.982 329.461 451.988 359.376 441.782C382.102 434.001 402.715 425.613 424.067 415.508C436.646 409.546 449.859 402.977 464.023 394.59C496.263 375.592 529.138 346.69 558.101 318.597C566.452 310.513 574.485 302.53 582.624 294.749C602.708 275.447 622.898 257.561 643.828 243.009C673.531 222.596 704.819 207.438 739.596 205.417C775.853 203.295 813.273 215.118 855.66 219.363C862.003 219.969 868.345 220.474 874.581 220.777C915.278 223.101 953.543 220.272 992.548 210.571C1055.02 195.312 1118.23 161.964 1181.02 148.322C1202.37 143.774 1223.83 141.551 1245.61 143.067C1289.26 146.2 1327.84 163.581 1369.39 178.032C1381.65 182.276 1394.12 186.318 1406.91 189.552C1480.8 208.247 1563.67 196.221 1604.47 163.48M71.9415 461.474C120.167 464.496 174.526 463.59 225.184 459.459C235.125 458.653 244.961 457.646 254.585 456.638C294.032 452.105 329.249 445.657 359.179 438.605C381.917 433.265 402.328 427.623 424.114 419.966C436.911 415.433 450.448 410.093 465.254 402.638C498.779 385.712 533.15 356.395 561.916 327.078C570.165 318.716 578.097 310.354 585.923 302.193C605.277 281.943 624.313 262.801 643.878 246.883C671.692 224.518 700.882 206.887 734.83 202.152C769.941 197.316 807.485 206.383 850.211 209.909C856.557 210.413 863.008 210.816 869.353 211.219C910.387 213.536 948.671 212.73 988.013 204.67C1051.04 191.674 1115.35 159.133 1178.48 144.625C1199.95 139.789 1221.42 137.069 1243.31 137.875C1287.2 139.588 1326.33 154.801 1368.53 168.099C1381.01 172.028 1393.59 175.857 1406.6 178.98C1481.16 197.114 1563.97 188.954 1604.47 162.76M67.5732 451.894C116.444 452.799 171.98 451.291 223.707 448.275C233.862 447.671 243.911 447.068 253.643 446.264C293.734 443.248 329.594 439.327 359.636 435.406C382.485 432.39 402.795 429.575 424.692 424.347C437.703 421.23 451.56 417.208 467.005 410.573C501.912 395.593 537.667 365.834 566.228 335.471C574.373 326.725 582.201 318.078 589.711 309.432C608.435 288.118 626.206 267.709 644.506 250.517C670.528 226.288 697.397 206.08 730.718 198.74C764.568 191.301 802.438 197.534 845.385 200.349C851.838 200.751 858.185 201.153 864.638 201.455C906.104 203.767 944.291 205.074 983.853 198.439C1047.43 187.882 1112.7 156.012 1176.27 140.429C1197.74 135.201 1219.43 132.084 1241.33 132.185C1285.44 132.486 1325.1 145.556 1367.84 157.721C1380.43 161.341 1393.23 164.859 1406.35 167.976C1481.66 185.57 1564.28 181.348 1604.47 161.441M61.7488 443.132C111.402 441.82 168.042 439.801 220.766 437.984C231.141 437.581 241.304 437.278 251.256 436.874C292.122 435.36 328.541 433.947 358.714 433.14C381.582 432.534 401.803 432.534 423.93 429.607C437.164 427.891 451.351 425.166 467.443 419.413C503.65 406.394 540.917 375.913 569.29 344.221C577.442 335.138 584.959 325.953 592.264 316.971C610.367 294.564 626.883 272.764 643.822 254.092C667.855 227.749 692.734 204.939 725.236 194.948C757.844 184.855 795.958 188.185 839.258 190.406C845.716 190.708 852.175 191.011 858.738 191.415C900.557 193.837 938.776 197.168 978.689 192.021C1042.85 183.744 1109.23 152.355 1173.17 135.803C1194.77 130.252 1216.47 126.619 1238.49 126.013C1282.85 124.903 1323.08 135.904 1366.39 147.006C1379.2 150.337 1392.11 153.668 1405.35 156.695C1481.47 173.853 1563.94 173.45 1603.75 159.925M58.8367 434.316C109.191 430.789 166.845 428.169 220.479 427.564C231.057 427.464 241.425 427.363 251.474 427.363C293.048 427.363 330.074 428.471 360.117 430.789C382.967 432.502 403.067 435.324 425.493 434.719C438.928 434.417 453.421 432.905 470.135 428.068C507.69 416.984 546.302 386.047 574.441 353.196C582.481 343.724 589.886 334.251 596.868 324.779C614.323 301.299 629.556 278.324 645.213 258.27C667.322 229.954 689.96 204.761 721.802 191.963C753.009 179.367 791.515 179.77 835.1 181.282C841.553 181.483 848.111 181.786 854.67 182.189C896.773 184.607 934.962 190.049 975.055 186.32C1039.69 180.476 1106.97 149.741 1171.29 132.106C1192.98 126.261 1214.66 122.129 1236.77 120.819C1281.2 118.3 1321.93 127.067 1365.94 137.245C1378.84 140.268 1391.96 143.392 1405.29 146.214C1481.99 162.74 1564.29 166.368 1603.75 159.213M53.7404 423.968C104.738 418.259 163.564 415.154 218.264 415.755C228.951 415.856 239.531 416.156 249.9 416.457C292.221 417.859 329.781 421.565 359.935 426.973C382.788 431.08 402.785 436.589 425.427 438.391C439.076 439.493 453.888 439.293 471.24 435.287C510.07 426.272 550.275 395.022 577.996 361.168C585.931 351.453 593.231 341.637 599.897 331.821C616.614 307.483 630.686 283.344 645.075 262.01C665.389 231.962 685.809 204.518 716.809 188.993C746.752 173.969 785.476 171.465 829.384 172.167C835.944 172.267 842.504 172.467 849.169 172.868C891.596 175.272 929.791 182.683 970.208 180.58C1035.38 177.074 1103.63 147.127 1168.38 128.697C1190.07 122.587 1211.97 117.98 1233.98 115.977C1278.62 112.071 1319.89 118.681 1364.43 127.696C1377.55 130.3 1390.78 133.305 1404.32 136.009C1481.77 151.934 1563.87 159.346 1603.02 158.645M49.3721 414.328C101.132 406.373 161.042 402.748 216.719 404.46C227.621 404.762 238.418 405.366 248.897 406.071C291.977 408.991 330.083 415.234 360.355 423.793C383.219 430.338 403.118 438.695 425.981 442.824C439.953 445.341 454.984 446.449 472.978 443.227C513.095 436.077 554.799 404.158 582.32 368.915C590.258 358.846 597.244 348.575 603.701 338.304C619.79 312.829 632.598 287.253 645.617 264.396C664.035 232.174 682.241 202.167 712.514 183.74C741.304 166.22 780.257 160.581 824.395 160.682C830.958 160.682 837.627 160.883 844.295 161.286C887.058 163.702 925.269 173.268 966.021 172.664C1031.75 171.557 1101.08 141.953 1166.18 122.418C1187.99 115.974 1209.9 110.839 1232.02 108.12C1276.9 102.783 1318.71 107.314 1363.8 115.269C1377.03 117.585 1390.47 120.304 1404.13 123.022C1482.35 138.529 1564.28 149.908 1603.02 155.546M44.2758 405.531C96.6963 395.489 157.801 391.17 214.457 394.183C225.577 394.786 236.484 395.589 247.18 396.694C290.917 401.112 329.782 409.85 360.07 421.499C382.944 430.337 402.853 441.484 425.939 448.012C440.13 451.929 455.591 454.239 474.124 451.929C515.637 446.706 558.738 414.369 586.06 378.014C593.897 367.57 600.78 356.924 607.028 346.279C622.49 319.766 634.033 293.053 645.788 268.85C662.308 234.805 678.405 202.568 707.951 181.277C735.485 161.392 774.668 152.756 819.146 152.153C825.818 152.053 832.489 152.153 839.267 152.555C882.474 154.965 920.598 166.615 961.582 167.418C1027.87 168.724 1098.19 139.8 1163.74 119.313C1185.67 112.585 1207.59 106.86 1229.83 103.546C1274.94 96.8176 1317.3 99.2278 1363.05 106.157C1376.5 108.166 1390.05 110.677 1403.82 113.288C1482.72 128.251 1564.58 143.416 1603.02 155.467M41.3636 396.33C94.438 384.091 156.499 379.276 214.12 383.389C225.432 384.191 236.534 385.295 247.318 386.8C291.723 392.719 331.053 403.954 361.396 418.702C384.233 429.837 404.004 443.882 427.263 452.71C441.642 458.127 457.395 461.639 476.532 460.134C519.245 456.823 563.756 424.019 590.821 386.599C598.539 375.865 605.306 364.829 611.227 353.794C625.922 326.306 636.389 298.317 646.75 272.735C661.446 236.82 675.402 202.21 703.948 178.033C730.274 155.762 769.604 144.124 814.22 142.82C820.881 142.619 827.648 142.72 834.414 143.121C877.867 145.529 915.929 159.273 957.162 161.58C1023.98 165.192 1095.03 136.901 1160.9 115.433C1182.78 108.41 1204.77 102.19 1227.08 98.1775C1272.33 90.0515 1315.15 90.3525 1361.35 96.1711C1374.99 97.8765 1388.63 100.184 1402.48 102.692C1481.99 117.138 1563.61 136.199 1601.56 154.558M36.2673 389.457C90.0131 374.883 153.281 369.519 211.893 374.883C223.426 375.895 234.746 377.413 245.749 379.235C290.925 386.724 330.917 400.489 361.281 418.706C384.134 432.369 403.813 449.372 427.3 460.505C441.9 467.387 457.982 472.144 477.766 471.537C521.778 470.221 567.801 436.519 594.674 397.554C602.397 386.32 608.851 374.883 614.564 363.244C628.635 334.4 637.84 304.948 646.833 277.723C659.634 239.466 671.589 202.323 699.309 174.997C724.489 150.201 763.952 135.222 808.916 133.299C815.582 132.995 822.459 132.995 829.23 133.4C873.031 135.93 911.118 151.82 952.697 155.565C1020.09 161.637 1092.25 133.602 1158.48 111.033C1180.48 103.544 1202.59 96.8638 1224.81 92.107C1270.31 82.4922 1313.68 80.6705 1360.45 85.4273C1374.2 86.8442 1388.06 88.9696 1402.13 91.3986C1482.43 105.467 1563.9 128.542 1601.56 153.54M31.171 379.694C85.6732 362.922 150.017 356.96 209.599 363.528C221.347 364.841 232.776 366.559 243.994 368.782C289.924 377.673 330.457 394.041 360.936 415.36C383.795 431.324 403.373 451.229 427.185 464.667C441.895 473.053 458.405 479.014 478.83 479.216C524.23 479.822 571.642 445.773 598.205 405.661C605.825 394.142 612.175 382.321 617.572 370.297C631.012 340.491 638.95 309.776 646.675 281.182C657.576 241.07 667.524 201.665 694.298 171.455C718.428 144.276 758.008 126.291 803.197 123.664C809.97 123.26 816.743 123.26 823.728 123.664C867.859 126.19 905.957 144.175 947.76 149.429C1015.7 157.916 1088.83 130.535 1155.5 106.892C1177.62 99.112 1199.74 91.9383 1222.07 86.4822C1267.79 75.3681 1311.71 71.5287 1359.12 75.2671C1373.09 76.3785 1387.16 78.1971 1401.24 80.6221C1482.2 94.0601 1563.58 121.138 1600.83 152.46M26.8027 370.509C82.0579 351.566 147.581 344.981 208.129 352.781C219.984 354.301 231.734 356.327 243.06 358.961C289.635 369.394 330.918 388.236 361.403 412.852C384.373 431.187 403.639 454.08 427.773 469.883C442.698 479.709 459.529 486.901 480.594 488.117C527.275 490.649 576.285 456.005 602.536 414.574C610.052 402.722 616.191 390.363 621.378 377.903C634.186 346.906 640.855 314.896 647.312 284.81C656.415 242.568 664.248 200.732 690.076 167.506C713.046 137.825 752.741 116.755 798.258 113.412C805.032 112.906 811.913 112.804 818.899 113.21C863.463 115.742 901.464 135.901 943.594 142.586C1012.08 153.425 1086.28 126.581 1153.29 101.965C1175.52 93.8616 1197.64 86.1628 1220.08 79.9836C1265.92 67.4226 1310.48 61.4459 1358.43 64.0797C1372.51 64.8901 1386.8 66.5109 1400.98 68.7395C1482.7 81.7057 1563.89 112.703 1600.83 150.488M23.8906 360.636C79.7195 339.522 146.334 332.451 207.766 341.341C219.82 343.058 231.663 345.483 243.188 348.412C290.452 360.333 332.218 381.649 362.671 409.329C385.615 430.038 404.754 455.698 429.073 473.781C444.193 484.995 461.323 493.481 482.999 495.501C530.897 499.946 581.334 464.891 607.345 422.361C614.852 410.137 620.773 397.509 625.637 384.679C637.691 352.756 643.295 319.52 648.265 288.102C655.455 244.056 661.376 200.011 686.224 163.946C708.112 132.022 747.869 107.777 793.653 103.837C800.526 103.231 807.398 103.13 814.483 103.534C859.315 106.06 897.275 128.386 939.569 136.467C1008.51 149.802 1083.58 123.537 1150.94 97.8769C1173.14 89.492 1195.45 81.3092 1217.87 74.4397C1263.86 60.4986 1308.91 52.4168 1357.33 53.9322C1371.61 54.4373 1385.99 55.8516 1400.26 57.9731C1482.63 70.3988 1563.52 105.252 1600.11 149.297M18.7942 351.276C75.3981 327.962 143.111 320.291 205.64 330.485C217.913 332.503 229.974 335.128 241.718 338.357C289.752 351.78 332.179 375.599 362.65 406.381C385.608 429.392 404.653 457.853 429.305 478.24C444.646 490.957 462.103 500.545 484.427 503.472C533.731 509.83 585.574 474.304 611.389 430.704C618.795 418.189 624.614 405.17 629.164 391.848C640.591 358.946 644.928 324.429 648.631 291.629C653.922 245.606 657.942 199.382 681.747 160.324C702.696 126.009 742.372 98.7595 788.501 94.016C795.378 93.3095 802.361 93.1077 809.45 93.5114C854.627 96.0345 892.61 120.459 935.248 129.946C1004.76 145.69 1080.83 119.954 1148.65 93.4104C1170.97 84.7308 1193.3 75.9503 1215.73 68.4818C1261.96 53.0401 1307.56 42.9476 1356.66 43.3513C1371.05 43.4522 1385.65 44.7642 1400.03 46.7827C1483.09 58.692 1563.92 97.4475 1600.11 147.809M13.6979 342.158C70.9678 316.602 139.882 308.42 203.398 319.733C215.889 321.956 228.063 324.885 240.025 328.521C288.826 343.472 331.805 369.836 362.399 403.777C385.476 429.233 404.319 460.547 429.196 483.275C444.757 497.417 462.541 508.226 485.513 512.064C536.114 520.247 589.467 484.386 615.085 439.435C622.389 426.505 628 413.171 632.34 399.433C643.137 365.392 646.207 329.633 648.536 295.389C651.924 247.407 654.147 198.718 676.907 156.797C696.808 120.028 736.611 89.6227 782.977 84.269C789.858 83.4609 796.951 83.2588 804.149 83.6629C849.669 86.1882 887.672 112.755 930.651 123.766C1000.73 141.948 1077.9 116.695 1146.18 89.1177C1168.62 80.1274 1190.96 70.8341 1213.51 62.6519C1259.87 45.7825 1306.13 33.4588 1355.78 32.9537C1370.39 32.7517 1385.11 33.7618 1399.71 35.7821C1483.55 47.1967 1564.22 89.8248 1600.11 146.696M9.32969 333.224C67.3344 305.586 137.3 296.81 201.761 309.318C214.463 311.739 226.847 315.068 238.914 319.001C288.345 335.443 332.06 364.291 362.65 401.309C385.725 429.149 404.354 463.242 429.546 488.257C445.212 503.791 463.417 515.895 487.021 520.535C538.993 530.723 593.716 494.309 619.12 448.314C626.423 435.1 631.821 421.281 635.844 407.16C646.005 372.159 647.804 335.039 648.863 299.534C650.345 249.604 650.662 198.767 672.361 153.881C691.308 114.744 731.001 81.357 777.68 75.305C784.666 74.3972 791.758 74.0946 798.955 74.4981C844.788 77.1206 882.787 105.666 925.973 118.174C996.574 138.65 1074.69 114.139 1143.38 85.5935C1165.82 76.3137 1188.26 66.5295 1210.92 57.6531C1257.49 39.3961 1304.27 24.972 1354.45 23.3581C1369.26 22.8538 1384.08 23.6607 1398.8 25.5772C1483.37 36.4709 1563.92 82.971 1599.38 146.114M5.68946 323.415C64.3074 293.56 135.411 284.28 200.906 297.897C213.709 300.62 226.406 304.15 238.574 308.487C288.727 326.34 332.955 357.809 363.64 397.952C386.706 428.11 405.222 465.126 430.722 492.46C446.594 509.506 465.216 522.819 489.34 528.266C542.562 540.369 598.746 503.454 623.823 456.25C631.018 442.735 636.308 428.513 640.117 413.989C649.534 377.88 650.169 339.553 649.958 302.637C649.64 250.794 648.053 197.539 668.58 149.831C686.567 108.276 726.246 71.8644 773.119 65.1066C780.102 64.098 787.297 63.7954 794.598 64.1989C840.836 66.8213 878.716 97.4834 922.203 111.402C993.306 134.298 1072.45 110.293 1141.44 80.8411C1163.98 71.2592 1186.41 60.9713 1209.16 51.3893C1255.92 31.7212 1303.22 15.1798 1354.01 12.4565C1368.93 11.6496 1383.95 12.2548 1398.76 14.0703C1483.94 24.3583 1564.36 74.7894 1599.38 144.384M0.593152 314.454C59.9455 282.313 132.099 272.408 198.54 287.266C264.981 302.123 324.968 341.643 363.161 395.616C400.613 448.578 425.581 520.643 490.118 537.32C544.709 551.369 602.368 513.871 627.125 465.356C651.882 416.841 651.67 360.442 649.448 306.47C647.227 252.497 643.841 196.806 663.308 146.168C682.775 95.5307 732.288 50.8566 788.678 53.9898C835.229 56.6177 873.104 89.4664 916.904 104.931C988.529 130.199 1068.62 106.75 1138.02 76.2258C1207.42 45.7019 1275.87 7.29424 1351.94 1.63417C1453.72 -5.84521 1557.19 53.5855 1597.92 142.934M0.593152 308.427C59.438 276.109 130.983 265.639 197.236 279.331C222.637 284.667 247.191 293.426 270.052 305.306C306.671 324.334 338.739 351.216 362.764 383.534C392.504 423.403 414.835 474.648 452.725 504.147C463.732 512.705 476.009 519.35 490.191 523.377C543.638 538.68 599.625 504.953 626.19 459.547C646.299 425.014 653.284 384.44 655.083 343.564C655.718 330.275 655.824 316.884 655.824 303.695C655.824 249.933 654.766 194.358 675.721 143.917C696.253 94.3833 745.255 50.6886 801.243 53.1049C847.493 55.0178 885.7 86.1276 929.304 101.33C1000.64 126.299 1079.06 106.465 1146.8 80.0869C1154.42 77.1672 1161.93 74.0461 1169.45 71.0257C1229.46 46.5607 1289.25 19.7801 1355.4 17.1624C1372.12 16.4577 1389.06 17.6658 1405.67 20.2835C1487.8 33.6738 1565.48 85.8256 1600.83 154.69M0.593152 303.404C58.9113 270.684 129.824 259.475 195.869 272.199C221.165 277.148 245.72 285.53 268.581 296.941C305.202 315.321 337.589 341.376 362.144 372.985C392.52 411.967 415.594 462.259 453.167 492.151C463.963 500.735 476.029 507.602 489.894 512.046C542.285 528.709 596.687 498.513 624.734 455.795C646.326 423.176 655.64 382.781 659.238 341.78C660.403 328.449 661.144 315.018 661.673 301.789C664.001 247.76 665.271 192.015 687.604 141.521C709.089 92.8443 757.67 49.8235 813.13 51.3383C859.065 52.5501 897.485 82.0387 940.986 97.1869C1011.9 121.929 1088.74 105.67 1154.89 83.2505C1162.3 80.7258 1169.71 78.2011 1177.01 75.5754C1235.43 54.7719 1293.54 31.8476 1358.21 31.5446C1374.61 31.4437 1391.13 33.0594 1407.42 36.1901C1488.18 51.4393 1566.19 102.539 1603.02 166.364M0.593152 297.915C58.2487 265.034 128.599 253.133 194.4 264.732C219.684 269.17 244.121 277.138 266.972 288.131C303.681 305.681 336.264 330.896 361.337 361.659C392.333 399.583 416.242 448.702 453.374 478.859C464.059 487.533 475.907 494.492 489.448 499.233C540.756 517.085 593.44 490.559 623.167 450.921C646.123 420.259 657.972 380.217 663.261 339.47C665.06 326.156 666.329 312.741 667.387 299.529C671.936 245.467 675.638 189.792 699.335 139.362C721.763 91.7556 769.897 49.4949 824.908 50.3018C870.609 50.8061 909.223 78.6437 952.491 93.6719C1022.95 118.181 1098.16 105.473 1162.59 87.2168C1169.78 85.1996 1176.98 83.0816 1184.17 80.8626C1241.09 63.7163 1297.37 44.8554 1360.42 46.9734C1376.39 47.4777 1392.58 49.5958 1408.55 53.0251C1487.79 70.0706 1566.18 119.896 1604.47 178.395M0.593152 292.29C57.6962 259.05 127.383 246.422 192.946 257.131C218.114 261.172 242.541 268.749 265.488 279.156C302.288 295.927 335.069 320.376 360.66 350.382C392.278 387.36 417.023 435.451 453.717 465.962C464.186 474.651 475.818 481.824 489.036 486.876C539.16 506.071 590.447 483.036 621.536 446.261C646.069 417.366 660.24 377.762 667.219 336.945C669.545 323.609 671.343 310.273 673.035 296.937C679.908 242.784 685.83 186.914 710.998 136.5C734.368 89.8233 782.059 48.2995 836.519 48.1985C881.884 48.0974 920.693 74.2645 963.838 89.1161C1033.95 113.364 1107.44 104.271 1170.25 90.0254C1177.23 88.4089 1184.21 86.7924 1191.19 85.0748C1246.5 71.6377 1301.06 56.6851 1362.61 61.1304C1378.26 62.2418 1394.01 64.8686 1409.77 68.7078C1487.49 87.6006 1566.28 136.298 1605.93 189.642M0.593152 287.069C57.1807 253.583 126.249 240.37 191.616 249.952C216.683 253.583 241.117 260.644 264.069 270.629C300.983 286.666 334.089 310.166 360.109 339.315C392.475 375.323 417.966 422.123 454.245 452.885C464.611 461.66 476.034 469.023 488.832 474.369C537.91 494.743 587.728 475.377 620.306 441.69C646.326 414.76 662.826 375.525 671.711 334.878C674.566 321.564 676.999 308.25 679.326 294.936C688.422 240.774 696.673 184.998 723.433 134.668C747.654 88.9776 795.04 48.3305 849.089 47.5236C894.253 46.7167 933.282 71.1251 976.226 85.9518C1045.93 109.957 1117.85 104.309 1178.99 94.2224C1185.86 93.1129 1192.63 91.9026 1199.4 90.6923C1253.24 80.9087 1306.02 70.0157 1366.1 76.7734C1381.33 78.488 1396.77 81.5138 1412.21 85.75C1488.47 106.427 1567.7 153.831 1608.84 201.841M0.593152 281.946C56.6796 248.022 125.253 234.048 190.229 242.655C215.203 245.896 239.648 252.478 262.718 262.098C299.65 277.389 333.09 300.275 359.652 328.629C392.669 363.768 419.019 409.64 454.893 440.83C465.158 449.64 476.269 457.234 488.862 462.905C536.906 484.677 585.267 468.779 619.343 437.893C647.068 412.678 665.799 373.793 676.381 332.983C679.873 319.718 682.837 306.249 685.694 292.883C697.123 238.504 707.599 182.403 735.854 131.974C761.04 87.1134 808.026 47.114 861.572 45.4938C906.441 43.9748 945.702 66.8606 988.56 81.5439C1057.87 105.341 1128.25 103.316 1187.83 97.2399C1194.49 96.531 1201.05 95.8222 1207.72 95.012C1260 88.9362 1311.11 81.9489 1369.63 91.0627C1384.45 93.3918 1399.58 96.936 1414.71 101.493C1489.53 124.075 1569.21 170.353 1611.75 213.39M0.593152 275.527C56.0469 241.47 124.094 226.961 188.861 234.417C213.73 237.238 238.177 243.385 261.247 252.352C298.287 266.761 331.94 288.727 359.138 316.134C392.791 350.09 419.883 394.626 455.441 425.962C465.495 434.829 476.501 442.487 488.671 448.432C535.553 471.405 582.752 459.213 617.993 431.403C647.413 408.228 668.367 369.94 680.643 329.434C684.664 316.234 688.262 302.833 691.649 289.533C705.406 235.324 718 179.503 747.843 129.324C773.877 85.594 820.547 46.7006 873.673 44.1816C918.226 42.0656 957.7 63.1245 1000.45 77.5332C1069.45 100.91 1138.14 102.522 1196.02 100.507C1202.48 100.305 1208.94 100.003 1215.28 99.7004C1265.98 97.2822 1315.4 94.2594 1372.44 105.746C1386.94 108.668 1401.65 112.699 1416.46 117.636C1489.91 141.919 1569.91 186.757 1613.94 224.341M0.593152 270.966C55.4881 236.687 122.864 221.362 187.384 227.815C212.24 230.235 236.568 235.88 259.626 244.45C296.751 258.162 330.598 279.233 358.31 305.85C392.579 338.818 420.503 382.271 455.619 413.929C465.561 422.801 476.244 430.665 488.196 437.017C533.995 461.314 579.899 452.745 616.39 427.741C647.487 406.468 670.545 368.459 684.612 328.03C689.266 314.823 693.391 301.414 697.305 288.105C713.276 233.864 728.084 177.909 759.498 127.801C786.258 85.0536 832.691 46.9436 885.365 43.6165C929.683 40.7935 969.347 60.151 1011.87 74.5682C1080.41 97.7569 1147.46 102.899 1203.73 105.016C1209.98 105.218 1216.22 105.419 1222.46 105.621C1271.64 106.932 1319.24 107.839 1374.66 121.752C1388.73 125.281 1403.11 129.818 1417.71 135.06C1489.63 161.173 1570.02 204.828 1615.39 237.191M0.593152 265.333C55.007 230.72 121.807 214.776 186.172 220.125C210.944 222.143 235.293 227.39 258.477 235.463C295.635 248.38 329.829 268.663 358.094 294.497C393.029 326.486 421.718 368.869 456.547 400.858C466.287 409.839 476.873 417.812 488.412 424.472C533.193 450.103 577.973 445.159 615.554 423.059C648.478 403.684 673.673 366.044 689.447 325.578C694.634 312.358 699.292 299.038 703.845 285.617C722.159 231.225 739.097 175.118 772.127 125.065C799.757 83.1869 845.913 45.9504 898.104 41.7121C942.143 38.1801 982.054 55.9406 1024.51 70.1692C1092.68 93.0763 1158.21 101.856 1212.94 108.011C1219.08 108.718 1225.12 109.323 1231.15 109.929C1278.79 114.873 1324.73 119.818 1378.72 136.065C1392.38 140.202 1406.46 145.147 1420.75 150.798C1491.26 178.751 1572.03 221.235 1619.03 248.38M0.593152 259.967C54.4557 225.169 120.593 208.575 184.72 212.9C209.377 214.509 233.609 219.236 256.89 226.779C294.139 238.847 328.53 258.258 357.313 283.3C392.975 314.176 422.393 355.31 456.785 387.493C466.414 396.443 476.679 404.69 488.002 411.529C531.6 438.281 575.303 437.175 614.034 417.865C648.743 400.567 676.044 363.255 693.505 323.127C699.219 309.952 704.51 296.676 709.589 283.3C730.118 229.092 749.272 173.073 783.875 123.29C812.235 82.4579 858.161 46.1514 909.907 41.2233C953.611 37.0999 993.823 53.0908 1036.05 67.0703C1103.88 89.699 1167.58 101.868 1220.7 112.127C1226.63 113.233 1232.45 114.339 1238.27 115.445C1284.41 124.095 1328.53 132.945 1381.02 151.45C1394.35 156.177 1408 161.608 1421.97 167.642C1490.97 197.311 1572.13 238.344 1620.49 260.269M0.593152 254.202C53.7956 218.983 119.373 201.726 183.259 204.956C207.797 206.167 232.019 210.405 255.288 217.57C292.625 228.973 327.318 247.643 356.51 271.862C392.79 301.834 423.04 341.998 456.992 374.493C466.406 383.575 476.56 391.951 487.454 399.217C529.974 427.373 572.599 429.996 612.263 413.446C648.86 398.208 678.052 360.97 697.302 320.705C703.649 307.586 709.466 294.165 715.072 280.743C737.918 226.249 759.178 169.938 795.457 120.086C824.544 80.0226 870.237 44.5005 921.43 38.7483C964.901 33.9044 1005.2 48.2343 1047.3 62.2616C1114.67 84.6647 1176.76 100.508 1228.27 114.838C1233.98 116.453 1239.69 117.967 1245.3 119.581C1289.83 131.893 1332.24 144.81 1383.12 165.7C1396.02 171.048 1409.35 177.002 1423.1 183.36C1490.69 214.946 1572.13 254.909 1621.95 271.56M0.593152 248.522C53.2351 213.123 118.139 195.071 181.774 197.29C206.193 198.096 230.4 201.929 253.761 208.484C291.181 219.074 326.064 236.924 355.768 260.322C392.659 289.266 423.737 328.296 457.246 361.073C466.548 370.149 476.379 378.722 486.95 386.285C528.387 415.835 569.93 422.289 610.627 408.271C649.104 395.16 680.287 358.047 701.323 317.908C708.194 304.797 714.642 291.384 720.773 277.971C745.826 223.511 769.187 167.135 807.136 117.415C836.945 78.2848 882.399 43.5918 933.138 37.0365C976.266 31.4896 1016.75 44.197 1058.72 58.0137C1125.63 80.201 1186.09 99.5645 1235.88 117.919C1241.48 119.936 1246.88 121.954 1252.37 123.971C1295.29 140.006 1335.99 156.848 1385.35 180.145C1397.93 186.095 1410.83 192.55 1424.25 199.307C1490.32 232.689 1572.14 271.416 1623.4 282.812M0.593152 243.13C52.7657 207.365 117.108 188.675 180.604 189.786C204.944 190.19 229.179 193.524 252.566 199.687C290.029 209.487 325.269 226.561 355.536 249.191C393.104 277.277 425.064 315.163 458.188 348.301C467.395 357.494 477.025 366.183 487.29 374.063C527.61 404.978 568.247 415.283 609.943 403.968C650.369 392.956 683.598 355.979 706.351 315.87C713.865 302.737 720.849 289.3 727.517 275.863C754.926 221.206 780.324 164.63 820.009 114.924C850.593 76.6338 895.887 42.7891 946.154 35.414C989.12 29.1502 1029.86 40.2633 1071.56 54.0033C1138.23 75.9266 1197.07 98.9612 1245.33 121.491C1250.72 124.016 1256.01 126.441 1261.2 128.967C1302.68 148.667 1341.52 169.58 1389.46 195.242C1401.63 201.809 1414.23 208.679 1427.35 215.852C1492.01 251.111 1574.34 288.694 1627.04 294.856M0.593152 237.389C52.232 201.352 115.934 181.971 179.213 182.072C203.551 182.072 227.677 184.999 251.063 190.652C288.628 199.737 324.077 215.888 354.869 237.692C393.175 264.745 425.873 301.488 458.57 334.9C467.565 344.086 476.983 353.07 486.93 361.247C526.188 393.448 565.763 407.782 608.514 398.899C650.735 390.218 685.972 353.171 710.521 313.198C718.564 300.075 726.077 286.75 733.484 273.224C763.113 218.613 790.625 161.782 832 112.42C863.322 75.0712 908.4 42.0626 958.24 33.8861C1000.88 26.921 1041.84 36.4097 1083.42 49.9362C1149.66 71.5382 1206.91 98.0864 1253.47 124.736C1258.66 127.663 1263.73 130.691 1268.81 133.619C1308.71 157.038 1345.85 181.87 1392.3 209.831C1404.05 216.998 1416.32 224.367 1429.13 231.837C1492.3 268.883 1575.05 305.122 1629.23 306.132M0.593152 231.974C51.5665 195.524 114.702 175.476 177.731 174.464C201.949 174.059 226.06 176.489 249.538 181.652C287.186 189.955 322.825 205.345 354.128 226.405C393.046 252.527 426.57 288.269 458.825 322.086C467.708 331.401 476.909 340.514 486.532 349.019C524.604 382.634 563.098 401.061 606.986 394.683C651.085 388.304 688.311 351.145 714.538 311.05C723.104 297.887 731.247 284.522 739.178 270.955C771.116 216.077 800.621 158.972 843.663 109.562C875.601 72.9098 920.546 40.7123 969.933 31.8023C1012.23 24.1073 1053.48 31.9036 1094.83 45.3698C1160.71 66.8348 1216.23 97.0073 1261.18 127.787C1266.15 131.23 1271.12 134.672 1275.88 138.014C1314.27 165.25 1349.59 194.106 1394.54 224.481C1405.96 232.277 1417.8 240.175 1430.39 248.072C1492.15 287.054 1575.16 322.188 1630.68 317.935M0.593152 226.871C51.1139 190.202 113.709 169.493 176.622 167.473C200.77 166.664 224.918 168.685 248.431 173.332C286.242 180.807 322.253 195.354 354.027 215.557C393.638 240.61 428.06 275.158 459.94 309.201C468.731 318.494 477.628 327.788 486.948 336.577C523.912 371.428 561.406 393.955 606.419 389.914C652.385 385.873 691.785 348.8 719.746 308.797C728.961 295.765 737.646 282.33 746.119 268.794C780.329 213.941 811.891 156.765 856.799 107.771C889.42 72.1117 934.327 40.7962 983.259 31.1995C1025.31 22.815 1066.83 28.9771 1108.13 42.3115C1173.69 63.4242 1227.71 97.1641 1271.03 131.914C1275.9 135.753 1280.56 139.693 1285.22 143.531C1322.08 174.342 1355.76 207.072 1399.18 239.902C1410.2 248.186 1421.74 256.57 1434.03 264.854C1494.4 305.463 1577.96 339.405 1635.05 329.909M0.593152 221.161C50.5767 184.368 112.527 162.997 175.218 159.872C199.257 158.663 223.401 160.175 247.016 164.409C284.822 171.162 321.144 184.872 353.443 204.125C393.684 228.117 428.948 261.483 460.399 295.757C468.977 305.132 477.661 314.607 486.768 323.68C522.667 359.768 558.99 386.279 605.161 384.767C653.026 383.154 694.326 345.957 724.084 306.24C733.826 293.237 743.145 279.83 752.146 266.322C788.681 211.585 822.25 154.328 868.845 105.539C902.203 70.7611 946.891 40.419 995.392 30.0361C1037.22 20.9637 1078.84 25.4999 1120.03 38.6045C1185.16 59.471 1237.58 96.6678 1279.3 135.377C1283.96 139.711 1288.52 144.046 1292.96 148.381C1328.23 182.856 1360.21 219.448 1402.14 254.528C1412.84 263.398 1424.06 272.269 1435.93 280.938C1494.8 323.276 1578.78 355.937 1637.24 341.22M2.04925 215.791C51.4238 178.762 112.64 156.726 174.913 152.6C198.807 150.99 222.913 151.996 246.49 155.719C284.34 161.656 320.816 174.536 353.592 192.95C394.402 215.892 430.35 247.991 461.433 282.605C469.892 291.963 478.35 301.623 487.019 310.981C521.698 348.413 557.011 376.889 604.059 379.807C653.434 382.826 696.993 343.382 728.394 303.736C738.755 290.756 748.482 277.373 758.103 263.889C796.8 209.15 832.324 151.694 880.747 103.395C914.685 69.4852 959.196 40.2039 1007.09 29.0348C1048.54 19.2743 1090.4 22.0917 1131.32 35.1727C1196.02 55.6999 1246.67 96.4523 1286.63 139.116C1291.07 143.846 1295.41 148.676 1299.64 153.405C1333.36 191.441 1363.5 231.992 1403.78 269.323C1414.03 278.781 1424.92 288.139 1436.55 297.095C1493.86 341.168 1578.12 372.562 1637.96 352.639M2.04925 210.984C50.8069 173.519 111.516 150.798 173.6 145.546C197.397 143.527 221.511 144.133 245.097 147.364C283.067 152.615 319.767 164.632 353.083 182.304C394.648 204.319 431.349 235.422 462.021 270.463C470.27 279.956 478.52 289.751 486.875 299.445C520.403 338.324 554.459 373.163 602.9 376.294C654.195 379.626 699.78 341.959 732.99 302.273C743.884 289.246 754.249 275.815 764.402 262.283C805.439 207.348 842.88 149.384 893.118 101.215C927.703 67.9911 972.125 39.6147 1019.61 27.4967C1060.86 16.9944 1102.85 18.2062 1143.68 31.1321C1207.98 51.5308 1257.06 95.8626 1295.45 142.921C1299.68 148.172 1303.91 153.423 1307.93 158.674C1340.08 200.582 1368.53 245.217 1407.35 285.005C1417.18 295.103 1427.76 304.999 1439.08 314.29C1494.92 360.338 1579.53 390.532 1640.88 365.388M2.04925 205.493C50.2769 167.712 110.35 144.275 172.221 138.012C196.018 135.588 220.026 135.689 243.717 138.416C281.685 142.861 318.702 154.074 352.546 170.944C394.745 191.956 432.291 221.959 462.539 257.316C470.683 266.811 478.615 276.913 486.759 286.914C519.122 327.221 552.014 366.113 601.617 371.669C654.604 377.528 702.303 339.646 737.31 300.047C748.732 287.015 759.732 273.681 770.414 260.043C813.671 204.988 853.12 146.7 905.155 98.8167C940.374 66.3896 984.689 38.9124 1031.65 26.0829C1072.58 14.8698 1114.88 14.4657 1155.5 27.1942C1219.38 47.297 1266.86 95.2811 1303.56 146.397C1307.69 152.054 1311.6 157.812 1315.51 163.57C1346.18 209.13 1372.84 257.821 1410.17 299.946C1419.69 310.654 1429.84 320.958 1440.84 330.757C1495.31 378.64 1580.24 407.632 1643.06 377.225M2.04925 200.119C68.0143 147.718 156.602 121.768 242.124 130.016C327.646 138.163 409.045 180.305 462.748 244.172C502.919 292.048 536.43 356.619 599.963 366.275C654.512 374.623 704.514 336.604 741.196 297.278C801.876 232.103 849.552 155.965 916.68 96.9254C983.914 37.8858 1079.9 -2.94907 1166.8 24.1066C1237.41 46.0327 1286.04 107.084 1322.51 168.638C1358.98 230.192 1389.01 296.976 1441.97 346.561C1494.93 396.146 1580.24 423.705 1644.52 388.201" stroke="#FFA866" stroke-width="2" stroke-miterlimit="10"/>
</svg>
