<svg width="1819" height="715" viewBox="0 0 1819 715" fill="none" xmlns="http://www.w3.org/2000/svg">
<path d="M84.8765 516.692C149.807 466.592 299.596 468.872 426.906 521.771C487.213 546.838 544.11 582.276 606.995 595.67C675.131 610.114 731.284 594.136 767.419 569.99C803.554 545.845 826.18 514.038 864.297 491.112C902.414 468.187 962.929 455.206 1031.15 473.668C1078.94 486.589 1122.28 512.616 1169.54 527.848C1234.39 548.759 1298.37 546.757 1351.1 537.515C1403.72 528.216 1450.09 512.421 1506.54 507.39C1589.83 499.976 1693.28 517.724 1786.31 555.433" stroke="#6AF4DE" stroke-miterlimit="10"/>
<path d="M81.6355 497.194C128.585 462.795 216.433 453.82 308.981 469.69C347.647 476.322 387.302 487.362 424.998 502.891C462.693 518.42 499.04 538.07 535.695 554.257C558.092 564.201 580.52 572.779 603.69 578.383C643.555 587.979 679.136 587.11 709.876 579.967C730.202 575.261 748.036 567.684 762.953 558.823C782.173 547.316 797.933 533.462 813.982 519.847C828.992 507.15 844.254 494.5 863.083 483.995C879.329 474.974 899.249 467.636 921.878 463.543C953.953 457.798 991.41 458.611 1031.1 469.842C1057.3 477.306 1082.04 488.573 1106.88 499.898C1127.27 509.208 1147.54 518.46 1168.6 525.709C1206.78 538.736 1244.48 544.075 1279.95 544.705C1304.18 545.171 1327.36 543.44 1348.84 540.468C1380.31 536.129 1409.62 529.35 1440.36 523.765C1461.16 519.999 1482.46 516.585 1505.46 514.932C1538.84 512.468 1575.08 513.498 1612.4 517.955C1669.44 524.63 1728.88 539.051 1784.57 560.296" stroke="#6AF4DE" stroke-miterlimit="10"/>
<path d="M78.3589 477.763C126.463 444.32 214.311 435.604 306.858 451.215C345.596 457.712 385.106 468.502 422.981 483.953C460.748 499.348 497.49 519.034 533.752 535.705C556.007 545.918 577.897 554.989 600.387 561.096C639.212 571.611 673.541 572.064 704.466 566.402C724.832 562.666 742.956 555.847 758.344 547.666C778.179 537.089 794.481 524.04 811.144 511.094C826.659 499.01 842.462 486.905 861.689 476.956C878.261 468.366 898.506 461.459 921.424 457.864C953.933 452.867 991.429 454.39 1030.98 466.151C1057.14 473.942 1081.88 485.469 1106.44 497.074C1126.68 506.654 1146.81 516.176 1167.73 523.694C1205.56 537.396 1242.75 543.68 1278.05 545.426C1302.07 546.556 1325.18 545.739 1346.66 543.545C1378.17 540.437 1407.73 534.743 1438.84 530.04C1459.89 526.84 1481.45 523.992 1504.48 522.532C1538.05 520.509 1574.5 521.653 1611.82 525.85C1668.89 532.198 1727.72 545.43 1783.15 565.331" stroke="#6AF4DE" stroke-miterlimit="10"/>
<path d="M75.118 458.265C124.519 425.767 212.334 417.378 304.771 432.672C343.437 439.045 383.054 449.633 421 464.949C458.947 480.265 495.832 499.941 531.701 517.094C553.885 527.702 575.166 537.141 596.974 543.752C634.654 555.128 667.91 557.087 699.092 552.768C719.533 549.936 737.948 543.875 753.77 536.442C774.076 526.804 791.208 514.539 808.268 502.149C824.433 490.668 840.634 479.118 860.294 469.657C877.335 461.487 897.833 455.146 920.933 451.993C953.769 447.686 991.376 450.046 1030.82 462.269C1056.8 470.396 1081.54 482.183 1106 493.991C1126.13 503.772 1146.12 513.564 1166.71 521.431C1204.08 535.75 1240.98 543.093 1275.86 545.908C1299.74 547.827 1322.7 547.799 1344.3 546.441C1375.78 544.438 1405.67 539.954 1437.14 536.134C1458.41 533.567 1480.15 531.161 1503.33 529.949C1537.21 528.357 1573.74 529.626 1610.92 533.574C1667.92 539.538 1726.37 551.627 1781.3 570.137" stroke="#6AF4DE" stroke-miterlimit="10"/>
<path d="M71.8771 438.767C122.468 407.157 210.248 399.095 302.793 414.187C341.494 420.492 381.074 430.888 419.2 446.126C457.218 461.307 494.427 481.155 529.866 498.599C551.907 509.476 572.687 519.341 593.814 526.455C630.311 538.76 662.53 542.156 693.826 539.192C714.307 537.331 733.121 532.084 749.34 525.207C770.153 516.442 787.863 504.914 805.609 493.319C822.172 482.392 839.058 471.378 859.079 462.54C876.445 454.801 897.269 448.891 920.623 446.304C953.785 442.687 991.539 445.815 1030.88 458.5C1056.83 466.955 1081.42 479.012 1105.63 491.032C1125.65 501.016 1145.35 511.088 1165.77 519.292C1202.78 534.286 1239.19 542.573 1273.89 546.504C1297.51 549.155 1320.45 549.973 1342.16 549.451C1373.68 548.678 1403.71 545.221 1435.55 542.284C1456.96 540.226 1478.99 538.318 1502.35 537.548C1536.53 536.454 1573.2 537.713 1610.23 541.412C1667.3 546.981 1725.21 558.006 1779.77 575.114" stroke="#6AF4DE" stroke-miterlimit="10"/>
<path d="M68.6361 419.269C120.417 388.547 208.162 380.812 300.706 395.644C339.334 401.825 379.022 412.018 417.219 427.121C455.416 442.225 492.769 462.062 527.815 479.988C549.678 491.203 569.955 501.494 590.51 509.168C625.968 522.391 656.935 527.11 688.524 525.684C708.972 524.668 728.149 520.304 744.838 514.107C766.23 506.339 784.662 495.538 802.879 484.623C820.055 474.367 837.374 463.84 857.829 455.49C875.628 448.24 896.777 442.76 920.312 440.614C953.909 437.745 991.701 441.585 1030.9 454.799C1056.81 463.581 1081.27 475.907 1105.33 488.198C1125.21 498.451 1144.8 508.726 1165 517.334C1201.55 532.946 1237.57 542.235 1271.99 547.225C1295.47 550.665 1318.27 552.272 1339.98 552.528C1371.57 552.919 1401.83 550.614 1434.03 548.56C1455.66 547.135 1477.87 545.668 1501.37 545.147C1535.88 544.485 1572.62 545.868 1609.51 549.317C1666.5 554.503 1723.91 564.396 1778.21 580.159" stroke="#6AF4DE" stroke-miterlimit="10"/>
<path d="M65.2514 399.781C118.186 370.014 205.932 362.539 298.583 377.169C337.248 383.282 376.826 393.159 415.166 408.252C453.399 423.288 491.327 442.824 525.728 461.446C547.305 473.2 567.189 483.714 587.062 491.891C621.374 505.976 651.16 512.143 683.006 512.061C703.494 512.016 722.997 508.343 740.121 502.893C761.984 496.065 781.102 486.058 799.86 475.688C817.542 466.045 835.402 456.064 856.362 448.326C874.595 441.564 895.962 436.458 919.75 434.878C953.709 432.632 991.613 437.307 1030.67 451.051C1056.51 460.227 1080.93 472.621 1104.78 485.316C1124.52 495.84 1144 506.317 1163.92 515.206C1200.14 531.425 1235.62 541.726 1269.83 547.899C1293.07 552.071 1315.94 554.581 1337.65 555.616C1369.22 557.112 1399.8 556.017 1432.33 554.913C1454.18 554.121 1476.6 553.029 1500.22 552.824C1534.94 552.535 1571.9 554.033 1608.64 557.233C1665.71 562.024 1722.6 570.786 1776.4 585.157" stroke="#6AF4DE" stroke-miterlimit="10"/>
<path d="M62.0104 380.283C116.135 351.404 203.954 344.313 296.496 358.626C335.088 364.615 374.773 374.289 413.294 389.304C451.706 404.263 489.707 424.183 523.785 442.893C545.435 454.772 564.457 465.867 583.794 474.537C616.958 489.483 645.564 497.098 677.632 498.428C698.196 499.286 717.845 496.381 735.655 491.726C758.025 485.77 777.829 476.558 797.165 466.925C815.388 457.827 833.862 448.516 855.148 441.209C873.741 434.81 895.397 430.203 919.476 429.122C953.76 427.566 991.811 433.009 1030.76 447.215C1056.57 456.718 1080.92 469.507 1104.55 482.347C1124.22 493.006 1143.38 503.831 1163.12 513.057C1198.88 529.893 1233.97 541.196 1267.89 548.428C1290.88 553.331 1313.72 556.687 1335.54 558.559C1367.15 561.285 1397.88 561.218 1430.77 560.996C1452.87 560.77 1475.45 560.186 1499.17 560.299C1534.18 560.508 1571.24 562.063 1607.85 565.014C1664.94 569.478 1721.34 577.108 1774.76 590.078" stroke="#6AF4DE" stroke-miterlimit="10"/>
<path d="M58.7695 360.785C114.192 332.851 201.833 326.098 294.445 340.016C333 345.813 372.721 355.42 411.348 370.232C449.94 385.113 488.084 405.023 521.769 424.215C543.241 436.432 561.798 447.884 580.418 457.126C612.508 473.058 639.861 481.996 672.294 484.727C692.789 486.499 712.873 484.342 731.117 480.434C753.958 475.418 774.484 466.933 794.397 458.037C813.234 449.609 832.142 440.786 853.825 434.035C872.852 428.124 894.798 424.015 919.057 423.375C953.776 422.567 991.974 428.779 1030.67 443.457C1056.45 453.287 1080.69 466.278 1104.03 479.399C1123.56 490.327 1142.62 501.354 1162.03 510.928C1197.47 528.371 1231.92 540.629 1265.77 549.035C1288.62 554.727 1311.32 558.872 1333.18 561.454C1364.76 565.286 1395.82 566.429 1429.07 567.089C1451.39 567.497 1474.18 567.287 1498.12 567.773C1533.35 568.357 1570.49 570.036 1607.09 572.728C1664.11 576.807 1719.99 583.305 1773.09 594.806" stroke="#6AF4DE" stroke-miterlimit="10"/>
<path d="M55.5286 341.286C112.141 314.241 199.747 307.815 292.466 321.531C331.057 327.26 370.777 336.607 409.44 351.352C448.103 366.098 486.571 386.18 519.826 405.662C541.155 418.149 559.174 430.094 577.114 439.839C608.057 456.632 634.265 466.95 666.884 471.161C687.346 473.78 707.794 472.505 726.543 469.21C749.891 465.066 771.103 457.375 791.63 449.149C810.973 441.334 830.422 433.056 852.503 426.861C871.963 421.438 894.125 417.703 918.639 417.629C953.684 417.511 992.029 424.491 1030.62 439.631C1056.25 449.731 1080.46 463.049 1103.7 476.372C1123.12 487.503 1142.03 498.8 1161.23 508.779C1196.31 526.897 1230.26 540.099 1263.84 549.563C1286.43 555.987 1308.99 560.922 1331.07 564.397C1362.69 569.459 1394.01 571.686 1427.51 573.173C1450.09 574.146 1473.13 574.502 1497.11 575.18C1532.63 576.262 1569.91 577.931 1606.44 580.498C1663.53 584.183 1718.91 589.549 1771.6 599.716" stroke="#6AF4DE" stroke-miterlimit="10"/>
<path d="M52.2876 321.788C110.054 295.699 197.661 289.532 290.379 302.988C328.898 308.592 368.616 317.68 407.567 332.405C446.409 347.073 485.022 367.144 517.883 387.109C539.033 399.933 556.551 412.304 573.953 422.542C603.858 440.253 628.67 451.905 661.618 457.585C682.012 461.117 702.894 460.59 722.078 458.043C745.896 454.838 767.83 447.874 788.827 440.329C808.784 433.183 828.666 425.393 851.18 419.686C870.965 414.694 893.453 411.391 918.256 411.815C953.663 412.32 992.119 420.136 1030.46 435.748C1056.06 446.175 1080.13 459.763 1103.22 473.356C1122.5 484.757 1141.16 496.267 1160.22 506.515C1194.83 525.251 1228.39 539.455 1261.75 550.103C1284.14 557.191 1306.63 563.039 1328.82 567.35C1360.41 573.517 1391.94 576.897 1425.88 579.391C1448.68 580.998 1471.9 581.795 1496.02 582.722C1531.87 584.235 1569.33 586.086 1605.64 588.279C1662.73 591.704 1717.64 595.871 1769.86 604.579" stroke="#6AF4DE" stroke-miterlimit="10"/>
<path d="M49.011 302.358C107.967 277.156 195.54 271.316 288.365 284.57C326.919 290.107 366.601 299.003 405.623 313.592C444.536 328.125 483.473 348.368 515.904 368.624C536.984 381.842 553.928 394.514 570.614 405.322C599.371 423.895 623.039 436.927 656.316 444.077C676.786 448.512 697.922 448.81 717.576 446.943C741.901 444.611 764.594 438.566 786.132 431.566C806.63 424.965 827.053 417.721 849.93 412.637C870.148 408.133 892.926 405.327 917.91 406.193C953.752 407.446 992.246 415.973 1030.45 432.115C1055.98 442.936 1079.97 456.659 1102.89 470.589C1122.05 482.192 1140.58 493.972 1159.31 504.568C1193.57 523.979 1226.63 539.127 1259.71 550.834C1281.95 558.711 1304.34 565.28 1326.61 570.495C1358.27 577.825 1390.02 582.357 1424.33 585.733C1447.23 587.916 1470.78 589.145 1495.08 590.513C1531.25 592.457 1568.68 594.376 1604.99 596.309C1662.15 599.34 1716.4 602.385 1768.37 609.749" stroke="#6AF4DE" stroke-miterlimit="10"/>
<path d="M45.77 282.859C105.915 258.546 193.562 253.09 286.278 266.028C324.76 271.44 364.549 280.133 403.642 294.588C442.735 309.043 481.923 329.332 513.853 350.014C534.754 363.57 551.197 376.667 567.237 387.911C594.848 407.345 617.227 421.768 650.833 430.386C671.271 435.668 692.698 436.724 712.894 435.662C737.69 434.269 761.105 428.951 783.221 422.688C804.225 416.7 825.298 410.058 848.499 405.405C869.187 401.322 892.145 398.958 917.42 400.322C953.587 402.266 992.229 411.561 1030.32 428.164C1055.82 439.313 1079.78 453.363 1102.44 467.506C1121.47 479.379 1139.85 491.428 1158.29 502.304C1192.13 522.265 1224.79 538.415 1257.66 551.305C1279.66 559.914 1302.01 567.33 1324.28 573.323C1355.87 581.826 1387.99 587.501 1422.55 591.702C1445.71 594.451 1469.41 596.188 1493.86 597.806C1530.2 600.191 1567.85 602.224 1604.01 603.908C1661.1 606.555 1714.99 608.458 1766.45 614.43" stroke="#6AF4DE" stroke-miterlimit="10"/>
<path d="M42.5291 263.361C103.829 240.003 191.476 234.807 284.191 247.485C322.708 252.83 362.496 261.263 401.769 275.641C440.933 289.961 480.338 310.364 511.909 331.461C532.668 345.286 548.574 358.877 563.933 370.624C590.47 391.044 611.524 406.666 645.532 416.878C665.937 423.005 687.727 424.944 708.429 424.494C733.731 423.974 757.832 419.451 780.418 413.868C802.036 408.55 823.542 402.396 847.249 398.355C868.262 394.703 891.654 392.827 917.074 394.7C953.676 397.391 992.356 407.398 1030.31 424.531C1055.77 436.006 1079.58 450.326 1102 464.682C1120.92 476.757 1139.15 489.076 1157.39 500.358C1190.86 520.993 1223.03 538.087 1255.61 552.037C1277.36 561.378 1299.68 569.639 1322.06 576.468C1353.63 586.077 1385.97 592.904 1421 598.045C1444.37 601.427 1468.29 603.538 1492.84 605.473C1529.52 608.289 1567.27 610.379 1603.29 611.814C1660.41 614.133 1713.79 614.905 1764.89 619.476" stroke="#6AF4DE" stroke-miterlimit="10"/>
<path d="M39.18 243.806C101.777 221.393 189.282 216.467 282.104 228.942C320.585 234.095 360.336 242.337 399.752 256.703C439.096 270.946 478.753 291.396 509.858 312.851C530.439 327.014 545.879 340.962 560.521 353.28C585.911 374.561 605.712 391.506 640.049 403.187C660.422 410.161 682.61 412.915 703.855 413.27C729.628 413.689 754.451 409.893 777.651 404.98C799.774 400.275 821.821 394.666 845.962 391.114C867.408 387.95 891.017 386.448 916.691 388.886C953.619 392.268 992.446 403.042 1030.26 420.705C1055.65 432.575 1079.39 447.03 1101.66 461.655C1120.44 474.001 1138.43 486.533 1156.48 498.151C1189.6 519.461 1221.16 537.443 1253.64 552.633C1275.25 562.763 1297.42 571.813 1319.92 579.478C1351.45 590.193 1384.12 598.229 1419.51 604.253C1443.14 608.201 1467.31 610.878 1491.9 613.004C1528.87 616.319 1566.73 618.466 1602.6 619.652C1659.8 621.577 1712.53 621.227 1763.29 624.329" stroke="#6AF4DE" stroke-miterlimit="10"/>
<path d="M35.9391 224.308C99.7261 202.783 187.196 198.184 280.017 210.4C318.425 215.428 358.248 223.534 397.771 237.699C437.259 251.931 477.167 272.428 507.915 294.298C528.425 308.855 543.256 323.172 557.361 335.983C581.604 358.125 600.188 376.326 634.783 389.611C655.123 397.431 677.567 401.01 699.389 402.103C725.669 403.394 751.25 400.517 774.956 396.217C797.693 392.182 820.174 387.061 844.712 384.064C866.591 381.388 890.49 380.384 916.381 383.197C953.743 387.326 992.609 398.812 1030.32 416.936C1055.56 429.076 1079.27 443.858 1101.4 458.753C1120.07 471.301 1137.91 484.103 1155.68 496.002C1188.33 517.929 1219.5 536.913 1251.7 553.162C1273.09 563.956 1295.2 573.92 1317.7 582.363C1349.31 594.241 1382.2 603.43 1417.81 610.346C1441.66 614.928 1466.01 618.046 1490.82 620.546C1528.11 624.292 1566.04 626.563 1601.81 627.433C1658.93 628.974 1711.29 627.482 1761.66 629.249" stroke="#6AF4DE" stroke-miterlimit="10"/>
<path d="M32.6624 204.877C97.6391 184.24 185.182 180.025 277.894 191.925C316.338 196.885 356.16 204.732 395.719 218.829C435.278 232.926 475.402 253.538 505.828 275.755C526.16 290.65 540.489 305.392 553.913 318.706C577.117 341.767 594.449 361.291 629.373 376.046C649.716 384.644 672.523 389.106 694.78 390.946C721.567 393.11 747.834 391.027 772.153 387.397C795.431 383.906 818.526 379.456 843.353 376.957C865.666 374.769 889.782 374.14 915.819 377.461C953.508 382.281 992.52 394.535 1030.08 413.188C1055.3 425.656 1078.86 440.707 1100.85 455.872C1119.38 468.69 1137.08 481.762 1154.67 493.998C1186.96 516.6 1217.67 536.461 1249.65 553.893C1270.8 565.419 1292.91 576.162 1315.49 585.508C1347.06 598.491 1380.17 608.833 1416.26 616.689C1440.32 621.904 1464.89 625.396 1489.81 628.213C1527.28 632.4 1565.46 634.718 1601.16 635.463C1658.35 636.609 1710.17 634.053 1760.06 634.361" stroke="#6AF4DE" stroke-miterlimit="10"/>
<path d="M29.4215 185.379C95.5522 165.698 183.097 161.742 275.915 173.439C314.287 178.275 354.216 185.92 393.954 199.939C433.693 213.958 474.069 234.617 503.993 257.259C524.147 272.492 538.009 287.592 550.717 301.477C572.775 325.399 588.889 346.178 624.072 362.537C644.382 371.981 667.479 377.201 690.314 379.779C717.572 382.882 744.561 381.527 769.35 378.577C793.242 375.756 816.77 371.793 842.031 369.783C864.704 367.959 889.218 367.884 915.436 371.647C953.559 377.214 992.683 390.304 1030.03 409.363C1055.17 422.224 1078.63 437.478 1100.37 452.856C1118.79 465.876 1136.24 479.161 1153.62 491.802C1185.48 514.954 1215.76 535.884 1247.43 554.442C1268.43 566.757 1290.3 578.232 1313.09 588.471C1344.63 602.56 1378.07 614.111 1414.52 622.85C1438.84 628.631 1463.55 632.631 1488.62 635.698C1526.38 640.383 1564.59 642.634 1600.25 643.186C1657.41 643.881 1708.68 640.261 1758.32 639.225" stroke="#6AF4DE" stroke-miterlimit="10"/>
<path d="M26.1805 165.881C93.5009 147.088 181.011 143.459 273.828 154.896C312.236 159.665 352.128 167.118 391.973 180.934C431.783 194.819 472.375 215.591 501.977 238.582C521.953 254.151 535.206 269.62 547.376 283.998C568.36 308.906 583.184 330.817 618.733 348.836C639.011 359.127 662.471 365.229 685.776 368.487C713.432 372.406 741.18 371.969 766.583 369.689C790.98 367.481 815.05 364.063 840.708 362.609C863.815 361.272 888.51 361.639 915.018 365.9C953.503 372.091 992.738 386.016 1029.98 405.537C1055.09 418.726 1078.55 434.239 1100 449.897C1118.28 463.187 1135.62 476.674 1152.67 489.663C1184.18 513.49 1213.96 535.364 1245.45 555.039C1266.25 568.018 1288.04 580.406 1310.87 591.356C1342.49 606.608 1376.15 619.312 1412.85 628.876C1437.39 635.29 1462.28 639.732 1487.57 643.172C1525.65 648.289 1563.94 650.664 1599.46 650.967C1656.54 651.278 1707.45 646.515 1756.69 644.145" stroke="#6AF4DE" stroke-miterlimit="10"/>
<path d="M22.9396 146.383C91.5578 128.535 178.925 125.176 271.85 136.411C310.22 140.987 350.076 148.248 390.065 162.054C430.054 175.861 470.862 196.748 499.998 220.096C519.903 236.06 532.547 251.897 544.037 266.778C563.873 292.548 576.91 316.794 613.323 335.271C633.925 345.732 657.427 353.325 681.166 357.33C709.33 362.121 737.871 362.536 763.78 360.868C788.683 359.273 813.402 356.458 839.493 355.492C863.033 354.643 888.054 355.441 914.707 360.211C953.627 367.149 992.865 381.853 1029.9 401.779C1054.93 415.362 1078.29 431.078 1099.63 446.938C1117.8 460.431 1134.96 474.255 1151.76 487.456C1182.77 511.968 1212.12 534.652 1243.41 555.51C1263.95 569.221 1285.75 582.388 1308.66 594.242C1340.24 610.599 1374.12 624.455 1411.3 634.959C1435.98 641.882 1461.27 646.88 1486.55 650.579C1524.93 656.194 1563.36 658.559 1598.73 658.613C1655.88 658.53 1706.25 652.702 1755.01 648.873" stroke="#6AF4DE" stroke-miterlimit="10"/>
<path d="M19.6629 126.952C89.4708 109.992 176.768 107.028 269.727 117.936C308.133 122.445 347.988 129.446 388.156 143.174C428.325 156.903 469.241 177.847 498.02 201.611C517.746 217.912 529.924 234.107 540.805 249.616C559.495 276.247 571.993 300.726 607.986 321.83C628.27 333.677 652.348 341.488 676.629 346.298C705.299 351.961 734.527 353.17 760.906 352.183C786.423 351.258 811.574 348.931 838.064 348.52C862.037 348.16 887.239 349.399 914.218 354.599C953.428 362.296 992.848 377.701 1029.77 398.088C1054.77 411.998 1077.99 427.984 1099.18 444.114C1117.21 457.877 1134.13 471.914 1150.86 485.509C1181.55 510.629 1210.36 534.325 1241.47 556.298C1261.8 570.674 1283.53 584.754 1306.55 597.444C1338.11 614.907 1372.31 629.973 1409.7 641.369C1434.61 648.926 1460.08 654.365 1485.51 658.313C1524.17 664.426 1562.71 666.849 1597.94 666.654C1655.01 666.186 1704.88 659.227 1753.38 654.053" stroke="#6AF4DE" stroke-miterlimit="10"/>
<path d="M16.3139 107.397C87.2758 91.3924 174.682 88.7449 267.532 99.3361C305.866 103.72 345.827 110.519 386.032 124.18C426.272 137.774 467.512 158.889 495.86 182.944C515.408 199.582 527.085 216.202 537.321 232.147C554.971 259.696 566.145 285.375 602.539 308.072C622.79 320.765 647.267 329.391 672.127 334.939C701.304 341.474 731.181 343.545 758.174 343.228C784.197 342.915 809.89 341.133 836.812 341.21C861.111 341.281 886.746 343.009 913.871 348.718C953.515 357.162 992.974 373.278 1029.76 394.195C1054.62 408.375 1077.79 424.688 1098.85 441.088C1116.73 455.12 1133.54 469.359 1149.95 483.303C1180.28 509.097 1208.63 533.67 1239.39 556.838C1259.58 572.002 1281.2 586.804 1304.19 600.339C1335.82 618.965 1370.25 635.183 1408 647.463C1433.16 655.585 1458.78 661.533 1484.35 665.731C1523.34 672.275 1561.95 674.822 1597.07 674.31C1654.18 673.515 1703.54 665.424 1751.6 658.724" stroke="#6AF4DE" stroke-miterlimit="10"/>
<path d="M13.073 87.8985C85.2246 72.7823 172.596 70.4618 265.553 80.8506C303.923 85.1674 343.847 91.774 384.159 105.233C424.578 118.749 465.962 139.854 493.917 164.391C513.287 181.367 524.462 198.412 534.017 214.86C550.521 243.271 560.621 270.194 597.129 294.506C617.492 308.036 642.115 317.429 667.517 323.782C697.093 331.132 727.873 334.112 755.372 334.407C782.008 334.765 808.242 333.528 835.454 334.104C860.186 334.663 886.003 336.831 913.453 342.971C953.423 352.106 993.029 368.99 1029.67 390.437C1054.46 405.011 1077.53 421.526 1098.33 438.139C1116.11 452.374 1132.74 466.951 1148.86 481.174C1178.73 507.586 1206.69 533.161 1237.27 557.444C1257.21 573.341 1278.8 588.988 1301.9 603.36C1333.5 623.091 1368.15 640.462 1406.37 653.681C1431.75 662.437 1457.55 668.826 1483.34 673.397C1522.51 680.383 1561.27 682.919 1596.31 682.283C1653.49 681.094 1702.34 671.871 1750.01 663.837" stroke="#6AF4DE" stroke-miterlimit="10"/>
<path d="M9.83201 68.4004C83.1733 54.1722 170.51 52.1787 263.502 62.2405C301.799 66.4328 341.723 72.7798 382.322 86.2179C422.812 99.5988 464.521 120.875 492.045 145.703C511.237 163.016 521.946 180.42 530.784 197.439C546.214 226.835 555.132 254.947 591.899 280.863C612.265 295.171 637.251 305.447 663.087 312.547C693.169 320.77 724.6 324.612 752.712 325.577C779.962 326.604 806.63 325.855 834.24 326.987C859.405 328.034 885.547 330.633 913.142 337.282C953.547 347.164 993.192 364.76 1029.73 386.668C1054.48 401.569 1077.41 418.355 1098.07 435.238C1115.71 449.742 1132.12 464.464 1148.14 479.149C1177.65 506.236 1205.14 532.688 1235.4 558.098C1255.24 574.716 1276.69 591.152 1299.86 606.427C1331.58 627.254 1366.41 645.844 1404.89 659.889C1430.48 669.278 1456.61 676.098 1482.4 680.929C1521.89 688.345 1560.72 691.006 1595.77 690.11C1652.88 688.537 1701.22 678.183 1748.52 668.747" stroke="#6AF4DE" stroke-miterlimit="10"/>
<path d="M6.59107 48.9023C81.1945 35.6868 168.424 33.8957 261.523 43.755C299.748 47.8227 339.779 53.9673 380.413 67.3379C421.047 80.7085 462.9 101.975 490.066 127.217C509.079 144.868 519.287 162.697 527.588 180.209C541.871 210.467 549.681 239.891 586.633 267.286C606.966 282.441 632.351 293.532 658.621 301.38C689.21 310.475 721.327 315.111 749.945 316.689C777.701 318.329 804.91 318.126 832.953 319.745C858.551 321.28 884.91 324.253 912.76 331.468C953.526 341.973 993.282 360.405 1029.68 382.842C1054.39 398.071 1077.32 415.115 1097.74 432.211C1115.26 446.918 1131.5 461.977 1147.27 476.876C1176.31 504.579 1203.45 531.966 1233.46 558.626C1253.09 575.909 1274.47 593.259 1297.75 609.369C1329.44 631.302 1364.63 651.034 1403.44 666.029C1429.29 675.984 1455.56 683.313 1481.49 688.393C1521.28 696.308 1560.25 698.959 1595.11 697.881C1652.29 695.913 1700.09 684.495 1747.03 673.657" stroke="#6AF4DE" stroke-miterlimit="10"/>
<path d="M3.31445 29.4716C79.1076 17.1441 166.411 15.7372 259.4 25.2799C297.697 29.2126 337.655 35.2326 378.396 48.4008C419.102 61.6364 461.135 83.0845 488.015 108.607C506.85 126.595 516.556 144.85 524.176 162.865C537.312 193.984 544.048 224.654 581.115 253.664C601.559 269.654 627.091 281.513 653.904 290.166C685 300.133 717.91 305.621 746.998 307.879C775.295 310.064 803.118 310.531 831.45 312.648C857.482 314.672 884.166 318.076 912.197 325.732C953.29 336.928 993.301 356.185 1029.44 379.094C1054.09 394.717 1076.91 411.964 1097.18 429.33C1114.57 444.307 1130.7 459.568 1146.14 474.814C1174.87 503.125 1201.47 531.524 1231.2 559.243C1250.68 577.315 1271.96 595.386 1295.21 612.343C1327.01 635.371 1362.28 656.266 1401.52 672.268C1427.59 682.856 1454.04 690.626 1480.23 696.013C1520.34 704.359 1559.39 707.134 1594.14 705.74C1651.35 703.445 1698.68 690.827 1745.1 678.598" stroke="#6AF4DE" stroke-miterlimit="10"/>
<path d="M0.0735 9.97343C77.0563 -1.46597 164.325 -2.54587 257.314 6.73727C295.537 10.5454 335.603 16.363 376.488 29.5208C417.373 42.6787 459.657 64.1736 486.036 90.1218C537.098 140.258 516.851 191.885 575.813 240.155C619.989 276.377 688.964 293.682 744.303 299.116C799.643 304.55 852.727 303.006 911.887 320.043C981.735 340.141 1047.32 382.937 1096.81 426.371C1146.3 469.805 1183.83 515.462 1229.23 559.839C1274.66 604.149 1331.41 649.268 1399.97 678.351C1466.58 706.665 1536.2 716.199 1593.38 713.453C1650.56 710.706 1697.34 697.024 1743.51 683.451" stroke="#6AF4DE" stroke-miterlimit="10"/>
<path d="M11.653 11.348C87.6654 -0.086588 173.675 -1.40052 265.439 7.32157C304.669 11.0573 345.85 17.1193 387.564 30.8018C428.09 44.1152 469.763 65.4594 495.997 91.1584C546.553 140.682 528.389 191.769 586.486 239.583C621.828 268.716 672.793 285.823 720.167 294.555C731.389 296.604 742.431 298.212 753.003 299.399C807.878 305.451 860.604 304.322 919.332 321.13C959.204 332.544 997.666 351.068 1032.62 372.83C1058.31 388.832 1082.03 406.469 1102.99 424.37C1152.47 466.506 1190.46 510.767 1235.85 554.106C1248.91 566.538 1262.91 579.032 1277.73 591.272C1314.73 621.714 1357.26 650.331 1405.4 671.21C1413.94 674.946 1422.54 678.286 1431.11 681.435C1488.7 702.219 1547 709.907 1596.59 708.419C1653.27 706.617 1700.38 693.885 1746.19 680.467" stroke="#6AF4DE" stroke-miterlimit="10"/>
<path d="M23.3406 12.7796C98.4182 1.28239 183.169 -0.265596 273.673 7.96292C313.801 11.5692 356.241 17.8653 398.856 32.1969C439.023 45.6659 480.12 66.7919 506.318 92.2988C556.511 141.199 540.359 191.883 597.519 239.114C632.429 268.019 682.533 285.447 729.44 294.537C740.592 296.722 751.454 298.407 761.99 299.662C816.328 306.206 868.733 305.685 926.956 322.14C966.431 333.257 1004.6 351.283 1039.37 372.345C1064.81 387.781 1088.53 404.899 1109.52 422.212C1158.93 462.927 1197.34 505.858 1242.87 548.149C1255.97 560.254 1269.93 572.556 1284.75 584.537C1321.86 614.517 1363.81 642.916 1411.38 663.836C1419.77 667.582 1428.23 670.933 1436.65 674.092C1493.31 695.073 1550.96 703.715 1600.28 703.027C1656.56 702.227 1704.03 690.377 1749.38 677.058" stroke="#6AF4DE" stroke-miterlimit="10"/>
<path d="M34.9558 14.0866C109.063 2.59425 192.482 0.687631 281.726 8.42256C322.717 11.9669 366.523 18.5541 409.859 33.3531C449.668 46.9778 490.153 67.953 516.206 93.2107C565.894 141.498 551.824 191.643 608.228 238.474C642.813 267.208 691.984 284.833 738.462 294.473C749.434 296.735 760.26 298.488 770.726 299.878C824.526 306.915 876.754 306.991 934.329 323.103C973.48 334.049 1011.25 351.519 1045.84 371.88C1071.14 386.807 1094.74 403.349 1115.77 420.076C1165.17 459.492 1204.05 501.028 1249.46 542.224C1262.67 554.126 1276.55 566.044 1291.34 577.832C1328.44 607.294 1369.96 635.464 1416.77 656.503C1425.02 660.259 1433.41 663.745 1441.72 666.847C1497.56 688.082 1554.35 697.565 1603.49 697.733C1659.38 697.935 1707.07 686.978 1752.06 673.815" stroke="#6AF4DE" stroke-miterlimit="10"/>
<path d="M46.6434 15.5182C119.78 4.03075 201.976 1.82261 289.996 8.99649C331.993 12.4685 376.95 19.2326 421.187 34.6808C460.637 48.4611 500.546 69.218 526.454 94.2266C575.78 141.891 563.614 191.574 619.189 237.881C653.45 266.443 701.651 284.333 747.771 294.388C758.672 296.785 769.427 298.673 779.713 300.141C832.976 307.671 884.918 308.286 941.989 324.045C980.707 334.762 1018.23 351.667 1052.63 371.327C1077.78 385.745 1101.28 401.711 1122.23 417.794C1171.55 455.788 1210.82 496.063 1256.41 536.142C1269.65 547.718 1283.64 559.433 1298.28 570.973C1335.35 599.982 1376.47 627.856 1422.57 648.948C1430.81 652.703 1438.91 656.21 1447.16 659.447C1502.13 681.004 1558.1 691.26 1607.06 692.284C1662.49 693.363 1710.47 683.424 1755.1 670.416" stroke="#6AF4DE" stroke-miterlimit="10"/>
<path d="M58.223 16.8927C130.425 5.34261 211.253 2.84329 298.122 9.58073C341.016 12.9233 387.233 19.9214 432.371 36.0188C471.462 49.9547 510.76 70.5609 536.523 95.3202C585.451 142.429 575.259 191.516 630.078 237.423C663.871 265.824 711.39 283.957 757.009 294.438C767.766 296.845 778.414 298.936 788.664 300.471C841.463 308.618 893.047 309.649 949.685 325.179C988.08 335.725 1025.24 352.007 1059.43 371.033C1084.32 384.886 1107.71 400.275 1128.8 415.829C1178.19 452.391 1217.7 491.414 1263.44 530.445C1276.67 541.761 1290.66 553.217 1305.3 564.497C1342.33 593.055 1383.17 620.69 1428.51 641.9C1436.61 645.667 1444.67 649.241 1452.77 652.488C1506.81 674.241 1562.03 685.395 1610.74 687.152C1665.78 689.232 1714.09 680.243 1758.25 667.333" stroke="#6AF4DE" stroke-miterlimit="10"/>
<path d="M69.8025 18.2673C141.034 6.72202 220.675 3.85373 306.139 10.1079C349.968 13.2536 397.372 20.6207 443.339 37.2426C482.107 51.2666 520.649 71.7324 546.375 96.2997C594.834 142.729 586.653 191.411 640.643 236.794C674.112 265.023 720.661 283.421 765.779 294.327C776.465 296.869 786.969 298.97 797.112 300.707C849.373 309.348 900.672 310.918 956.77 326.163C994.733 336.48 1031.6 352.263 1065.5 370.532C1090.21 383.944 1113.53 398.689 1134.61 413.724C1184 448.988 1223.97 486.615 1269.7 524.608C1282.97 535.596 1296.96 546.793 1311.57 557.881C1348.59 585.919 1389 613.326 1433.62 634.588C1441.57 638.365 1449.6 642.007 1457.53 645.332C1510.7 667.407 1564.99 679.277 1613.63 681.946C1668.21 684.904 1716.85 676.865 1760.61 664.178" stroke="#6AF4DE" stroke-miterlimit="10"/>
<path d="M81.4901 19.6989C151.787 8.09099 230.061 4.93153 314.409 10.6818C359.244 13.7551 407.798 21.2991 454.667 38.5703C493.076 52.7499 531.042 72.9974 556.732 97.3726C604.793 143.246 598.586 191.332 651.712 236.258C684.857 264.316 730.436 282.978 775.196 294.299C785.703 296.919 796.135 299.155 806.243 300.96C857.967 310.093 908.98 312.203 964.538 327.162C1002.07 337.251 1038.68 352.468 1072.4 370.036C1096.96 382.939 1120.17 397.108 1141.29 411.556C1190.6 445.398 1231.11 481.754 1276.87 518.641C1290.14 529.37 1304.13 540.307 1318.73 551.135C1355.72 578.722 1395.72 605.833 1439.62 627.147C1447.44 630.934 1455.33 634.586 1463.21 637.978C1515.53 660.374 1568.99 673.018 1617.46 676.544C1671.53 680.446 1720.5 673.357 1763.9 660.826" stroke="#6AF4DE" stroke-miterlimit="10"/>
<path d="M93.1053 21.0059C162.431 9.40287 239.41 5.81732 322.57 11.1986C368.303 14.1425 418.117 21.9205 465.778 39.7837C503.864 54.0514 541.183 74.2157 566.728 98.3417C614.319 143.535 610.124 191.217 662.529 235.675C695.206 263.572 740.068 282.545 784.326 294.292C794.761 297.047 805.014 299.361 815.086 301.233C866.346 310.984 917.001 313.509 972.054 328.115C1009.26 338.032 1045.51 352.627 1079.01 369.561C1103.36 381.83 1126.56 395.48 1147.57 409.352C1196.91 441.829 1237.74 476.799 1283.6 512.705C1297.01 523.164 1310.9 533.784 1325.46 544.42C1362.45 571.488 1402.02 598.371 1445.28 619.861C1453.05 623.715 1460.8 627.377 1468.54 630.78C1520.03 653.431 1572.63 666.914 1620.92 671.297C1674.5 676.144 1723.79 670.005 1766.84 657.629" stroke="#6AF4DE" stroke-miterlimit="10"/>
<path d="M104.793 22.4375C173.148 10.8394 248.831 6.82766 330.804 11.84C377.435 14.6544 428.508 22.6665 477.07 41.1789C514.798 55.6022 551.54 75.5483 576.94 99.425C624.134 144.063 621.914 191.149 673.454 235.149C705.806 262.875 749.699 282.112 793.6 294.275C803.855 297.107 814.073 299.488 824.038 301.563C874.76 311.807 925.13 314.872 979.643 329.192C1016.42 338.881 1052.42 352.909 1085.69 369.21C1109.86 381.038 1132.99 394.045 1154.03 407.33C1203.29 438.384 1244.66 472.083 1290.44 506.826C1303.86 517.026 1317.88 527.376 1332.3 537.763C1369.39 564.369 1408.42 590.965 1450.96 612.507C1458.6 616.372 1466.2 620.044 1473.87 623.582C1524.42 646.43 1576.28 660.811 1624.39 666.05C1677.61 671.831 1727.23 666.642 1769.67 654.376" stroke="#6AF4DE" stroke-miterlimit="10"/>
<path d="M116.372 23.812C183.793 12.1512 258.144 7.7809 338.857 12.2996C386.386 14.9846 438.826 23.2879 488.182 42.3923C525.478 56.8466 561.682 76.7665 586.937 100.394C633.768 144.409 633.451 191.033 684.162 234.509C716.191 262.064 759.114 281.565 802.657 294.143C812.841 297.11 822.988 299.626 832.809 301.712C882.994 312.449 933.079 316.053 987.159 330.145C1023.64 339.595 1059.21 353.135 1092.23 368.61C1116.25 379.93 1139.16 392.303 1160.31 405.126C1209.57 434.883 1251.29 467.128 1297.18 500.89C1310.62 510.763 1324.61 520.921 1339.14 531.105C1376.19 557.26 1414.83 583.56 1456.61 605.221C1464.1 609.096 1471.67 612.836 1479.19 616.384C1528.89 639.553 1579.92 654.708 1627.75 660.747C1680.5 667.404 1730.41 663.233 1772.49 651.122" stroke="#6AF4DE" stroke-miterlimit="10"/>
<path d="M128.06 25.2437C194.51 13.5877 267.566 8.79129 347.091 12.9411C395.554 15.4291 449.217 24.0339 499.33 43.7978C536.303 58.3402 571.895 78.1094 596.97 101.555C643.296 144.957 645.169 191.1 695.016 234.119C726.612 261.444 768.818 281.257 811.716 294.271C821.72 297.316 831.795 299.967 841.545 302.187C891.193 313.417 941.1 317.618 994.532 331.367C1030.59 340.589 1065.9 353.563 1098.7 368.405C1122.58 379.216 1145.38 391.012 1166.56 403.25C1215.74 431.583 1257.95 462.624 1303.88 495.281C1317.32 504.894 1331.34 514.725 1345.83 524.718C1382.89 550.353 1421.27 576.347 1462.26 598.195C1469.72 602.137 1477.1 605.955 1484.52 609.446C1533.39 632.869 1583.45 648.807 1631.21 655.759C1683.47 663.362 1733.71 660.14 1775.43 648.185" stroke="#6AF4DE" stroke-miterlimit="10"/>
<path d="M139.64 26.6182C205.119 14.9671 276.879 9.74454 355.217 13.5253C404.578 15.8839 459.5 24.7227 510.514 45.1358C547.128 59.8339 582.109 79.4523 607.074 102.581C653.038 145.36 656.815 191.041 705.833 233.536C737.069 260.758 778.341 280.768 820.881 294.196C830.814 297.376 840.746 300.038 850.424 302.393C899.499 314.183 949.121 318.924 1002.08 332.252C1037.81 341.302 1072.73 353.721 1105.35 367.862C1128.97 378.107 1151.77 389.385 1172.88 400.978C1222.09 427.947 1264.62 457.602 1310.68 489.21C1324.27 498.553 1338.15 508.135 1352.6 517.936C1389.65 543.052 1427.53 568.952 1467.84 590.784C1475.15 594.737 1482.39 598.565 1489.74 602.191C1537.68 625.811 1586.99 642.647 1634.57 650.455C1686.37 658.935 1737 656.788 1778.25 644.931" stroke="#6AF4DE" stroke-miterlimit="10"/>
<path d="M151.219 27.9927C215.764 16.279 286.228 10.6303 363.27 13.985C413.565 16.1467 469.746 25.2195 521.626 46.3493C557.917 61.1354 592.285 80.6031 617.179 103.608C662.673 145.706 668.496 190.916 716.758 233.01C747.67 260.061 787.973 280.335 830.155 294.179C839.944 297.369 849.768 300.233 859.411 302.655C908.057 314.996 957.286 320.22 1009.71 333.262C1045.01 342.084 1079.67 353.936 1112.11 367.377C1135.58 377.113 1158.27 387.814 1179.41 398.821C1228.51 424.435 1271.61 452.751 1317.67 483.321C1331.29 492.337 1345.27 501.717 1359.58 511.268C1396.7 535.99 1434.08 561.537 1473.67 583.42C1480.84 587.383 1488.04 591.279 1495.25 594.915C1542.32 618.857 1590.81 636.466 1638.22 645.131C1689.55 654.488 1740.51 653.291 1781.37 641.657" stroke="#6AF4DE" stroke-miterlimit="10"/>
<path d="M162.942 29.3569C226.517 17.648 295.685 11.5732 371.54 14.5589C422.732 16.5911 480.172 25.898 532.846 47.6198C568.813 62.4941 602.535 81.8785 627.319 104.566C672.415 146.109 680.178 190.79 727.61 232.36C758.09 259.182 797.567 279.71 839.32 294.104C849.038 297.43 858.683 300.371 868.254 302.928C916.363 315.762 965.306 321.525 1017.19 334.282C1052.16 342.932 1086.46 354.162 1118.57 366.912C1141.9 376.139 1164.37 386.207 1185.66 396.685C1234.78 420.933 1278.31 447.921 1324.26 477.395C1337.88 486.152 1351.9 495.204 1366.17 504.564C1403.29 528.766 1440.23 554.085 1479.21 576.077C1486.24 580.051 1493.3 583.957 1500.46 587.66C1546.71 611.856 1594.27 630.181 1641.5 639.702C1692.33 650.004 1743.62 649.757 1784.12 638.279" stroke="#6AF4DE" stroke-miterlimit="10"/>
<path d="M174.522 30.7314C237.162 18.9599 304.926 12.4018 379.665 15.1432C431.792 16.9785 490.491 26.5194 544.03 48.9579C579.566 63.8631 612.748 83.2214 637.388 105.66C682.122 146.58 691.823 190.732 738.427 231.777C768.547 258.495 807.091 279.221 848.378 293.972C857.916 297.376 867.525 300.385 877.026 303.077C924.597 316.403 973.255 322.707 1024.71 335.235C1059.25 343.656 1093.26 354.388 1125.19 366.437C1148.26 375.098 1170.73 384.647 1192.01 394.605C1241.02 417.499 1285.01 443.09 1331.1 471.516C1344.76 479.946 1358.77 488.739 1373.01 497.906C1410.12 521.59 1446.64 546.68 1484.86 568.791C1491.85 572.832 1498.77 576.748 1505.76 580.53C1551.07 604.922 1597.88 624.145 1644.93 634.523C1695.3 645.701 1746.88 646.472 1787.02 635.15" stroke="#6AF4DE" stroke-miterlimit="10"/>
<path d="M186.21 32.163C247.771 20.3392 314.348 13.4122 387.791 15.7274C440.816 17.4333 500.774 27.2082 555.106 50.2387C590.319 65.2321 622.889 84.4396 647.348 106.696C691.577 147.004 703.325 190.684 749.209 231.262C779.004 257.809 816.722 278.788 857.507 293.965C866.975 297.503 876.405 300.59 885.833 303.417C932.868 317.237 981.24 324.08 1032.19 336.255C1066.29 344.448 1100.05 354.613 1131.8 365.961C1154.69 374.182 1177.08 383.087 1198.29 392.401C1247.33 413.93 1291.79 438.125 1337.83 465.58C1351.6 473.807 1365.61 482.341 1379.74 491.191C1416.82 514.423 1452.9 539.285 1490.44 561.38C1497.28 565.432 1504.06 569.358 1511.01 573.207C1555.5 597.854 1601.37 617.793 1648.33 629.152C1698.23 641.207 1750.21 643.053 1789.88 631.828" stroke="#6AF4DE" stroke-miterlimit="10"/>
<path d="M197.789 33.5375C258.488 21.7757 323.589 14.2408 395.953 16.2442C449.911 17.7531 511.128 27.7621 566.325 51.5093C601.251 66.5234 633.03 85.6579 657.488 107.655C701.355 147.34 715.042 190.491 760.061 230.612C789.425 256.93 826.281 278.231 866.673 293.89C875.961 297.507 885.319 300.728 894.712 303.623C941.209 317.935 989.296 325.318 1039.7 337.208C1073.49 345.229 1106.84 354.839 1138.41 365.486C1161.16 373.197 1183.33 381.469 1204.68 390.255C1253.61 410.428 1298.52 433.227 1344.71 459.634C1358.51 467.534 1372.52 475.808 1386.61 484.466C1423.69 507.179 1459.45 531.87 1496.23 554.084C1502.93 558.146 1509.67 562.14 1516.37 565.942C1560 590.91 1605.05 611.622 1651.83 623.837C1701.27 636.77 1753.58 639.566 1792.85 628.564" stroke="#6AF4DE" stroke-miterlimit="10"/>
<path d="M209.477 34.9691C269.241 23.1447 333.046 15.1837 404.186 16.8856C459.078 18.1976 521.554 28.4406 577.617 52.9044C612.22 68.0066 643.388 86.9904 667.665 108.806C711.026 147.878 726.761 190.558 770.95 230.154C799.99 256.3 835.877 277.866 875.911 293.94C885.127 297.692 894.45 300.981 903.664 303.953C949.624 318.758 997.425 326.681 1047.29 338.285C1080.68 346.01 1113.75 355.122 1144.99 365.078C1167.48 372.224 1189.65 379.977 1211.04 388.175C1260 406.984 1305.33 428.454 1351.52 453.822C1365.35 461.396 1379.36 469.41 1393.42 477.876C1430.6 500.127 1465.81 524.532 1501.88 546.798C1508.55 550.927 1515.14 554.932 1521.66 558.812C1564.36 583.977 1608.58 605.462 1655.26 618.658C1704.12 632.41 1756.83 636.281 1795.75 625.435" stroke="#6AF4DE" stroke-miterlimit="10"/>
<path d="M221.056 36.3437C279.85 24.5241 342.287 16.0124 412.204 17.4127C467.922 18.4707 531.657 28.9477 588.585 54.1282C622.757 69.2614 653.385 88.219 677.662 109.775C720.661 148.224 738.442 190.432 781.767 229.571C810.447 255.614 845.435 277.308 885.076 293.866C894.149 297.627 903.365 301.119 912.507 304.226C958.038 319.581 1005.55 328.044 1054.77 339.305C1087.83 346.859 1120.51 355.415 1151.6 364.603C1173.95 371.24 1196.01 378.416 1217.32 385.971C1266.16 403.425 1311.93 423.826 1358.25 447.887C1372.15 455.065 1386.1 462.955 1400.15 471.162C1437.33 492.894 1472.11 517.07 1507.43 539.455C1513.95 543.594 1520.4 547.609 1526.88 551.557C1568.75 576.976 1612.12 599.301 1658.51 613.297C1706.91 627.927 1759.91 632.814 1798.47 622.124" stroke="#6AF4DE" stroke-miterlimit="10"/>
<path d="M232.671 37.6507C290.494 25.8359 351.636 16.8981 420.401 17.8621C477.053 18.7231 542.047 29.4342 599.841 55.3313C633.689 70.5526 663.706 89.3595 687.802 110.734C730.403 148.627 750.159 190.239 792.62 228.921C820.867 254.735 855.102 276.808 894.134 293.734C903.135 297.63 912.171 301.2 921.278 304.375C966.272 320.223 1013.5 329.225 1062.29 340.257C1094.92 347.583 1127.34 355.573 1158.21 364.128C1180.41 370.256 1202.36 376.856 1223.67 383.892C1272.55 399.981 1318.77 418.726 1364.98 441.95C1378.96 448.994 1392.97 456.49 1406.88 464.447C1444.06 485.66 1478.41 509.607 1513.11 532.101C1519.49 536.251 1525.9 540.334 1532.21 544.359C1573.25 570.032 1615.69 593.074 1661.97 608.05C1709.91 623.557 1763.35 629.452 1801.41 618.928" stroke="#6AF4DE" stroke-miterlimit="10"/>
<path d="M244.359 39.0823C301.247 27.205 360.985 17.7839 428.635 18.5035C486.22 19.1676 552.473 30.1127 611.025 56.6693C644.586 71.9113 673.919 90.7024 697.871 111.827C740.002 149.04 761.769 190.248 803.509 228.463C831.432 254.105 864.734 276.376 903.372 293.784C912.194 297.758 921.194 301.395 930.194 304.772C974.65 321.113 1021.56 330.723 1069.88 341.335C1102.18 348.489 1134.2 355.923 1164.93 363.71C1186.84 369.339 1208.83 375.353 1230.17 381.803C1278.93 396.536 1325.76 413.875 1371.93 436.129C1385.94 442.846 1399.95 450.082 1413.82 457.847C1450.97 478.608 1484.88 502.327 1518.9 524.805C1525.14 528.965 1531.41 533.058 1537.68 537.151C1577.79 563.021 1619.51 586.893 1665.58 602.793C1713.09 619.11 1766.79 626.09 1804.49 615.721" stroke="#6AF4DE" stroke-miterlimit="10"/>
<path d="M255.939 40.4568C311.856 28.5843 370.226 18.6126 436.761 19.0877C495.172 19.4978 562.827 30.6666 622.173 58.0748C655.411 73.4049 684.133 92.0452 707.939 112.921C749.673 149.578 773.415 190.19 814.29 227.947C841.854 253.486 874.257 275.886 912.501 293.777C921.252 297.886 930.073 301.601 939.037 305.045C982.956 321.879 1029.58 332.029 1077.36 342.355C1109.23 349.28 1141 356.149 1171.4 363.245C1193.16 368.366 1214.93 373.746 1236.41 379.666C1285.17 393.102 1332.36 408.987 1378.63 430.26C1392.64 436.718 1406.69 443.626 1420.52 451.2C1457.77 471.499 1491.11 495 1524.41 517.529C1530.61 521.757 1536.7 525.927 1542.86 529.963C1582.15 556.087 1622.93 580.675 1668.94 597.489C1715.99 614.683 1769.97 622.68 1807.31 612.467" stroke="#6AF4DE" stroke-miterlimit="10"/>
<path d="M267.626 41.8885C322.609 29.9533 379.575 19.4983 444.886 19.672C504.123 19.828 573.146 31.288 633.357 59.4128C666.199 74.7065 694.346 93.3881 718.008 114.015C759.38 150.049 785.025 190.199 825.072 227.432C852.203 252.742 883.745 275.464 921.595 293.837C930.203 297.957 938.952 301.806 947.737 305.329C991.119 322.656 1037.46 333.345 1084.69 343.385C1116.13 350.082 1147.61 356.452 1177.83 362.848C1199.45 367.46 1221.11 372.264 1242.52 377.54C1291.2 389.553 1338.92 404.167 1385.22 424.335C1399.37 430.522 1413.27 437.182 1427.11 444.495C1464.35 464.275 1497.26 487.548 1529.95 510.186C1536.01 514.424 1542.06 518.662 1548.05 522.775C1586.51 549.154 1626.47 574.515 1672.26 592.253C1718.84 610.323 1773.23 619.396 1810.14 609.214" stroke="#6AF4DE" stroke-miterlimit="10"/>
<path d="M279.206 43.263C333.218 31.3327 388.852 20.2594 453.048 20.1887C513.254 20.0803 583.536 31.7744 644.469 60.6262C676.988 76.008 704.487 94.6063 728.112 115.041C768.979 150.462 796.706 190.074 835.996 226.907C862.803 252.045 893.412 274.963 930.761 293.763C939.297 298.017 947.867 301.944 956.58 305.602C999.425 323.422 1045.48 334.65 1092.28 344.462C1123.4 350.988 1154.51 356.735 1184.55 362.429C1206.02 366.533 1227.54 370.828 1248.98 375.518C1297.62 386.301 1345.76 399.326 1392.14 418.58C1406.32 424.441 1420.33 430.898 1434.02 437.962C1471.3 457.156 1503.74 480.267 1535.68 503.025C1541.59 507.273 1547.5 511.521 1553.45 515.702C1591.08 542.334 1630.11 568.412 1675.69 587.073C1721.85 605.954 1776.52 616.043 1813.04 606.085" stroke="#6AF4DE" stroke-miterlimit="10"/>
<path d="M290.893 44.6946C343.935 32.7692 398.201 21.1452 461.282 20.8302C522.313 20.4677 593.962 32.4529 655.761 62.0214C687.992 77.4238 714.845 95.9389 738.325 116.124C778.829 150.923 808.46 190.073 846.921 226.381C873.369 251.416 903.151 274.588 940.034 293.745C948.391 298.077 956.89 302.14 965.567 305.865C1007.87 324.177 1053.64 335.946 1099.94 345.405C1130.63 351.702 1161.45 356.95 1191.31 361.944C1212.53 365.481 1234.07 369.19 1255.51 373.361C1304.18 382.779 1352.75 394.475 1399.05 412.567C1413.27 418.1 1427.28 424.298 1440.93 431.17C1478.17 449.912 1510.32 472.784 1541.43 495.536C1547.31 499.852 1553.08 504.111 1558.88 508.302C1595.58 535.131 1633.9 562.039 1679.26 581.624C1724.99 601.314 1779.92 612.489 1816.08 602.686" stroke="#6AF4DE" stroke-miterlimit="10"/>
<path d="M302.508 46.0016C354.616 34.0136 407.477 21.9064 469.335 21.2898C531.192 20.6733 604.244 32.8822 666.764 63.1777C791.12 123.493 829.103 228.96 948.948 293.624C1024.16 334.17 1114.33 349.303 1197.67 361.422C1281 373.541 1369.83 386.498 1447.51 424.466C1491.78 446.143 1528.08 473.974 1564.06 501.114C1599.94 528.197 1637.32 555.821 1682.58 576.388C1727.85 596.955 1783.07 609.147 1818.87 599.499" stroke="#6AF4DE" stroke-miterlimit="10"/>
</svg>
