<svg width="109" height="14" viewBox="0 0 109 14" fill="none" xmlns="http://www.w3.org/2000/svg">
<path d="M98.5597 13.7597V3.25602H101.471L106.813 9.64825H105.462V3.25602H108.913V13.7597H106.002L100.66 7.36745H102.011V13.7597H98.5597Z" fill="black"/>
<path d="M91.3474 13.9999C90.4971 13.9999 89.7068 13.8648 88.9766 13.5947C88.2563 13.3246 87.6311 12.9445 87.1009 12.4543C86.5708 11.9542 86.1556 11.369 85.8555 10.6987C85.5654 10.0285 85.4204 9.29824 85.4204 8.50797C85.4204 7.70769 85.5654 6.97743 85.8555 6.3172C86.1556 5.64697 86.5708 5.06677 87.1009 4.5766C87.6311 4.07642 88.2563 3.69129 88.9766 3.42119C89.7068 3.1511 90.4971 3.01605 91.3474 3.01605C92.2077 3.01605 92.998 3.1511 93.7182 3.42119C94.4385 3.69129 95.0637 4.07642 95.5939 4.5766C96.1241 5.06677 96.5342 5.64697 96.8243 6.3172C97.1244 6.97743 97.2745 7.70769 97.2745 8.50797C97.2745 9.29824 97.1244 10.0285 96.8243 10.6987C96.5342 11.369 96.1241 11.9542 95.5939 12.4543C95.0637 12.9445 94.4385 13.3246 93.7182 13.5947C92.998 13.8648 92.2077 13.9999 91.3474 13.9999ZM91.3474 11.1339C91.6775 11.1339 91.9826 11.0739 92.2627 10.9538C92.5528 10.8338 92.8029 10.6637 93.013 10.4436C93.2331 10.2136 93.4031 9.93847 93.5232 9.61836C93.6432 9.28824 93.7032 8.91811 93.7032 8.50797C93.7032 8.09782 93.6432 7.7327 93.5232 7.41259C93.4031 7.08247 93.2331 6.80737 93.013 6.5873C92.8029 6.35722 92.5528 6.18216 92.2627 6.06211C91.9826 5.94207 91.6775 5.88205 91.3474 5.88205C91.0173 5.88205 90.7072 5.94207 90.4171 6.06211C90.137 6.18216 89.8869 6.35722 89.6668 6.5873C89.4568 6.80737 89.2917 7.08247 89.1717 7.41259C89.0516 7.7327 88.9916 8.09782 88.9916 8.50797C88.9916 8.91811 89.0516 9.28824 89.1717 9.61836C89.2917 9.93847 89.4568 10.2136 89.6668 10.4436C89.8869 10.6637 90.137 10.8338 90.4171 10.9538C90.7072 11.0739 91.0173 11.1339 91.3474 11.1339ZM89.7719 2.40084L91.7526 0H94.9787L92.0227 2.40084H89.7719Z" fill="black"/>
<path d="M80.5945 13.7597V3.25602H84.1357V13.7597H80.5945Z" fill="black"/>
<path d="M74.963 14C74.1227 14 73.3424 13.87 72.6222 13.6099C71.9119 13.3398 71.2917 12.9597 70.7615 12.4695C70.2413 11.9793 69.8362 11.3991 69.5461 10.7289C69.256 10.0586 69.111 9.31839 69.111 8.5081C69.111 7.69782 69.256 6.95756 69.5461 6.28733C69.8362 5.6171 70.2413 5.03689 70.7615 4.54672C71.2917 4.05655 71.9119 3.68142 72.6222 3.42133C73.3424 3.15124 74.1227 3.01619 74.963 3.01619C75.9934 3.01619 76.9037 3.19625 77.6939 3.55638C78.4942 3.9165 79.1545 4.43668 79.6746 5.11692L77.4389 7.11262C77.1288 6.72248 76.7836 6.42238 76.4035 6.2123C76.0334 5.99223 75.6132 5.88219 75.1431 5.88219C74.7729 5.88219 74.4378 5.94221 74.1377 6.06225C73.8376 6.18229 73.5775 6.35735 73.3574 6.58743C73.1474 6.81751 72.9823 7.09761 72.8623 7.42773C72.7422 7.74784 72.6822 8.10797 72.6822 8.5081C72.6822 8.90824 72.7422 9.27337 72.8623 9.60349C72.9823 9.9236 73.1474 10.1987 73.3574 10.4288C73.5775 10.6589 73.8376 10.8339 74.1377 10.954C74.4378 11.074 74.7729 11.134 75.1431 11.134C75.6132 11.134 76.0334 11.029 76.4035 10.8189C76.7836 10.5988 77.1288 10.2937 77.4389 9.90359L79.6746 11.8993C79.1545 12.5695 78.4942 13.0897 77.6939 13.4598C76.9037 13.82 75.9934 14 74.963 14Z" fill="black"/>
<path d="M62.7911 13.9998C61.1806 13.9998 59.9251 13.5646 59.0248 12.6943C58.1245 11.824 57.6744 10.6036 57.6744 9.03303V3.25602H61.2156V8.928C61.2156 9.72828 61.3606 10.2985 61.6507 10.6386C61.9408 10.9687 62.331 11.1338 62.8211 11.1338C63.3213 11.1338 63.7115 10.9687 63.9916 10.6386C64.2817 10.2985 64.4267 9.72828 64.4267 8.928V3.25602H67.9079V9.03303C67.9079 10.6036 67.4578 11.824 66.5575 12.6943C65.6571 13.5646 64.4017 13.9998 62.7911 13.9998Z" fill="black"/>
<path d="M48.5765 13.7597V3.25602H52.1177V11.0137H56.8593V13.7597H48.5765Z" fill="black"/>
<path d="M41.3642 14C40.5139 14 39.7236 13.865 38.9933 13.5949C38.2731 13.3248 37.6479 12.9447 37.1177 12.4545C36.5875 11.9543 36.1724 11.3691 35.8723 10.6989C35.5822 10.0286 35.4371 9.29838 35.4371 8.5081C35.4371 7.70783 35.5822 6.97757 35.8723 6.31734C36.1724 5.64711 36.5875 5.0669 37.1177 4.57673C37.6479 4.07656 38.2731 3.69142 38.9933 3.42133C39.7236 3.15124 40.5139 3.01619 41.3642 3.01619C42.2245 3.01619 43.0147 3.15124 43.735 3.42133C44.4552 3.69142 45.0805 4.07656 45.6106 4.57673C46.1408 5.0669 46.551 5.64711 46.8411 6.31734C47.1412 6.97757 47.2912 7.70783 47.2912 8.5081C47.2912 9.29838 47.1412 10.0286 46.8411 10.6989C46.551 11.3691 46.1408 11.9543 45.6106 12.4545C45.0805 12.9447 44.4552 13.3248 43.735 13.5949C43.0147 13.865 42.2245 14 41.3642 14ZM41.3642 11.134C41.6943 11.134 41.9994 11.074 42.2795 10.954C42.5696 10.8339 42.8197 10.6639 43.0298 10.4438C43.2498 10.2137 43.4199 9.9386 43.5399 9.61849C43.66 9.28838 43.72 8.91825 43.72 8.5081C43.72 8.09796 43.66 7.73283 43.5399 7.41272C43.4199 7.08261 43.2498 6.80751 43.0298 6.58743C42.8197 6.35735 42.5696 6.18229 42.2795 6.06225C41.9994 5.94221 41.6943 5.88219 41.3642 5.88219C41.0341 5.88219 40.7239 5.94221 40.4338 6.06225C40.1537 6.18229 39.9037 6.35735 39.6836 6.58743C39.4735 6.80751 39.3085 7.08261 39.1884 7.41272C39.0684 7.73283 39.0083 8.09796 39.0083 8.5081C39.0083 8.91825 39.0684 9.28838 39.1884 9.61849C39.3085 9.9386 39.4735 10.2137 39.6836 10.4438C39.9037 10.6639 40.1537 10.8339 40.4338 10.954C40.7239 11.074 41.0341 11.134 41.3642 11.134Z" fill="black"/>
<path d="M29.912 14C29.0317 14 28.1814 13.9 27.3611 13.6999C26.5409 13.4998 25.8656 13.2398 25.3354 12.9196L26.4758 10.3387C26.976 10.6288 27.5312 10.8639 28.1414 11.044C28.7616 11.214 29.3618 11.2991 29.942 11.2991C30.2822 11.2991 30.5473 11.2791 30.7373 11.2391C30.9374 11.189 31.0824 11.124 31.1725 11.044C31.2625 10.954 31.3075 10.8489 31.3075 10.7289C31.3075 10.5388 31.2025 10.3888 30.9924 10.2787C30.7823 10.1687 30.5022 10.0787 30.1521 10.0086C29.812 9.9286 29.4369 9.84857 29.0267 9.76854C28.6166 9.67851 28.2014 9.56347 27.7813 9.42342C27.3711 9.28338 26.991 9.09831 26.6409 8.86823C26.3008 8.63815 26.0257 8.33804 25.8156 7.96792C25.6055 7.58778 25.5005 7.11762 25.5005 6.55742C25.5005 5.9072 25.6806 5.31699 26.0407 4.78681C26.4108 4.24662 26.956 3.81647 27.6763 3.49636C28.4065 3.17624 29.3118 3.01619 30.3922 3.01619C31.1024 3.01619 31.8027 3.09122 32.4929 3.24127C33.1832 3.39132 33.8034 3.6214 34.3536 3.93151L33.2882 6.4974C32.768 6.23731 32.2629 6.04224 31.7727 5.9122C31.2925 5.78215 30.8223 5.71713 30.3622 5.71713C30.0221 5.71713 29.752 5.74714 29.5519 5.80716C29.3518 5.86718 29.2068 5.94721 29.1168 6.04725C29.0367 6.14728 28.9967 6.25732 28.9967 6.37736C28.9967 6.55742 29.1018 6.70247 29.3118 6.81251C29.5219 6.91255 29.797 6.99758 30.1371 7.0676C30.4872 7.13763 30.8674 7.21265 31.2775 7.29268C31.6977 7.37271 32.1128 7.48275 32.5229 7.6228C32.9331 7.76284 33.3082 7.94791 33.6483 8.17799C33.9985 8.40807 34.2786 8.70817 34.4886 9.0783C34.6987 9.44843 34.8037 9.90859 34.8037 10.4588C34.8037 11.099 34.6187 11.6892 34.2485 12.2294C33.8884 12.7596 33.3482 13.1897 32.628 13.5199C31.9077 13.84 31.0024 14 29.912 14Z" fill="black"/>
<path d="M8.26698 13.7597L12.8586 3.25602H16.3398L20.9314 13.7597H17.2701L13.8789 4.93661H15.2594L11.8682 13.7597H8.26698ZM10.9979 11.929L11.8982 9.37815H16.7299L17.6302 11.929H10.9979Z" fill="black"/>
<path d="M0 13.7597V3.25602H3.54124V11.0137H8.28289V13.7597H0Z" fill="black"/>
</svg>
