<svg width="1440" height="514" viewBox="0 0 1440 514" fill="none" xmlns="http://www.w3.org/2000/svg">
<path d="M-101.361 164.518C7.52771 156.579 84.3765 131.327 134.739 109.464C185.667 87.3558 222.345 63.103 289.368 50.0639C363.29 35.576 411.591 42.0666 430.695 45.7176C457.181 50.7883 455.535 54.2364 498.865 66.0006C582.098 88.6017 597.91 78.5471 635.204 93.5276C697.039 118.36 678.6 156.043 743.278 197.841C790.115 228.12 867.663 252.214 937.811 235.509C1003.87 219.775 1011.3 180.267 1080.8 174.66C1109.35 172.356 1133.09 177.471 1180.56 187.699C1241.4 200.738 1282.25 216.82 1298.61 222.47C1347.08 239.232 1425.31 249.78 1553 216.675" stroke="url(#paint0_linear_253_176)" stroke-opacity="0.32" stroke-width="5" stroke-miterlimit="10"/>
<path d="M-102.093 177.297C3.23767 170.444 81.982 147.582 136.917 124.923C181.543 106.262 215.578 85.8054 262.482 71.1871C272.741 67.9998 283.548 64.9139 295.187 62.2481C368.527 45.4711 416.645 48.2383 436.73 49.9334C463.666 52.1935 463.666 54.7724 506.13 66.2033C536.058 74.2441 557.374 78.8368 573.884 81.8502C601.95 86.9645 616 87.3122 638.147 97.1495C646.41 100.79 654.165 105.248 661.258 110.435C694.062 134.412 692.666 164.808 747.085 197.029C794.455 225.078 871.486 246.288 940.438 229.699C945.9 228.382 951.283 226.825 956.566 225.034C1009.87 206.939 1021.84 175.109 1082.93 170.111C1089.37 169.576 1095.84 169.416 1102.3 169.632C1124.01 170.299 1146.46 175.022 1182.01 182.672C1240.9 195.421 1281.12 211.198 1299.16 217.443C1312.37 221.974 1326 225.531 1339.9 228.077C1387.98 237.001 1455.95 237.928 1551.57 215.153" stroke="url(#paint1_linear_253_176)" stroke-opacity="0.32" stroke-width="5" stroke-miterlimit="10"/>
<path d="M-102.824 191.205C-1.06853 185.41 79.6543 165.127 139.095 141.396C186.298 122.561 221.913 101.047 267.952 85.6896C278.46 82.169 289.351 78.605 301.039 75.548C373.798 56.4675 421.666 54.1639 442.816 55.265C470.067 56.7138 471.879 56.4385 513.413 67.5217C542.493 75.3017 563.725 80.5609 579.92 84.2553C607.204 90.4416 620.323 91.6876 641.04 101.902C648.934 105.835 656.354 110.451 663.187 115.68C694.877 139.498 696.44 168.068 750.926 197.391C798.828 223.194 875.344 241.521 943.098 225.049C948.834 223.6 954.138 222.151 959.109 220.413C1014.09 201.984 1026.26 171.632 1085.11 166.807C1091.49 166.259 1097.91 166.08 1104.33 166.271C1126.41 166.836 1148.82 171.429 1183.5 179.006C1240.47 191.408 1280.02 206.924 1299.76 213.618C1312.87 218.108 1326.37 221.674 1340.13 224.281C1387.78 233.408 1455.43 235.335 1550.11 214.82" stroke="url(#paint2_linear_253_176)" stroke-opacity="0.32" stroke-width="5" stroke-miterlimit="10"/>
<path d="M-103.54 206.055C-5.35861 201.375 77.2929 183.483 141.289 158.882C191.003 139.758 228.247 117.259 273.389 101.148C284.163 97.2943 295.153 93.2667 306.858 89.8041C379.035 68.4489 426.571 63.9722 448.868 61.5382C476.451 58.5392 480.059 59.0463 520.678 69.7818C548.944 77.2721 570.093 83.2121 586.055 87.5875C612.541 94.8314 624.762 97.0046 644.049 107.581C651.513 111.814 658.554 116.588 665.098 121.851C695.675 145.496 700.297 172.226 754.716 198.637C803.217 222.195 879.151 237.653 945.708 221.282C951.394 219.833 956.665 218.384 961.603 216.689C1018.23 197.855 1030.65 169.038 1087.22 164.243C1093.56 163.682 1099.94 163.483 1106.31 163.649C1128.75 164.098 1151.2 168.589 1184.97 176.022C1239.97 188.061 1278.89 203.302 1300.31 210.561C1313.33 214.983 1326.72 218.552 1340.36 221.238C1387.58 230.569 1454.92 233.51 1548.63 215.24" stroke="url(#paint3_linear_253_176)" stroke-opacity="0.32" stroke-width="5" stroke-miterlimit="10"/>
<path d="M-104.271 220.934C-9.64818 217.341 74.8988 201.868 143.468 176.384C195.709 156.956 234.565 133.456 278.842 116.621C289.866 112.434 300.939 107.928 312.695 104.075C384.289 80.4884 431.393 72.4621 454.936 67.855C482.753 62.4075 488.19 61.6976 527.961 72.0854C555.478 79.3294 576.445 85.9069 592.14 90.9197C617.829 99.2068 629.135 102.336 647.009 113.26C654.029 117.783 660.695 122.71 666.961 128.009C696.44 151.45 704.121 176.355 758.491 199.941C807.59 221.238 882.925 233.843 948.302 217.587C953.922 216.139 959.159 214.69 964.081 213.024C1022.37 193.798 1035.01 166.662 1089.31 161.809C1095.61 161.255 1101.94 161.037 1108.27 161.157C1131.05 161.505 1153.43 165.88 1186.41 173.167C1239.49 184.874 1277.76 199.854 1300.86 207.634C1313.79 212.013 1327.06 215.591 1340.58 218.341C1387.38 227.888 1454.4 231.815 1547.16 215.82" stroke="url(#paint4_linear_253_176)" stroke-opacity="0.32" stroke-width="5" stroke-miterlimit="10"/>
<path d="M-104.969 230.525C-13.9046 228.019 72.5545 214.98 145.679 188.612C200.431 168.865 240.917 144.322 284.329 126.821C295.586 122.286 306.776 117.36 318.564 113.072C389.543 87.2543 436.265 75.7509 460.989 68.8691C489.055 61.0746 496.42 59.0318 535.227 69.0864C556.658 74.6591 577.694 81.3254 598.226 89.0508C623.166 98.3665 633.524 102.481 649.935 113.68C657.101 118.592 662.787 123.822 668.939 128.907C697.321 152.088 708.079 175.268 762.348 195.957C812.096 214.98 886.8 224.744 950.979 208.605C956.549 207.156 961.753 205.707 966.641 204.07C1026.61 184.497 1039.47 158.796 1091.51 154.087C1097.75 153.531 1104.03 153.299 1110.31 153.392C1133.46 153.667 1155.8 157.883 1187.89 164.982C1239.02 176.311 1276.66 191.06 1301.42 199.362C1314.27 203.694 1327.44 207.276 1340.84 210.083C1387.21 219.848 1453.9 224.788 1545.72 211.039" stroke="url(#paint5_linear_253_176)" stroke-opacity="0.32" stroke-width="5" stroke-miterlimit="10"/>
<path d="M-105.734 237.363C-18.2444 235.915 70.1267 225.295 147.824 198.072C205.086 178.007 247.168 152.392 289.749 134.326C301.255 129.429 312.528 124.068 324.366 119.374C394.814 91.3689 441.169 76.4029 467.057 67.2176C495.323 57.1485 504.6 53.7004 542.509 63.4073C563.75 68.8471 584.42 75.8556 604.294 84.3568C628.42 94.6721 637.897 99.8009 652.878 111.391C659.528 116.505 664.766 121.953 670.868 127.096C698.169 150.132 712.019 171.313 766.156 189.264C816.585 205.983 890.64 212.937 953.622 196.899C959.126 195.45 964.28 194.001 969.168 192.393C1030.82 172.516 1043.94 148.292 1093.65 143.757C1099.85 143.187 1106.09 142.935 1112.32 143.004C1135.8 143.178 1158.15 147.263 1189.36 154.275C1238.54 165.272 1275.53 179.745 1301.99 188.597C1314.75 192.874 1327.8 196.46 1341.08 199.333C1387.03 209.315 1453.41 215.269 1544.27 203.752" stroke="url(#paint6_linear_253_176)" stroke-opacity="0.32" stroke-width="5" stroke-miterlimit="10"/>
<path d="M-106.449 244.303C-22.534 243.97 67.716 235.712 150.018 207.634C209.775 187.235 253.437 160.52 295.186 141.801C306.942 136.513 318.331 130.718 330.202 125.647C400.085 95.4834 446.107 77.1127 473.109 65.5224C501.757 53.2366 512.781 48.3397 549.775 57.6989C570.863 63.0818 591.191 70.5073 610.38 79.8364C633.657 91.1225 642.27 97.3233 655.837 109.203C661.923 114.535 666.744 120.156 672.78 125.401C699.017 148.19 716.009 167.488 769.98 182.672C821.107 197.058 894.464 201.216 956.199 185.308C961.653 183.86 966.774 182.411 971.629 180.817C1034.96 160.534 1048.23 137.832 1095.75 133.326C1101.9 132.755 1108.08 132.484 1114.27 132.514C1138.11 132.514 1160.43 136.542 1190.75 143.438C1238.01 154.058 1274.34 168.3 1302.48 177.659C1315.16 181.9 1328.11 185.499 1341.26 188.438C1386.78 198.579 1452.84 205.548 1542.74 196.319" stroke="url(#paint7_linear_253_176)" stroke-opacity="0.32" stroke-width="5" stroke-miterlimit="10"/>
<path d="M-107.181 251.272C-26.8236 252.025 65.3218 246.158 152.197 217.225C214.464 196.493 259.705 168.662 300.64 149.378C312.611 143.743 324.134 137.556 336.022 131.993C405.355 99.6705 451.079 77.8952 479.178 63.8998C508.175 49.4119 520.961 43.0373 557.058 52.0487C577.985 57.3694 597.974 65.1692 616.465 75.2294C639.028 87.5006 646.626 94.7736 658.78 106.943C664.317 112.507 668.756 118.273 674.709 123.619C699.882 146.177 719.983 163.548 773.788 176.007C825.646 188.018 898.289 189.438 958.876 173.631C964.28 172.182 969.368 170.734 974.19 169.183C1039.22 148.596 1052.67 127.342 1097.94 122.924C1104.05 122.352 1110.19 122.062 1116.33 122.054C1140.52 121.924 1162.89 125.865 1192.3 132.616C1237.59 142.888 1273.29 156.883 1303.12 166.764C1315.7 170.976 1328.53 174.598 1341.56 177.615C1386.67 188.018 1452.41 195.943 1541.36 188.974" stroke="url(#paint8_linear_253_176)" stroke-opacity="0.32" stroke-width="5" stroke-miterlimit="10"/>
<path d="M-107.913 258.211C-31.1137 260.008 62.9605 256.516 154.408 226.744C219.252 205.664 265.973 176.703 306.127 156.883C318.331 150.856 329.969 144.279 341.891 138.31C410.659 103.872 456.1 78.7064 485.28 62.2336C514.692 45.616 529.191 37.7056 564.373 46.3694C585.155 51.6717 604.809 59.8823 622.567 70.6801C644.348 83.8931 650.999 92.296 661.739 104.741C666.727 110.536 670.735 116.433 676.704 121.895C700.846 144.206 724.09 159.563 777.694 169.386C830.285 178.992 902.195 177.702 961.603 162.012C966.94 160.563 971.995 159.114 976.8 157.665C1043.51 136.759 1057.16 116.954 1100.15 112.652C1106.23 112.049 1112.33 111.74 1118.44 111.724C1142.98 111.579 1165.26 115.303 1193.88 121.866C1237.22 131.79 1272.27 145.539 1303.8 155.941C1315.19 159.708 1327.81 163.432 1341.92 166.764C1386.6 177.369 1452.03 186.308 1540.01 181.585" stroke="url(#paint9_linear_253_176)" stroke-opacity="0.32" stroke-width="5" stroke-miterlimit="10"/>
<path d="M-108.644 264.948C-35.4864 267.846 60.4998 266.745 156.553 236.146C223.824 214.719 272.158 184.598 311.547 164.257C323.967 157.839 335.739 150.885 347.694 144.481C415.963 107.929 461.155 79.3873 491.299 60.4517C521.127 41.6174 537.322 32.2582 571.606 40.5743C592.266 45.8629 611.608 54.4719 628.636 65.9571C649.669 80.1262 655.239 89.6738 664.666 102.365C669.105 108.392 672.713 114.434 678.549 119.997C701.66 142.033 728.03 155.463 781.419 162.591C834.807 169.719 905.937 165.779 964.147 150.204C969.434 148.755 974.456 147.307 979.227 145.858C1047.63 124.633 1061.48 106.277 1102.27 102.075C1108.28 101.463 1114.32 101.139 1120.37 101.105C1145.31 100.829 1167.53 104.451 1195.19 110.927C1236.61 120.49 1270.99 134.007 1304.21 144.916C1315.55 148.654 1328.07 152.363 1342.02 155.768C1386.27 166.576 1451.38 176.514 1538.42 174.066" stroke="url(#paint10_linear_253_176)" stroke-opacity="0.32" stroke-width="5" stroke-miterlimit="10"/>
<path d="M-109.358 271.598C-39.709 275.611 58.0896 276.843 158.748 245.433C228.58 223.701 278.361 192.35 316.985 171.545C329.638 164.721 341.542 157.405 353.563 150.566C421.301 111.884 466.26 80.0104 497.352 58.5248C527.662 37.6333 545.569 26.6514 578.823 34.6343C600.903 39.9368 620.955 50.9042 634.672 61.0892C654.973 76.1856 659.612 86.9066 667.576 99.8443C671.434 106.103 674.659 112.289 680.412 117.969C702.509 139.7 731.955 151.131 785.161 155.637C839.247 160.259 909.695 153.71 966.708 138.252C971.929 136.803 976.917 135.354 981.672 133.905C1051.75 112.347 1065.79 95.44 1104.28 91.3544C1110.24 90.7334 1116.24 90.39 1122.25 90.3257C1147.51 89.9056 1169.72 93.4406 1196.61 99.7863C1236.08 109.001 1269.76 122.272 1304.68 133.703C1315.97 137.397 1328.39 141.12 1342.16 144.568C1385.98 155.594 1450.78 166.532 1536.86 166.3" stroke="url(#paint11_linear_253_176)" stroke-opacity="0.32" stroke-width="5" stroke-miterlimit="10"/>
<path d="M-110.09 278.161C-43.999 283.276 55.6118 286.68 160.926 254.618C233.136 232.365 284.545 199.999 322.438 178.687C335.29 171.443 347.378 163.779 359.366 156.506C426.638 115.781 471.38 80.4594 503.42 56.5399C534.229 33.5331 553.666 21.0156 586.155 28.6362C607.454 33.678 627.406 45.2249 640.807 56.1632C660.376 72.1869 663.901 84.0669 670.569 97.2654C673.894 103.756 676.704 110.058 682.39 115.853C703.473 137.353 736.045 146.684 789.051 148.697C843.919 150.769 913.602 141.656 969.418 126.299C974.594 124.86 979.544 123.411 984.266 121.953C1056.06 100.105 1070.28 84.6175 1106.51 80.6478C1112.42 80.01 1118.37 79.6473 1124.33 79.5612C1149.93 79.0251 1172.15 82.4588 1198.17 88.6596C1235.68 97.5117 1268.75 110.609 1305.38 122.503C1316.62 126.183 1328.92 129.878 1342.54 133.384C1385.93 144.626 1450.41 156.564 1535.54 158.622" stroke="url(#paint12_linear_253_176)" stroke-opacity="0.32" stroke-width="5" stroke-miterlimit="10"/>
<path d="M-110.822 284.623C-48.3052 290.809 53.2177 296.604 163.104 263.702C237.824 241.116 290.747 207.504 327.892 185.772C340.943 178.137 353.164 170.096 365.202 162.389C431.992 119.591 476.601 80.8796 509.472 54.4392C540.814 29.3027 561.846 15.1915 593.354 22.4789C613.888 27.2454 633.757 39.3862 646.809 51.107C665.68 68.0578 668.091 81.1259 673.412 94.5707C676.105 101.308 678.616 107.74 684.203 113.637C704.404 134.847 740.085 143.54 792.875 141.584C848.375 139.527 917.443 129.429 972.078 114.187C977.199 112.748 982.11 111.299 986.81 109.841C1060.33 87.7903 1074.7 73.6211 1108.67 69.7674C1114.54 69.1244 1120.44 68.7472 1126.36 68.6373C1152.31 67.9998 1174.58 71.3031 1199.65 77.3301C1235.15 85.9069 1267.64 98.8446 1305.94 111.174C1317.13 114.825 1329.34 118.519 1342.77 122.083C1385.75 133.543 1449.91 146.481 1534.08 150.798" stroke="url(#paint13_linear_253_176)" stroke-opacity="0.32" stroke-width="5" stroke-miterlimit="10"/>
<path d="M-111.62 291.012C-52.6617 298.256 50.7567 306.471 165.215 272.714C242.446 249.794 296.783 214.951 333.262 192.726C346.563 184.671 358.917 176.297 370.955 168.097C437.295 123.184 481.655 81.1693 515.474 52.1935C547.414 24.9563 570.076 9.3383 600.703 16.2635C620.456 20.7548 640.241 33.4751 652.961 45.9782C671.134 63.8273 672.381 78.0834 676.454 91.76C678.549 98.7431 680.727 105.292 686.231 111.319C705.352 132.239 743.992 137.397 796.682 134.383C852.914 131.211 921.25 117.114 974.688 101.988C979.676 100.54 984.664 99.0908 989.303 97.642C1064.51 75.2582 1079.09 62.5234 1110.79 58.8C1116.61 58.1395 1122.47 57.743 1128.34 57.612C1154.64 56.8586 1176.82 60.0604 1201.09 65.9715C1234.73 74.1282 1266.5 86.7471 1306.49 99.6704C1317.65 103.292 1329.77 106.914 1343.07 110.609C1385.62 122.199 1449.48 136.209 1532.62 142.786" stroke="url(#paint14_linear_253_176)" stroke-opacity="0.32" stroke-width="5" stroke-miterlimit="10"/>
<path d="M-112.269 297.329C-56.8849 305.688 48.4123 316.265 167.476 281.667C247.285 258.414 302.984 222.267 338.732 199.651C352.166 191.162 364.769 182.469 376.807 173.863C442.799 127.038 486.876 81.4302 521.46 49.9624C553.915 20.5375 578.074 3.41281 607.919 10.0193C626.89 14.2353 646.626 27.5352 658.996 40.8061C676.488 59.6404 676.538 74.9975 679.364 88.9349C680.811 96.1788 682.689 102.829 688.093 108.972C706.25 129.602 747.949 132.558 800.44 127.154C857.353 121.359 925.041 104.77 977.266 89.7462C982.254 88.2974 987.125 86.8486 991.764 85.5157C1068.66 62.7987 1083.41 51.4547 1112.87 47.8472C1118.69 47.1962 1124.54 46.8093 1130.4 46.6882C1154.79 45.8878 1179.17 48.5796 1202.56 54.6565C1234.25 62.4655 1265.37 74.8382 1307.06 88.2829C1318.16 91.8614 1330.17 95.5269 1343.25 99.2358C1404.43 116.293 1467.33 128.232 1531.1 134.891" stroke="url(#paint15_linear_253_176)" stroke-opacity="0.32" stroke-width="5" stroke-miterlimit="10"/>
<path d="M-113 303.602C-61.1744 313.048 46.0182 326.015 169.655 290.563C251.907 266.977 309.087 229.612 344.236 206.533C500.244 104.002 549.626 -10.5101 615.251 3.70253C633.441 7.64324 653.127 21.5226 665.132 35.5759C690.77 65.5659 674.609 88.3119 690.072 106.567C727.981 151.334 898.505 101.336 994.341 73.2444C1087.78 45.8478 1091.24 37.0247 1132.34 35.5759C1204.09 33.0115 1241.38 58.1191 1343.5 87.7323C1404.22 105.255 1466.51 118.339 1529.72 126.85" stroke="url(#paint16_linear_253_176)" stroke-opacity="0.32" stroke-width="5" stroke-miterlimit="10"/>
<path d="M-113 307.746C-59.7944 318.076 44.0729 329.912 162.272 295.981C243.86 272.497 298.612 234.77 336.338 210.503C487.043 113.68 534.046 8.81677 600.903 18.176C627.023 21.8269 653.543 29.1433 671.051 40.3569C705.452 62.4075 692.666 82.1255 712.618 99.7573C756.296 138.382 915.348 95.0198 1006.6 69.2458C1095.48 44.0513 1099.07 36.9233 1142.52 38.3721C1214.71 40.7771 1250.31 63.0015 1346.51 91.4268C1406.53 109.152 1468.34 121.914 1531.1 129.544" stroke="url(#paint17_linear_253_176)" stroke-opacity="0.32" stroke-width="5" stroke-miterlimit="10"/>
<path d="M-113 312.063C-24.2693 329.861 68.3525 326.23 154.89 301.559C235.812 278.19 288.037 240.073 328.44 214.632C473.641 123.271 519.099 26.4921 586.57 32.8088C620.805 36.0251 652.994 36.8364 676.97 45.3118C718.104 59.7997 710.09 75.8813 735.164 93.1219C783.065 126.024 932.19 88.8625 1018.87 65.4066C1103.05 42.4143 1106.79 36.8364 1152.71 41.3277C1225.17 48.3978 1259.24 68.1882 1349.52 95.2951C1408.83 113.21 1470.13 125.651 1532.42 132.413" stroke="url(#paint18_linear_253_176)" stroke-opacity="0.32" stroke-width="5" stroke-miterlimit="10"/>
<path d="M-113 319.742C-26.853 337.753 63.3432 334.553 147.524 310.498C227.765 287.231 277.479 248.722 320.542 222.122C459.941 136.035 504.634 57.5686 572.221 50.8027C614.503 46.5722 651.897 48.3108 682.906 53.6134C729.76 61.6107 727.033 73.0127 757.726 89.8331C808.537 117.679 949.067 86.2111 1031.12 64.9284C1110.73 44.2831 1114.44 39.9802 1162.89 47.6298C1235.58 59.1043 1268.15 76.7071 1352.55 102.51C1411.15 120.637 1471.97 132.763 1533.78 138.643" stroke="url(#paint19_linear_253_176)" stroke-opacity="0.32" stroke-width="5" stroke-miterlimit="10"/>
<path d="M-113 331.433C-29.4434 349.649 58.3259 346.866 140.142 323.407C219.718 300.226 266.905 261.326 312.645 233.582C446.141 152.609 490.368 81.633 557.889 72.7664C608.052 66.1889 652.346 56.1343 688.825 65.8846C739.021 79.3004 740.9 80.2276 780.272 90.5141C827.641 121.822 965.926 87.4861 1043.39 68.42C1118.38 50.0204 1122.07 46.9779 1173.08 57.9163C1245.95 73.5487 1277.05 89.2536 1355.56 113.695C1413.45 132.027 1473.8 143.834 1535.13 148.828" stroke="url(#paint20_linear_253_176)" stroke-opacity="0.32" stroke-width="5" stroke-miterlimit="10"/>
<path d="M-113 343.4C-32.0375 361.831 53.3095 359.507 132.793 336.707C211.704 313.642 256.347 274.307 304.78 245.433C432.241 169.43 475.969 105.292 543.474 95.1211C601.667 86.3704 650.084 72.491 694.777 78.5614C752.405 86.3849 757.51 83.3135 802.851 91.6006C852.548 119.461 982.769 89.0362 1055.58 72.3027C1125.94 56.1487 1129.63 54.2218 1183.19 68.5938C1256.35 88.1814 1285.86 102.22 1358.5 125.27C1415.69 143.81 1475.57 155.299 1536.41 159.404" stroke="url(#paint21_linear_253_176)" stroke-opacity="0.32" stroke-width="5" stroke-miterlimit="10"/>
<path d="M-113 355.599C-34.6504 374.209 48.2516 372.319 125.378 350.166C203.623 327.203 245.689 287.434 296.849 257.444C418.225 186.294 461.454 128.646 529.208 117.635C595.266 106.9 648.688 98.0912 700.663 91.3833C764.842 83.0962 774.053 86.5298 825.364 92.8321C877.472 117.331 999.612 90.8038 1067.91 76.3448C1133.66 62.4365 1137.35 61.5382 1193.45 79.4308C1266.74 102.814 1294.79 115.404 1361.51 137.02C1418 155.76 1477.42 166.931 1537.75 170.154" stroke="url(#paint22_linear_253_176)" stroke-opacity="0.32" stroke-width="5" stroke-miterlimit="10"/>
<path d="M-113 367.957C-51.0986 383.561 32.484 388.82 118.012 363.799C195.642 341.082 235.064 300.704 288.952 269.628C404.125 203.215 446.906 151.841 514.859 140.323C588.948 127.777 647.873 115.506 706.599 104.379C776.93 91.0356 792.226 81.7198 847.926 94.2374C905.637 107.204 1016.45 92.7886 1080.17 80.5608C1141.29 68.8836 1145.01 68.9705 1203.62 90.4271C1277.28 117.476 1303.65 128.791 1364.6 148.929C1402.49 161.447 1459.66 177.818 1539.18 181.063" stroke="url(#paint23_linear_253_176)" stroke-opacity="0.32" stroke-width="5" stroke-miterlimit="10"/>
<path d="M-113 380.533C-49.6521 396.991 30.5387 401.149 110.63 377.635C187.595 355.034 224.407 314.135 281.054 282.015C389.942 220.253 432.108 175.008 500.527 163.214C582.663 149.045 647.208 133.21 712.518 117.578C789.184 99.2213 808.321 85.255 870.472 95.8457C929.713 105.987 1033.28 94.8605 1092.44 84.9797C1148.97 75.5336 1152.83 76.4029 1213.81 101.641C1287.84 132.254 1312.48 142.439 1367.61 161.041C1404.96 173.646 1461.27 190.017 1540.53 192.19" stroke="url(#paint24_linear_253_176)" stroke-opacity="0.32" stroke-width="5" stroke-miterlimit="10"/>
<path d="M-113 393.253C-48.1557 410.639 28.5934 413.623 103.247 391.631C179.548 369.145 213.716 327.71 273.156 294.562C375.71 237.363 417.31 198.188 486.178 186.265C576.445 170.632 646.626 151.117 718.437 130.935C801.571 107.581 824.433 89.2826 893.018 97.6131C953.872 105.002 1050.11 97.164 1104.69 89.5578C1156.54 82.3139 1160.64 83.98 1223.99 113.014C1298.48 147.133 1321.29 156.289 1370.62 173.312C1407.43 186.018 1462.87 202.448 1541.88 203.462" stroke="url(#paint25_linear_253_176)" stroke-opacity="0.32" stroke-width="5" stroke-miterlimit="10"/>
<path d="M-113 406.162C-46.7757 424.373 26.6647 426.271 95.8652 405.8C171.5 383.416 202.991 341.401 265.258 307.282C361.411 254.575 401.315 214.4 471.846 209.489C571.839 202.52 646.094 169.212 724.356 144.467C814.024 116.129 844.069 79.2715 915.564 99.5545C975.287 116.549 1066.87 99.5545 1116.96 94.3099C1164.15 89.3116 1168.51 91.6731 1234.18 124.546C1309.19 162.113 1330.07 170.371 1373.63 185.758C1409.89 198.579 1464.48 215.023 1543.22 214.922" stroke="url(#paint26_linear_253_176)" stroke-opacity="0.32" stroke-width="5" stroke-miterlimit="10"/>
<path d="M-113 419.491C-45.3291 438.586 24.7193 439.31 88.4995 420.476C163.453 398.194 192.234 355.541 257.361 320.509C347.145 272.221 386.501 239.131 457.497 233.22C565.571 224.194 645.628 187.829 730.292 158.506C826.561 125.184 858.933 85.9069 938.126 102.003C1000.94 114.781 1083.74 102.553 1129.22 99.569C1171.77 96.7728 1176.5 99.8152 1244.36 136.6C1319.96 177.572 1338.85 185.004 1376.66 198.71C1412.35 211.662 1466.09 228.091 1544.59 226.874" stroke="url(#paint27_linear_253_176)" stroke-opacity="0.32" stroke-width="5" stroke-miterlimit="10"/>
<path d="M-113 433.66C-43.8992 453.639 22.7574 453.248 81.1173 435.833C155.406 413.652 181.426 370.304 249.463 334.418C332.697 290.505 371.67 264.543 443.165 257.632C559.352 246.404 645.196 207.142 736.211 173.24C839.164 134.89 874.213 94.0201 960.672 105.147C1026.41 113.608 1100.54 106.161 1141.49 105.509C1179.36 104.901 1184.53 108.609 1254.55 149.335C1330.78 193.682 1347.66 200.376 1379.67 212.357C1414.8 225.483 1467.79 241.855 1545.93 239.522" stroke="url(#paint28_linear_253_176)" stroke-opacity="0.32" stroke-width="5" stroke-miterlimit="10"/>
<path d="M-113 448.075C-42.4527 468.938 20.8121 467.402 73.735 451.524C147.358 429.43 170.569 385.299 241.565 348.659C318.298 309.05 356.789 290.259 428.816 282.377C553.051 268.788 644.797 226.773 742.13 188.293C851.867 144.931 889.875 103.061 983.218 108.609C1051.72 112.681 1117.35 110.058 1153.74 111.782C1186.93 113.333 1192.62 117.679 1264.73 162.403C1341.69 210.112 1356.31 216.197 1382.68 226.338C1417.21 239.682 1469.3 255.966 1547.28 252.503" stroke="url(#paint29_linear_253_176)" stroke-opacity="0.32" stroke-width="5" stroke-miterlimit="10"/>
<path d="M-113 463.766C-41.0062 485.498 18.8168 482.745 66.3527 468.474C139.261 446.337 159.629 401.439 233.668 364.162C303.866 328.811 341.891 317.221 414.483 308.383C546.699 292.287 644.431 247.679 747.983 204.606C864.37 156.231 906.253 119.939 1005.7 113.333C1076.56 108.638 1134.07 115.216 1165.95 119.316C1194.49 122.996 1200.7 128.009 1274.85 176.717C1352.56 227.801 1364.93 233.22 1385.62 241.55C1419.5 255.213 1470.85 271.309 1548.56 266.73" stroke="url(#paint30_linear_253_176)" stroke-opacity="0.32" stroke-width="5" stroke-miterlimit="10"/>
<path d="M-113 479.297C-39.5763 501.912 16.8715 498.03 58.987 485.28C131.214 463.244 148.589 417.274 225.77 379.519C289.417 348.384 326.96 344.023 400.135 334.244C540.315 315.511 644.082 268.425 753.985 220.789C877.172 167.372 922.996 128.067 1028.33 117.925C1101.48 110.913 1150.98 120.142 1178.27 126.705C1202.19 132.5 1208.96 138.15 1285.09 190.901C1363.64 245.317 1373.65 250.2 1388.71 256.647C1421.83 270.816 1472.53 286.506 1549.99 280.813" stroke="url(#paint31_linear_253_176)" stroke-opacity="0.32" stroke-width="5" stroke-miterlimit="10"/>
<path d="M-113 494.842C-38.1796 518.327 15.0259 513.329 51.6048 502.086C123.1 480.152 137.432 432.878 217.872 394.876C274.968 367.899 312.013 370.826 385.802 360.105C533.864 338.59 643.75 289.114 759.904 236.958C889.892 178.514 939.789 136.137 1050.87 122.503C1126.61 113.217 1167.87 124.995 1190.54 134.094C1209.87 141.859 1217.14 148.277 1295.29 205.084C1374.68 262.848 1382.24 267.238 1391.72 271.729C1423.76 286.927 1474.12 301.719 1551.34 294.909" stroke="url(#paint32_linear_253_176)" stroke-opacity="0.32" stroke-width="5" stroke-miterlimit="10"/>
<defs>
<linearGradient id="paint0_linear_253_176" x1="-101.361" y1="141.024" x2="1553" y2="141.024" gradientUnits="userSpaceOnUse">
<stop stop-color="#DE8901"/>
<stop offset="1" stop-color="#FAC87A"/>
</linearGradient>
<linearGradient id="paint1_linear_253_176" x1="-102.093" y1="142.092" x2="1551.57" y2="142.092" gradientUnits="userSpaceOnUse">
<stop stop-color="#DE8901"/>
<stop offset="1" stop-color="#FAC87A"/>
</linearGradient>
<linearGradient id="paint2_linear_253_176" x1="-102.824" y1="143.18" x2="1550.11" y2="143.18" gradientUnits="userSpaceOnUse">
<stop stop-color="#DE8901"/>
<stop offset="1" stop-color="#FAC87A"/>
</linearGradient>
<linearGradient id="paint3_linear_253_176" x1="-103.54" y1="144.289" x2="1548.63" y2="144.289" gradientUnits="userSpaceOnUse">
<stop stop-color="#DE8901"/>
<stop offset="1" stop-color="#FAC87A"/>
</linearGradient>
<linearGradient id="paint4_linear_253_176" x1="-104.271" y1="145.312" x2="1547.16" y2="145.312" gradientUnits="userSpaceOnUse">
<stop stop-color="#DE8901"/>
<stop offset="1" stop-color="#FAC87A"/>
</linearGradient>
<linearGradient id="paint5_linear_253_176" x1="-104.969" y1="146.396" x2="1545.72" y2="146.396" gradientUnits="userSpaceOnUse">
<stop stop-color="#DE8901"/>
<stop offset="1" stop-color="#FAC87A"/>
</linearGradient>
<linearGradient id="paint6_linear_253_176" x1="-105.734" y1="147.507" x2="1544.27" y2="147.507" gradientUnits="userSpaceOnUse">
<stop stop-color="#DE8901"/>
<stop offset="1" stop-color="#FAC87A"/>
</linearGradient>
<linearGradient id="paint7_linear_253_176" x1="-106.449" y1="148.558" x2="1542.74" y2="148.558" gradientUnits="userSpaceOnUse">
<stop stop-color="#DE8901"/>
<stop offset="1" stop-color="#FAC87A"/>
</linearGradient>
<linearGradient id="paint8_linear_253_176" x1="-107.181" y1="149.609" x2="1541.36" y2="149.609" gradientUnits="userSpaceOnUse">
<stop stop-color="#DE8901"/>
<stop offset="1" stop-color="#FAC87A"/>
</linearGradient>
<linearGradient id="paint9_linear_253_176" x1="-107.913" y1="150.708" x2="1540.01" y2="150.708" gradientUnits="userSpaceOnUse">
<stop stop-color="#DE8901"/>
<stop offset="1" stop-color="#FAC87A"/>
</linearGradient>
<linearGradient id="paint10_linear_253_176" x1="-108.644" y1="151.766" x2="1538.42" y2="151.766" gradientUnits="userSpaceOnUse">
<stop stop-color="#DE8901"/>
<stop offset="1" stop-color="#FAC87A"/>
</linearGradient>
<linearGradient id="paint11_linear_253_176" x1="-109.358" y1="152.842" x2="1536.86" y2="152.842" gradientUnits="userSpaceOnUse">
<stop stop-color="#DE8901"/>
<stop offset="1" stop-color="#FAC87A"/>
</linearGradient>
<linearGradient id="paint12_linear_253_176" x1="-110.09" y1="153.931" x2="1535.54" y2="153.931" gradientUnits="userSpaceOnUse">
<stop stop-color="#DE8901"/>
<stop offset="1" stop-color="#FAC87A"/>
</linearGradient>
<linearGradient id="paint13_linear_253_176" x1="-110.822" y1="154.987" x2="1534.08" y2="154.987" gradientUnits="userSpaceOnUse">
<stop stop-color="#DE8901"/>
<stop offset="1" stop-color="#FAC87A"/>
</linearGradient>
<linearGradient id="paint14_linear_253_176" x1="-111.62" y1="156.054" x2="1532.62" y2="156.054" gradientUnits="userSpaceOnUse">
<stop stop-color="#DE8901"/>
<stop offset="1" stop-color="#FAC87A"/>
</linearGradient>
<linearGradient id="paint15_linear_253_176" x1="-112.269" y1="157.136" x2="1531.1" y2="157.136" gradientUnits="userSpaceOnUse">
<stop stop-color="#DE8901"/>
<stop offset="1" stop-color="#FAC87A"/>
</linearGradient>
<linearGradient id="paint16_linear_253_176" x1="-113" y1="158.21" x2="1529.72" y2="158.21" gradientUnits="userSpaceOnUse">
<stop stop-color="#DE8901"/>
<stop offset="1" stop-color="#FAC87A"/>
</linearGradient>
<linearGradient id="paint17_linear_253_176" x1="-113" y1="168.027" x2="1531.1" y2="168.027" gradientUnits="userSpaceOnUse">
<stop stop-color="#DE8901"/>
<stop offset="1" stop-color="#FAC87A"/>
</linearGradient>
<linearGradient id="paint18_linear_253_176" x1="-113" y1="177.847" x2="1532.42" y2="177.847" gradientUnits="userSpaceOnUse">
<stop stop-color="#DE8901"/>
<stop offset="1" stop-color="#FAC87A"/>
</linearGradient>
<linearGradient id="paint19_linear_253_176" x1="-113" y1="187.665" x2="1533.78" y2="187.665" gradientUnits="userSpaceOnUse">
<stop stop-color="#DE8901"/>
<stop offset="1" stop-color="#FAC87A"/>
</linearGradient>
<linearGradient id="paint20_linear_253_176" x1="-113" y1="197.444" x2="1535.13" y2="197.444" gradientUnits="userSpaceOnUse">
<stop stop-color="#DE8901"/>
<stop offset="1" stop-color="#FAC87A"/>
</linearGradient>
<linearGradient id="paint21_linear_253_176" x1="-113" y1="207.302" x2="1536.41" y2="207.302" gradientUnits="userSpaceOnUse">
<stop stop-color="#DE8901"/>
<stop offset="1" stop-color="#FAC87A"/>
</linearGradient>
<linearGradient id="paint22_linear_253_176" x1="-113" y1="217.12" x2="1537.75" y2="217.12" gradientUnits="userSpaceOnUse">
<stop stop-color="#DE8901"/>
<stop offset="1" stop-color="#FAC87A"/>
</linearGradient>
<linearGradient id="paint23_linear_253_176" x1="-113" y1="226.95" x2="1539.18" y2="226.95" gradientUnits="userSpaceOnUse">
<stop stop-color="#DE8901"/>
<stop offset="1" stop-color="#FAC87A"/>
</linearGradient>
<linearGradient id="paint24_linear_253_176" x1="-113" y1="236.76" x2="1540.53" y2="236.76" gradientUnits="userSpaceOnUse">
<stop stop-color="#DE8901"/>
<stop offset="1" stop-color="#FAC87A"/>
</linearGradient>
<linearGradient id="paint25_linear_253_176" x1="-113" y1="246.576" x2="1541.88" y2="246.576" gradientUnits="userSpaceOnUse">
<stop stop-color="#DE8901"/>
<stop offset="1" stop-color="#FAC87A"/>
</linearGradient>
<linearGradient id="paint26_linear_253_176" x1="-113" y1="256.397" x2="1543.22" y2="256.397" gradientUnits="userSpaceOnUse">
<stop stop-color="#DE8901"/>
<stop offset="1" stop-color="#FAC87A"/>
</linearGradient>
<linearGradient id="paint27_linear_253_176" x1="-113" y1="266.246" x2="1544.59" y2="266.246" gradientUnits="userSpaceOnUse">
<stop stop-color="#DE8901"/>
<stop offset="1" stop-color="#FAC87A"/>
</linearGradient>
<linearGradient id="paint28_linear_253_176" x1="-113" y1="276.032" x2="1545.93" y2="276.032" gradientUnits="userSpaceOnUse">
<stop stop-color="#DE8901"/>
<stop offset="1" stop-color="#FAC87A"/>
</linearGradient>
<linearGradient id="paint29_linear_253_176" x1="-113" y1="285.85" x2="1547.28" y2="285.85" gradientUnits="userSpaceOnUse">
<stop stop-color="#DE8901"/>
<stop offset="1" stop-color="#FAC87A"/>
</linearGradient>
<linearGradient id="paint30_linear_253_176" x1="-113" y1="295.67" x2="1548.56" y2="295.67" gradientUnits="userSpaceOnUse">
<stop stop-color="#DE8901"/>
<stop offset="1" stop-color="#FAC87A"/>
</linearGradient>
<linearGradient id="paint31_linear_253_176" x1="-113" y1="305.489" x2="1549.99" y2="305.489" gradientUnits="userSpaceOnUse">
<stop stop-color="#DE8901"/>
<stop offset="1" stop-color="#FAC87A"/>
</linearGradient>
<linearGradient id="paint32_linear_253_176" x1="-113" y1="315.308" x2="1551.34" y2="315.308" gradientUnits="userSpaceOnUse">
<stop stop-color="#DE8901"/>
<stop offset="1" stop-color="#FAC87A"/>
</linearGradient>
</defs>
</svg>
