<svg width="1440" height="617" viewBox="0 0 1440 617" fill="none" xmlns="http://www.w3.org/2000/svg">
<path d="M-167.361 197.305C-58.4723 187.759 18.3765 157.396 68.7389 131.11C119.667 104.528 156.345 75.3673 223.368 59.6896C297.29 42.2699 345.591 50.0739 364.695 54.4637C391.181 60.5606 389.535 64.7064 432.865 78.8512C516.098 106.026 531.91 93.9366 569.204 111.948C631.039 141.806 612.6 187.114 677.278 237.37C724.115 273.777 801.663 302.746 871.811 282.661C937.869 263.743 945.301 216.24 1014.8 209.498C1043.35 206.729 1067.09 212.878 1114.56 225.176C1175.4 240.854 1216.25 260.19 1232.61 266.983C1281.08 287.138 1359.31 299.819 1487 260.015" stroke="url(#paint0_linear_253_92)" stroke-opacity="0.32" stroke-width="5" stroke-miterlimit="10"/>
<path d="M-168.093 212.669C-62.7623 204.429 15.982 176.941 70.9167 149.697C115.543 127.26 149.578 102.664 196.482 85.0874C206.741 81.2551 217.548 77.5447 229.187 74.3395C302.527 54.1675 350.645 57.4947 370.73 59.5328C397.666 62.2502 397.666 65.3509 440.13 79.095C470.058 88.7629 491.374 94.2849 507.884 97.9082C535.95 104.057 550 104.475 572.147 116.303C580.41 120.68 588.165 126.04 595.258 132.277C628.062 161.107 626.666 197.653 681.085 236.394C728.455 270.119 805.486 295.621 874.438 275.676C879.9 274.092 885.283 272.22 890.566 270.067C943.871 248.309 955.842 210.038 1016.93 204.029C1023.37 203.386 1029.84 203.194 1036.3 203.454C1058.01 204.255 1080.46 209.934 1116.01 219.131C1174.9 234.461 1215.12 253.431 1233.16 260.939C1246.37 266.387 1260 270.664 1273.9 273.725C1321.98 284.455 1389.95 285.57 1485.57 258.186" stroke="url(#paint1_linear_253_92)" stroke-opacity="0.32" stroke-width="5" stroke-miterlimit="10"/>
<path d="M-168.824 229.392C-67.0685 222.424 13.6543 198.036 73.0949 169.503C120.298 146.857 155.913 120.989 201.952 102.524C212.46 98.2915 223.351 94.0062 235.039 90.3307C307.798 67.389 355.666 64.6193 376.816 65.9432C404.067 67.6852 405.879 67.3542 447.413 80.6802C476.493 90.0346 497.725 96.3579 513.92 100.8C541.204 108.238 554.323 109.736 575.04 122.017C582.934 126.747 590.354 132.297 597.187 138.583C628.877 167.221 630.44 201.573 684.926 236.83C732.828 267.854 809.344 289.89 877.098 270.084C882.834 268.342 888.138 266.6 893.109 264.51C948.094 242.352 960.265 205.858 1019.11 200.057C1025.49 199.398 1031.91 199.183 1038.33 199.412C1060.41 200.092 1082.82 205.614 1117.5 214.724C1174.47 229.636 1214.02 248.292 1233.76 256.34C1246.87 261.738 1260.37 266.026 1274.13 269.161C1321.78 280.135 1389.43 282.452 1484.11 257.786" stroke="url(#paint2_linear_253_92)" stroke-opacity="0.32" stroke-width="5" stroke-miterlimit="10"/>
<path d="M-169.54 247.247C-71.3586 241.62 11.2929 220.107 75.2893 190.528C125.003 167.535 162.247 140.482 207.389 121.111C218.163 116.478 229.153 111.635 240.858 107.472C313.035 81.7951 360.571 76.4124 382.868 73.4859C410.451 69.88 414.059 70.4897 454.678 83.3977C482.944 92.4036 504.093 99.5457 520.055 104.806C546.541 113.516 558.762 116.129 578.049 128.846C585.513 133.935 592.554 139.675 599.098 146.004C629.675 174.433 634.297 206.572 688.716 238.328C737.217 266.652 813.151 285.239 879.708 265.555C885.394 263.813 890.665 262.071 895.603 260.033C952.234 237.387 964.654 202.74 1021.22 196.974C1027.56 196.299 1033.94 196.06 1040.31 196.26C1062.75 196.8 1085.2 202.2 1118.97 211.136C1173.97 225.612 1212.89 243.937 1234.31 252.664C1247.33 257.981 1260.72 262.272 1274.36 265.503C1321.58 276.721 1388.92 280.257 1482.63 258.291" stroke="url(#paint3_linear_253_92)" stroke-opacity="0.32" stroke-width="5" stroke-miterlimit="10"/>
<path d="M-170.271 265.137C-75.6482 260.817 8.89882 242.212 77.4675 211.571C129.709 188.212 168.565 159.957 212.842 139.715C223.866 134.681 234.939 129.263 246.695 124.63C318.289 96.2707 365.393 86.6202 388.936 81.0808C416.753 74.531 422.19 73.6774 461.961 86.1673C489.478 94.8771 510.445 102.786 526.14 108.813C551.829 118.777 563.135 122.54 581.009 135.674C588.029 141.112 594.695 147.036 600.961 153.407C630.44 181.592 638.121 211.536 692.491 239.896C741.59 265.502 816.925 280.658 882.302 261.113C887.922 259.371 893.159 257.629 898.081 255.626C956.374 232.51 969.01 199.883 1023.31 194.047C1029.61 193.381 1035.94 193.119 1042.27 193.263C1065.05 193.681 1087.43 198.942 1120.41 207.704C1173.49 221.779 1211.76 239.791 1234.86 249.145C1247.79 254.41 1261.06 258.712 1274.58 262.019C1321.38 273.498 1388.4 278.219 1481.16 258.988" stroke="url(#paint4_linear_253_92)" stroke-opacity="0.32" stroke-width="5" stroke-miterlimit="10"/>
<path d="M-170.969 276.669C-79.9046 273.655 6.55452 257.977 79.6789 226.274C134.431 202.531 174.917 173.022 218.329 151.979C229.586 146.526 240.776 140.604 252.564 135.448C323.543 104.406 370.265 90.5746 394.989 82.3003C423.055 72.9285 430.42 70.4723 469.227 82.5616C490.658 89.2619 511.694 97.2772 532.226 106.566C557.166 117.767 567.524 122.714 583.935 136.179C591.101 142.084 596.787 148.373 602.939 154.487C631.321 182.359 642.079 210.23 696.348 235.105C746.096 257.977 820.8 269.718 884.979 250.313C890.549 248.571 895.753 246.829 900.641 244.86C960.614 221.326 973.466 190.424 1025.51 184.763C1031.75 184.094 1038.03 183.815 1044.31 183.926C1067.46 184.257 1089.8 189.327 1121.89 197.862C1173.02 211.484 1210.66 229.217 1235.42 239.199C1248.27 244.408 1261.44 248.714 1274.84 252.089C1321.21 263.83 1387.9 269.77 1479.72 253.239" stroke="url(#paint5_linear_253_92)" stroke-opacity="0.32" stroke-width="5" stroke-miterlimit="10"/>
<path d="M-171.734 284.891C-84.2444 283.149 4.12673 270.38 81.8235 237.649C139.086 213.522 181.168 182.724 223.749 161.002C235.255 155.114 246.528 148.669 258.366 143.025C328.814 109.353 375.169 91.3585 401.057 80.3144C429.323 68.2078 438.6 64.0619 476.509 75.733C497.75 82.2736 518.42 90.7004 538.294 100.922C562.42 113.325 571.897 119.491 586.878 133.427C593.528 139.576 598.766 146.126 604.868 152.31C632.169 180.007 646.019 205.474 700.156 227.057C750.585 247.16 824.64 255.521 887.622 236.238C893.126 234.496 898.28 232.754 903.168 230.82C964.82 206.92 977.939 177.795 1027.65 172.342C1033.85 171.657 1040.09 171.354 1046.32 171.437C1069.8 171.646 1092.15 176.558 1123.36 184.989C1172.54 198.211 1209.53 215.613 1235.99 226.256C1248.75 231.399 1261.8 235.71 1275.08 239.164C1321.03 251.166 1387.41 258.326 1478.27 244.477" stroke="url(#paint6_linear_253_92)" stroke-opacity="0.32" stroke-width="5" stroke-miterlimit="10"/>
<path d="M-172.449 293.235C-88.534 292.834 1.71595 282.905 84.0183 249.146C143.775 224.619 187.437 192.497 229.186 169.991C240.942 163.633 252.331 156.665 264.202 150.568C334.085 114.3 380.107 92.2121 407.109 78.2763C435.757 63.5045 446.781 57.6167 483.775 68.8697C504.863 75.3418 525.191 84.27 544.38 95.4869C567.657 109.057 576.27 116.512 589.837 130.797C595.923 137.207 600.744 143.966 606.78 150.272C633.017 177.673 650.009 200.876 703.98 219.132C755.107 236.429 828.464 241.429 890.199 222.302C895.653 220.56 900.774 218.818 905.629 216.902C968.96 192.514 982.228 165.218 1029.75 159.8C1035.9 159.114 1042.08 158.789 1048.27 158.825C1072.11 158.825 1094.43 163.667 1124.75 171.959C1172.01 184.728 1208.34 201.851 1236.48 213.104C1249.16 218.204 1262.11 222.531 1275.26 226.065C1320.78 238.258 1386.84 246.637 1476.74 235.541" stroke="url(#paint7_linear_253_92)" stroke-opacity="0.32" stroke-width="5" stroke-miterlimit="10"/>
<path d="M-173.181 301.613C-92.8236 302.519 -0.67818 295.464 86.1966 260.677C148.464 235.75 193.705 202.287 234.64 179.101C246.611 172.325 258.134 164.887 270.022 158.198C339.355 119.334 385.079 93.1527 413.178 76.3253C442.175 58.9057 454.961 51.2411 491.058 62.0761C511.985 68.4734 531.974 77.8515 550.465 89.9475C573.028 104.702 580.626 113.447 592.78 128.079C598.317 134.768 602.756 141.701 608.709 148.129C633.882 175.251 653.983 196.138 707.788 211.118C759.646 225.559 832.289 227.266 892.876 208.262C898.28 206.52 903.368 204.778 908.19 202.914C973.217 178.161 986.668 152.606 1031.94 147.293C1038.05 146.605 1044.19 146.256 1050.33 146.248C1074.52 146.091 1096.89 150.829 1126.3 158.947C1171.59 171.297 1207.29 188.125 1237.12 200.005C1249.7 205.069 1262.53 209.424 1275.56 213.052C1320.67 225.559 1386.41 235.088 1475.36 226.709" stroke="url(#paint8_linear_253_92)" stroke-opacity="0.32" stroke-width="5" stroke-miterlimit="10"/>
<path d="M-173.913 309.957C-97.1137 312.117 -3.03953 307.919 88.4076 272.122C153.252 246.776 199.973 211.955 240.127 188.125C252.331 180.878 263.969 172.969 275.891 165.793C344.659 124.386 390.1 94.1282 419.28 74.322C448.692 54.3417 463.191 44.8306 498.373 55.2475C519.155 61.6227 538.809 71.4949 556.567 84.4777C578.348 100.364 584.999 110.468 595.739 125.431C600.727 132.399 604.735 139.489 610.704 146.056C634.846 172.882 658.09 191.347 711.694 203.158C764.285 214.707 836.195 213.157 895.603 194.291C900.94 192.549 905.995 190.807 910.8 189.065C977.506 163.929 991.157 140.116 1034.15 134.942C1040.23 134.218 1046.33 133.846 1052.44 133.828C1076.98 133.653 1099.26 138.13 1127.88 146.021C1171.22 157.954 1206.27 174.485 1237.8 186.992C1249.19 191.521 1261.81 195.998 1275.92 200.005C1320.6 212.756 1386.03 223.504 1474.01 217.825" stroke="url(#paint9_linear_253_92)" stroke-opacity="0.32" stroke-width="5" stroke-miterlimit="10"/>
<path d="M-174.644 318.058C-101.486 321.542 -5.50015 320.218 90.5526 283.427C157.824 257.664 206.158 221.448 245.547 196.991C257.967 189.274 269.739 180.913 281.694 173.213C349.963 129.264 395.155 94.9469 425.299 72.1795C455.127 49.534 471.322 38.2809 505.606 48.2797C526.266 54.6386 545.608 64.9896 562.636 78.7989C583.669 95.8353 589.239 107.315 598.666 122.574C603.105 129.821 606.713 137.085 612.549 143.774C635.66 170.269 662.03 186.417 715.419 194.988C768.807 203.558 839.937 198.82 898.147 180.094C903.434 178.352 908.456 176.61 913.227 174.868C981.63 149.348 995.48 127.278 1036.27 122.226C1042.28 121.49 1048.32 121.101 1054.37 121.059C1079.31 120.728 1101.53 125.083 1129.19 132.869C1170.61 144.366 1204.99 160.619 1238.21 173.736C1249.55 178.23 1262.07 182.69 1276.02 186.783C1320.27 199.778 1385.38 211.728 1472.42 208.784" stroke="url(#paint10_linear_253_92)" stroke-opacity="0.32" stroke-width="5" stroke-miterlimit="10"/>
<path d="M-175.358 326.053C-105.709 330.878 -7.91045 332.359 92.7479 294.593C162.58 268.464 212.361 230.768 250.985 205.753C263.638 197.549 275.542 188.752 287.563 180.53C355.301 134.019 400.26 95.696 431.352 69.8626C461.662 44.7435 479.569 31.5394 512.823 41.1377C534.903 47.5133 554.955 60.6999 568.672 72.9459C588.973 91.0972 593.612 103.988 601.576 119.543C605.434 127.069 608.659 134.507 614.412 141.335C636.509 167.465 665.955 181.209 719.161 186.626C773.247 192.183 843.695 184.31 900.708 165.723C905.929 163.981 910.917 162.239 915.672 160.497C985.754 134.577 999.787 114.248 1038.28 109.336C1044.24 108.589 1050.24 108.176 1056.25 108.099C1081.51 107.594 1103.72 111.844 1130.61 119.474C1170.08 130.553 1203.76 146.509 1238.68 160.253C1249.97 164.695 1262.39 169.172 1276.16 173.318C1319.98 186.574 1384.78 199.726 1470.86 199.447" stroke="url(#paint11_linear_253_92)" stroke-opacity="0.32" stroke-width="5" stroke-miterlimit="10"/>
<path d="M-176.09 333.944C-109.999 340.093 -10.3882 344.187 94.9256 305.637C167.136 278.881 218.545 239.965 256.438 214.341C269.29 205.631 281.378 196.416 293.366 187.672C360.638 138.705 405.38 96.2359 437.42 67.4761C468.229 39.8137 487.666 24.7631 520.155 33.9259C541.454 39.9879 561.406 53.8714 574.807 67.0232C594.376 86.2893 597.901 100.573 604.569 116.443C607.894 124.247 610.704 131.824 616.39 138.792C637.473 164.643 670.045 175.861 723.051 178.282C777.919 180.773 847.602 169.816 903.418 151.352C908.594 149.621 913.544 147.879 918.266 146.126C990.06 119.857 1004.28 101.235 1040.51 96.4624C1046.42 95.6956 1052.37 95.2595 1058.33 95.1559C1083.93 94.5114 1106.15 98.6398 1132.17 106.095C1169.68 116.739 1202.75 132.486 1239.38 146.788C1250.62 151.212 1262.92 155.654 1276.54 159.87C1319.93 173.387 1384.41 187.741 1469.54 190.215" stroke="url(#paint12_linear_253_92)" stroke-opacity="0.32" stroke-width="5" stroke-miterlimit="10"/>
<path d="M-176.822 341.713C-114.305 349.152 -12.7823 356.119 97.1039 316.559C171.824 289.402 224.747 248.989 261.892 222.859C274.943 213.679 287.164 204.011 299.202 194.744C365.992 143.286 410.601 96.7411 443.472 64.9502C474.814 34.7272 495.846 17.7605 527.354 26.5225C547.888 32.2536 567.757 46.8512 580.809 60.9437C599.68 81.3247 602.091 97.0372 607.412 113.203C610.105 121.303 612.616 129.037 618.203 136.127C638.404 161.629 674.085 172.081 726.875 169.729C782.375 167.256 851.443 155.114 906.078 136.789C911.199 135.058 916.11 133.316 920.81 131.563C994.333 105.05 1008.7 88.0138 1042.67 83.3802C1048.54 82.6072 1054.44 82.1537 1060.36 82.0215C1086.31 81.255 1108.58 85.2267 1133.65 92.4733C1169.15 102.786 1201.64 118.341 1239.94 133.166C1251.13 137.555 1263.34 141.997 1276.77 146.283C1319.75 160.061 1383.91 175.617 1468.08 180.808" stroke="url(#paint13_linear_253_92)" stroke-opacity="0.32" stroke-width="5" stroke-miterlimit="10"/>
<path d="M-177.62 349.396C-118.662 358.105 -15.2433 367.982 99.2152 327.395C176.446 299.837 230.783 257.942 267.262 231.221C280.563 221.535 292.917 211.467 304.955 201.607C371.295 147.607 415.655 97.0896 449.474 62.2503C481.414 29.5014 504.076 10.723 534.703 19.0496C554.456 24.4497 574.241 39.7441 586.961 54.7773C605.134 76.2383 606.381 93.3792 610.454 109.823C612.549 118.22 614.727 126.093 620.231 133.34C639.352 158.494 677.992 164.695 730.682 161.072C786.914 157.257 855.25 140.308 908.688 122.122C913.676 120.38 918.664 118.638 923.303 116.896C998.506 89.9824 1013.09 74.6705 1044.79 70.1936C1050.61 69.3995 1056.47 68.9228 1062.34 68.7652C1088.64 67.8594 1110.82 71.7092 1135.09 78.8164C1168.73 88.6236 1200.5 103.796 1240.49 119.334C1251.65 123.689 1263.77 128.044 1277.07 132.486C1319.62 146.422 1383.48 163.267 1466.62 171.175" stroke="url(#paint14_linear_253_92)" stroke-opacity="0.32" stroke-width="5" stroke-miterlimit="10"/>
<path d="M-178.269 356.991C-122.885 367.042 -17.5877 379.758 101.476 338.16C181.285 310.201 236.984 266.739 272.732 239.547C286.166 229.339 298.769 218.888 310.807 208.54C376.799 152.24 420.876 97.4031 455.46 59.5676C487.915 24.1883 512.074 3.59833 541.919 11.5417C560.89 16.6108 580.626 32.602 592.996 48.5584C610.488 71.204 610.538 89.6688 613.364 106.426C614.811 115.136 616.689 123.132 622.093 130.518C640.25 155.323 681.949 158.877 734.44 152.379C791.353 145.412 859.041 125.466 911.266 107.402C916.254 105.66 921.125 103.918 925.764 102.315C1002.66 75.0014 1017.41 61.3619 1046.87 57.0244C1052.69 56.2416 1058.54 55.7764 1064.4 55.6308C1088.79 54.6684 1113.17 57.905 1136.56 65.2116C1168.25 74.6008 1199.37 89.4772 1241.06 105.643C1252.16 109.945 1264.17 114.352 1277.25 118.812C1338.43 139.321 1401.33 153.676 1465.1 161.682" stroke="url(#paint15_linear_253_92)" stroke-opacity="0.32" stroke-width="5" stroke-miterlimit="10"/>
<path d="M-179 364.533C-127.174 375.891 -19.9818 391.481 103.655 348.855C185.907 320.496 243.087 275.571 278.236 247.822C434.244 124.543 483.626 -13.142 549.251 3.94669C567.441 8.68483 587.127 25.3728 599.132 42.2699C624.77 78.3285 608.609 105.677 624.072 127.626C661.981 181.453 832.505 121.338 928.341 87.5609C1021.78 54.6204 1025.24 44.0118 1066.34 42.2699C1138.09 39.1866 1175.38 69.3748 1277.5 104.981C1338.22 126.049 1400.51 141.781 1463.72 152.014" stroke="url(#paint16_linear_253_92)" stroke-opacity="0.32" stroke-width="5" stroke-miterlimit="10"/>
<path d="M-179 369.515C-125.794 381.935 -21.9271 396.167 96.2724 355.37C177.86 327.133 232.612 281.773 270.338 252.595C421.043 136.179 468.046 10.0958 534.903 21.3489C561.023 25.7387 587.543 34.5356 605.051 48.0184C639.452 74.5311 626.666 98.2392 646.618 119.439C690.296 165.88 849.348 113.743 940.595 82.7531C1029.48 52.4604 1033.07 43.8899 1076.52 45.6319C1148.71 48.5235 1184.31 75.2453 1280.51 109.423C1340.53 130.735 1402.34 146.079 1465.1 155.254" stroke="url(#paint17_linear_253_92)" stroke-opacity="0.32" stroke-width="5" stroke-miterlimit="10"/>
<path d="M-179 374.706C-90.2693 396.106 2.35254 391.74 88.8901 362.077C169.812 333.979 222.037 288.148 262.44 257.559C407.641 147.711 453.099 31.3478 520.57 38.9428C554.805 42.8099 586.994 43.7854 610.97 53.9759C652.104 71.3955 644.09 90.7313 669.164 111.461C717.065 151.021 866.19 106.339 952.866 78.1369C1037.05 50.492 1040.79 43.7854 1086.71 49.1855C1159.17 57.6863 1193.24 81.4815 1283.52 114.074C1342.83 135.614 1404.13 150.573 1466.42 158.703" stroke="url(#paint18_linear_253_92)" stroke-opacity="0.32" stroke-width="5" stroke-miterlimit="10"/>
<path d="M-179 383.939C-92.853 405.595 -2.65677 401.747 81.5245 372.825C161.765 344.849 211.479 298.548 254.542 266.565C393.941 163.058 438.634 68.7129 506.221 60.578C548.503 55.4914 585.897 57.5818 616.906 63.9574C663.76 73.573 661.033 87.2823 691.726 107.506C742.537 140.987 883.067 103.152 965.12 77.5621C1044.73 52.7391 1048.44 47.5655 1096.89 56.7631C1169.58 70.5594 1202.15 91.7243 1286.55 122.749C1345.15 144.544 1405.97 159.123 1467.78 166.193" stroke="url(#paint19_linear_253_92)" stroke-opacity="0.32" stroke-width="5" stroke-miterlimit="10"/>
<path d="M-179 397.996C-95.4434 419.898 -7.67414 416.552 74.1422 388.346C153.718 360.474 200.905 313.703 246.645 280.344C380.141 182.986 424.368 97.647 491.889 86.9862C542.052 79.0776 586.346 66.9884 622.825 78.7118C673.021 94.8424 674.9 95.9573 714.272 108.325C761.641 145.969 899.926 104.685 977.39 81.7603C1052.38 59.6373 1056.07 55.9792 1107.08 69.131C1179.95 87.9268 1211.05 106.81 1289.56 136.197C1347.45 158.239 1407.8 172.435 1469.13 178.439" stroke="url(#paint20_linear_253_92)" stroke-opacity="0.32" stroke-width="5" stroke-miterlimit="10"/>
<path d="M-179 412.385C-98.0375 434.546 -12.6905 431.751 66.7932 404.337C145.704 376.605 190.347 329.311 238.78 294.593C366.241 203.21 409.969 126.093 477.474 113.865C535.667 103.343 584.084 86.6551 628.777 93.9539C686.405 103.361 691.51 99.6675 736.851 109.632C786.548 143.13 916.769 106.548 989.578 86.4286C1059.94 67.0057 1063.63 64.6889 1117.19 81.9692C1190.35 105.521 1219.86 122.4 1292.5 150.115C1349.69 172.406 1409.57 186.22 1470.41 191.155" stroke="url(#paint21_linear_253_92)" stroke-opacity="0.32" stroke-width="5" stroke-miterlimit="10"/>
<path d="M-179 427.052C-100.65 449.428 -17.7484 447.156 59.3776 420.52C137.623 392.91 179.689 345.093 230.849 309.034C352.225 223.486 395.454 154.174 463.208 140.935C529.266 128.027 582.688 117.436 634.663 109.37C698.842 99.4063 708.053 103.535 759.364 111.112C811.472 140.569 933.612 108.674 1001.91 91.2887C1067.66 74.5659 1071.35 73.4859 1127.45 94.9991C1200.74 123.114 1228.79 138.252 1295.51 164.242C1352 186.774 1411.42 200.206 1471.75 204.081" stroke="url(#paint22_linear_253_92)" stroke-opacity="0.32" stroke-width="5" stroke-miterlimit="10"/>
<path d="M-179 441.911C-117.099 460.672 -33.516 466.995 52.012 436.912C129.642 409.598 169.064 361.049 222.952 323.684C338.125 243.832 380.906 182.062 448.859 168.214C522.948 153.128 581.873 138.374 640.599 124.996C710.93 108.952 726.226 97.7514 781.926 112.802C839.637 128.393 950.455 111.06 1014.17 96.3578C1075.29 82.3176 1079.01 82.4221 1137.62 108.221C1211.28 140.743 1237.65 154.348 1298.6 178.561C1336.49 193.612 1393.66 213.296 1473.18 217.198" stroke="url(#paint23_linear_253_92)" stroke-opacity="0.32" stroke-width="5" stroke-miterlimit="10"/>
<path d="M-179 457.031C-115.652 476.82 -35.4613 481.82 44.6297 453.548C121.595 426.373 158.407 377.197 215.054 338.578C323.942 264.318 366.108 209.917 434.527 195.737C516.663 178.701 581.208 159.661 646.518 140.865C723.184 118.794 742.321 102.002 804.472 114.736C863.713 126.929 967.281 113.551 1026.44 101.671C1082.97 90.3133 1086.83 91.3585 1147.81 121.703C1221.84 158.511 1246.48 170.757 1301.61 193.124C1338.96 208.279 1395.27 227.963 1474.53 230.576" stroke="url(#paint24_linear_253_92)" stroke-opacity="0.32" stroke-width="5" stroke-miterlimit="10"/>
<path d="M-179 472.326C-114.156 493.229 -37.4066 496.818 37.2475 470.375C113.548 443.34 147.716 393.519 207.156 353.663C309.71 284.891 351.31 237.788 420.178 223.452C510.445 204.656 580.626 181.192 652.437 156.926C735.571 128.846 758.433 106.845 827.018 116.861C887.872 125.745 984.107 116.321 1038.69 107.175C1090.54 98.4657 1094.64 100.469 1157.99 135.378C1232.48 176.401 1255.29 187.41 1304.62 207.878C1341.43 223.155 1396.87 242.909 1475.88 244.129" stroke="url(#paint25_linear_253_92)" stroke-opacity="0.32" stroke-width="5" stroke-miterlimit="10"/>
<path d="M-179 487.847C-112.776 509.743 -39.3353 512.025 29.8652 487.411C105.5 460.498 136.991 409.981 199.258 368.958C295.411 305.585 335.315 257.281 405.846 251.375C505.839 242.996 580.094 202.949 658.356 173.196C748.024 139.123 778.069 94.8076 849.564 119.195C909.287 139.628 1000.87 119.195 1050.96 112.889C1098.15 106.879 1102.51 109.719 1168.18 149.244C1243.19 194.413 1264.07 204.342 1307.63 222.842C1343.89 238.258 1398.48 258.03 1477.22 257.908" stroke="url(#paint26_linear_253_92)" stroke-opacity="0.32" stroke-width="5" stroke-miterlimit="10"/>
<path d="M-179 503.873C-111.329 526.832 -41.2807 527.703 22.4995 505.057C97.4529 478.266 126.234 426.983 191.361 384.862C281.145 326.802 320.501 287.016 391.497 279.909C499.571 269.056 579.628 225.333 664.292 190.075C760.561 150.01 792.933 102.786 872.126 122.139C934.942 137.503 1017.74 122.801 1063.22 119.212C1105.77 115.85 1110.5 119.509 1178.36 163.737C1253.96 213 1272.85 221.936 1310.66 238.415C1346.35 253.988 1400.09 273.742 1478.59 272.279" stroke="url(#paint27_linear_253_92)" stroke-opacity="0.32" stroke-width="5" stroke-miterlimit="10"/>
<path d="M-179 520.909C-109.899 544.931 -43.2426 544.461 15.1173 523.522C89.4056 496.853 115.426 444.733 183.463 401.585C266.697 348.786 305.67 317.57 377.165 309.261C493.352 295.76 579.196 248.553 670.211 207.791C773.164 161.681 808.213 112.541 894.672 125.919C960.414 136.092 1034.54 127.138 1075.49 126.354C1113.36 125.623 1118.53 130.082 1188.55 179.049C1264.78 232.37 1281.66 240.418 1313.67 254.824C1348.8 270.606 1401.79 290.291 1479.93 287.486" stroke="url(#paint28_linear_253_92)" stroke-opacity="0.32" stroke-width="5" stroke-miterlimit="10"/>
<path d="M-179 538.242C-108.453 563.326 -45.1879 561.48 7.735 542.388C81.3582 515.823 104.569 462.763 175.565 418.708C252.298 371.083 290.789 348.49 362.816 339.013C487.051 322.674 578.797 272.157 676.13 225.89C785.867 173.753 823.875 123.411 917.218 130.082C985.72 134.977 1051.35 131.824 1087.74 133.897C1120.93 135.761 1126.62 140.987 1198.73 194.761C1275.69 252.124 1290.31 259.441 1316.68 271.634C1351.21 287.678 1403.3 307.257 1481.28 303.094" stroke="url(#paint29_linear_253_92)" stroke-opacity="0.32" stroke-width="5" stroke-miterlimit="10"/>
<path d="M-179 557.107C-107.006 583.237 -47.1832 579.927 0.352708 562.769C73.261 536.151 93.6287 482.168 167.668 437.347C237.866 394.843 275.891 380.908 348.483 370.282C480.699 350.928 578.431 297.293 681.983 245.505C798.37 187.341 840.253 143.704 939.697 135.761C1010.56 130.117 1068.07 138.026 1099.95 142.955C1128.49 147.38 1134.7 153.407 1208.85 211.972C1286.56 273.394 1298.93 279.909 1319.62 289.925C1353.5 306.352 1404.85 325.705 1482.56 320.2" stroke="url(#paint30_linear_253_92)" stroke-opacity="0.32" stroke-width="5" stroke-miterlimit="10"/>
<path d="M-179 575.781C-105.576 602.973 -49.1285 598.305 -7.01295 582.975C65.2136 556.48 82.5886 501.208 159.77 455.812C223.417 418.377 260.96 413.134 334.135 401.376C474.315 378.852 578.082 322.238 687.985 264.962C811.172 200.736 856.996 153.477 962.326 141.283C1035.48 132.852 1084.98 143.948 1112.27 151.839C1136.19 158.807 1142.96 165.601 1219.09 229.026C1297.64 294.454 1307.65 300.324 1322.71 308.076C1355.83 325.112 1406.53 343.978 1483.99 337.132" stroke="url(#paint31_linear_253_92)" stroke-opacity="0.32" stroke-width="5" stroke-miterlimit="10"/>
<path d="M-179 594.472C-104.18 622.71 -50.9741 616.7 -14.3952 603.182C57.0998 576.809 71.432 519.969 151.872 474.277C208.968 441.842 246.013 445.36 319.802 432.47C467.864 406.602 577.75 347.114 693.904 284.403C823.892 214.132 873.789 163.18 984.872 146.788C1060.61 135.622 1101.87 149.784 1124.54 160.723C1143.87 170.06 1151.14 177.777 1229.29 246.08C1308.68 315.532 1316.24 320.81 1325.72 326.21C1357.76 344.483 1408.12 362.269 1485.34 354.081" stroke="url(#paint32_linear_253_92)" stroke-opacity="0.32" stroke-width="5" stroke-miterlimit="10"/>
<defs>
<linearGradient id="paint0_linear_253_92" x1="-167.361" y1="169.056" x2="1487" y2="169.056" gradientUnits="userSpaceOnUse">
<stop stop-color="#08B8A2"/>
<stop offset="1" stop-color="#6AF4DE"/>
</linearGradient>
<linearGradient id="paint1_linear_253_92" x1="-168.093" y1="170.34" x2="1485.57" y2="170.34" gradientUnits="userSpaceOnUse">
<stop stop-color="#08B8A2"/>
<stop offset="1" stop-color="#6AF4DE"/>
</linearGradient>
<linearGradient id="paint2_linear_253_92" x1="-168.824" y1="171.648" x2="1484.11" y2="171.648" gradientUnits="userSpaceOnUse">
<stop stop-color="#08B8A2"/>
<stop offset="1" stop-color="#6AF4DE"/>
</linearGradient>
<linearGradient id="paint3_linear_253_92" x1="-169.54" y1="172.981" x2="1482.63" y2="172.981" gradientUnits="userSpaceOnUse">
<stop stop-color="#08B8A2"/>
<stop offset="1" stop-color="#6AF4DE"/>
</linearGradient>
<linearGradient id="paint4_linear_253_92" x1="-170.271" y1="174.211" x2="1481.16" y2="174.211" gradientUnits="userSpaceOnUse">
<stop stop-color="#08B8A2"/>
<stop offset="1" stop-color="#6AF4DE"/>
</linearGradient>
<linearGradient id="paint5_linear_253_92" x1="-170.969" y1="175.515" x2="1479.72" y2="175.515" gradientUnits="userSpaceOnUse">
<stop stop-color="#08B8A2"/>
<stop offset="1" stop-color="#6AF4DE"/>
</linearGradient>
<linearGradient id="paint6_linear_253_92" x1="-171.734" y1="176.852" x2="1478.27" y2="176.852" gradientUnits="userSpaceOnUse">
<stop stop-color="#08B8A2"/>
<stop offset="1" stop-color="#6AF4DE"/>
</linearGradient>
<linearGradient id="paint7_linear_253_92" x1="-172.449" y1="178.115" x2="1476.74" y2="178.115" gradientUnits="userSpaceOnUse">
<stop stop-color="#08B8A2"/>
<stop offset="1" stop-color="#6AF4DE"/>
</linearGradient>
<linearGradient id="paint8_linear_253_92" x1="-173.181" y1="179.379" x2="1475.36" y2="179.379" gradientUnits="userSpaceOnUse">
<stop stop-color="#08B8A2"/>
<stop offset="1" stop-color="#6AF4DE"/>
</linearGradient>
<linearGradient id="paint9_linear_253_92" x1="-173.913" y1="180.7" x2="1474.01" y2="180.7" gradientUnits="userSpaceOnUse">
<stop stop-color="#08B8A2"/>
<stop offset="1" stop-color="#6AF4DE"/>
</linearGradient>
<linearGradient id="paint10_linear_253_92" x1="-174.644" y1="181.972" x2="1472.42" y2="181.972" gradientUnits="userSpaceOnUse">
<stop stop-color="#08B8A2"/>
<stop offset="1" stop-color="#6AF4DE"/>
</linearGradient>
<linearGradient id="paint11_linear_253_92" x1="-175.358" y1="183.265" x2="1470.86" y2="183.265" gradientUnits="userSpaceOnUse">
<stop stop-color="#08B8A2"/>
<stop offset="1" stop-color="#6AF4DE"/>
</linearGradient>
<linearGradient id="paint12_linear_253_92" x1="-176.09" y1="184.575" x2="1469.54" y2="184.575" gradientUnits="userSpaceOnUse">
<stop stop-color="#08B8A2"/>
<stop offset="1" stop-color="#6AF4DE"/>
</linearGradient>
<linearGradient id="paint13_linear_253_92" x1="-176.822" y1="185.844" x2="1468.08" y2="185.844" gradientUnits="userSpaceOnUse">
<stop stop-color="#08B8A2"/>
<stop offset="1" stop-color="#6AF4DE"/>
</linearGradient>
<linearGradient id="paint14_linear_253_92" x1="-177.62" y1="187.128" x2="1466.62" y2="187.128" gradientUnits="userSpaceOnUse">
<stop stop-color="#08B8A2"/>
<stop offset="1" stop-color="#6AF4DE"/>
</linearGradient>
<linearGradient id="paint15_linear_253_92" x1="-178.269" y1="188.429" x2="1465.1" y2="188.429" gradientUnits="userSpaceOnUse">
<stop stop-color="#08B8A2"/>
<stop offset="1" stop-color="#6AF4DE"/>
</linearGradient>
<linearGradient id="paint16_linear_253_92" x1="-179" y1="189.72" x2="1463.72" y2="189.72" gradientUnits="userSpaceOnUse">
<stop stop-color="#08B8A2"/>
<stop offset="1" stop-color="#6AF4DE"/>
</linearGradient>
<linearGradient id="paint17_linear_253_92" x1="-179" y1="201.523" x2="1465.1" y2="201.523" gradientUnits="userSpaceOnUse">
<stop stop-color="#08B8A2"/>
<stop offset="1" stop-color="#6AF4DE"/>
</linearGradient>
<linearGradient id="paint18_linear_253_92" x1="-179" y1="213.33" x2="1466.42" y2="213.33" gradientUnits="userSpaceOnUse">
<stop stop-color="#08B8A2"/>
<stop offset="1" stop-color="#6AF4DE"/>
</linearGradient>
<linearGradient id="paint19_linear_253_92" x1="-179" y1="225.136" x2="1467.78" y2="225.136" gradientUnits="userSpaceOnUse">
<stop stop-color="#08B8A2"/>
<stop offset="1" stop-color="#6AF4DE"/>
</linearGradient>
<linearGradient id="paint20_linear_253_92" x1="-179" y1="236.894" x2="1469.13" y2="236.894" gradientUnits="userSpaceOnUse">
<stop stop-color="#08B8A2"/>
<stop offset="1" stop-color="#6AF4DE"/>
</linearGradient>
<linearGradient id="paint21_linear_253_92" x1="-179" y1="248.746" x2="1470.41" y2="248.746" gradientUnits="userSpaceOnUse">
<stop stop-color="#08B8A2"/>
<stop offset="1" stop-color="#6AF4DE"/>
</linearGradient>
<linearGradient id="paint22_linear_253_92" x1="-179" y1="260.551" x2="1471.75" y2="260.551" gradientUnits="userSpaceOnUse">
<stop stop-color="#08B8A2"/>
<stop offset="1" stop-color="#6AF4DE"/>
</linearGradient>
<linearGradient id="paint23_linear_253_92" x1="-179" y1="272.37" x2="1473.18" y2="272.37" gradientUnits="userSpaceOnUse">
<stop stop-color="#08B8A2"/>
<stop offset="1" stop-color="#6AF4DE"/>
</linearGradient>
<linearGradient id="paint24_linear_253_92" x1="-179" y1="284.165" x2="1474.53" y2="284.165" gradientUnits="userSpaceOnUse">
<stop stop-color="#08B8A2"/>
<stop offset="1" stop-color="#6AF4DE"/>
</linearGradient>
<linearGradient id="paint25_linear_253_92" x1="-179" y1="295.968" x2="1475.88" y2="295.968" gradientUnits="userSpaceOnUse">
<stop stop-color="#08B8A2"/>
<stop offset="1" stop-color="#6AF4DE"/>
</linearGradient>
<linearGradient id="paint26_linear_253_92" x1="-179" y1="307.776" x2="1477.22" y2="307.776" gradientUnits="userSpaceOnUse">
<stop stop-color="#08B8A2"/>
<stop offset="1" stop-color="#6AF4DE"/>
</linearGradient>
<linearGradient id="paint27_linear_253_92" x1="-179" y1="319.618" x2="1478.59" y2="319.618" gradientUnits="userSpaceOnUse">
<stop stop-color="#08B8A2"/>
<stop offset="1" stop-color="#6AF4DE"/>
</linearGradient>
<linearGradient id="paint28_linear_253_92" x1="-179" y1="331.385" x2="1479.93" y2="331.385" gradientUnits="userSpaceOnUse">
<stop stop-color="#08B8A2"/>
<stop offset="1" stop-color="#6AF4DE"/>
</linearGradient>
<linearGradient id="paint29_linear_253_92" x1="-179" y1="343.189" x2="1481.28" y2="343.189" gradientUnits="userSpaceOnUse">
<stop stop-color="#08B8A2"/>
<stop offset="1" stop-color="#6AF4DE"/>
</linearGradient>
<linearGradient id="paint30_linear_253_92" x1="-179" y1="354.996" x2="1482.56" y2="354.996" gradientUnits="userSpaceOnUse">
<stop stop-color="#08B8A2"/>
<stop offset="1" stop-color="#6AF4DE"/>
</linearGradient>
<linearGradient id="paint31_linear_253_92" x1="-179" y1="366.802" x2="1483.99" y2="366.802" gradientUnits="userSpaceOnUse">
<stop stop-color="#08B8A2"/>
<stop offset="1" stop-color="#6AF4DE"/>
</linearGradient>
<linearGradient id="paint32_linear_253_92" x1="-179" y1="378.607" x2="1485.34" y2="378.607" gradientUnits="userSpaceOnUse">
<stop stop-color="#08B8A2"/>
<stop offset="1" stop-color="#6AF4DE"/>
</linearGradient>
</defs>
</svg>
