<svg width="1440" height="407" viewBox="0 0 1440 407" fill="none" xmlns="http://www.w3.org/2000/svg">
<path d="M-95.689 130.42C10.1277 124.152 84.8085 104.214 133.75 86.9526C183.241 69.4969 218.885 50.3483 284.017 40.0534C355.854 28.6146 402.792 33.7392 421.357 36.6217C447.096 40.6253 445.496 43.3478 487.603 52.6361C568.489 70.4807 583.855 62.5421 620.096 74.3699C680.187 93.976 662.268 123.728 725.121 156.729C770.637 180.637 845.997 199.659 914.166 186.47C978.361 174.048 985.583 142.854 1053.12 138.427C1080.87 136.609 1103.94 140.646 1150.07 148.722C1209.19 159.017 1248.89 171.714 1264.79 176.175C1311.89 189.41 1387.91 197.738 1512 171.6" stroke="url(#paint0_linear_298_400)" stroke-opacity="0.32" stroke-width="5" stroke-miterlimit="10"/>
<path d="M-96.3999 140.509C5.95903 135.099 82.4818 117.048 135.867 99.1578C179.234 84.4246 212.309 68.273 257.89 56.7312C267.859 54.2147 278.361 51.7782 289.672 49.6735C360.943 36.4273 407.704 38.6121 427.222 39.9505C453.398 41.7349 453.398 43.771 494.664 52.7963C523.748 59.1448 544.462 62.7709 560.507 65.1502C587.781 69.1881 601.434 69.4626 622.956 77.2296C630.987 80.1039 638.523 83.6235 645.416 87.719C677.295 106.65 675.937 130.649 728.822 156.089C774.855 178.234 849.713 194.981 916.719 181.883C922.028 180.843 927.259 179.614 932.392 178.2C984.194 163.913 995.827 138.782 1055.19 134.836C1061.45 134.413 1067.73 134.287 1074.01 134.458C1095.12 134.984 1116.93 138.713 1151.47 144.753C1208.7 154.819 1247.79 167.276 1265.32 172.206C1278.16 175.784 1291.4 178.592 1304.91 180.602C1351.64 187.649 1417.69 188.381 1510.61 170.399" stroke="url(#paint1_linear_298_400)" stroke-opacity="0.32" stroke-width="5" stroke-miterlimit="10"/>
<path d="M-97.1113 151.49C1.7737 146.915 80.2193 130.901 137.983 112.164C183.855 97.2933 218.464 80.3066 263.205 68.1815C273.417 65.4018 284 62.5879 295.359 60.1743C366.065 45.1093 412.583 43.2906 433.135 44.1599C459.618 45.3038 461.379 45.0865 501.741 53.8372C530.001 59.9798 550.634 64.1321 566.372 67.049C592.886 71.9334 605.635 72.9171 625.767 80.9815C633.439 84.0872 640.649 87.7317 647.289 91.8598C678.086 110.665 679.605 133.223 732.554 156.375C779.104 176.747 853.461 191.217 919.304 178.212C924.878 177.068 930.033 175.924 934.864 174.551C988.297 160.001 1000.12 136.037 1057.31 132.227C1063.51 131.795 1069.75 131.653 1075.99 131.804C1097.44 132.25 1119.22 135.876 1152.93 141.859C1208.28 151.651 1246.72 163.902 1265.9 169.186C1278.64 172.731 1291.76 175.547 1305.13 177.605C1351.44 184.812 1417.19 186.333 1509.19 170.136" stroke="url(#paint2_linear_298_400)" stroke-opacity="0.32" stroke-width="5" stroke-miterlimit="10"/>
<path d="M-97.8062 163.215C-2.39503 159.52 77.9248 145.394 140.116 125.97C188.427 110.871 224.62 93.1066 268.489 80.3867C278.959 77.3439 289.639 74.164 301.014 71.4301C371.154 54.5692 417.349 51.0346 439.017 49.1129C465.822 46.7451 469.329 47.1454 508.802 55.6216C536.27 61.5355 556.822 66.2254 572.334 69.6799C598.073 75.3993 609.949 77.1152 628.692 85.4655C635.945 88.8078 642.788 92.5769 649.147 96.7328C678.861 115.401 683.353 136.506 736.237 157.359C783.369 175.958 857.161 188.163 921.841 175.237C927.367 174.094 932.489 172.95 937.287 171.611C992.32 156.741 1004.39 133.989 1059.36 130.203C1065.52 129.76 1071.72 129.603 1077.91 129.734C1099.72 130.088 1121.53 133.634 1154.35 139.503C1207.8 149.008 1245.62 161.042 1266.44 166.773C1279.1 170.264 1292.11 173.082 1305.36 175.203C1351.25 182.57 1416.69 184.892 1507.75 170.467" stroke="url(#paint3_linear_298_400)" stroke-opacity="0.32" stroke-width="5" stroke-miterlimit="10"/>
<path d="M-98.5176 174.963C-6.5642 172.126 75.5976 159.909 142.232 139.788C192.999 124.449 230.76 105.895 273.788 92.6033C284.5 89.2975 295.261 85.74 306.685 82.6973C376.26 64.0749 422.035 57.7377 444.914 54.1002C471.946 49.7992 477.229 49.2387 515.878 57.4403C542.619 63.1597 562.994 68.353 578.247 72.3108C603.211 78.8538 614.198 81.3246 631.567 89.9495C638.39 93.5204 644.868 97.4107 650.957 101.594C679.604 120.102 687.069 139.766 739.905 158.388C787.618 175.203 860.829 185.155 924.361 172.32C929.822 171.177 934.912 170.033 939.694 168.717C996.343 153.538 1008.62 132.113 1061.39 128.281C1067.51 127.844 1073.66 127.672 1079.81 127.766C1101.95 128.041 1123.7 131.495 1155.76 137.249C1207.33 146.492 1244.53 158.319 1266.97 164.462C1279.54 167.919 1292.44 170.744 1305.57 172.915C1351.05 180.453 1416.18 183.553 1506.33 170.925" stroke="url(#paint4_linear_298_400)" stroke-opacity="0.32" stroke-width="5" stroke-miterlimit="10"/>
<path d="M-99.1958 182.535C-10.7002 180.556 73.3198 170.262 144.381 149.443C197.589 133.852 236.933 114.474 279.12 100.656C290.059 97.0759 300.933 93.1867 312.389 89.8008C381.366 69.4168 426.769 60.3344 450.796 54.901C478.07 48.7469 485.228 47.134 522.94 55.0726C543.766 59.4724 564.208 64.7357 584.161 70.8353C608.398 78.1904 618.464 81.439 634.412 90.2813C641.376 94.159 646.901 98.2884 652.88 102.303C680.461 120.606 690.915 138.908 743.654 155.242C791.998 170.262 864.594 177.971 926.963 165.228C932.376 164.085 937.433 162.941 942.183 161.648C1000.46 146.194 1012.95 125.902 1063.53 122.184C1069.6 121.745 1075.7 121.562 1081.8 121.635C1104.29 121.852 1126.01 125.181 1157.19 130.786C1206.88 139.731 1243.46 151.376 1267.52 157.93C1280.01 161.351 1292.81 164.179 1305.83 166.395C1350.89 174.105 1415.7 178.006 1504.92 167.15" stroke="url(#paint5_linear_298_400)" stroke-opacity="0.32" stroke-width="5" stroke-miterlimit="10"/>
<path d="M-99.9395 187.935C-14.9177 186.791 70.9604 178.406 146.465 156.912C202.112 141.07 243.007 120.846 284.387 106.582C295.568 102.715 306.523 98.4829 318.028 94.7767C386.488 72.6655 431.535 60.8492 456.693 53.597C484.161 45.647 493.177 42.9245 530.016 50.5886C550.658 54.8835 570.745 60.4171 590.058 67.1291C613.503 75.2735 622.713 79.3229 637.271 88.4739C643.734 92.5118 648.824 96.8128 654.754 100.874C681.285 119.061 694.744 135.785 747.353 149.958C796.36 163.158 868.326 168.649 929.531 155.986C934.879 154.842 939.888 153.698 944.639 152.428C1004.55 136.734 1017.3 117.609 1065.61 114.028C1071.64 113.578 1077.7 113.379 1083.76 113.433C1106.57 113.571 1128.29 116.796 1158.61 122.333C1206.41 131.015 1242.36 142.442 1268.07 149.431C1280.47 152.809 1293.16 155.639 1306.05 157.908C1350.71 165.789 1415.22 170.49 1503.52 161.396" stroke="url(#paint6_linear_298_400)" stroke-opacity="0.32" stroke-width="5" stroke-miterlimit="10"/>
<path d="M-100.634 193.414C-19.0859 193.151 68.618 186.631 148.599 164.462C206.669 148.356 249.099 127.263 289.671 112.484C301.095 108.309 312.163 103.733 323.699 99.7298C391.61 75.9141 436.335 61.4097 462.575 52.2586C490.414 42.5585 501.127 38.6922 537.078 46.0817C557.57 50.3317 577.325 56.1944 595.973 63.5602C618.593 72.471 626.963 77.3669 640.148 86.7467C646.061 90.9562 650.747 95.3944 656.612 99.5353C682.109 117.529 698.622 132.765 751.07 144.753C800.755 156.112 872.043 159.395 932.036 146.835C937.336 145.691 942.313 144.547 947.031 143.289C1008.58 127.274 1021.47 109.35 1067.65 105.792C1073.63 105.342 1079.64 105.128 1085.65 105.152C1108.82 105.152 1130.5 108.332 1159.97 113.777C1205.89 122.161 1241.2 133.406 1268.55 140.795C1280.87 144.144 1293.45 146.985 1306.23 149.306C1350.47 157.313 1414.67 162.815 1502.03 155.528" stroke="url(#paint7_linear_298_400)" stroke-opacity="0.32" stroke-width="5" stroke-miterlimit="10"/>
<path d="M-101.345 198.916C-23.2546 199.511 66.2912 194.878 150.715 172.035C211.226 155.666 255.191 133.692 294.971 118.467C306.604 114.017 317.802 109.132 329.355 104.74C396.732 79.2199 441.166 62.0274 468.472 50.9775C496.651 39.5386 509.076 34.5056 544.155 41.6205C564.491 45.8214 583.917 51.9797 601.886 59.9226C623.812 69.6113 631.196 75.3536 643.007 84.9622C648.388 89.3547 652.702 93.9074 658.487 98.1283C682.949 115.939 702.484 129.654 754.77 139.491C805.166 148.974 875.759 150.095 934.638 137.615C939.889 136.471 944.833 135.327 949.519 134.103C1012.71 117.849 1025.78 101.068 1069.78 97.5792C1075.72 97.1277 1081.68 96.8986 1087.65 96.8929C1111.16 96.79 1132.89 99.9013 1161.48 105.232C1205.49 113.342 1240.18 124.392 1269.17 132.193C1281.39 135.519 1293.86 138.379 1306.52 140.761C1350.36 148.974 1414.25 155.231 1500.69 149.729" stroke="url(#paint8_linear_298_400)" stroke-opacity="0.32" stroke-width="5" stroke-miterlimit="10"/>
<path d="M-102.056 204.395C-27.4238 205.813 63.9964 203.057 152.864 179.55C215.879 162.906 261.282 140.04 300.302 124.392C312.162 119.633 323.473 114.44 335.058 109.727C401.886 82.5372 446.045 62.668 474.401 49.662C502.984 36.5417 517.074 30.2961 551.264 37.1365C571.459 41.3229 590.559 47.8055 607.815 56.3308C628.982 66.7631 635.445 73.3976 645.883 83.2235C650.73 87.799 654.624 92.4547 660.425 96.7671C683.886 114.383 706.474 126.508 758.567 134.264C809.673 141.847 879.555 140.829 937.287 128.441C942.473 127.297 947.385 126.153 952.055 125.01C1016.88 108.503 1030.15 92.8664 1071.93 89.4691C1077.83 88.9937 1083.76 88.7493 1089.7 88.737C1113.55 88.6226 1135.2 91.5624 1163.01 96.7442C1205.13 104.58 1239.19 115.435 1269.83 123.648C1280.9 126.622 1293.16 129.562 1306.88 132.193C1350.29 140.566 1413.87 147.624 1499.38 143.895" stroke="url(#paint9_linear_298_400)" stroke-opacity="0.32" stroke-width="5" stroke-miterlimit="10"/>
<path d="M-102.767 209.714C-31.6733 212.002 61.605 211.132 154.948 186.974C220.322 170.056 267.292 146.274 305.57 130.214C317.64 125.147 329.079 119.656 340.697 114.6C407.04 85.7401 450.957 63.2056 480.251 48.2551C509.238 33.3846 524.975 25.9951 558.292 32.561C578.369 36.7366 597.166 43.5338 613.713 52.6018C634.153 63.789 639.565 71.3272 648.727 81.3476C653.041 86.1061 656.547 90.8761 662.219 95.2686C684.678 112.667 710.304 123.271 762.186 128.899C814.068 134.527 883.191 131.415 939.759 119.119C944.897 117.975 949.777 116.831 954.414 115.687C1020.89 98.9291 1034.35 84.4361 1073.98 81.1188C1079.82 80.6357 1085.7 80.3798 1091.58 80.3524C1115.81 80.1351 1137.4 82.9948 1164.29 88.1079C1204.54 95.6575 1237.95 106.33 1270.23 114.943C1281.25 117.895 1293.42 120.823 1306.97 123.511C1349.97 132.044 1413.24 139.891 1497.83 137.958" stroke="url(#paint10_linear_298_400)" stroke-opacity="0.32" stroke-width="5" stroke-miterlimit="10"/>
<path d="M-103.461 214.964C-35.7769 218.133 59.2626 219.105 157.081 194.306C224.943 177.148 273.32 152.394 310.854 135.968C323.15 130.58 334.719 124.804 346.401 119.405C412.227 88.8628 455.918 63.6974 486.132 46.7337C515.588 30.2389 532.99 21.5683 565.305 27.8711C586.763 32.0577 606.249 40.7168 619.579 48.7583C639.307 60.6776 643.815 69.1423 651.555 79.3572C655.303 84.2988 658.438 89.1831 664.029 93.6672C685.502 110.825 714.117 119.851 765.822 123.408C818.383 127.057 886.843 121.887 942.248 109.682C947.321 108.538 952.168 107.394 956.79 106.25C1024.89 89.2289 1038.53 75.8798 1075.94 72.654C1081.73 72.1637 1087.56 71.8926 1093.4 71.8419C1117.95 71.5102 1139.53 74.3012 1165.66 79.3114C1204.02 86.5865 1236.75 97.0645 1270.68 106.09C1281.66 109.007 1293.73 111.946 1307.1 114.669C1349.7 123.374 1412.66 132.01 1496.31 131.827" stroke="url(#paint11_linear_298_400)" stroke-opacity="0.32" stroke-width="5" stroke-miterlimit="10"/>
<path d="M-104.172 220.146C-39.9456 224.184 56.8551 226.872 159.198 201.558C229.371 183.988 279.33 158.434 316.154 141.607C328.644 135.888 340.39 129.837 352.04 124.094C417.414 91.9399 460.894 64.052 492.03 45.1665C521.97 27.0017 540.859 17.1186 572.431 23.1354C593.129 27.1161 612.518 36.2328 625.541 44.8691C644.559 57.5205 647.984 66.9003 654.463 77.3211C657.695 82.4457 660.425 87.4216 665.951 91.9971C686.439 108.972 718.092 116.339 769.603 117.929C822.923 119.565 890.64 112.37 944.881 100.244C949.912 99.1082 954.721 97.9643 959.31 96.8128C1029.08 79.5631 1042.89 67.335 1078.1 64.2007C1083.85 63.6972 1089.63 63.4109 1095.42 63.3428C1120.31 62.9196 1141.89 65.6306 1167.18 70.5264C1203.63 77.5155 1235.77 87.8562 1271.36 97.2475C1282.29 100.153 1294.24 103.07 1307.48 105.838C1349.65 114.715 1412.31 124.14 1495.03 125.765" stroke="url(#paint12_linear_298_400)" stroke-opacity="0.32" stroke-width="5" stroke-miterlimit="10"/>
<path d="M-104.883 225.248C-44.1304 230.132 54.5284 234.708 161.315 208.73C233.927 190.897 285.357 164.359 321.453 147.201C334.137 141.173 346.013 134.824 357.711 128.739C422.617 94.9483 465.968 64.3837 497.911 43.5079C528.369 23.6615 548.808 12.5201 579.427 18.2738C599.382 22.0372 618.69 31.6229 631.374 40.8769C649.713 54.2604 652.056 64.5782 657.226 75.1934C659.844 80.5125 662.284 85.5913 667.712 90.2469C687.344 106.993 722.018 113.857 773.319 112.312C827.253 110.688 894.373 102.715 947.467 90.6816C952.443 89.5453 957.215 88.4014 961.782 87.2499C1033.23 69.84 1047.19 58.6529 1080.2 55.6101C1085.91 55.1025 1091.65 54.8047 1097.39 54.7179C1122.62 54.2146 1144.25 56.8226 1168.62 61.5812C1203.11 68.353 1234.69 78.5679 1271.91 88.3023C1282.79 91.1849 1294.65 94.1018 1307.7 96.9157C1349.47 105.964 1411.82 116.179 1493.61 119.587" stroke="url(#paint13_linear_298_400)" stroke-opacity="0.32" stroke-width="5" stroke-miterlimit="10"/>
<path d="M-105.659 230.293C-48.3635 236.012 52.1372 242.498 163.367 215.845C238.419 197.749 291.222 170.239 326.672 152.692C339.599 146.332 351.604 139.72 363.302 133.246C427.771 97.7852 470.88 64.6126 503.744 41.7349C534.783 20.2299 556.806 7.89888 586.569 13.3666C605.764 16.9127 624.992 26.956 637.352 36.8277C655.013 50.9203 656.225 62.1761 660.183 72.9744C662.219 78.4879 664.336 83.6582 669.684 88.4168C688.265 104.934 725.816 109.007 777.019 106.627C831.665 104.122 898.073 92.9923 950.003 81.0502C954.851 79.9063 959.698 78.7624 964.206 77.6185C1037.29 59.9455 1051.46 49.8908 1082.27 46.951C1087.93 46.4296 1093.62 46.1165 1099.32 46.013C1124.88 45.4182 1146.43 47.9462 1170.02 52.6132C1202.71 59.0533 1233.59 69.0165 1272.45 79.22C1283.29 82.0797 1295.07 84.9394 1307.99 87.8563C1349.34 97.0073 1411.4 108.069 1492.19 113.262" stroke="url(#paint14_linear_298_400)" stroke-opacity="0.32" stroke-width="5" stroke-miterlimit="10"/>
<path d="M-106.289 235.28C-52.4678 241.88 49.8588 250.23 165.564 222.915C243.121 204.555 297.249 176.015 331.988 158.159C345.044 151.456 357.291 144.593 368.989 137.798C433.119 100.828 475.953 64.8185 509.561 39.9733C541.101 16.7411 564.578 3.2204 593.581 8.43651C612.017 11.7652 631.196 22.266 643.217 32.744C660.215 47.6145 660.264 59.7396 663.011 70.7438C664.416 76.4632 666.242 81.7136 671.493 86.5637C689.138 102.853 729.661 105.186 780.671 100.919C835.979 96.3439 901.757 83.2464 952.508 71.3844C957.355 70.2405 962.089 69.0966 966.597 68.0442C1041.33 50.1082 1055.66 41.1515 1084.29 38.3033C1089.94 37.7893 1095.62 37.4838 1101.32 37.3882C1125.02 36.7562 1148.71 38.8816 1171.44 43.6795C1202.24 49.8451 1232.49 59.6138 1273 70.229C1283.79 73.0544 1295.45 75.9485 1308.17 78.8768C1367.62 92.3443 1428.75 101.771 1490.72 107.028" stroke="url(#paint15_linear_298_400)" stroke-opacity="0.32" stroke-width="5" stroke-miterlimit="10"/>
<path d="M-107 240.233C-56.6365 247.691 47.5321 257.929 167.681 229.938C247.613 211.315 303.179 181.815 337.336 163.593C488.944 82.6401 536.932 -7.77236 600.707 3.44913C618.383 6.56049 637.514 17.5189 649.18 28.6145C674.095 52.2929 658.389 70.2519 673.416 84.6648C710.256 120.011 875.969 80.5354 969.102 58.3555C1059.91 36.7247 1063.27 29.7584 1103.21 28.6145C1172.93 26.5899 1209.17 46.4133 1308.41 69.7943C1367.42 83.6292 1427.95 93.9599 1489.38 100.679" stroke="url(#paint16_linear_298_400)" stroke-opacity="0.32" stroke-width="5" stroke-miterlimit="10"/>
<path d="M-107 243.504C-55.2954 251.66 45.6417 261.006 160.507 234.216C239.792 215.674 293 185.887 329.661 166.727C476.115 90.2813 521.792 7.48702 586.763 14.8765C612.146 17.7591 637.918 23.5357 654.932 32.3893C688.362 49.7992 675.937 65.3675 695.326 79.2885C737.772 109.784 892.337 75.548 981.01 55.1984C1067.39 35.3062 1070.88 29.6783 1113.1 30.8222C1183.26 32.7211 1217.85 50.2682 1311.34 72.7112C1369.67 86.706 1429.72 96.7823 1490.72 102.807" stroke="url(#paint17_linear_298_400)" stroke-opacity="0.32" stroke-width="5" stroke-miterlimit="10"/>
<path d="M-107 246.913C-20.7725 260.966 69.2364 258.098 153.333 238.62C231.972 220.169 282.723 190.074 321.987 169.987C463.092 97.8538 507.267 21.4424 572.835 26.4298C606.103 28.9692 637.385 29.6098 660.684 36.3015C700.658 47.7403 692.87 60.4374 717.236 74.0496C763.786 100.027 908.704 70.6866 992.934 52.1671C1074.74 34.0137 1078.38 29.6098 1123 33.1558C1193.42 38.7379 1226.53 54.3634 1314.26 75.7654C1371.9 89.9103 1431.47 99.7329 1492 105.072" stroke="url(#paint18_linear_298_400)" stroke-opacity="0.32" stroke-width="5" stroke-miterlimit="10"/>
<path d="M-107 252.976C-23.2833 267.197 64.3684 264.67 146.175 245.678C224.152 227.307 272.463 196.903 314.312 175.901C449.778 107.931 493.21 45.9787 558.891 40.6368C599.98 37.2966 636.318 38.6693 666.452 42.8559C711.985 49.1701 709.335 58.1725 739.162 71.453C788.54 93.4384 925.104 68.5933 1004.84 51.7896C1082.21 35.4893 1085.81 32.092 1132.89 38.1317C1203.53 47.1912 1235.19 61.0894 1317.2 81.4619C1374.15 95.7739 1433.25 105.348 1493.32 109.99" stroke="url(#paint19_linear_298_400)" stroke-opacity="0.32" stroke-width="5" stroke-miterlimit="10"/>
<path d="M-107 262.207C-25.8006 276.589 59.4925 274.392 139.001 255.87C216.331 237.568 262.187 206.854 306.637 184.949C436.367 121.017 479.346 64.9786 544.962 57.9781C593.71 52.7848 636.754 44.8463 672.204 52.5446C720.984 63.137 722.81 63.8691 761.071 71.9906C807.105 96.7099 941.488 69.5999 1016.77 54.5464C1089.64 40.0191 1093.22 37.617 1142.8 46.2533C1213.62 58.5958 1243.83 70.9955 1320.13 90.2928C1376.39 104.767 1435.03 114.089 1494.63 118.032" stroke="url(#paint20_linear_298_400)" stroke-opacity="0.32" stroke-width="5" stroke-miterlimit="10"/>
<path d="M-107 271.655C-28.3216 286.207 54.6177 284.372 131.859 266.37C208.543 248.16 251.927 217.103 298.994 194.306C422.859 134.298 465.354 83.6581 530.954 75.6281C587.506 68.719 634.557 57.7606 677.989 62.5535C733.991 68.7304 738.952 66.3054 783.014 72.8484C831.309 94.8453 957.856 70.8238 1028.61 57.6119C1096.99 44.8576 1100.58 43.3362 1152.62 54.6836C1223.71 70.1489 1252.39 81.2331 1322.99 99.4323C1378.56 114.07 1436.75 123.141 1495.87 126.382" stroke="url(#paint21_linear_298_400)" stroke-opacity="0.32" stroke-width="5" stroke-miterlimit="10"/>
<path d="M-107 281.287C-30.8607 295.98 49.7025 294.488 124.653 276.997C200.691 258.867 241.57 227.467 291.287 203.789C409.238 147.613 451.248 102.098 517.091 93.4041C581.285 84.9279 633.2 77.9731 683.709 72.6769C746.077 66.1339 755.029 68.8449 804.891 73.8208C855.529 93.1639 974.224 72.2194 1040.6 60.8034C1104.49 49.8221 1108.07 49.1129 1162.59 63.2399C1233.81 81.7022 1261.07 91.6425 1325.91 108.709C1380.81 123.505 1438.55 132.325 1497.18 134.87" stroke="url(#paint22_linear_298_400)" stroke-opacity="0.32" stroke-width="5" stroke-miterlimit="10"/>
<path d="M-107 291.044C-46.845 303.364 34.3797 307.516 117.495 287.761C192.935 269.825 231.245 237.945 283.612 213.409C395.536 160.973 437.11 120.411 503.146 111.317C575.145 101.411 632.408 91.7225 689.477 82.9375C757.824 72.4023 772.689 65.0472 826.817 74.9303C882.9 85.1681 990.591 73.7864 1052.51 64.1321C1111.9 54.9124 1115.52 54.981 1172.48 71.9219C1244.06 93.2782 1269.68 102.212 1328.92 118.112C1365.74 127.995 1421.29 140.921 1498.57 143.483" stroke="url(#paint23_linear_298_400)" stroke-opacity="0.32" stroke-width="5" stroke-miterlimit="10"/>
<path d="M-107 300.973C-45.4392 313.968 32.4893 317.25 110.321 298.685C185.115 280.841 220.888 248.549 275.937 223.189C381.754 174.425 422.73 138.702 489.219 129.391C569.037 118.203 631.762 105.701 695.229 93.3583C769.732 78.8654 788.33 67.8383 848.727 76.2001C906.297 84.2073 1006.94 75.4223 1064.43 67.621C1119.37 60.1629 1123.12 60.8492 1182.38 80.7756C1254.32 104.946 1278.26 112.987 1331.84 127.675C1368.13 137.627 1422.86 150.552 1499.88 152.268" stroke="url(#paint24_linear_298_400)" stroke-opacity="0.32" stroke-width="5" stroke-miterlimit="10"/>
<path d="M-107 311.016C-43.985 324.743 30.5988 327.099 103.147 309.735C177.294 291.982 210.499 259.267 268.262 233.095C367.923 187.934 408.349 157.004 475.275 147.59C562.995 135.247 631.196 119.839 700.981 103.905C781.77 85.4655 803.986 71.0183 870.637 77.5956C929.774 83.4294 1023.29 77.241 1076.34 71.2356C1126.72 65.5162 1130.71 66.8316 1192.27 89.7551C1264.66 116.693 1286.83 123.923 1334.77 137.363C1370.54 147.395 1424.41 160.367 1501.19 161.168" stroke="url(#paint25_linear_298_400)" stroke-opacity="0.32" stroke-width="5" stroke-miterlimit="10"/>
<path d="M-107 321.208C-42.6439 335.587 28.7246 337.085 95.9728 320.922C169.474 303.249 200.077 270.077 260.587 243.138C354.027 201.524 392.806 169.804 461.347 165.926C558.519 160.424 630.679 134.126 706.733 114.589C793.872 92.2145 823.069 63.1141 892.547 79.1285C950.585 92.5462 1039.58 79.1285 1088.26 74.9876C1134.12 71.0412 1138.35 72.9057 1202.18 98.8604C1275.06 128.521 1295.36 135.041 1337.69 147.189C1372.93 157.313 1425.98 170.296 1502.5 170.216" stroke="url(#paint26_linear_298_400)" stroke-opacity="0.32" stroke-width="5" stroke-miterlimit="10"/>
<path d="M-107 331.732C-41.2382 346.808 26.8341 347.38 88.815 332.51C161.654 314.917 189.623 281.241 252.912 253.582C340.164 215.456 378.409 189.33 447.402 184.663C552.427 177.537 630.227 148.825 712.501 125.673C806.054 99.3637 837.513 68.353 914.472 81.0616C975.516 91.1506 1055.98 81.4962 1100.17 79.1398C1141.52 76.9321 1146.13 79.3343 1212.06 108.377C1285.53 140.726 1303.89 146.595 1340.63 157.416C1375.32 167.642 1427.54 180.614 1503.82 179.653" stroke="url(#paint27_linear_298_400)" stroke-opacity="0.32" stroke-width="5" stroke-miterlimit="10"/>
<path d="M-107 342.919C-39.8487 358.693 24.9275 358.384 81.641 344.635C153.834 327.122 179.12 292.897 245.238 264.563C326.123 229.892 363.997 209.394 433.475 203.937C546.384 195.072 629.807 164.073 718.254 137.306C818.302 107.028 852.363 74.7587 936.383 83.5438C1000.27 90.224 1072.3 84.3445 1112.1 83.8297C1148.9 83.3493 1153.93 86.2776 1221.97 118.432C1296.05 153.446 1312.45 158.731 1343.56 168.191C1377.7 178.555 1429.19 191.481 1505.13 189.639" stroke="url(#paint28_linear_298_400)" stroke-opacity="0.32" stroke-width="5" stroke-miterlimit="10"/>
<path d="M-107 354.301C-38.4429 370.773 23.0371 369.56 74.467 357.023C146.013 339.579 168.569 304.736 237.563 275.808C312.13 244.534 349.535 229.698 419.53 223.475C540.261 212.745 629.419 179.573 724.006 149.191C830.647 114.955 867.583 81.8966 958.292 86.2777C1024.86 89.492 1088.64 87.4216 1124.01 88.7828C1156.26 90.0068 1161.78 93.4384 1231.86 128.75C1306.65 166.418 1320.85 171.222 1346.48 179.23C1380.04 189.765 1430.66 202.622 1506.44 199.888" stroke="url(#paint29_linear_298_400)" stroke-opacity="0.32" stroke-width="5" stroke-miterlimit="10"/>
<path d="M-107 366.689C-37.0372 383.847 21.0981 381.674 67.2929 370.407C138.144 352.928 157.938 317.479 229.888 288.047C298.105 260.136 335.058 250.985 405.602 244.008C534.088 231.299 629.063 196.079 729.693 162.071C842.797 123.877 883.498 95.2228 980.137 90.0067C1049 86.3005 1104.89 91.4938 1135.87 94.7309C1163.61 97.6364 1169.63 101.594 1241.7 140.052C1317.22 180.385 1329.24 184.663 1349.34 191.24C1382.27 202.027 1432.16 214.736 1507.69 211.121" stroke="url(#paint30_linear_298_400)" stroke-opacity="0.32" stroke-width="5" stroke-miterlimit="10"/>
<path d="M-107 378.951C-35.6477 396.807 19.2077 393.742 60.1351 383.676C130.324 366.277 147.209 329.982 222.213 300.172C284.064 275.59 320.548 272.147 391.658 264.426C527.884 249.636 628.724 212.459 735.526 174.848C855.239 132.674 899.769 101.64 1002.13 93.6328C1073.22 88.0964 1121.32 95.383 1147.84 100.565C1171.09 105.14 1177.67 109.601 1251.65 151.25C1327.98 194.214 1337.71 198.069 1352.35 203.16C1384.53 214.347 1433.8 226.735 1509.08 222.24" stroke="url(#paint31_linear_298_400)" stroke-opacity="0.32" stroke-width="5" stroke-miterlimit="10"/>
<path d="M-107 391.225C-34.2904 409.768 17.4142 405.821 52.9611 396.945C122.439 379.626 136.367 342.301 214.538 312.297C270.023 290.998 306.023 293.309 377.731 284.844C521.615 267.858 628.401 228.794 741.278 187.614C867.599 141.47 916.088 108.011 1024.04 97.2475C1097.64 89.9152 1137.74 99.215 1159.76 106.399C1178.55 112.53 1185.61 117.597 1261.56 162.449C1338.71 208.055 1346.06 211.521 1355.27 215.067C1386.41 227.067 1435.35 238.746 1510.38 233.37" stroke="url(#paint32_linear_298_400)" stroke-opacity="0.32" stroke-width="5" stroke-miterlimit="10"/>
<defs>
<linearGradient id="paint0_linear_298_400" x1="-95.689" y1="111.87" x2="1512" y2="111.87" gradientUnits="userSpaceOnUse">
<stop stop-color="#F99C08"/>
<stop offset="1" stop-color="#FA9B05"/>
</linearGradient>
<linearGradient id="paint1_linear_298_400" x1="-96.3999" y1="112.713" x2="1510.61" y2="112.713" gradientUnits="userSpaceOnUse">
<stop stop-color="#F99C08"/>
<stop offset="1" stop-color="#FA9B05"/>
</linearGradient>
<linearGradient id="paint2_linear_298_400" x1="-97.1113" y1="113.572" x2="1509.19" y2="113.572" gradientUnits="userSpaceOnUse">
<stop stop-color="#F99C08"/>
<stop offset="1" stop-color="#FA9B05"/>
</linearGradient>
<linearGradient id="paint3_linear_298_400" x1="-97.8062" y1="114.448" x2="1507.75" y2="114.448" gradientUnits="userSpaceOnUse">
<stop stop-color="#F99C08"/>
<stop offset="1" stop-color="#FA9B05"/>
</linearGradient>
<linearGradient id="paint4_linear_298_400" x1="-98.5176" y1="115.256" x2="1506.33" y2="115.256" gradientUnits="userSpaceOnUse">
<stop stop-color="#F99C08"/>
<stop offset="1" stop-color="#FA9B05"/>
</linearGradient>
<linearGradient id="paint5_linear_298_400" x1="-99.1958" y1="116.112" x2="1504.92" y2="116.112" gradientUnits="userSpaceOnUse">
<stop stop-color="#F99C08"/>
<stop offset="1" stop-color="#FA9B05"/>
</linearGradient>
<linearGradient id="paint6_linear_298_400" x1="-99.9395" y1="116.989" x2="1503.52" y2="116.989" gradientUnits="userSpaceOnUse">
<stop stop-color="#F99C08"/>
<stop offset="1" stop-color="#FA9B05"/>
</linearGradient>
<linearGradient id="paint7_linear_298_400" x1="-100.634" y1="117.819" x2="1502.03" y2="117.819" gradientUnits="userSpaceOnUse">
<stop stop-color="#F99C08"/>
<stop offset="1" stop-color="#FA9B05"/>
</linearGradient>
<linearGradient id="paint8_linear_298_400" x1="-101.345" y1="118.649" x2="1500.69" y2="118.649" gradientUnits="userSpaceOnUse">
<stop stop-color="#F99C08"/>
<stop offset="1" stop-color="#FA9B05"/>
</linearGradient>
<linearGradient id="paint9_linear_298_400" x1="-102.056" y1="119.516" x2="1499.38" y2="119.516" gradientUnits="userSpaceOnUse">
<stop stop-color="#F99C08"/>
<stop offset="1" stop-color="#FA9B05"/>
</linearGradient>
<linearGradient id="paint10_linear_298_400" x1="-102.767" y1="120.352" x2="1497.83" y2="120.352" gradientUnits="userSpaceOnUse">
<stop stop-color="#F99C08"/>
<stop offset="1" stop-color="#FA9B05"/>
</linearGradient>
<linearGradient id="paint11_linear_298_400" x1="-103.461" y1="121.201" x2="1496.31" y2="121.201" gradientUnits="userSpaceOnUse">
<stop stop-color="#F99C08"/>
<stop offset="1" stop-color="#FA9B05"/>
</linearGradient>
<linearGradient id="paint12_linear_298_400" x1="-104.172" y1="122.061" x2="1495.03" y2="122.061" gradientUnits="userSpaceOnUse">
<stop stop-color="#F99C08"/>
<stop offset="1" stop-color="#FA9B05"/>
</linearGradient>
<linearGradient id="paint13_linear_298_400" x1="-104.883" y1="122.894" x2="1493.61" y2="122.894" gradientUnits="userSpaceOnUse">
<stop stop-color="#F99C08"/>
<stop offset="1" stop-color="#FA9B05"/>
</linearGradient>
<linearGradient id="paint14_linear_298_400" x1="-105.659" y1="123.737" x2="1492.19" y2="123.737" gradientUnits="userSpaceOnUse">
<stop stop-color="#F99C08"/>
<stop offset="1" stop-color="#FA9B05"/>
</linearGradient>
<linearGradient id="paint15_linear_298_400" x1="-106.289" y1="124.592" x2="1490.72" y2="124.592" gradientUnits="userSpaceOnUse">
<stop stop-color="#F99C08"/>
<stop offset="1" stop-color="#FA9B05"/>
</linearGradient>
<linearGradient id="paint16_linear_298_400" x1="-107" y1="125.439" x2="1489.38" y2="125.439" gradientUnits="userSpaceOnUse">
<stop stop-color="#F99C08"/>
<stop offset="1" stop-color="#FA9B05"/>
</linearGradient>
<linearGradient id="paint17_linear_298_400" x1="-107" y1="133.19" x2="1490.72" y2="133.19" gradientUnits="userSpaceOnUse">
<stop stop-color="#F99C08"/>
<stop offset="1" stop-color="#FA9B05"/>
</linearGradient>
<linearGradient id="paint18_linear_298_400" x1="-107" y1="140.943" x2="1492" y2="140.943" gradientUnits="userSpaceOnUse">
<stop stop-color="#F99C08"/>
<stop offset="1" stop-color="#FA9B05"/>
</linearGradient>
<linearGradient id="paint19_linear_298_400" x1="-107" y1="148.696" x2="1493.32" y2="148.696" gradientUnits="userSpaceOnUse">
<stop stop-color="#F99C08"/>
<stop offset="1" stop-color="#FA9B05"/>
</linearGradient>
<linearGradient id="paint20_linear_298_400" x1="-107" y1="156.417" x2="1494.63" y2="156.417" gradientUnits="userSpaceOnUse">
<stop stop-color="#F99C08"/>
<stop offset="1" stop-color="#FA9B05"/>
</linearGradient>
<linearGradient id="paint21_linear_298_400" x1="-107" y1="164.2" x2="1495.87" y2="164.2" gradientUnits="userSpaceOnUse">
<stop stop-color="#F99C08"/>
<stop offset="1" stop-color="#FA9B05"/>
</linearGradient>
<linearGradient id="paint22_linear_298_400" x1="-107" y1="171.952" x2="1497.18" y2="171.952" gradientUnits="userSpaceOnUse">
<stop stop-color="#F99C08"/>
<stop offset="1" stop-color="#FA9B05"/>
</linearGradient>
<linearGradient id="paint23_linear_298_400" x1="-107" y1="179.712" x2="1498.57" y2="179.712" gradientUnits="userSpaceOnUse">
<stop stop-color="#F99C08"/>
<stop offset="1" stop-color="#FA9B05"/>
</linearGradient>
<linearGradient id="paint24_linear_298_400" x1="-107" y1="187.458" x2="1499.88" y2="187.458" gradientUnits="userSpaceOnUse">
<stop stop-color="#F99C08"/>
<stop offset="1" stop-color="#FA9B05"/>
</linearGradient>
<linearGradient id="paint25_linear_298_400" x1="-107" y1="195.208" x2="1501.19" y2="195.208" gradientUnits="userSpaceOnUse">
<stop stop-color="#F99C08"/>
<stop offset="1" stop-color="#FA9B05"/>
</linearGradient>
<linearGradient id="paint26_linear_298_400" x1="-107" y1="202.963" x2="1502.5" y2="202.963" gradientUnits="userSpaceOnUse">
<stop stop-color="#F99C08"/>
<stop offset="1" stop-color="#FA9B05"/>
</linearGradient>
<linearGradient id="paint27_linear_298_400" x1="-107" y1="210.739" x2="1503.82" y2="210.739" gradientUnits="userSpaceOnUse">
<stop stop-color="#F99C08"/>
<stop offset="1" stop-color="#FA9B05"/>
</linearGradient>
<linearGradient id="paint28_linear_298_400" x1="-107" y1="218.465" x2="1505.13" y2="218.465" gradientUnits="userSpaceOnUse">
<stop stop-color="#F99C08"/>
<stop offset="1" stop-color="#FA9B05"/>
</linearGradient>
<linearGradient id="paint29_linear_298_400" x1="-107" y1="226.217" x2="1506.44" y2="226.217" gradientUnits="userSpaceOnUse">
<stop stop-color="#F99C08"/>
<stop offset="1" stop-color="#FA9B05"/>
</linearGradient>
<linearGradient id="paint30_linear_298_400" x1="-107" y1="233.97" x2="1507.69" y2="233.97" gradientUnits="userSpaceOnUse">
<stop stop-color="#F99C08"/>
<stop offset="1" stop-color="#FA9B05"/>
</linearGradient>
<linearGradient id="paint31_linear_298_400" x1="-107" y1="241.722" x2="1509.08" y2="241.722" gradientUnits="userSpaceOnUse">
<stop stop-color="#F99C08"/>
<stop offset="1" stop-color="#FA9B05"/>
</linearGradient>
<linearGradient id="paint32_linear_298_400" x1="-107" y1="249.475" x2="1510.38" y2="249.475" gradientUnits="userSpaceOnUse">
<stop stop-color="#F99C08"/>
<stop offset="1" stop-color="#FA9B05"/>
</linearGradient>
</defs>
</svg>
