<svg width="86" height="86" viewBox="0 0 86 86" fill="none" xmlns="http://www.w3.org/2000/svg">
<path d="M35.0426 8.3214C39.4527 8.02825 44.0319 7.98298 48.4976 8.18493C49.9796 8.2525 51.1258 9.50926 51.0591 10.9914C50.9921 12.4742 49.7354 13.6235 48.2526 13.5564C43.9839 13.3634 39.6067 13.4062 35.3995 13.6859C21.7855 14.5913 10.8916 25.6018 9.99425 39.4866C9.80956 42.3455 9.80951 45.3096 9.99425 48.1685C10.3092 53.0424 12.4819 57.7079 15.2363 61.8439C15.2771 61.9052 15.3161 61.9685 15.3518 62.0329C17.7464 66.3684 15.9925 71.3144 14.204 74.7041C13.9127 75.256 13.6713 75.7109 13.4726 76.1073C13.7423 76.1166 14.0455 76.1302 14.3964 76.1388C18.2261 76.232 20.655 75.1744 22.5884 73.7487C23.2357 73.2714 23.8208 72.8361 24.3031 72.524C24.7081 72.2619 25.4498 71.8023 26.3502 71.6911L26.7036 71.6666C27.5167 71.6526 28.2669 71.9145 28.6668 72.055C29.2671 72.2661 30.0359 72.5817 30.9239 72.9474C32.2831 73.5072 33.9094 73.8701 35.3995 73.9692C40.3842 74.3005 45.6058 74.3012 50.6007 73.9692C64.2148 73.0638 75.1086 62.0534 76.006 48.1685C76.0786 47.0443 76.1234 45.9028 76.1389 44.7566C76.159 43.2725 77.3808 42.0841 78.8649 42.1041C80.3478 42.1251 81.5333 43.3436 81.5139 44.8266C81.4973 46.0624 81.4492 47.297 81.3705 48.5149C80.303 65.0329 67.3208 78.2418 50.9576 79.3302C45.7251 79.678 40.2645 79.6773 35.0426 79.3302C33.019 79.1955 30.816 78.7185 28.8767 77.92C28.0257 77.5694 27.4456 77.3334 27.0221 77.1781C26.7307 77.3783 26.3397 77.6584 25.7763 78.0739C22.937 80.1674 19.3534 81.6374 14.267 81.5138C13.2396 81.4888 12.1231 81.4709 11.2225 81.2968C10.1949 81.098 8.92129 80.5993 8.1256 79.2427C7.26061 77.7667 7.60781 76.2741 7.94363 75.3339C8.27516 74.406 8.86059 73.3088 9.44835 72.195C11.1362 68.9962 11.5934 66.3895 10.6626 64.6644C7.69332 60.1712 5.02576 54.6426 4.62975 48.5149C4.43007 45.4248 4.43004 42.2268 4.62975 39.1367C5.69806 22.6195 18.6799 9.40967 35.0426 8.3214Z" fill="white"/>
<path d="M43.0002 38.5208C44.4844 38.5208 45.6877 37.3176 45.6877 35.8333C45.6877 34.349 44.4844 33.1458 43.0002 33.1458H30.4585C28.9742 33.1458 27.771 34.349 27.771 35.8333C27.771 37.3176 28.9742 38.5208 30.4585 38.5208H43.0002ZM55.5418 56.4375C57.0261 56.4375 58.2293 55.2342 58.2293 53.75C58.2293 52.2657 57.0261 51.0625 55.5418 51.0625H30.4585C28.9742 51.0625 27.771 52.2657 27.771 53.75C27.771 55.2342 28.9742 56.4375 30.4585 56.4375H55.5418Z" fill="white"/>
<path d="M67.1873 35.8333V12.6781C67.1804 12.6863 67.1733 12.6944 67.1663 12.7026C66.3527 13.6628 65.555 14.6831 64.8183 15.6211C64.1301 16.4972 63.4071 17.4182 62.8446 17.9971C61.8105 19.0611 60.1088 19.0866 59.0444 18.0531C57.9804 17.0189 57.9548 15.3172 58.9884 14.2528C59.3062 13.9258 59.8306 13.2728 60.5946 12.3002C61.3104 11.3888 62.1733 10.2802 63.0651 9.22774C63.9467 8.18735 64.9342 7.10763 65.9206 6.26729C66.4148 5.84637 66.9731 5.42988 67.5723 5.10901C68.1508 4.79943 68.9493 4.47913 69.8748 4.47913C70.8004 4.47913 71.5989 4.79943 72.1774 5.10901C72.7766 5.42988 73.3349 5.84637 73.8291 6.26729C74.8155 7.10763 75.803 8.18735 76.6846 9.22774C77.5764 10.2802 78.4393 11.3888 79.1551 12.3002C79.9191 13.2728 80.4435 13.9258 80.7613 14.2528C81.7948 15.3172 81.7693 17.0189 80.7053 18.0531C79.6409 19.0866 77.9392 19.0611 76.905 17.9971C76.3426 17.4182 75.6196 16.4972 74.9314 15.6211C74.1947 14.6831 73.3969 13.6628 72.5833 12.7026C72.5764 12.6944 72.5693 12.6863 72.5623 12.6781V35.8333C72.5623 37.3176 71.3591 38.5208 69.8748 38.5208C68.3906 38.5208 67.1873 37.3176 67.1873 35.8333Z" fill="white"/>
</svg>
