<svg width="95" height="95" viewBox="0 0 95 95" fill="none" xmlns="http://www.w3.org/2000/svg">
<path d="M74.2189 47.5232C74.2189 41.4216 74.1736 39.1183 73.3956 37.0475C72.6173 34.9776 71.1345 33.2149 67.1179 28.6245L61.9844 22.7604H33.0159L27.8825 28.6245C23.8658 33.2149 22.3831 34.9776 21.6048 37.0475C20.8267 39.1183 20.7814 41.4216 20.7814 47.5232V63.3333C20.7814 69.0141 20.7894 72.9762 21.1912 75.966C21.5817 78.8705 22.2952 80.4098 23.3907 81.5053C24.4862 82.6008 26.0255 83.3143 28.93 83.7048C31.9198 84.1066 35.8819 84.1146 41.5627 84.1146H53.4377C59.1185 84.1146 63.0806 84.1066 66.0703 83.7048C68.9749 83.3143 70.5142 82.6008 71.6097 81.5053C72.7052 80.4098 73.4187 78.8705 73.8092 75.966C74.2109 72.9762 74.2189 69.0141 74.2189 63.3333V47.5232ZM80.1564 63.3333C80.1564 68.8469 80.1639 73.281 79.6964 76.7584C79.2174 80.3213 78.1903 83.3207 75.8077 85.7033C73.4251 88.0859 70.4257 89.1131 66.8628 89.5921C63.3854 90.0595 58.9513 90.0521 53.4377 90.0521H41.5627C36.0491 90.0521 31.615 90.0595 28.1376 89.5921C24.5747 89.1131 21.5753 88.0859 19.1927 85.7033C16.8101 83.3207 15.783 80.3213 15.3039 76.7584C14.8365 73.281 14.8439 68.8469 14.8439 63.3333V47.5232C14.8439 41.8575 14.8008 38.2745 16.0461 34.9601C17.2915 31.6463 19.6834 28.9797 23.4139 24.7164L29.4326 17.8357L29.6568 17.6076C30.2019 17.1059 30.9183 16.8229 31.6668 16.8229H63.3335C64.1893 16.8229 65.0041 17.1918 65.5678 17.8357L71.5865 24.7164C75.3169 28.9797 77.7088 31.6462 78.9542 34.9601C80.1996 38.2745 80.1564 41.8575 80.1564 47.5232V63.3333Z" fill="#29D9C3"/>
<path d="M44.4151 73.2292V71.9381C43.1465 71.6668 41.9453 71.2548 40.8511 70.7204C37.5895 69.1272 34.6361 66.0918 34.6353 62.0809C34.6353 60.4413 35.9644 59.1121 37.604 59.1121C39.2436 59.1121 40.5728 60.4413 40.5728 62.0809C40.5738 62.9355 41.2908 64.328 43.4565 65.3859C45.5128 66.3902 48.3199 66.747 51.0832 65.8691C53.6019 65.0688 54.2393 63.7384 54.3883 62.6994C54.5804 61.3586 54.0246 59.9515 53.418 59.2938C52.8489 58.677 52.1136 58.3298 50.8281 58.1457C49.3113 57.9287 47.895 58.0067 45.5284 57.8867C40.0655 57.6098 36.0641 54.6581 35.4316 50.1788C34.8296 45.9119 37.5572 41.8035 42.0649 39.6916C42.8343 39.3312 43.6223 39.0642 44.4151 38.8759V37.6042C44.4151 35.965 45.7449 34.6361 47.3839 34.6354C49.0235 34.6354 50.3526 35.9646 50.3526 37.6042V38.8605C51.1714 39.0425 51.9608 39.2957 52.7029 39.6065C55.7419 40.8796 58.6455 43.4335 59.2821 46.9743C59.5721 48.5877 58.4986 50.1318 56.8854 50.4224C55.2719 50.7124 53.7276 49.6391 53.4373 48.0257C53.2814 47.1581 52.3465 45.8964 50.4067 45.084C48.5528 44.3078 46.3783 44.2266 44.5813 45.0686C41.7802 46.381 41.1663 48.3149 41.3111 49.3477C41.4269 50.1681 42.2634 51.7762 45.8299 51.957C47.4805 52.0406 49.8297 52.0026 51.6708 52.2662C53.7441 52.5632 55.963 53.2944 57.7822 55.2659C59.5639 57.1969 60.7171 60.3808 60.2639 63.5421C59.7674 67.0053 57.4025 70.0915 52.8807 71.5283C52.0394 71.7956 51.1936 71.9882 50.3526 72.1159V73.2292C50.3526 74.8687 49.0235 76.1979 47.3839 76.1979C45.7449 76.1972 44.4151 74.8683 44.4151 73.2292Z" fill="#29D9C3"/>
<path d="M68.2503 11.8905C68.223 11.4896 68.1837 11.4378 68.2078 11.4962C68.1074 11.2537 67.913 11.0593 67.6705 10.9589C67.7288 10.983 67.6771 10.9437 67.2762 10.9163C66.8487 10.8872 66.2753 10.8854 65.3125 10.8854H29.6875C28.7247 10.8854 28.1513 10.8872 27.7238 10.9163C27.3229 10.9437 27.2712 10.983 27.3295 10.9589C27.087 11.0593 26.8926 11.2537 26.7922 11.4962C26.8164 11.4378 26.777 11.4896 26.7497 11.8905C26.7205 12.318 26.7187 12.8914 26.7187 13.8542C26.7187 14.8169 26.7205 15.3903 26.7497 15.8179C26.777 16.2187 26.8164 16.2705 26.7922 16.2121C26.8926 16.4546 27.087 16.649 27.3295 16.7495C27.2712 16.7253 27.3229 16.7646 27.7238 16.792C28.1513 16.8211 28.7247 16.8229 29.6875 16.8229H65.3125C66.2753 16.8229 66.8487 16.8211 67.2762 16.792C67.6771 16.7646 67.7288 16.7253 67.6705 16.7495C67.913 16.649 68.1074 16.4546 68.2078 16.2121C68.1837 16.2705 68.223 16.2187 68.2503 15.8179C68.2795 15.3903 68.2812 14.8169 68.2812 13.8542C68.2812 12.8914 68.2795 12.318 68.2503 11.8905ZM74.2187 13.8542C74.2187 14.7357 74.2185 15.5472 74.1724 16.2237C74.1243 16.9264 74.0182 17.7 73.693 18.4851C72.99 20.1823 71.6406 21.5316 69.9434 22.2347C69.1584 22.5599 68.3848 22.666 67.6821 22.714C67.0056 22.7602 66.1941 22.7604 65.3125 22.7604H29.6875C28.8059 22.7604 27.9944 22.7602 27.3179 22.714C26.6152 22.666 25.8416 22.5599 25.0566 22.2347C23.3594 21.5316 22.01 20.1823 21.307 18.4851C20.9818 17.7 20.8757 16.9264 20.8276 16.2237C20.7815 15.5472 20.7812 14.7357 20.7812 13.8542C20.7812 12.9726 20.7815 12.1611 20.8276 11.4846C20.8757 10.7819 20.9818 10.0083 21.307 9.22322C22.01 7.52605 23.3594 6.17668 25.0566 5.47362C25.8416 5.14843 26.6152 5.04233 27.3179 4.99429C27.9944 4.94814 28.8059 4.94791 29.6875 4.94791H65.3125C66.1941 4.94791 67.0056 4.94814 67.6821 4.99429C68.3848 5.04233 69.1584 5.14843 69.9434 5.47362C71.6406 6.17667 72.99 7.52605 73.693 9.22322C74.0182 10.0083 74.1243 10.7819 74.1724 11.4846C74.2185 12.1611 74.2187 12.9726 74.2187 13.8542Z" fill="#29D9C3"/>
</svg>
