<svg width="175" height="82" viewBox="0 0 175 82" fill="none" xmlns="http://www.w3.org/2000/svg">
<path d="M8.37586 17.376C6.71186 17.376 5.24786 17.008 3.98386 16.272C2.73586 15.536 1.75986 14.52 1.05586 13.224C0.351859 11.928 -0.000140592 10.416 -0.000140592 8.68801C-0.000140592 6.97601 0.351859 5.47201 1.05586 4.17601C1.75986 2.86401 2.73586 1.84001 3.98386 1.10401C5.24786 0.368012 6.71186 1.23978e-05 8.37586 1.23978e-05C10.0559 1.23978e-05 11.5199 0.368012 12.7679 1.10401C14.0319 1.84001 15.0079 2.86401 15.6959 4.17601C16.3999 5.47201 16.7519 6.97601 16.7519 8.68801C16.7519 10.416 16.3999 11.928 15.6959 13.224C15.0079 14.52 14.0319 15.536 12.7679 16.272C11.5199 17.008 10.0559 17.376 8.37586 17.376ZM8.37586 14.808C9.49586 14.808 10.4559 14.568 11.2559 14.088C12.0719 13.592 12.7039 12.888 13.1519 11.976C13.5999 11.048 13.8239 9.95201 13.8239 8.68801C13.8239 7.42401 13.5999 6.33601 13.1519 5.42401C12.7039 4.51201 12.0719 3.81601 11.2559 3.33601C10.4559 2.84001 9.49586 2.59201 8.37586 2.59201C7.28786 2.59201 6.33586 2.84001 5.51986 3.33601C4.70386 3.81601 4.06386 4.51201 3.59986 5.42401C3.15186 6.33601 2.92786 7.42401 2.92786 8.68801C2.92786 9.95201 3.15186 11.048 3.59986 11.976C4.06386 12.888 4.70386 13.592 5.51986 14.088C6.33586 14.568 7.28786 14.808 8.37586 14.808ZM18.5702 22.368V5.18401H21.4502V6.93601C21.8342 6.39201 22.3542 5.92001 23.0102 5.52001C23.6662 5.10401 24.4982 4.89601 25.5062 4.89601C26.6422 4.89601 27.6502 5.16801 28.5302 5.71201C29.4102 6.25601 30.0982 7.00001 30.5942 7.94401C31.1062 8.88801 31.3622 9.96001 31.3622 11.16C31.3622 12.344 31.1062 13.408 30.5942 14.352C30.0982 15.296 29.4102 16.04 28.5302 16.584C27.6502 17.112 26.6422 17.376 25.5062 17.376C24.5942 17.376 23.7942 17.2 23.1062 16.848C22.4182 16.496 21.8662 16.008 21.4502 15.384V22.368H18.5702ZM24.9302 14.856C25.6182 14.856 26.2262 14.696 26.7542 14.376C27.2822 14.056 27.6902 13.624 27.9782 13.08C28.2822 12.52 28.4342 11.88 28.4342 11.16C28.4342 10.424 28.2822 9.77601 27.9782 9.21601C27.6902 8.64001 27.2822 8.20001 26.7542 7.89601C26.2262 7.57601 25.6182 7.41601 24.9302 7.41601C24.2422 7.41601 23.6342 7.57601 23.1062 7.89601C22.5782 8.20001 22.1622 8.63201 21.8582 9.19201C21.5542 9.75201 21.4022 10.4 21.4022 11.136C21.4022 11.872 21.5542 12.52 21.8582 13.08C22.1622 13.624 22.5782 14.056 23.1062 14.376C23.6342 14.696 24.2422 14.856 24.9302 14.856ZM37.4997 17.088C36.7317 17.088 36.0837 17 35.5557 16.824C35.0277 16.632 34.6277 16.28 34.3557 15.768C34.0837 15.256 33.9477 14.512 33.9477 13.536V7.60801H31.9077V5.18401H33.9477V2.06401H36.8277V5.18401H39.9477V7.60801H36.8277V13.152C36.8277 13.584 36.8677 13.904 36.9477 14.112C37.0437 14.32 37.2037 14.464 37.4277 14.544C37.6517 14.608 37.9797 14.64 38.4117 14.64H39.8277V17.088H37.4997ZM41.3989 17.088V5.18401H44.2789V17.088H41.3989ZM41.3989 3.14401V0.192011H44.3029V3.14401H41.3989ZM46.4849 17.088V5.18401H49.3649V6.69601C49.7489 6.13601 50.2529 5.69601 50.8769 5.37601C51.5009 5.05601 52.2129 4.89601 53.0129 4.89601C53.9249 4.89601 54.7089 5.08001 55.3649 5.44801C56.0209 5.80001 56.5409 6.33601 56.9249 7.05601C57.3569 6.38401 57.9329 5.85601 58.6529 5.47201C59.3889 5.08801 60.1889 4.89601 61.0529 4.89601C62.5729 4.89601 63.7489 5.36001 64.5809 6.28801C65.4129 7.20001 65.8289 8.54401 65.8289 10.32V17.088H62.9729V10.608C62.9729 9.53601 62.7649 8.72801 62.3489 8.18401C61.9329 7.62401 61.3089 7.34401 60.4769 7.34401C59.6289 7.34401 58.9409 7.65601 58.4129 8.28001C57.8849 8.90401 57.6209 9.79201 57.6209 10.944V17.088H54.7409V10.608C54.7409 9.53601 54.5249 8.72801 54.0929 8.18401C53.6769 7.62401 53.0449 7.34401 52.1969 7.34401C51.3649 7.34401 50.6849 7.65601 50.1569 8.28001C49.6289 8.90401 49.3649 9.79201 49.3649 10.944V17.088H46.4849ZM68.0708 17.088V5.18401H70.9508V17.088H68.0708ZM68.0708 3.14401V0.192011H70.9748V3.14401H68.0708ZM72.7727 17.088V14.76L78.9407 7.56001H72.8687V5.18401H82.2287V7.51201L75.9887 14.712H82.3487V17.088H72.7727ZM87.9454 17.376C87.0334 17.376 86.2574 17.216 85.6174 16.896C84.9774 16.56 84.4894 16.12 84.1534 15.576C83.8174 15.032 83.6494 14.44 83.6494 13.8C83.6494 12.552 84.0974 11.584 84.9934 10.896C85.9054 10.208 87.0974 9.86401 88.5694 9.86401C89.2414 9.86401 89.8334 9.92001 90.3454 10.032C90.8734 10.128 91.2974 10.224 91.6174 10.32V9.76801C91.6174 8.88801 91.3694 8.24001 90.8734 7.82401C90.3934 7.40801 89.7614 7.20001 88.9774 7.20001C88.4014 7.20001 87.8894 7.32001 87.4414 7.56001C86.9934 7.78401 86.7054 8.20001 86.5774 8.80801H83.8414C83.9374 7.94401 84.2254 7.22401 84.7054 6.64801C85.1854 6.07201 85.7934 5.64001 86.5294 5.35201C87.2814 5.04801 88.0974 4.89601 88.9774 4.89601C90.7214 4.89601 92.0734 5.32801 93.0334 6.19201C94.0094 7.04001 94.4974 8.23201 94.4974 9.76801V12.672C94.4974 13.28 94.5294 13.728 94.5934 14.016C94.6734 14.288 94.7934 14.464 94.9534 14.544C95.1294 14.608 95.3534 14.64 95.6254 14.64H95.7454V17.088H95.0974C94.2814 17.088 93.5934 16.976 93.0334 16.752C92.4894 16.512 92.1054 16.048 91.8814 15.36C91.4814 15.936 90.9534 16.416 90.2974 16.8C89.6414 17.184 88.8574 17.376 87.9454 17.376ZM88.5694 15.144C89.1294 15.144 89.6094 15.016 90.0094 14.76C90.4094 14.488 90.7294 14.136 90.9694 13.704C91.2254 13.256 91.3934 12.768 91.4734 12.24C91.1374 12.144 90.7374 12.048 90.2734 11.952C89.8094 11.856 89.3374 11.808 88.8574 11.808C88.1374 11.808 87.5694 11.968 87.1534 12.288C86.7534 12.608 86.5534 13.04 86.5534 13.584C86.5534 14.032 86.7294 14.408 87.0814 14.712C87.4494 15 87.9454 15.144 88.5694 15.144ZM110.273 17.376C109.073 17.376 108.009 17.112 107.081 16.584C106.153 16.056 105.425 15.328 104.897 14.4C104.369 13.456 104.105 12.368 104.105 11.136C104.105 9.90401 104.369 8.82401 104.897 7.89601C105.425 6.95201 106.153 6.21601 107.081 5.68801C108.009 5.16001 109.073 4.89601 110.273 4.89601C111.761 4.89601 113.017 5.28801 114.041 6.07201C115.065 6.85601 115.721 7.92801 116.009 9.28801H113.009C112.849 8.68001 112.521 8.20801 112.025 7.87201C111.529 7.53601 110.937 7.36801 110.249 7.36801C109.673 7.36801 109.137 7.52001 108.641 7.82401C108.161 8.11201 107.777 8.53601 107.489 9.09601C107.201 9.64001 107.057 10.32 107.057 11.136C107.057 11.936 107.201 12.624 107.489 13.2C107.777 13.76 108.161 14.192 108.641 14.496C109.137 14.784 109.673 14.928 110.249 14.928C110.937 14.928 111.529 14.76 112.025 14.424C112.521 14.088 112.849 13.608 113.009 12.984H116.009C115.737 14.296 115.081 15.36 114.041 16.176C113.017 16.976 111.761 17.376 110.273 17.376ZM123.59 17.376C122.406 17.376 121.334 17.12 120.374 16.608C119.43 16.08 118.678 15.344 118.118 14.4C117.558 13.456 117.278 12.368 117.278 11.136C117.278 9.88801 117.558 8.80001 118.118 7.87201C118.678 6.92801 119.438 6.20001 120.398 5.68801C121.358 5.16001 122.422 4.89601 123.59 4.89601C124.79 4.89601 125.862 5.16001 126.806 5.68801C127.75 6.20001 128.502 6.92801 129.062 7.87201C129.622 8.80001 129.902 9.88801 129.902 11.136C129.902 12.368 129.622 13.456 129.062 14.4C128.502 15.344 127.742 16.08 126.782 16.608C125.838 17.12 124.774 17.376 123.59 17.376ZM123.59 14.88C124.198 14.88 124.75 14.744 125.246 14.472C125.758 14.184 126.166 13.768 126.47 13.224C126.774 12.664 126.926 11.968 126.926 11.136C126.926 10.304 126.774 9.61601 126.47 9.07201C126.166 8.51201 125.758 8.09601 125.246 7.82401C124.75 7.53601 124.206 7.39201 123.614 7.39201C123.006 7.39201 122.446 7.53601 121.934 7.82401C121.422 8.09601 121.014 8.51201 120.71 9.07201C120.406 9.61601 120.254 10.304 120.254 11.136C120.254 11.968 120.406 12.664 120.71 13.224C121.014 13.768 121.414 14.184 121.91 14.472C122.422 14.744 122.982 14.88 123.59 14.88ZM136.271 17.376C134.735 17.376 133.463 17.016 132.455 16.296C131.447 15.576 130.871 14.584 130.727 13.32H133.679C133.791 13.88 134.087 14.328 134.567 14.664C135.063 14.984 135.663 15.144 136.367 15.144C137.087 15.144 137.639 15.008 138.023 14.736C138.423 14.448 138.623 14.096 138.623 13.68C138.623 13.344 138.487 13.088 138.215 12.912C137.959 12.72 137.495 12.576 136.823 12.48C136.567 12.432 136.247 12.384 135.863 12.336C135.495 12.272 135.175 12.208 134.903 12.144C134.279 12.032 133.695 11.84 133.151 11.568C132.607 11.28 132.167 10.896 131.831 10.416C131.511 9.93601 131.351 9.34401 131.351 8.64001C131.351 7.58401 131.743 6.69601 132.527 5.97601C133.327 5.25601 134.463 4.89601 135.935 4.89601C137.407 4.89601 138.583 5.22401 139.463 5.88001C140.343 6.52001 140.847 7.46401 140.975 8.71201H138.167C138.119 8.18401 137.879 7.79201 137.447 7.53601C137.031 7.28001 136.527 7.15201 135.935 7.15201C135.295 7.15201 134.799 7.28001 134.447 7.53601C134.095 7.77601 133.919 8.08001 133.919 8.44801C133.919 9.10401 134.471 9.52801 135.575 9.72001C135.735 9.75201 135.935 9.79201 136.175 9.84001C136.431 9.87201 136.687 9.91201 136.943 9.96001C137.199 9.99201 137.415 10.024 137.591 10.056C138.023 10.104 138.455 10.2 138.887 10.344C139.335 10.488 139.743 10.688 140.111 10.944C140.479 11.184 140.767 11.504 140.975 11.904C141.199 12.304 141.311 12.808 141.311 13.416C141.311 14.2 141.111 14.888 140.711 15.48C140.327 16.072 139.759 16.536 139.007 16.872C138.255 17.208 137.343 17.376 136.271 17.376ZM147.492 17.088C146.724 17.088 146.076 17 145.548 16.824C145.02 16.632 144.62 16.28 144.348 15.768C144.076 15.256 143.94 14.512 143.94 13.536V7.60801H141.9V5.18401H143.94V2.06401H146.82V5.18401H149.94V7.60801H146.82V13.152C146.82 13.584 146.86 13.904 146.94 14.112C147.036 14.32 147.196 14.464 147.42 14.544C147.644 14.608 147.972 14.64 148.404 14.64H149.82V17.088H147.492ZM156.73 17.376C155.546 17.376 154.474 17.12 153.514 16.608C152.57 16.08 151.818 15.344 151.258 14.4C150.698 13.456 150.418 12.368 150.418 11.136C150.418 9.88801 150.698 8.80001 151.258 7.87201C151.818 6.92801 152.578 6.20001 153.538 5.68801C154.498 5.16001 155.562 4.89601 156.73 4.89601C157.93 4.89601 159.002 5.16001 159.946 5.68801C160.89 6.20001 161.642 6.92801 162.202 7.87201C162.762 8.80001 163.042 9.88801 163.042 11.136C163.042 12.368 162.762 13.456 162.202 14.4C161.642 15.344 160.882 16.08 159.922 16.608C158.978 17.12 157.914 17.376 156.73 17.376ZM156.73 14.88C157.338 14.88 157.89 14.744 158.386 14.472C158.898 14.184 159.306 13.768 159.61 13.224C159.914 12.664 160.066 11.968 160.066 11.136C160.066 10.304 159.914 9.61601 159.61 9.07201C159.306 8.51201 158.898 8.09601 158.386 7.82401C157.89 7.53601 157.346 7.39201 156.754 7.39201C156.146 7.39201 155.586 7.53601 155.074 7.82401C154.562 8.09601 154.154 8.51201 153.85 9.07201C153.546 9.61601 153.394 10.304 153.394 11.136C153.394 11.968 153.546 12.664 153.85 13.224C154.154 13.768 154.554 14.184 155.05 14.472C155.562 14.744 156.122 14.88 156.73 14.88ZM169.412 17.376C167.876 17.376 166.604 17.016 165.596 16.296C164.588 15.576 164.012 14.584 163.868 13.32H166.82C166.932 13.88 167.228 14.328 167.708 14.664C168.204 14.984 168.804 15.144 169.508 15.144C170.228 15.144 170.78 15.008 171.164 14.736C171.564 14.448 171.764 14.096 171.764 13.68C171.764 13.344 171.628 13.088 171.356 12.912C171.1 12.72 170.636 12.576 169.964 12.48C169.708 12.432 169.388 12.384 169.004 12.336C168.636 12.272 168.316 12.208 168.044 12.144C167.42 12.032 166.836 11.84 166.292 11.568C165.748 11.28 165.308 10.896 164.972 10.416C164.652 9.93601 164.492 9.34401 164.492 8.64001C164.492 7.58401 164.884 6.69601 165.668 5.97601C166.468 5.25601 167.604 4.89601 169.076 4.89601C170.548 4.89601 171.724 5.22401 172.604 5.88001C173.484 6.52001 173.988 7.46401 174.116 8.71201H171.308C171.26 8.18401 171.02 7.79201 170.588 7.53601C170.172 7.28001 169.668 7.15201 169.076 7.15201C168.436 7.15201 167.94 7.28001 167.588 7.53601C167.236 7.77601 167.06 8.08001 167.06 8.44801C167.06 9.10401 167.612 9.52801 168.716 9.72001C168.876 9.75201 169.076 9.79201 169.316 9.84001C169.572 9.87201 169.828 9.91201 170.084 9.96001C170.34 9.99201 170.556 10.024 170.732 10.056C171.164 10.104 171.596 10.2 172.028 10.344C172.476 10.488 172.884 10.688 173.252 10.944C173.62 11.184 173.908 11.504 174.116 11.904C174.34 12.304 174.452 12.808 174.452 13.416C174.452 14.2 174.252 14.888 173.852 15.48C173.468 16.072 172.9 16.536 172.148 16.872C171.396 17.208 170.484 17.376 169.412 17.376ZM35.2264 49.376C34.0264 49.376 32.9624 49.112 32.0344 48.584C31.1064 48.056 30.3784 47.328 29.8504 46.4C29.3224 45.456 29.0584 44.368 29.0584 43.136C29.0584 41.904 29.3224 40.824 29.8504 39.896C30.3784 38.952 31.1064 38.216 32.0344 37.688C32.9624 37.16 34.0264 36.896 35.2264 36.896C36.7144 36.896 37.9704 37.288 38.9944 38.072C40.0184 38.856 40.6744 39.928 40.9624 41.288H37.9624C37.8024 40.68 37.4744 40.208 36.9784 39.872C36.4824 39.536 35.8904 39.368 35.2024 39.368C34.6264 39.368 34.0904 39.52 33.5944 39.824C33.1144 40.112 32.7304 40.536 32.4424 41.096C32.1544 41.64 32.0104 42.32 32.0104 43.136C32.0104 43.936 32.1544 44.624 32.4424 45.2C32.7304 45.76 33.1144 46.192 33.5944 46.496C34.0904 46.784 34.6264 46.928 35.2024 46.928C35.8904 46.928 36.4824 46.76 36.9784 46.424C37.4744 46.088 37.8024 45.608 37.9624 44.984H40.9624C40.6904 46.296 40.0344 47.36 38.9944 48.176C37.9704 48.976 36.7144 49.376 35.2264 49.376ZM48.5429 49.376C47.3589 49.376 46.2869 49.12 45.3269 48.608C44.3829 48.08 43.6309 47.344 43.0709 46.4C42.5109 45.456 42.2309 44.368 42.2309 43.136C42.2309 41.888 42.5109 40.8 43.0709 39.872C43.6309 38.928 44.3909 38.2 45.3509 37.688C46.3109 37.16 47.3749 36.896 48.5429 36.896C49.7429 36.896 50.8149 37.16 51.7589 37.688C52.7029 38.2 53.4549 38.928 54.0149 39.872C54.5749 40.8 54.8549 41.888 54.8549 43.136C54.8549 44.368 54.5749 45.456 54.0149 46.4C53.4549 47.344 52.6949 48.08 51.7349 48.608C50.7909 49.12 49.7269 49.376 48.5429 49.376ZM48.5429 46.88C49.1509 46.88 49.7029 46.744 50.1989 46.472C50.7109 46.184 51.1189 45.768 51.4229 45.224C51.7269 44.664 51.8789 43.968 51.8789 43.136C51.8789 42.304 51.7269 41.616 51.4229 41.072C51.1189 40.512 50.7109 40.096 50.1989 39.824C49.7029 39.536 49.1589 39.392 48.5669 39.392C47.9589 39.392 47.3989 39.536 46.8869 39.824C46.3749 40.096 45.9669 40.512 45.6629 41.072C45.3589 41.616 45.2069 42.304 45.2069 43.136C45.2069 43.968 45.3589 44.664 45.6629 45.224C45.9669 45.768 46.3669 46.184 46.8629 46.472C47.3749 46.744 47.9349 46.88 48.5429 46.88ZM56.539 49.088V37.184H59.419V39.032C59.819 38.376 60.355 37.856 61.027 37.472C61.715 37.088 62.499 36.896 63.379 36.896C64.851 36.896 65.995 37.36 66.811 38.288C67.627 39.2 68.035 40.544 68.035 42.32V49.088H65.155V42.608C65.155 41.536 64.931 40.728 64.483 40.184C64.051 39.624 63.387 39.344 62.491 39.344C61.611 39.344 60.875 39.656 60.283 40.28C59.707 40.904 59.419 41.792 59.419 42.944V49.088H56.539ZM77.5864 49.088V37.184H80.4664V38.696C80.8504 38.136 81.3544 37.696 81.9784 37.376C82.6024 37.056 83.3144 36.896 84.1144 36.896C85.0264 36.896 85.8104 37.08 86.4664 37.448C87.1224 37.8 87.6424 38.336 88.0264 39.056C88.4584 38.384 89.0344 37.856 89.7544 37.472C90.4904 37.088 91.2904 36.896 92.1544 36.896C93.6744 36.896 94.8504 37.36 95.6824 38.288C96.5144 39.2 96.9304 40.544 96.9304 42.32V49.088H94.0744V42.608C94.0744 41.536 93.8664 40.728 93.4504 40.184C93.0344 39.624 92.4104 39.344 91.5784 39.344C90.7304 39.344 90.0424 39.656 89.5144 40.28C88.9864 40.904 88.7224 41.792 88.7224 42.944V49.088H85.8424V42.608C85.8424 41.536 85.6264 40.728 85.1944 40.184C84.7784 39.624 84.1464 39.344 83.2984 39.344C82.4664 39.344 81.7864 39.656 81.2584 40.28C80.7304 40.904 80.4664 41.792 80.4664 42.944V49.088H77.5864ZM103.156 49.376C102.244 49.376 101.468 49.216 100.828 48.896C100.188 48.56 99.7004 48.12 99.3644 47.576C99.0284 47.032 98.8604 46.44 98.8604 45.8C98.8604 44.552 99.3084 43.584 100.204 42.896C101.116 42.208 102.308 41.864 103.78 41.864C104.452 41.864 105.044 41.92 105.556 42.032C106.084 42.128 106.508 42.224 106.828 42.32V41.768C106.828 40.888 106.58 40.24 106.084 39.824C105.604 39.408 104.972 39.2 104.188 39.2C103.612 39.2 103.1 39.32 102.652 39.56C102.204 39.784 101.916 40.2 101.788 40.808H99.0524C99.1484 39.944 99.4364 39.224 99.9164 38.648C100.396 38.072 101.004 37.64 101.74 37.352C102.492 37.048 103.308 36.896 104.188 36.896C105.932 36.896 107.284 37.328 108.244 38.192C109.22 39.04 109.708 40.232 109.708 41.768V44.672C109.708 45.28 109.74 45.728 109.804 46.016C109.884 46.288 110.004 46.464 110.164 46.544C110.34 46.608 110.564 46.64 110.836 46.64H110.956V49.088H110.308C109.492 49.088 108.804 48.976 108.244 48.752C107.7 48.512 107.316 48.048 107.092 47.36C106.692 47.936 106.164 48.416 105.508 48.8C104.852 49.184 104.068 49.376 103.156 49.376ZM103.78 47.144C104.34 47.144 104.82 47.016 105.22 46.76C105.62 46.488 105.94 46.136 106.18 45.704C106.436 45.256 106.604 44.768 106.684 44.24C106.348 44.144 105.948 44.048 105.484 43.952C105.02 43.856 104.548 43.808 104.068 43.808C103.348 43.808 102.78 43.968 102.364 44.288C101.964 44.608 101.764 45.04 101.764 45.584C101.764 46.032 101.94 46.408 102.292 46.712C102.66 47 103.156 47.144 103.78 47.144ZM110.885 54.368V52.064H113.405C113.645 52.064 113.837 52.032 113.981 51.968C114.141 51.904 114.293 51.776 114.437 51.584C114.597 51.392 114.765 51.08 114.941 50.648L116.045 48.224L115.877 49.544L110.669 37.184H113.813L117.245 45.704L120.845 37.184H123.917L117.533 51.584C117.261 52.192 117.029 52.68 116.837 53.048C116.645 53.416 116.453 53.696 116.261 53.888C116.069 54.08 115.837 54.208 115.565 54.272C115.309 54.336 114.989 54.368 114.605 54.368H110.885ZM130.012 49.376C128.828 49.376 127.756 49.12 126.796 48.608C125.852 48.08 125.1 47.344 124.54 46.4C123.98 45.456 123.7 44.368 123.7 43.136C123.7 41.888 123.98 40.8 124.54 39.872C125.1 38.928 125.86 38.2 126.82 37.688C127.78 37.16 128.844 36.896 130.012 36.896C131.212 36.896 132.284 37.16 133.228 37.688C134.172 38.2 134.924 38.928 135.484 39.872C136.044 40.8 136.324 41.888 136.324 43.136C136.324 44.368 136.044 45.456 135.484 46.4C134.924 47.344 134.164 48.08 133.204 48.608C132.26 49.12 131.196 49.376 130.012 49.376ZM130.012 46.88C130.62 46.88 131.172 46.744 131.668 46.472C132.18 46.184 132.588 45.768 132.892 45.224C133.196 44.664 133.348 43.968 133.348 43.136C133.348 42.304 133.196 41.616 132.892 41.072C132.588 40.512 132.18 40.096 131.668 39.824C131.172 39.536 130.628 39.392 130.036 39.392C129.428 39.392 128.868 39.536 128.356 39.824C127.844 40.096 127.436 40.512 127.132 41.072C126.828 41.616 126.676 42.304 126.676 43.136C126.676 43.968 126.828 44.664 127.132 45.224C127.436 45.768 127.836 46.184 128.332 46.472C128.844 46.744 129.404 46.88 130.012 46.88ZM138.008 49.088V37.184H140.888V39.008C141.192 38.416 141.584 37.952 142.064 37.616C142.544 37.264 143.096 37.088 143.72 37.088H145.328V39.656H143.432C142.872 39.656 142.4 39.808 142.016 40.112C141.648 40.4 141.368 40.856 141.176 41.48C140.984 42.088 140.888 42.856 140.888 43.784V49.088H138.008ZM31.341 81.088V67.528C31.341 66.472 31.461 65.68 31.701 65.152C31.957 64.608 32.365 64.248 32.925 64.072C33.485 63.896 34.229 63.808 35.157 63.808H36.573V66.256H35.709C35.101 66.256 34.701 66.352 34.509 66.544C34.317 66.72 34.221 67.104 34.221 67.696V81.088H31.341ZM29.661 71.608V69.184H36.573V71.608H29.661ZM38.493 81.088V63.808H41.373V81.088H38.493ZM49.1946 81.376C47.9946 81.376 46.9306 81.12 46.0026 80.608C45.0906 80.08 44.3706 79.352 43.8426 78.424C43.3306 77.496 43.0746 76.424 43.0746 75.208C43.0746 73.976 43.3306 72.888 43.8426 71.944C44.3546 70.984 45.0746 70.24 46.0026 69.712C46.9306 69.168 48.0026 68.896 49.2186 68.896C50.3866 68.896 51.4106 69.152 52.2906 69.664C53.1866 70.176 53.8746 70.872 54.3546 71.752C54.8506 72.616 55.0986 73.592 55.0986 74.68C55.0986 74.84 55.0986 75.016 55.0986 75.208C55.0986 75.4 55.0826 75.608 55.0506 75.832H45.1626V73.96H52.1946C52.1466 73.128 51.8426 72.472 51.2826 71.992C50.7226 71.496 50.0346 71.248 49.2186 71.248C48.6266 71.248 48.0746 71.384 47.5626 71.656C47.0666 71.912 46.6666 72.304 46.3626 72.832C46.0586 73.344 45.9066 74 45.9066 74.8V75.496C45.9066 76.232 46.0506 76.864 46.3386 77.392C46.6426 77.92 47.0426 78.32 47.5386 78.592C48.0346 78.864 48.5866 79 49.1946 79C49.8506 79 50.4026 78.856 50.8506 78.568C51.2986 78.264 51.6266 77.864 51.8346 77.368H54.7626C54.5546 78.136 54.1866 78.824 53.6586 79.432C53.1466 80.024 52.5146 80.496 51.7626 80.848C51.0106 81.2 50.1546 81.376 49.1946 81.376ZM55.5908 81.088L59.8868 75.136L55.5908 69.184H58.6868L61.7828 73.528L64.8308 69.184H67.9268L63.6308 75.136L67.9268 81.088H64.8308L61.7828 76.744L58.6868 81.088H55.5908ZM69.6645 81.088V69.184H72.5445V81.088H69.6645ZM69.6645 67.144V64.192H72.5685V67.144H69.6645ZM81.6625 81.376C80.7505 81.376 79.9505 81.2 79.2625 80.848C78.5745 80.496 78.0225 80.008 77.6065 79.384V81.088H74.7265V63.808H77.6065V70.936C77.9905 70.392 78.5105 69.92 79.1665 69.52C79.8225 69.104 80.6545 68.896 81.6625 68.896C82.7985 68.896 83.8065 69.168 84.6865 69.712C85.5665 70.256 86.2545 71 86.7505 71.944C87.2625 72.888 87.5185 73.96 87.5185 75.16C87.5185 76.344 87.2625 77.408 86.7505 78.352C86.2545 79.296 85.5665 80.04 84.6865 80.584C83.8065 81.112 82.7985 81.376 81.6625 81.376ZM81.0865 78.856C81.7745 78.856 82.3825 78.696 82.9105 78.376C83.4385 78.056 83.8465 77.624 84.1345 77.08C84.4385 76.52 84.5905 75.88 84.5905 75.16C84.5905 74.424 84.4385 73.776 84.1345 73.216C83.8465 72.64 83.4385 72.2 82.9105 71.896C82.3825 71.576 81.7745 71.416 81.0865 71.416C80.3985 71.416 79.7905 71.576 79.2625 71.896C78.7345 72.2 78.3185 72.632 78.0145 73.192C77.7105 73.752 77.5585 74.4 77.5585 75.136C77.5585 75.872 77.7105 76.52 78.0145 77.08C78.3185 77.624 78.7345 78.056 79.2625 78.376C79.7905 78.696 80.3985 78.856 81.0865 78.856ZM89.188 81.088V69.184H92.068V81.088H89.188ZM89.188 67.144V64.192H92.092V67.144H89.188ZM94.2739 81.088V63.808H97.1539V81.088H94.2739ZM99.3599 81.088V69.184H102.24V81.088H99.3599ZM99.3599 67.144V64.192H102.264V67.144H99.3599ZM109.774 81.376C108.654 81.376 107.646 81.104 106.75 80.56C105.87 80.016 105.174 79.272 104.662 78.328C104.166 77.368 103.918 76.296 103.918 75.112C103.918 73.912 104.166 72.848 104.662 71.92C105.174 70.976 105.87 70.24 106.75 69.712C107.646 69.168 108.662 68.896 109.798 68.896C110.71 68.896 111.51 69.072 112.198 69.424C112.886 69.776 113.43 70.264 113.83 70.888V63.808H116.71V81.088H113.83V79.336C113.462 79.864 112.95 80.336 112.294 80.752C111.638 81.168 110.798 81.376 109.774 81.376ZM110.35 78.856C111.038 78.856 111.646 78.696 112.174 78.376C112.702 78.056 113.118 77.616 113.422 77.056C113.726 76.496 113.878 75.856 113.878 75.136C113.878 74.4 113.726 73.752 113.422 73.192C113.118 72.632 112.702 72.2 112.174 71.896C111.646 71.576 111.038 71.416 110.35 71.416C109.678 71.416 109.078 71.576 108.55 71.896C108.022 72.2 107.606 72.632 107.302 73.192C106.998 73.752 106.846 74.392 106.846 75.112C106.846 75.848 106.998 76.496 107.302 77.056C107.606 77.616 108.022 78.056 108.55 78.376C109.078 78.696 109.678 78.856 110.35 78.856ZM122.633 81.376C121.721 81.376 120.945 81.216 120.305 80.896C119.665 80.56 119.177 80.12 118.841 79.576C118.505 79.032 118.337 78.44 118.337 77.8C118.337 76.552 118.785 75.584 119.681 74.896C120.593 74.208 121.785 73.864 123.257 73.864C123.929 73.864 124.521 73.92 125.033 74.032C125.561 74.128 125.985 74.224 126.305 74.32V73.768C126.305 72.888 126.057 72.24 125.561 71.824C125.081 71.408 124.449 71.2 123.665 71.2C123.089 71.2 122.577 71.32 122.129 71.56C121.681 71.784 121.393 72.2 121.265 72.808H118.529C118.625 71.944 118.913 71.224 119.393 70.648C119.873 70.072 120.481 69.64 121.217 69.352C121.969 69.048 122.785 68.896 123.665 68.896C125.409 68.896 126.761 69.328 127.721 70.192C128.697 71.04 129.185 72.232 129.185 73.768V76.672C129.185 77.28 129.217 77.728 129.281 78.016C129.361 78.288 129.481 78.464 129.641 78.544C129.817 78.608 130.041 78.64 130.313 78.64H130.433V81.088H129.785C128.969 81.088 128.281 80.976 127.721 80.752C127.177 80.512 126.793 80.048 126.569 79.36C126.169 79.936 125.641 80.416 124.985 80.8C124.329 81.184 123.545 81.376 122.633 81.376ZM123.257 79.144C123.817 79.144 124.297 79.016 124.697 78.76C125.097 78.488 125.417 78.136 125.657 77.704C125.913 77.256 126.081 76.768 126.161 76.24C125.825 76.144 125.425 76.048 124.961 75.952C124.497 75.856 124.025 75.808 123.545 75.808C122.825 75.808 122.257 75.968 121.841 76.288C121.441 76.608 121.241 77.04 121.241 77.584C121.241 78.032 121.417 78.408 121.769 78.712C122.137 79 122.633 79.144 123.257 79.144ZM137.172 81.376C136.052 81.376 135.044 81.104 134.148 80.56C133.268 80.016 132.572 79.272 132.06 78.328C131.564 77.368 131.316 76.296 131.316 75.112C131.316 73.912 131.564 72.848 132.06 71.92C132.572 70.976 133.268 70.24 134.148 69.712C135.044 69.168 136.06 68.896 137.196 68.896C138.108 68.896 138.908 69.072 139.596 69.424C140.284 69.776 140.828 70.264 141.228 70.888V63.808H144.108V81.088H141.228V79.336C140.86 79.864 140.348 80.336 139.692 80.752C139.036 81.168 138.196 81.376 137.172 81.376ZM137.748 78.856C138.436 78.856 139.044 78.696 139.572 78.376C140.1 78.056 140.516 77.616 140.82 77.056C141.124 76.496 141.276 75.856 141.276 75.136C141.276 74.4 141.124 73.752 140.82 73.192C140.516 72.632 140.1 72.2 139.572 71.896C139.044 71.576 138.436 71.416 137.748 71.416C137.076 71.416 136.476 71.576 135.948 71.896C135.42 72.2 135.004 72.632 134.7 73.192C134.396 73.752 134.244 74.392 134.244 75.112C134.244 75.848 134.396 76.496 134.7 77.056C135.004 77.616 135.42 78.056 135.948 78.376C136.476 78.696 137.076 78.856 137.748 78.856Z" fill="#08B8A2"/>
</svg>
