<svg width="195" height="83" viewBox="0 0 195 83" fill="none" xmlns="http://www.w3.org/2000/svg">
<path d="M19.3069 17.952V1.15199H26.2429C27.5709 1.15199 28.6669 1.37599 29.5309 1.82399C30.4109 2.27199 31.0589 2.88799 31.4749 3.672C31.9069 4.43999 32.1229 5.31199 32.1229 6.288C32.1229 7.088 31.9469 7.824 31.5949 8.496C31.2429 9.168 30.7549 9.728 30.1309 10.176C30.8029 10.576 31.3069 11.12 31.6429 11.808C31.9789 12.48 32.1629 13.264 32.1949 14.16L32.3869 17.952H29.5789L29.3389 14.232C29.3069 13.576 29.1869 13.04 28.9789 12.624C28.7709 12.208 28.4429 11.904 27.9949 11.712C27.5629 11.504 26.9709 11.4 26.2189 11.4H22.1869V17.952H19.3069ZM22.1869 9.072H26.0509C27.1549 9.072 27.9549 8.816 28.4509 8.304C28.9469 7.792 29.1949 7.12 29.1949 6.288C29.1949 5.424 28.9469 4.744 28.4509 4.24799C27.9549 3.75199 27.1469 3.50399 26.0269 3.50399H22.1869V9.072ZM39.6829 18.24C38.4829 18.24 37.4189 17.984 36.4909 17.472C35.5789 16.944 34.8589 16.216 34.3309 15.288C33.8189 14.36 33.5629 13.288 33.5629 12.072C33.5629 10.84 33.8189 9.752 34.3309 8.808C34.8429 7.848 35.5629 7.104 36.4909 6.57599C37.4189 6.032 38.4909 5.76 39.7069 5.76C40.8749 5.76 41.8989 6.016 42.7789 6.528C43.6749 7.04 44.3629 7.736 44.8429 8.616C45.3389 9.48 45.5869 10.456 45.5869 11.544C45.5869 11.704 45.5869 11.88 45.5869 12.072C45.5869 12.264 45.5709 12.472 45.5389 12.696H35.6509V10.824H42.6829C42.6349 9.992 42.3309 9.336 41.7709 8.856C41.2109 8.36 40.5229 8.112 39.7069 8.112C39.1149 8.112 38.5629 8.248 38.0509 8.52C37.5549 8.776 37.1549 9.168 36.8509 9.696C36.5469 10.208 36.3949 10.864 36.3949 11.664V12.36C36.3949 13.096 36.5389 13.728 36.8269 14.256C37.1309 14.784 37.5309 15.184 38.0269 15.456C38.5229 15.728 39.0749 15.864 39.6829 15.864C40.3389 15.864 40.8909 15.72 41.3389 15.432C41.7869 15.128 42.1149 14.728 42.3229 14.232H45.2509C45.0429 15 44.6749 15.688 44.1469 16.296C43.6349 16.888 43.0029 17.36 42.2509 17.712C41.4989 18.064 40.6429 18.24 39.6829 18.24ZM51.5957 18.24C50.0597 18.24 48.7877 17.88 47.7797 17.16C46.7717 16.44 46.1957 15.448 46.0517 14.184H49.0037C49.1157 14.744 49.4117 15.192 49.8917 15.528C50.3877 15.848 50.9877 16.008 51.6917 16.008C52.4117 16.008 52.9637 15.872 53.3477 15.6C53.7477 15.312 53.9477 14.96 53.9477 14.544C53.9477 14.208 53.8117 13.952 53.5397 13.776C53.2837 13.584 52.8197 13.44 52.1477 13.344C51.8917 13.296 51.5717 13.248 51.1877 13.2C50.8197 13.136 50.4997 13.072 50.2277 13.008C49.6037 12.896 49.0197 12.704 48.4757 12.432C47.9317 12.144 47.4917 11.76 47.1557 11.28C46.8357 10.8 46.6757 10.208 46.6757 9.504C46.6757 8.448 47.0677 7.56 47.8517 6.84C48.6517 6.12 49.7877 5.76 51.2597 5.76C52.7317 5.76 53.9077 6.088 54.7877 6.744C55.6677 7.384 56.1717 8.328 56.2997 9.576H53.4917C53.4437 9.048 53.2037 8.656 52.7717 8.4C52.3557 8.144 51.8517 8.016 51.2597 8.016C50.6197 8.016 50.1237 8.144 49.7717 8.4C49.4197 8.64 49.2437 8.944 49.2437 9.312C49.2437 9.968 49.7957 10.392 50.8997 10.584C51.0597 10.616 51.2597 10.656 51.4997 10.704C51.7557 10.736 52.0117 10.776 52.2677 10.824C52.5237 10.856 52.7397 10.888 52.9157 10.92C53.3477 10.968 53.7797 11.064 54.2117 11.208C54.6597 11.352 55.0677 11.552 55.4357 11.808C55.8037 12.048 56.0917 12.368 56.2997 12.768C56.5237 13.168 56.6357 13.672 56.6357 14.28C56.6357 15.064 56.4357 15.752 56.0357 16.344C55.6517 16.936 55.0837 17.4 54.3317 17.736C53.5797 18.072 52.6677 18.24 51.5957 18.24ZM58.4413 23.232V6.048H61.3213V7.8C61.7053 7.256 62.2253 6.784 62.8813 6.384C63.5373 5.968 64.3693 5.76 65.3773 5.76C66.5133 5.76 67.5213 6.032 68.4013 6.57599C69.2813 7.12 69.9693 7.864 70.4653 8.808C70.9773 9.752 71.2333 10.824 71.2333 12.024C71.2333 13.208 70.9773 14.272 70.4653 15.216C69.9693 16.16 69.2813 16.904 68.4013 17.448C67.5213 17.976 66.5133 18.24 65.3773 18.24C64.4653 18.24 63.6653 18.064 62.9773 17.712C62.2893 17.36 61.7373 16.872 61.3213 16.248V23.232H58.4413ZM64.8013 15.72C65.4893 15.72 66.0973 15.56 66.6253 15.24C67.1533 14.92 67.5613 14.488 67.8493 13.944C68.1533 13.384 68.3053 12.744 68.3053 12.024C68.3053 11.288 68.1533 10.64 67.8493 10.08C67.5613 9.504 67.1533 9.064 66.6253 8.76C66.0973 8.44 65.4893 8.28 64.8013 8.28C64.1133 8.28 63.5053 8.44 62.9773 8.76C62.4493 9.064 62.0333 9.496 61.7293 10.056C61.4253 10.616 61.2733 11.264 61.2733 12C61.2733 12.736 61.4253 13.384 61.7293 13.944C62.0333 14.488 62.4493 14.92 62.9773 15.24C63.5053 15.56 64.1133 15.72 64.8013 15.72ZM77.0788 18.24C75.7348 18.24 74.6628 17.784 73.8628 16.872C73.0788 15.944 72.6868 14.592 72.6868 12.816V6.048H75.5428V12.528C75.5428 13.6 75.7508 14.416 76.1668 14.976C76.5828 15.52 77.1828 15.792 77.9668 15.792C78.8468 15.792 79.5348 15.48 80.0308 14.856C80.5428 14.232 80.7988 13.344 80.7988 12.192V6.048H83.6788V17.952H80.7988V16.152C80.4468 16.808 79.9588 17.32 79.3348 17.688C78.7108 18.056 77.9588 18.24 77.0788 18.24ZM91.4329 18.24C90.2329 18.24 89.1689 17.984 88.2409 17.472C87.3289 16.944 86.6089 16.216 86.0809 15.288C85.5689 14.36 85.3129 13.288 85.3129 12.072C85.3129 10.84 85.5689 9.752 86.0809 8.808C86.5929 7.848 87.3129 7.104 88.2409 6.57599C89.1689 6.032 90.2409 5.76 91.4569 5.76C92.6249 5.76 93.6489 6.016 94.5289 6.528C95.4249 7.04 96.1129 7.736 96.5929 8.616C97.0889 9.48 97.3369 10.456 97.3369 11.544C97.3369 11.704 97.3369 11.88 97.3369 12.072C97.3369 12.264 97.3209 12.472 97.2889 12.696H87.4009V10.824H94.4329C94.3849 9.992 94.0809 9.336 93.5209 8.856C92.9609 8.36 92.2729 8.112 91.4569 8.112C90.8649 8.112 90.3129 8.248 89.8009 8.52C89.3049 8.776 88.9049 9.168 88.6009 9.696C88.2969 10.208 88.1449 10.864 88.1449 11.664V12.36C88.1449 13.096 88.2889 13.728 88.5769 14.256C88.8809 14.784 89.2809 15.184 89.7769 15.456C90.2729 15.728 90.8249 15.864 91.4329 15.864C92.0889 15.864 92.6409 15.72 93.0889 15.432C93.5369 15.128 93.8649 14.728 94.0729 14.232H97.0009C96.7929 15 96.4249 15.688 95.8969 16.296C95.3849 16.888 94.7529 17.36 94.0009 17.712C93.2489 18.064 92.3929 18.24 91.4329 18.24ZM103.346 18.24C101.81 18.24 100.538 17.88 99.5297 17.16C98.5217 16.44 97.9457 15.448 97.8017 14.184H100.754C100.866 14.744 101.162 15.192 101.642 15.528C102.138 15.848 102.738 16.008 103.442 16.008C104.162 16.008 104.714 15.872 105.098 15.6C105.498 15.312 105.698 14.96 105.698 14.544C105.698 14.208 105.562 13.952 105.29 13.776C105.034 13.584 104.57 13.44 103.898 13.344C103.642 13.296 103.322 13.248 102.938 13.2C102.57 13.136 102.25 13.072 101.978 13.008C101.354 12.896 100.77 12.704 100.226 12.432C99.6817 12.144 99.2417 11.76 98.9057 11.28C98.5857 10.8 98.4257 10.208 98.4257 9.504C98.4257 8.448 98.8177 7.56 99.6017 6.84C100.402 6.12 101.538 5.76 103.01 5.76C104.482 5.76 105.658 6.088 106.538 6.744C107.418 7.384 107.922 8.328 108.05 9.576H105.242C105.194 9.048 104.954 8.656 104.522 8.4C104.106 8.144 103.602 8.016 103.01 8.016C102.37 8.016 101.874 8.144 101.522 8.4C101.17 8.64 100.994 8.944 100.994 9.312C100.994 9.968 101.546 10.392 102.65 10.584C102.81 10.616 103.01 10.656 103.25 10.704C103.506 10.736 103.762 10.776 104.018 10.824C104.274 10.856 104.49 10.888 104.666 10.92C105.098 10.968 105.53 11.064 105.962 11.208C106.41 11.352 106.818 11.552 107.186 11.808C107.554 12.048 107.842 12.368 108.05 12.768C108.274 13.168 108.386 13.672 108.386 14.28C108.386 15.064 108.186 15.752 107.786 16.344C107.402 16.936 106.834 17.4 106.082 17.736C105.33 18.072 104.418 18.24 103.346 18.24ZM114.566 17.952C113.798 17.952 113.15 17.864 112.622 17.688C112.094 17.496 111.694 17.144 111.422 16.632C111.15 16.12 111.014 15.376 111.014 14.4V8.472H108.974V6.048H111.014V2.92799H113.894V6.048H117.014V8.472H113.894V14.016C113.894 14.448 113.934 14.768 114.014 14.976C114.11 15.184 114.27 15.328 114.494 15.408C114.718 15.472 115.046 15.504 115.478 15.504H116.894V17.952H114.566ZM122.098 18.24C121.186 18.24 120.41 18.08 119.77 17.76C119.13 17.424 118.642 16.984 118.306 16.44C117.97 15.896 117.802 15.304 117.802 14.664C117.802 13.416 118.25 12.448 119.146 11.76C120.058 11.072 121.25 10.728 122.722 10.728C123.394 10.728 123.986 10.784 124.498 10.896C125.026 10.992 125.45 11.088 125.77 11.184V10.632C125.77 9.752 125.522 9.104 125.026 8.688C124.546 8.272 123.914 8.064 123.13 8.064C122.554 8.064 122.042 8.184 121.594 8.424C121.146 8.648 120.858 9.064 120.73 9.672H117.994C118.09 8.808 118.378 8.088 118.858 7.512C119.338 6.936 119.946 6.504 120.682 6.216C121.434 5.912 122.25 5.76 123.13 5.76C124.874 5.76 126.226 6.192 127.186 7.056C128.162 7.904 128.65 9.096 128.65 10.632V13.536C128.65 14.144 128.682 14.592 128.746 14.88C128.826 15.152 128.946 15.328 129.106 15.408C129.282 15.472 129.506 15.504 129.778 15.504H129.898V17.952H129.25C128.434 17.952 127.746 17.84 127.186 17.616C126.642 17.376 126.258 16.912 126.034 16.224C125.634 16.8 125.106 17.28 124.45 17.664C123.794 18.048 123.01 18.24 122.098 18.24ZM122.722 16.008C123.282 16.008 123.762 15.88 124.162 15.624C124.562 15.352 124.882 15 125.122 14.568C125.378 14.12 125.546 13.632 125.626 13.104C125.29 13.008 124.89 12.912 124.426 12.816C123.962 12.72 123.49 12.672 123.01 12.672C122.29 12.672 121.722 12.832 121.306 13.152C120.906 13.472 120.706 13.904 120.706 14.448C120.706 14.896 120.882 15.272 121.234 15.576C121.602 15.864 122.098 16.008 122.722 16.008ZM142.77 18.24C141.858 18.24 141.082 18.08 140.442 17.76C139.802 17.424 139.314 16.984 138.978 16.44C138.642 15.896 138.474 15.304 138.474 14.664C138.474 13.416 138.922 12.448 139.818 11.76C140.73 11.072 141.922 10.728 143.394 10.728C144.066 10.728 144.658 10.784 145.17 10.896C145.698 10.992 146.122 11.088 146.442 11.184V10.632C146.442 9.752 146.194 9.104 145.698 8.688C145.218 8.272 144.586 8.064 143.802 8.064C143.226 8.064 142.714 8.184 142.266 8.424C141.818 8.648 141.53 9.064 141.402 9.672H138.666C138.762 8.808 139.05 8.088 139.53 7.512C140.01 6.936 140.618 6.504 141.354 6.216C142.106 5.912 142.922 5.76 143.802 5.76C145.546 5.76 146.898 6.192 147.858 7.056C148.834 7.904 149.322 9.096 149.322 10.632V13.536C149.322 14.144 149.354 14.592 149.418 14.88C149.498 15.152 149.618 15.328 149.778 15.408C149.954 15.472 150.178 15.504 150.45 15.504H150.57V17.952H149.922C149.106 17.952 148.418 17.84 147.858 17.616C147.314 17.376 146.93 16.912 146.706 16.224C146.306 16.8 145.778 17.28 145.122 17.664C144.466 18.048 143.682 18.24 142.77 18.24ZM143.394 16.008C143.954 16.008 144.434 15.88 144.834 15.624C145.234 15.352 145.554 15 145.794 14.568C146.05 14.12 146.218 13.632 146.298 13.104C145.962 13.008 145.562 12.912 145.098 12.816C144.634 12.72 144.162 12.672 143.682 12.672C142.962 12.672 142.394 12.832 141.978 13.152C141.578 13.472 141.378 13.904 141.378 14.448C141.378 14.896 141.554 15.272 141.906 15.576C142.274 15.864 142.77 16.008 143.394 16.008ZM143.322 4.60799L145.53 -4.76837e-06H148.29L145.362 4.60799H143.322ZM158.458 23.52C157.434 23.52 156.466 23.352 155.554 23.016C154.642 22.68 153.874 22.16 153.25 21.456C152.626 20.752 152.242 19.856 152.098 18.768H154.954C155.13 19.456 155.53 20 156.154 20.4C156.778 20.816 157.53 21.024 158.41 21.024C159.034 21.024 159.61 20.888 160.138 20.616C160.682 20.36 161.106 19.96 161.41 19.416C161.73 18.872 161.89 18.184 161.89 17.352V15.816C161.65 16.216 161.338 16.584 160.954 16.92C160.57 17.256 160.106 17.528 159.562 17.736C159.018 17.944 158.394 18.048 157.69 18.048C156.57 18.048 155.554 17.784 154.642 17.256C153.746 16.712 153.034 15.976 152.506 15.048C151.978 14.104 151.714 13.048 151.714 11.88C151.714 10.728 151.978 9.688 152.506 8.76C153.034 7.832 153.746 7.104 154.642 6.57599C155.554 6.032 156.578 5.76 157.714 5.76C158.658 5.76 159.49 5.96 160.21 6.36C160.93 6.744 161.49 7.232 161.89 7.824V6.048H164.77V17.232C164.77 18.592 164.482 19.736 163.906 20.664C163.346 21.608 162.586 22.32 161.626 22.8C160.682 23.28 159.626 23.52 158.458 23.52ZM158.266 15.552C158.97 15.552 159.586 15.392 160.114 15.072C160.658 14.752 161.082 14.32 161.386 13.776C161.706 13.216 161.866 12.592 161.866 11.904C161.866 11.2 161.706 10.576 161.386 10.032C161.082 9.488 160.658 9.064 160.114 8.76C159.586 8.44 158.97 8.28 158.266 8.28C157.562 8.28 156.938 8.44 156.394 8.76C155.85 9.064 155.426 9.488 155.122 10.032C154.818 10.56 154.666 11.176 154.666 11.88C154.666 12.584 154.818 13.216 155.122 13.776C155.426 14.32 155.85 14.752 156.394 15.072C156.938 15.392 157.562 15.552 158.266 15.552ZM166.981 17.952V6.048H169.861V17.952H166.981ZM166.981 4.008V1.05599H169.885V4.008H166.981ZM172.067 17.952V0.671995H174.947V17.952H172.067ZM-7.80821e-05 55.232V38.048H2.87992V39.8C3.26392 39.256 3.78392 38.784 4.43992 38.384C5.09592 37.968 5.92792 37.76 6.93592 37.76C8.07192 37.76 9.07992 38.032 9.95992 38.576C10.8399 39.12 11.5279 39.864 12.0239 40.808C12.5359 41.752 12.7919 42.824 12.7919 44.024C12.7919 45.208 12.5359 46.272 12.0239 47.216C11.5279 48.16 10.8399 48.904 9.95992 49.448C9.07992 49.976 8.07192 50.24 6.93592 50.24C6.02392 50.24 5.22392 50.064 4.53592 49.712C3.84792 49.36 3.29592 48.872 2.87992 48.248V55.232H-7.80821e-05ZM6.35992 47.72C7.04792 47.72 7.65592 47.56 8.18392 47.24C8.71192 46.92 9.11992 46.488 9.40792 45.944C9.71192 45.384 9.86392 44.744 9.86392 44.024C9.86392 43.288 9.71192 42.64 9.40792 42.08C9.11992 41.504 8.71192 41.064 8.18392 40.76C7.65592 40.44 7.04792 40.28 6.35992 40.28C5.67192 40.28 5.06392 40.44 4.53592 40.76C4.00792 41.064 3.59192 41.496 3.28792 42.056C2.98392 42.616 2.83192 43.264 2.83192 44C2.83192 44.736 2.98392 45.384 3.28792 45.944C3.59192 46.488 4.00792 46.92 4.53592 47.24C5.06392 47.56 5.67192 47.72 6.35992 47.72ZM18.211 50.24C17.299 50.24 16.523 50.08 15.883 49.76C15.243 49.424 14.755 48.984 14.419 48.44C14.083 47.896 13.915 47.304 13.915 46.664C13.915 45.416 14.363 44.448 15.259 43.76C16.171 43.072 17.363 42.728 18.835 42.728C19.507 42.728 20.099 42.784 20.611 42.896C21.139 42.992 21.563 43.088 21.883 43.184V42.632C21.883 41.752 21.635 41.104 21.139 40.688C20.659 40.272 20.027 40.064 19.243 40.064C18.667 40.064 18.155 40.184 17.707 40.424C17.259 40.648 16.971 41.064 16.843 41.672H14.107C14.203 40.808 14.491 40.088 14.971 39.512C15.451 38.936 16.059 38.504 16.795 38.216C17.547 37.912 18.363 37.76 19.243 37.76C20.987 37.76 22.339 38.192 23.299 39.056C24.275 39.904 24.763 41.096 24.763 42.632V45.536C24.763 46.144 24.795 46.592 24.859 46.88C24.939 47.152 25.059 47.328 25.219 47.408C25.395 47.472 25.619 47.504 25.891 47.504H26.011V49.952H25.363C24.547 49.952 23.859 49.84 23.299 49.616C22.755 49.376 22.371 48.912 22.147 48.224C21.747 48.8 21.219 49.28 20.563 49.664C19.907 50.048 19.123 50.24 18.211 50.24ZM18.835 48.008C19.395 48.008 19.875 47.88 20.275 47.624C20.675 47.352 20.995 47 21.235 46.568C21.491 46.12 21.659 45.632 21.739 45.104C21.403 45.008 21.003 44.912 20.539 44.816C20.075 44.72 19.603 44.672 19.123 44.672C18.403 44.672 17.835 44.832 17.419 45.152C17.019 45.472 16.819 45.904 16.819 46.448C16.819 46.896 16.995 47.272 17.347 47.576C17.715 47.864 18.211 48.008 18.835 48.008ZM27.7499 49.952V38.048H30.6299V39.872C30.9339 39.28 31.3259 38.816 31.8059 38.48C32.2859 38.128 32.8379 37.952 33.4619 37.952H35.0699V40.52H33.1739C32.6139 40.52 32.1419 40.672 31.7579 40.976C31.3899 41.264 31.1099 41.72 30.9179 42.344C30.7259 42.952 30.6299 43.72 30.6299 44.648V49.952H27.7499ZM40.3595 50.24C39.4475 50.24 38.6715 50.08 38.0315 49.76C37.3915 49.424 36.9035 48.984 36.5675 48.44C36.2315 47.896 36.0635 47.304 36.0635 46.664C36.0635 45.416 36.5115 44.448 37.4075 43.76C38.3195 43.072 39.5115 42.728 40.9835 42.728C41.6555 42.728 42.2475 42.784 42.7595 42.896C43.2875 42.992 43.7115 43.088 44.0315 43.184V42.632C44.0315 41.752 43.7835 41.104 43.2875 40.688C42.8075 40.272 42.1755 40.064 41.3915 40.064C40.8155 40.064 40.3035 40.184 39.8555 40.424C39.4075 40.648 39.1195 41.064 38.9915 41.672H36.2555C36.3515 40.808 36.6395 40.088 37.1195 39.512C37.5995 38.936 38.2075 38.504 38.9435 38.216C39.6955 37.912 40.5115 37.76 41.3915 37.76C43.1355 37.76 44.4875 38.192 45.4475 39.056C46.4235 39.904 46.9115 41.096 46.9115 42.632V45.536C46.9115 46.144 46.9435 46.592 47.0075 46.88C47.0875 47.152 47.2075 47.328 47.3675 47.408C47.5435 47.472 47.7675 47.504 48.0395 47.504H48.1595V49.952H47.5115C46.6955 49.952 46.0075 49.84 45.4475 49.616C44.9035 49.376 44.5195 48.912 44.2955 48.224C43.8955 48.8 43.3675 49.28 42.7115 49.664C42.0555 50.048 41.2715 50.24 40.3595 50.24ZM40.9835 48.008C41.5435 48.008 42.0235 47.88 42.4235 47.624C42.8235 47.352 43.1435 47 43.3835 46.568C43.6395 46.12 43.8075 45.632 43.8875 45.104C43.5515 45.008 43.1515 44.912 42.6875 44.816C42.2235 44.72 41.7515 44.672 41.2715 44.672C40.5515 44.672 39.9835 44.832 39.5675 45.152C39.1675 45.472 38.9675 45.904 38.9675 46.448C38.9675 46.896 39.1435 47.272 39.4955 47.576C39.8635 47.864 40.3595 48.008 40.9835 48.008ZM57.0234 49.952V38.048H59.9034V39.872C60.2074 39.28 60.5994 38.816 61.0794 38.48C61.5594 38.128 62.1114 37.952 62.7354 37.952H64.3434V40.52H62.4474C61.8874 40.52 61.4154 40.672 61.0314 40.976C60.6634 41.264 60.3834 41.72 60.1914 42.344C59.9994 42.952 59.9034 43.72 59.9034 44.648V49.952H57.0234ZM70.8007 50.24C69.6167 50.24 68.5447 49.984 67.5847 49.472C66.6407 48.944 65.8887 48.208 65.3287 47.264C64.7687 46.32 64.4887 45.232 64.4887 44C64.4887 42.752 64.7687 41.664 65.3287 40.736C65.8887 39.792 66.6487 39.064 67.6087 38.552C68.5687 38.024 69.6327 37.76 70.8007 37.76C72.0007 37.76 73.0727 38.024 74.0167 38.552C74.9607 39.064 75.7127 39.792 76.2727 40.736C76.8327 41.664 77.1127 42.752 77.1127 44C77.1127 45.232 76.8327 46.32 76.2727 47.264C75.7127 48.208 74.9527 48.944 73.9927 49.472C73.0487 49.984 71.9847 50.24 70.8007 50.24ZM70.8007 47.744C71.4087 47.744 71.9607 47.608 72.4567 47.336C72.9687 47.048 73.3767 46.632 73.6807 46.088C73.9847 45.528 74.1367 44.832 74.1367 44C74.1367 43.168 73.9847 42.48 73.6807 41.936C73.3767 41.376 72.9687 40.96 72.4567 40.688C71.9607 40.4 71.4167 40.256 70.8247 40.256C70.2167 40.256 69.6567 40.4 69.1447 40.688C68.6327 40.96 68.2247 41.376 67.9207 41.936C67.6167 42.48 67.4647 43.168 67.4647 44C67.4647 44.832 67.6167 45.528 67.9207 46.088C68.2247 46.632 68.6247 47.048 69.1207 47.336C69.6327 47.608 70.1927 47.744 70.8007 47.744ZM78.8208 49.952V32.672H81.7008V49.952H78.8208ZM89.5227 50.24C88.3227 50.24 87.2587 49.984 86.3307 49.472C85.4187 48.944 84.6987 48.216 84.1707 47.288C83.6587 46.36 83.4027 45.288 83.4027 44.072C83.4027 42.84 83.6587 41.752 84.1707 40.808C84.6827 39.848 85.4027 39.104 86.3307 38.576C87.2587 38.032 88.3307 37.76 89.5467 37.76C90.7147 37.76 91.7387 38.016 92.6187 38.528C93.5147 39.04 94.2027 39.736 94.6827 40.616C95.1787 41.48 95.4267 42.456 95.4267 43.544C95.4267 43.704 95.4267 43.88 95.4267 44.072C95.4267 44.264 95.4107 44.472 95.3787 44.696H85.4907V42.824H92.5227C92.4747 41.992 92.1707 41.336 91.6107 40.856C91.0507 40.36 90.3627 40.112 89.5467 40.112C88.9547 40.112 88.4027 40.248 87.8907 40.52C87.3947 40.776 86.9947 41.168 86.6907 41.696C86.3867 42.208 86.2347 42.864 86.2347 43.664V44.36C86.2347 45.096 86.3787 45.728 86.6667 46.256C86.9707 46.784 87.3707 47.184 87.8667 47.456C88.3627 47.728 88.9147 47.864 89.5227 47.864C90.1787 47.864 90.7307 47.72 91.1787 47.432C91.6267 47.128 91.9547 46.728 92.1627 46.232H95.0907C94.8827 47 94.5147 47.688 93.9867 48.296C93.4747 48.888 92.8427 49.36 92.0907 49.712C91.3387 50.064 90.4827 50.24 89.5227 50.24ZM101.436 50.24C99.8995 50.24 98.6275 49.88 97.6195 49.16C96.6115 48.44 96.0355 47.448 95.8915 46.184H98.8435C98.9555 46.744 99.2515 47.192 99.7315 47.528C100.228 47.848 100.828 48.008 101.532 48.008C102.252 48.008 102.804 47.872 103.188 47.6C103.588 47.312 103.788 46.96 103.788 46.544C103.788 46.208 103.652 45.952 103.38 45.776C103.124 45.584 102.66 45.44 101.988 45.344C101.732 45.296 101.412 45.248 101.028 45.2C100.66 45.136 100.34 45.072 100.068 45.008C99.4435 44.896 98.8595 44.704 98.3155 44.432C97.7715 44.144 97.3315 43.76 96.9955 43.28C96.6755 42.8 96.5155 42.208 96.5155 41.504C96.5155 40.448 96.9075 39.56 97.6915 38.84C98.4915 38.12 99.6275 37.76 101.1 37.76C102.572 37.76 103.748 38.088 104.628 38.744C105.508 39.384 106.012 40.328 106.14 41.576H103.332C103.284 41.048 103.044 40.656 102.612 40.4C102.196 40.144 101.692 40.016 101.1 40.016C100.46 40.016 99.9635 40.144 99.6115 40.4C99.2595 40.64 99.0835 40.944 99.0835 41.312C99.0835 41.968 99.6355 42.392 100.74 42.584C100.9 42.616 101.1 42.656 101.34 42.704C101.596 42.736 101.852 42.776 102.108 42.824C102.364 42.856 102.58 42.888 102.756 42.92C103.188 42.968 103.62 43.064 104.052 43.208C104.5 43.352 104.908 43.552 105.276 43.808C105.644 44.048 105.932 44.368 106.14 44.768C106.364 45.168 106.476 45.672 106.476 46.28C106.476 47.064 106.276 47.752 105.876 48.344C105.492 48.936 104.924 49.4 104.172 49.736C103.42 50.072 102.508 50.24 101.436 50.24ZM121.11 50.24C119.99 50.24 118.982 49.968 118.086 49.424C117.206 48.88 116.51 48.136 115.998 47.192C115.502 46.232 115.254 45.16 115.254 43.976C115.254 42.776 115.502 41.712 115.998 40.784C116.51 39.84 117.206 39.104 118.086 38.576C118.982 38.032 119.998 37.76 121.134 37.76C122.046 37.76 122.846 37.936 123.534 38.288C124.222 38.64 124.766 39.128 125.166 39.752V32.672H128.046V49.952H125.166V48.2C124.798 48.728 124.286 49.2 123.63 49.616C122.974 50.032 122.134 50.24 121.11 50.24ZM121.686 47.72C122.374 47.72 122.982 47.56 123.51 47.24C124.038 46.92 124.454 46.48 124.758 45.92C125.062 45.36 125.214 44.72 125.214 44C125.214 43.264 125.062 42.616 124.758 42.056C124.454 41.496 124.038 41.064 123.51 40.76C122.982 40.44 122.374 40.28 121.686 40.28C121.014 40.28 120.414 40.44 119.886 40.76C119.358 41.064 118.942 41.496 118.638 42.056C118.334 42.616 118.182 43.256 118.182 43.976C118.182 44.712 118.334 45.36 118.638 45.92C118.942 46.48 119.358 46.92 119.886 47.24C120.414 47.56 121.014 47.72 121.686 47.72ZM130.219 49.952V38.048H133.099V49.952H130.219ZM130.219 36.008V33.056H133.123V36.008H130.219ZM136.169 49.952V36.392C136.169 35.336 136.289 34.544 136.529 34.016C136.785 33.472 137.193 33.112 137.753 32.936C138.313 32.76 139.057 32.672 139.985 32.672H141.401V35.12H140.537C139.929 35.12 139.529 35.216 139.337 35.408C139.145 35.584 139.049 35.968 139.049 36.56V49.952H136.169ZM134.489 40.472V38.048H141.401V40.472H134.489ZM143.297 49.952V38.048H146.177V49.952H143.297ZM143.993 36.368L145.337 32H148.097L146.081 36.368H143.993ZM154 50.24C152.8 50.24 151.736 49.976 150.808 49.448C149.88 48.92 149.152 48.192 148.624 47.264C148.096 46.32 147.832 45.232 147.832 44C147.832 42.768 148.096 41.688 148.624 40.76C149.152 39.816 149.88 39.08 150.808 38.552C151.736 38.024 152.8 37.76 154 37.76C155.488 37.76 156.744 38.152 157.768 38.936C158.792 39.72 159.448 40.792 159.736 42.152H156.736C156.576 41.544 156.248 41.072 155.752 40.736C155.256 40.4 154.664 40.232 153.976 40.232C153.4 40.232 152.864 40.384 152.368 40.688C151.888 40.976 151.504 41.4 151.216 41.96C150.928 42.504 150.784 43.184 150.784 44C150.784 44.8 150.928 45.488 151.216 46.064C151.504 46.624 151.888 47.056 152.368 47.36C152.864 47.648 153.4 47.792 153.976 47.792C154.664 47.792 155.256 47.624 155.752 47.288C156.248 46.952 156.576 46.472 156.736 45.848H159.736C159.464 47.16 158.808 48.224 157.768 49.04C156.744 49.84 155.488 50.24 154 50.24ZM161.508 49.952V38.048H164.388V49.952H161.508ZM161.508 36.008V33.056H164.412V36.008H161.508ZM166.594 49.952V32.672H169.474V49.952H166.594ZM177.296 50.24C176.096 50.24 175.032 49.984 174.104 49.472C173.192 48.944 172.472 48.216 171.944 47.288C171.432 46.36 171.176 45.288 171.176 44.072C171.176 42.84 171.432 41.752 171.944 40.808C172.456 39.848 173.176 39.104 174.104 38.576C175.032 38.032 176.104 37.76 177.32 37.76C178.488 37.76 179.512 38.016 180.392 38.528C181.288 39.04 181.976 39.736 182.456 40.616C182.952 41.48 183.2 42.456 183.2 43.544C183.2 43.704 183.2 43.88 183.2 44.072C183.2 44.264 183.184 44.472 183.152 44.696H173.264V42.824H180.296C180.248 41.992 179.944 41.336 179.384 40.856C178.824 40.36 178.136 40.112 177.32 40.112C176.728 40.112 176.176 40.248 175.664 40.52C175.168 40.776 174.768 41.168 174.464 41.696C174.16 42.208 174.008 42.864 174.008 43.664V44.36C174.008 45.096 174.152 45.728 174.44 46.256C174.744 46.784 175.144 47.184 175.64 47.456C176.136 47.728 176.688 47.864 177.296 47.864C177.952 47.864 178.504 47.72 178.952 47.432C179.4 47.128 179.728 46.728 179.936 46.232H182.864C182.656 47 182.288 47.688 181.76 48.296C181.248 48.888 180.616 49.36 179.864 49.712C179.112 50.064 178.256 50.24 177.296 50.24ZM189.209 50.24C187.673 50.24 186.401 49.88 185.393 49.16C184.385 48.44 183.809 47.448 183.665 46.184H186.617C186.729 46.744 187.025 47.192 187.505 47.528C188.001 47.848 188.601 48.008 189.305 48.008C190.025 48.008 190.577 47.872 190.961 47.6C191.361 47.312 191.561 46.96 191.561 46.544C191.561 46.208 191.425 45.952 191.153 45.776C190.897 45.584 190.433 45.44 189.761 45.344C189.505 45.296 189.185 45.248 188.801 45.2C188.433 45.136 188.113 45.072 187.841 45.008C187.217 44.896 186.633 44.704 186.089 44.432C185.545 44.144 185.105 43.76 184.769 43.28C184.449 42.8 184.289 42.208 184.289 41.504C184.289 40.448 184.681 39.56 185.465 38.84C186.265 38.12 187.401 37.76 188.873 37.76C190.345 37.76 191.521 38.088 192.401 38.744C193.281 39.384 193.785 40.328 193.913 41.576H191.105C191.057 41.048 190.817 40.656 190.385 40.4C189.969 40.144 189.465 40.016 188.873 40.016C188.233 40.016 187.737 40.144 187.385 40.4C187.033 40.64 186.857 40.944 186.857 41.312C186.857 41.968 187.409 42.392 188.513 42.584C188.673 42.616 188.873 42.656 189.113 42.704C189.369 42.736 189.625 42.776 189.881 42.824C190.137 42.856 190.353 42.888 190.529 42.92C190.961 42.968 191.393 43.064 191.825 43.208C192.273 43.352 192.681 43.552 193.049 43.808C193.417 44.048 193.705 44.368 193.913 44.768C194.137 45.168 194.249 45.672 194.249 46.28C194.249 47.064 194.049 47.752 193.649 48.344C193.265 48.936 192.697 49.4 191.945 49.736C191.193 50.072 190.281 50.24 189.209 50.24ZM53.9261 82.24C52.8061 82.24 51.7981 81.968 50.9021 81.424C50.0221 80.88 49.3261 80.136 48.8141 79.192C48.3181 78.232 48.0701 77.16 48.0701 75.976C48.0701 74.776 48.3181 73.712 48.8141 72.784C49.3261 71.84 50.0221 71.104 50.9021 70.576C51.7981 70.032 52.8141 69.76 53.9501 69.76C54.8621 69.76 55.6621 69.936 56.3501 70.288C57.0381 70.64 57.5821 71.128 57.9821 71.752V64.672H60.8621V81.952H57.9821V80.2C57.6141 80.728 57.1021 81.2 56.4461 81.616C55.7901 82.032 54.9501 82.24 53.9261 82.24ZM54.5021 79.72C55.1901 79.72 55.7981 79.56 56.3261 79.24C56.8541 78.92 57.2701 78.48 57.5741 77.92C57.8781 77.36 58.0301 76.72 58.0301 76C58.0301 75.264 57.8781 74.616 57.5741 74.056C57.2701 73.496 56.8541 73.064 56.3261 72.76C55.7981 72.44 55.1901 72.28 54.5021 72.28C53.8301 72.28 53.2301 72.44 52.7021 72.76C52.1741 73.064 51.7581 73.496 51.4541 74.056C51.1501 74.616 50.9981 75.256 50.9981 75.976C50.9981 76.712 51.1501 77.36 51.4541 77.92C51.7581 78.48 52.1741 78.92 52.7021 79.24C53.2301 79.56 53.8301 79.72 54.5021 79.72ZM68.6516 82.24C67.4516 82.24 66.3876 81.984 65.4596 81.472C64.5476 80.944 63.8276 80.216 63.2996 79.288C62.7876 78.36 62.5316 77.288 62.5316 76.072C62.5316 74.84 62.7876 73.752 63.2996 72.808C63.8116 71.848 64.5316 71.104 65.4596 70.576C66.3876 70.032 67.4596 69.76 68.6756 69.76C69.8436 69.76 70.8676 70.016 71.7476 70.528C72.6436 71.04 73.3316 71.736 73.8116 72.616C74.3076 73.48 74.5556 74.456 74.5556 75.544C74.5556 75.704 74.5556 75.88 74.5556 76.072C74.5556 76.264 74.5396 76.472 74.5076 76.696H64.6196V74.824H71.6516C71.6036 73.992 71.2996 73.336 70.7396 72.856C70.1796 72.36 69.4916 72.112 68.6756 72.112C68.0836 72.112 67.5316 72.248 67.0196 72.52C66.5236 72.776 66.1236 73.168 65.8196 73.696C65.5156 74.208 65.3636 74.864 65.3636 75.664V76.36C65.3636 77.096 65.5076 77.728 65.7956 78.256C66.0996 78.784 66.4996 79.184 66.9956 79.456C67.4916 79.728 68.0436 79.864 68.6516 79.864C69.3076 79.864 69.8596 79.72 70.3076 79.432C70.7556 79.128 71.0836 78.728 71.2916 78.232H74.2196C74.0116 79 73.6436 79.688 73.1156 80.296C72.6036 80.888 71.9716 81.36 71.2196 81.712C70.4676 82.064 69.6116 82.24 68.6516 82.24ZM89.3944 82.24C88.1944 82.24 87.1304 81.976 86.2024 81.448C85.2744 80.92 84.5464 80.192 84.0184 79.264C83.4904 78.32 83.2264 77.232 83.2264 76C83.2264 74.768 83.4904 73.688 84.0184 72.76C84.5464 71.816 85.2744 71.08 86.2024 70.552C87.1304 70.024 88.1944 69.76 89.3944 69.76C90.8824 69.76 92.1384 70.152 93.1624 70.936C94.1864 71.72 94.8424 72.792 95.1304 74.152H92.1304C91.9704 73.544 91.6424 73.072 91.1464 72.736C90.6504 72.4 90.0584 72.232 89.3704 72.232C88.7944 72.232 88.2584 72.384 87.7624 72.688C87.2824 72.976 86.8984 73.4 86.6104 73.96C86.3224 74.504 86.1784 75.184 86.1784 76C86.1784 76.8 86.3224 77.488 86.6104 78.064C86.8984 78.624 87.2824 79.056 87.7624 79.36C88.2584 79.648 88.7944 79.792 89.3704 79.792C90.0584 79.792 90.6504 79.624 91.1464 79.288C91.6424 78.952 91.9704 78.472 92.1304 77.848H95.1304C94.8584 79.16 94.2024 80.224 93.1624 81.04C92.1384 81.84 90.8824 82.24 89.3944 82.24ZM101.079 82.24C99.7348 82.24 98.6628 81.784 97.8628 80.872C97.0788 79.944 96.6868 78.592 96.6868 76.816V70.048H99.5428V76.528C99.5428 77.6 99.7508 78.416 100.167 78.976C100.583 79.52 101.183 79.792 101.967 79.792C102.847 79.792 103.535 79.48 104.031 78.856C104.543 78.232 104.799 77.344 104.799 76.192V70.048H107.679V81.952H104.799V80.152C104.447 80.808 103.959 81.32 103.335 81.688C102.711 82.056 101.959 82.24 101.079 82.24ZM116.729 82.24C115.817 82.24 115.017 82.064 114.329 81.712C113.641 81.36 113.089 80.872 112.673 80.248V81.952H109.793V64.672H112.673V71.8C113.057 71.256 113.577 70.784 114.233 70.384C114.889 69.968 115.721 69.76 116.729 69.76C117.865 69.76 118.873 70.032 119.753 70.576C120.633 71.12 121.321 71.864 121.817 72.808C122.329 73.752 122.585 74.824 122.585 76.024C122.585 77.208 122.329 78.272 121.817 79.216C121.321 80.16 120.633 80.904 119.753 81.448C118.873 81.976 117.865 82.24 116.729 82.24ZM116.153 79.72C116.841 79.72 117.449 79.56 117.977 79.24C118.505 78.92 118.913 78.488 119.201 77.944C119.505 77.384 119.657 76.744 119.657 76.024C119.657 75.288 119.505 74.64 119.201 74.08C118.913 73.504 118.505 73.064 117.977 72.76C117.449 72.44 116.841 72.28 116.153 72.28C115.465 72.28 114.857 72.44 114.329 72.76C113.801 73.064 113.385 73.496 113.081 74.056C112.777 74.616 112.625 75.264 112.625 76C112.625 76.736 112.777 77.384 113.081 77.944C113.385 78.488 113.801 78.92 114.329 79.24C114.857 79.56 115.465 79.72 116.153 79.72ZM124.23 81.952V70.048H127.11V71.872C127.414 71.28 127.806 70.816 128.286 70.48C128.766 70.128 129.318 69.952 129.942 69.952H131.55V72.52H129.654C129.094 72.52 128.622 72.672 128.238 72.976C127.87 73.264 127.59 73.72 127.398 74.344C127.206 74.952 127.11 75.72 127.11 76.648V81.952H124.23ZM133.395 81.952V70.048H136.275V81.952H133.395ZM133.395 68.008V65.056H136.299V68.008H133.395ZM138.457 81.952V70.048H141.337V71.872C141.641 71.28 142.033 70.816 142.513 70.48C142.993 70.128 143.545 69.952 144.169 69.952H145.777V72.52H143.881C143.321 72.52 142.849 72.672 142.465 72.976C142.097 73.264 141.817 73.72 141.625 74.344C141.433 74.952 141.337 75.72 141.337 76.648V81.952H138.457Z" fill="white"/>
</svg>
