<svg width="370" height="79" viewBox="0 0 370 79" fill="none" xmlns="http://www.w3.org/2000/svg">
<g clip-path="url(#clip0_295_386)">
<path d="M185.476 31.9413C191.045 31.7815 196.673 31.6752 200.863 36.4264C201.072 36.6636 201.072 36.7159 201.368 36.8699C202.04 36.2165 201.823 33.7924 201.807 32.8164C204.796 32.814 207.784 32.8305 210.773 32.8653C210.818 34.5243 210.813 36.2231 210.8 37.8838C210.714 49.4104 210.941 60.9752 210.777 72.498C208.298 72.4966 204.172 72.6144 201.823 72.3858C201.82 71.3522 202.025 69.5193 201.287 68.8375C200.675 68.8803 199.856 69.8214 199.365 70.2958C194.94 74.2389 186.463 74.1374 181.217 72.1158C164.848 65.8072 164.618 40.8122 180.41 33.5465C181.914 32.8545 183.828 32.6818 185.476 31.9413ZM191.44 64.3644C197.832 63.6904 202.482 57.9943 201.861 51.6036C201.24 45.2131 195.577 40.5185 189.176 41.0869C182.701 41.6617 177.934 47.4004 178.563 53.8663C179.192 60.332 184.976 65.0462 191.44 64.3644Z" fill="#FA9B05"/>
<path d="M116.784 35.9349C119.954 32.9406 122.576 31.7915 126.98 31.7966C131.78 31.8022 135.641 33.4123 138.29 37.5023C139.314 36.9134 140.457 35.8593 141.324 35.03C143.578 32.9112 146.793 32.0446 149.802 31.8514C159.914 31.2025 166.595 36.1739 166.94 46.5359C166.757 52.5362 166.993 58.6961 166.922 64.7096C166.901 66.4316 167.126 71.1912 166.749 72.553C164.023 72.3036 160.638 72.5902 157.74 72.4305C156.682 65.8573 159.46 47.7192 155.661 43.0709C154.608 41.7827 153.072 41.1224 151.442 40.9653C149.364 40.7651 146.994 41.1777 145.358 42.5431C144.07 43.6177 143.383 45.2461 143.052 46.8544C142.638 48.8645 142.802 51.151 142.799 53.2005L142.82 64.6967C142.828 66.0162 143.144 71.5307 142.327 72.217C141.213 72.7828 134.795 72.4401 133.18 72.3578C132.346 72.3155 132.641 68.0174 132.643 67.1199L132.661 55.1147C132.668 48.0271 133.418 39.2511 122.829 41.2418C121.68 41.458 120.828 42.0738 119.889 42.7229C119.27 43.8535 118.293 45.311 118.031 46.573C117.215 50.5107 118.708 69.8583 117.396 72.154C116.447 72.7483 109.262 72.4875 107.75 72.4271C107.532 70.9203 107.6 68.1577 107.601 66.5522L107.615 57.0421C107.628 49.5099 107.348 40.2563 107.686 32.8679C109.119 32.7978 116.115 32.5363 116.811 33.3223C117.064 34.0829 116.873 35.1166 116.784 35.9349Z" fill="#FA9B05"/>
<path d="M300.172 31.9696C311.12 29.9073 321.783 36.7127 324.514 47.5045C325.935 53.1221 324.978 59.0767 321.868 63.9668C318.758 68.8568 313.766 72.2504 308.073 73.3488C296.625 75.5574 285.555 68.0596 283.369 56.6152C281.185 45.1709 288.713 34.128 300.172 31.9696ZM305.3 64.082C311.564 63.3688 316.082 57.7483 315.429 51.4844C314.775 45.2205 309.196 40.6513 302.919 41.2431C296.558 41.8431 291.908 47.5135 292.57 53.8638C293.233 60.2141 298.951 64.8051 305.3 64.082Z" fill="#26DAC1"/>
<path d="M270.17 19.5386C271.231 19.5265 272.39 19.4789 273.436 19.5043C274.138 19.5215 279.596 19.226 279.633 20.0283C279.97 27.5935 279.701 35.2307 279.772 42.8236C279.82 48.085 279.809 53.4428 279.723 58.708C279.102 70.7259 268.623 76.4794 257.974 71.7993C253.332 69.8369 250.698 64.7239 250.472 59.882C253.402 59.8607 256.87 59.7381 259.801 59.9437C260.644 60.0028 261.579 61.8617 262.207 62.7877C265.552 64.0028 266.681 64.0542 268.906 60.9851C269.051 58.9865 269.385 57.9425 269.408 55.3294C269.515 43.5954 269.231 31.7392 269.536 20.0213C269.544 19.7536 269.939 19.6411 270.17 19.5386Z" fill="#26DAC1"/>
<path d="M238.82 19.6427C240.937 19.5949 247.046 19.3591 248.716 19.8328C248.732 23.4211 248.907 29.3862 248.557 32.7475C250.12 32.8189 253.054 32.7121 254.38 33.093C253.27 35.4656 254.788 40.7021 253.85 41.8527C252.171 41.8341 250.38 41.8803 248.692 41.8978C248.976 46.7945 248.593 53.5761 248.737 58.6369C248.813 61.2327 248.873 70.2083 248.514 72.197C247.708 72.726 240.13 72.509 238.842 72.3591C238.672 62.4033 238.809 51.8357 238.842 41.8543C237.295 41.8604 235.715 41.8274 234.164 41.8121C233.843 39.8526 234.038 35.0749 234.09 32.8927C235.683 32.8566 237.221 32.8234 238.813 32.7166C239.042 29.3734 238.827 23.2009 238.82 19.6427Z" fill="#FA9B05"/>
<path d="M230.101 31.841C230.339 31.7587 231.424 31.9313 231.746 31.9719L231.764 41.0338C229.659 41.8052 225.763 41.9959 224.687 44.5381C221.795 51.3747 223.292 59.6369 222.969 66.919C222.902 68.4149 223.227 70.7925 222.667 72.1084C221.9 72.695 213.893 72.6751 213.396 72.1043C213.268 67.6377 213.367 62.7 213.367 58.2044L213.378 32.9302C214.956 32.756 221.373 32.4742 222.33 33.4011C222.512 34.1693 222.335 35.0996 222.238 35.895C225.164 33.6807 225.895 31.9216 230.101 31.841Z" fill="#FA9B05"/>
<path d="M166.94 46.5359L167.438 46.1241L167.675 46.2204C168.514 48.5325 167.433 59.4275 167.878 62.5076C167.885 62.5545 167.887 64.2519 167.881 64.282C167.474 66.1403 168.89 71.8489 166.75 72.553C167.126 71.1913 166.901 66.4316 166.922 64.7096C166.993 58.6961 166.757 52.5363 166.94 46.5359Z" fill="#FA9B05" fill-opacity="0.701961"/>
<path d="M254.38 33.0931C255.238 34.1547 254.992 40.4597 254.236 41.7333L253.85 41.8527C254.788 40.7022 253.27 35.4656 254.38 33.0931Z" fill="#FA9B05" fill-opacity="0.627451"/>
<path d="M67.2271 0H67.7676C67.9552 1.19301 69.8905 5.18119 70.4567 6.54589C72.3993 11.1596 74.2669 15.8046 76.0585 20.479C76.4374 21.4442 77.1499 22.0038 77.2596 22.7296L76.888 22.985C75.5628 23.2963 75.1884 23.8845 74.0059 22.8072C73.5661 21.0306 67.6555 6.51445 66.8011 5.25951C65.9487 6.48022 62.4384 11.174 62.339 12.3769C62.963 13.4188 65.305 15.1887 66.6022 17.0569C67.5911 18.4846 68.4884 19.9731 69.2894 21.514C69.9612 22.8218 70.0269 23.5561 70.9266 24.6976L70.9653 26.9083C65.3547 30.2936 58.4213 30.6949 52.1574 29.1512C51.7081 29.0399 51.2598 28.925 50.8123 28.8065C50.9066 30.5218 50.9806 32.2432 51.1873 33.9484C51.9852 32.8041 52.8466 31.2927 54.0995 30.714C56.7641 30.9509 59.7589 32.2627 62.326 33.0676C65.365 34.0205 68.3173 35.4371 71.4707 36.0545C71.9249 36.1434 72.2258 36.8786 72.8347 36.9042C73.5318 37.0802 73.4842 36.9491 73.8389 37.4332C73.8638 38.0316 73.6378 38.6707 73.4667 39.2509C72.12 39.8613 58.5447 34.0663 55.3296 33.7649C54.1804 35.8097 52.5227 37.0903 51.2115 39.0027C50.6636 39.8018 50.6858 41.0751 50.2466 41.6451C49.8645 42.1411 47.8142 43.1627 47.6062 43.795C48.3536 44.8646 55.2619 45.0048 57.6598 46.2951C56.6977 48.3186 55.3379 52.5707 54.544 54.8518L49.1626 70.3618C48.5575 72.1158 47.4524 76.9188 45.8088 78.1357C45.502 78.363 44.582 77.9707 44.162 77.8215C43.7392 76.5699 45.3288 73.6855 45.7429 72.3941C48.3599 64.2331 51.2981 56.039 54.1699 47.964C50.7407 47.2492 42.5422 45.7994 39.139 45.7744C39.0455 51.4047 38.5351 58.0908 34.2039 62.2186C32.6083 63.7393 30.1145 65.2527 27.9802 65.8119C27.9878 67.6112 28.1329 76.9263 27.8445 77.9339C26.8742 78.4793 25.7664 78.2124 25.6953 76.895C25.5135 73.5256 25.7644 70.1506 25.5942 66.7808C21.3338 67.1715 18.4393 67.1379 14.1718 67.1193C14.1384 68.0513 12.1632 75.2408 11.7851 76.8524C10.9452 77.4792 10.0981 77.1262 9.14361 76.9137C8.87444 75.8564 11.3084 68.5459 11.6561 66.6172C6.53949 65.1748 3.97722 64.7006 0 61.0778V57.9189C4.3015 51.0519 8.6186 48.0039 16.1229 45.3015C16.6472 45.1126 17.3574 44.7378 17.878 44.4828C17.9922 43.1324 19.6893 37.2808 20.2356 36.0556L20.6654 35.9198C21.2992 36.0327 21.7687 36.6207 22.2265 37.0882C21.9082 39.3034 20.8706 42.0511 20.8712 43.8573C24.0914 43.8232 26.0583 43.6118 25.7633 39.7211C25.5864 37.3868 25.6389 34.8915 25.9299 32.5707C29.3581 35.6438 34.0403 38.9881 37.7748 41.8415C39.1242 38.8743 39.3971 36.6825 41.3024 33.773C43.5623 30.3223 45.1003 29.4347 48.5713 27.4934C42.8875 23.3135 44.2299 15.092 49.4359 11.218C52.8329 8.69034 55.9821 9.86241 59.747 10.4833C60.3479 10.2518 66.2605 1.36103 67.2271 0ZM59.3581 19.4845C60.1085 18.9416 60.1753 19.059 60.5199 18.2806C60.528 15.9888 56.3038 14.3865 54.4297 14.6526C50.9046 15.3531 53.4829 17.6904 55.2426 18.5664C56.8235 19.3536 57.5925 19.5806 59.3581 19.4845ZM28.0124 42.9504C29.0041 42.9511 33.6186 43.029 34.3089 42.8809C34.2324 42.351 34.2327 42.3065 33.6486 41.9385C32.2884 41.0816 29.4005 38.6204 28.0903 38.0986C27.9077 39.6194 27.9862 41.4005 28.0124 42.9504Z" fill="#26DAC1"/>
<path d="M327.805 72.2845C327.783 67.262 327.442 21.2339 327.98 19.8479C328.065 19.8072 328.151 19.7709 328.24 19.7392C328.882 19.509 337.367 19.3866 337.654 19.5251C337.787 20.0963 337.807 20.6653 337.816 21.2494C337.885 26.0431 337.693 30.8423 337.865 35.6346C348.45 26.4691 364.354 31.8496 368.675 44.6429C369.069 45.8079 368.782 46.0938 369.695 47.1166V57.7048C368.67 59.0943 367.901 62.7152 366.197 65.0289C362.978 69.3986 359.258 72.1108 353.817 73.0925C349.746 73.8269 344.495 73.2377 340.935 71.0708C339.89 70.4341 337.971 68.8072 336.832 67.9822C336.632 69.3546 336.679 71.1357 336.673 72.5527C333.843 72.3039 330.823 72.7615 327.805 72.2845ZM349.793 63.9658C363.753 63.4025 363.357 39.5025 347.47 40.2108C347.118 40.227 346.766 40.2467 346.414 40.27C342.284 41.9705 340.231 42.1182 338.19 46.8869C336.56 50.6933 336.562 53.6417 338.17 57.5062C339.233 60.124 341.3 62.2075 343.912 63.2914C344.636 63.5896 348.806 64.49 349.252 64.3141C349.443 64.2391 349.631 64.0887 349.793 63.9658Z" fill="#26DAC1"/>
<path d="M78.9149 21.6682C78.3672 21.2779 75.8044 14.8038 75.3127 13.6316C74.6989 12.1683 72.4903 7.54288 73.0801 6.18372C73.6494 6.01607 74.169 5.8168 74.7351 5.65234C75.3687 6.5989 76.5198 9.49497 76.9845 10.6166L80.1462 18.2124C80.5809 19.2639 80.8311 19.1414 81.1535 20.0314C82.407 19.9028 83.0824 19.1728 84.054 19.0211C94.5952 17.3767 103.449 22.717 104.005 33.9747L104.007 34.0142C100.636 33.9328 97.263 33.9253 93.8917 33.9913C92.7063 32.5678 93.1615 31.5212 91.6694 29.5521C87.9984 27.7535 85.0789 27.8093 82.8803 31.6965C82.8637 32.8622 82.8165 34.1816 82.8851 35.3312C84.8224 38.2777 86.3279 38.7073 89.4933 39.8835C93.8146 41.4891 98.178 42.9731 101.511 46.3102C103.776 48.4647 103.466 50.0465 104.873 51.8451C104.987 54.7434 105.203 58.1523 104.805 61.032C104.75 61.4322 104.193 61.9757 104.078 62.3353C103.354 64.5946 102.418 66.3721 100.774 68.1494C97.774 71.4079 93.5872 73.3221 89.158 73.4599C80.5964 73.7768 73.5877 69.6362 71.2619 61.1263C70.9691 60.0552 70.6327 58.6885 70.9966 57.613C71.5199 57.0652 71.8724 57.0809 72.707 57.0734C75.349 57.0499 78.0036 57.0734 80.646 57.0872C82.0864 59.7989 81.7665 62.3305 85.675 63.5147C87.7305 64.1217 89.9433 63.8836 91.8224 62.8537C93.1469 62.1276 94.4511 60.79 94.7867 59.2749C96.4173 51.9118 89.118 50.4103 83.8713 48.363C78.945 46.4405 75.781 43.9866 73.4666 39.2509C73.6377 38.6707 73.8637 38.0316 73.8388 37.4332C73.4841 36.9491 73.5317 37.0802 72.8346 36.9042C72.7481 35.4214 72.7252 33.9357 72.7658 32.4511C72.8851 29.1824 74.5128 25.1869 76.8879 22.985L77.2596 22.7296C77.8652 21.9528 77.9735 21.8511 78.9149 21.6682Z" fill="#FA9B05"/>
<path d="M78.9149 21.6682C78.3672 21.2779 75.8044 14.8038 75.3127 13.6316C74.6989 12.1683 72.4903 7.54288 73.0801 6.18372C73.6494 6.01607 74.1689 5.8168 74.735 5.65234C75.3687 6.5989 76.5198 9.49497 76.9844 10.6166L80.1462 18.2124C80.5808 19.2639 80.831 19.1414 81.1534 20.0314C80.9052 21.352 82.8158 24.0932 82.8405 24.7057C81.7638 25.0946 81.074 25.049 79.9328 25.0628C79.922 22.6726 79.2075 23.7639 78.9149 21.6682Z" fill="#26DAC1"/>
<path d="M79.9329 25.0628C81.0741 25.0489 81.7638 25.0946 82.8406 24.7057C82.0238 25.1975 81.4894 26.219 80.298 25.9405C79.8971 25.5884 80.0085 25.6907 79.9329 25.0628Z" fill="#9FB964"/>
</g>
<defs>
<clipPath id="clip0_295_386">
<rect width="369.695" height="79" fill="white"/>
</clipPath>
</defs>
</svg>
