<svg width="448" height="60" viewBox="0 0 448 60" fill="none" xmlns="http://www.w3.org/2000/svg">
<path d="M424.696 58.151C420.998 58.151 417.668 57.2506 414.709 55.45C411.803 53.6493 409.504 51.1866 407.813 48.0619C406.122 44.8843 405.277 41.3359 405.277 37.4168C405.277 33.4448 406.122 29.9229 407.813 26.8511C409.504 23.7265 411.803 21.2903 414.709 19.5426C417.668 17.7419 420.998 16.8415 424.696 16.8415C427.656 16.8415 430.219 17.3976 432.385 18.5098C434.604 19.622 436.375 21.1579 437.696 23.1174V1.52588e-05H448V57.1977H437.696V51.5574C436.48 53.3051 434.816 54.8409 432.702 56.1649C430.641 57.489 427.973 58.151 424.696 58.151ZM426.916 49.1741C429.082 49.1741 430.985 48.671 432.623 47.6647C434.314 46.6585 435.608 45.2815 436.507 43.5338C437.458 41.7331 437.934 39.7206 437.934 37.4963C437.934 35.219 437.458 33.2064 436.507 31.4587C435.608 29.711 434.314 28.334 432.623 27.3278C430.985 26.3215 429.082 25.8184 426.916 25.8184C424.802 25.8184 422.9 26.3215 421.209 27.3278C419.518 28.334 418.197 29.711 417.246 31.4587C416.295 33.1535 415.819 35.1395 415.819 37.4168C415.819 39.6941 416.295 41.7331 417.246 43.5338C418.197 45.2815 419.518 46.6585 421.209 47.6647C422.9 48.671 424.802 49.1741 426.916 49.1741Z" fill="black"/>
<path d="M378.235 58.151C373.771 58.151 370.226 56.6153 367.6 53.5441C365.027 50.4199 363.74 45.8925 363.74 39.9619V17.8013H373.981V39.0087C373.981 42.3977 374.612 44.9923 375.872 46.7927C377.185 48.5401 379.076 49.4138 381.544 49.4138C384.328 49.4138 386.481 48.4342 388.004 46.475C389.527 44.4628 390.288 41.6828 390.288 38.135V17.8013H400.53V57.1978H390.288V51.3995C389.133 53.4647 387.557 55.1062 385.562 56.3241C383.566 57.542 381.124 58.151 378.235 58.151Z" fill="black"/>
<path d="M338.225 58.151C334.307 58.151 330.78 57.2723 327.645 55.515C324.51 53.7577 322.029 51.3081 320.2 48.1663C318.371 45.0244 317.457 41.4299 317.457 37.3828C317.457 33.2824 318.371 29.6879 320.2 26.5993C322.029 23.4574 324.51 21.0079 327.645 19.2505C330.832 17.4932 334.359 16.6146 338.225 16.6146C342.144 16.6146 345.67 17.4932 348.805 19.2505C351.94 21.0079 354.422 23.4574 356.25 26.5993C358.079 29.6879 358.993 33.2824 358.993 37.3828C358.993 41.4299 358.079 45.0244 356.25 48.1663C354.422 51.3081 351.94 53.7577 348.805 55.515C345.67 57.2723 342.144 58.151 338.225 58.151ZM338.225 49.2047C340.106 49.2047 341.83 48.7787 343.398 47.9266C344.965 47.0214 346.193 45.6901 347.081 43.9327C348.022 42.1754 348.492 39.9921 348.492 37.3828C348.492 34.7734 348.022 32.5901 347.081 30.8328C346.141 29.0755 344.887 27.7708 343.319 26.9188C341.804 26.0135 340.132 25.5609 338.304 25.5609C336.423 25.5609 334.699 26.0135 333.131 26.9188C331.564 27.8241 330.31 29.1554 329.369 30.9127C328.429 32.6167 327.959 34.7734 327.959 37.3828C327.959 39.9921 328.403 42.1754 329.291 43.9327C330.231 45.6901 331.485 47.0214 333.053 47.9266C334.62 48.7787 336.344 49.2047 338.225 49.2047Z" fill="black"/>
<path d="M302.029 56.9642V1.52588e-05H312.116V56.9642H302.029Z" fill="black"/>
<path d="M271.84 58.151C266.327 58.151 261.55 56.9585 257.507 54.5735C253.517 52.1355 250.446 48.77 248.293 44.4771C246.141 40.1311 245.064 35.1226 245.064 29.4517C245.064 23.7807 246.141 18.7723 248.293 14.4263C250.446 10.0803 253.517 6.68833 257.507 4.25035C261.55 1.81237 266.327 0.593384 271.84 0.593384C278.507 0.593384 283.941 2.26287 288.141 5.60184C292.394 8.94082 295.045 13.6048 296.095 19.5937H284.755C284.125 16.5728 282.707 14.2143 280.502 12.5183C278.297 10.8223 275.357 9.97431 271.682 9.97431C268.322 9.97431 265.435 10.7693 263.02 12.3593C260.605 13.8963 258.741 16.1223 257.428 19.0372C256.116 21.9522 255.46 25.4237 255.46 29.4517C255.46 33.4796 256.116 36.9511 257.428 39.8661C258.741 42.7281 260.605 44.9541 263.02 46.5441C265.435 48.0811 268.322 48.8495 271.682 48.8495C275.357 48.8495 278.271 48.0546 280.424 46.4646C282.629 44.8746 284.072 42.5691 284.755 39.5481H296.016C295.019 45.4311 292.394 50.0155 288.141 53.3015C283.941 56.5345 278.507 58.151 271.84 58.151Z" fill="black"/>
<path d="M216.041 58.1967C213.343 58.1967 211.049 57.9 209.161 57.3064C207.326 56.6589 205.95 55.4448 205.033 53.6641C204.115 51.8295 203.657 49.2124 203.657 45.813V26.873H196.777V18.0506H203.657V7.28561H214.179V18.0506H224.296V26.873H214.179V44.5179C214.179 45.8669 214.314 46.8921 214.584 47.5936C214.853 48.2411 215.366 48.6728 216.121 48.8887C216.877 49.1045 217.902 49.2124 219.197 49.2124H224.054V58.1967H216.041Z" fill="black"/>
<path d="M168.864 58.1969V18.0507H179.386V24.2022C180.411 22.1517 181.733 20.5599 183.352 19.4267C184.971 18.2396 186.832 17.646 188.937 17.646H194.036V27.0351H187.885C185.942 27.0351 184.323 27.5477 183.028 28.5729C181.787 29.5982 180.87 31.136 180.276 33.1865C179.683 35.237 179.386 37.7731 179.386 40.7948V58.1969H168.864Z" fill="black"/>
<path d="M136.937 59.1682C133.916 59.1682 131.299 58.6286 129.086 57.5494C126.928 56.4702 125.282 55.0133 124.149 53.1787C123.016 51.344 122.449 49.3205 122.449 47.1082C122.449 42.8993 123.96 39.6617 126.982 37.3954C130.004 35.0751 133.97 33.915 138.88 33.915C141.2 33.915 143.197 34.0769 144.87 34.4006C146.542 34.7244 147.918 35.0751 148.997 35.4529V33.5103C148.997 30.7044 148.188 28.6539 146.569 27.3589C145.004 26.0638 142.954 25.4163 140.418 25.4163C138.637 25.4163 137.045 25.794 135.642 26.5495C134.239 27.251 133.349 28.519 132.971 30.3537H123.016C123.34 27.4938 124.311 25.0926 125.93 23.15C127.548 21.1535 129.599 19.6426 132.081 18.6174C134.617 17.5921 137.396 17.0795 140.418 17.0795C146.407 17.0795 151.075 18.5095 154.42 21.3693C157.82 24.2292 159.52 28.2762 159.52 33.5103V42.5756C159.52 44.626 159.628 46.1369 159.843 47.1082C160.113 48.0795 160.518 48.7 161.057 48.9698C161.597 49.2396 162.326 49.3745 163.243 49.3745H163.567V58.1969H161.3C158.44 58.1969 156.066 57.8192 154.178 57.0638C152.289 56.3084 150.913 54.8245 150.05 52.6121C148.701 54.5007 146.92 56.0655 144.708 57.3066C142.495 58.5477 139.905 59.1682 136.937 59.1682ZM139.285 51.1552C141.011 51.1552 142.468 50.7775 143.655 50.022C144.897 49.2126 145.922 48.1334 146.731 46.7844C147.541 45.3815 148.107 43.8706 148.431 42.2518C147.298 41.928 145.976 41.6313 144.465 41.3615C143.008 41.0377 141.524 40.8758 140.013 40.8758C137.909 40.8758 136.209 41.3615 134.914 42.3327C133.673 43.2501 133.052 44.5451 133.052 46.2179C133.052 47.6748 133.592 48.8619 134.671 49.7792C135.804 50.6965 137.342 51.1552 139.285 51.1552Z" fill="black"/>
<path d="M50.3794 58.1969V18.0508H60.9016V22.9881C62.1966 21.1535 63.8963 19.7236 66.0008 18.6983C68.1052 17.6191 70.4794 17.0795 73.1235 17.0795C76.1992 17.0795 78.8432 17.7001 81.0556 18.9411C83.2679 20.1283 84.9946 21.882 86.2357 24.2022C87.7466 21.9899 89.7161 20.2632 92.1443 19.0221C94.5725 17.727 97.2705 17.0795 100.238 17.0795C105.472 17.0795 109.492 18.6713 112.298 21.855C115.104 24.9847 116.507 29.5712 116.507 35.6147V58.1969H106.066V36.586C106.066 33.1326 105.391 30.5155 104.042 28.7349C102.747 26.9002 100.697 25.9829 97.8911 25.9829C95.1391 25.9829 92.9267 27.0081 91.254 29.0586C89.5812 31.0551 88.7449 33.861 88.7449 37.4764V58.1969H78.3036V36.586C78.3036 33.1326 77.6021 30.5155 76.1992 28.7349C74.8502 26.9002 72.7997 25.9829 70.0478 25.9829C67.3498 25.9829 65.1374 27.0081 63.4107 29.0586C61.7379 31.0551 60.9016 33.861 60.9016 37.4764V58.1969H50.3794Z" fill="black"/>
<path d="M22.906 59.1682C20.2619 59.1682 17.6449 58.8175 15.0548 58.116C12.4647 57.3606 10.0905 56.2004 7.9321 54.6356C5.77371 53.0168 3.96605 50.9663 2.50913 48.4842C1.10618 45.9481 0.269799 42.9263 0 39.4189H9.71278C10.1445 42.1709 11.0348 44.3293 12.3838 45.8941C13.7867 47.4589 15.4325 48.5651 17.3211 49.2126C19.2637 49.8062 21.1792 50.103 23.0678 50.103C25.1723 50.103 27.0339 49.7792 28.6527 49.1317C30.3254 48.4842 31.6205 47.5669 32.5378 46.3797C33.5091 45.1387 33.9947 43.7087 33.9947 42.0899C33.9947 40.4172 33.5361 38.9333 32.6187 37.6382C31.7014 36.2892 29.7319 35.3449 26.7101 34.8053L17.0783 33.0247C12.4377 32.1613 8.79546 30.3267 6.15142 27.5208C3.56135 24.6609 2.26631 21.2884 2.26631 17.4033C2.26631 13.8419 3.15665 10.8202 4.93733 8.33803C6.718 5.85587 9.11922 3.9403 12.141 2.5913C15.1627 1.24231 18.4813 0.56781 22.0966 0.56781C25.8738 0.56781 29.2732 1.21533 32.295 2.51036C35.3167 3.8054 37.7719 5.80191 39.6605 8.49991C41.5491 11.1439 42.6823 14.5704 43.06 18.7793H33.1853C32.8616 16.3511 32.1331 14.4895 30.9999 13.1944C29.9207 11.8454 28.5987 10.9011 27.0339 10.3615C25.523 9.82192 23.9582 9.55213 22.3394 9.55213C20.8285 9.55213 19.2637 9.79495 17.6449 10.2806C16.0261 10.7662 14.6771 11.5756 13.5979 12.7088C12.5187 13.788 11.9791 15.2719 11.9791 17.1605C11.9791 18.7793 12.5726 20.2362 13.7598 21.5312C15.0008 22.7723 16.9704 23.6357 19.6684 24.1213L28.5717 25.7401C33.3202 26.6034 37.0434 28.3032 39.7414 30.8393C42.4934 33.3214 43.8694 36.9637 43.8694 41.7662C43.8694 44.626 43.2488 47.1352 42.0078 49.2936C40.8206 51.398 39.2288 53.2057 37.2323 54.7165C35.2358 56.1735 32.9965 57.2796 30.5143 58.0351C28.0321 58.7905 25.496 59.1682 22.906 59.1682Z" fill="black"/>
</svg>
