<svg width="57" height="11" viewBox="0 0 57 11" fill="none" xmlns="http://www.w3.org/2000/svg">
<path d="M50.317 10.7593V2.99019H47.2364V0.240183H56.944V2.99019H53.8634V10.7593H50.317Z" fill="black"/>
<path d="M36.9819 10.7593V0.240183H41.8958C43.5087 0.240183 44.736 0.595831 45.5775 1.30713C46.419 2.01842 46.8398 2.98518 46.8398 4.2074C46.8398 5.01888 46.6444 5.72016 46.2537 6.31123C45.863 6.89229 45.307 7.3381 44.5857 7.64867C43.8744 7.95923 43.0279 8.11451 42.0461 8.11451H38.9504L40.5283 6.65686V10.7593H36.9819ZM43.2783 10.7593L40.6936 6.92735H44.4505L47.0652 10.7593H43.2783ZM40.5283 7.04757L38.9504 5.43965H41.8207C42.3116 5.43965 42.6722 5.32945 42.9026 5.10904C43.1431 4.88864 43.2633 4.5881 43.2633 4.2074C43.2633 3.82671 43.1431 3.52616 42.9026 3.30576C42.6722 3.08536 42.3116 2.97516 41.8207 2.97516H38.9504L40.5283 1.36724V7.04757Z" fill="black"/>
<path d="M23.7331 10.7593L28.3315 0.240183H31.8178L36.4162 10.7593H32.7495L29.3534 1.92325H30.7359L27.3397 10.7593H23.7331ZM26.4681 8.92599L27.3698 6.37134H32.2086L33.1102 8.92599H26.4681Z" fill="black"/>
<path d="M10.5372 10.7593V0.240183H13.4525L17.6602 7.10768H16.1274L20.2149 0.240183H23.1302L23.1602 10.7593H19.9293L19.8993 5.10904H20.4102L17.6151 9.8126H16.0523L13.137 5.10904H13.7681V10.7593H10.5372Z" fill="black"/>
<path d="M4.58334 11C3.70174 11 2.85019 10.8998 2.02869 10.6995C1.2072 10.4991 0.530966 10.2386 0 9.91805L1.14208 7.33335C1.64299 7.62388 2.199 7.8593 2.81011 8.03963C3.43124 8.20994 4.03234 8.2951 4.6134 8.2951C4.95402 8.2951 5.2195 8.27506 5.40985 8.23499C5.61021 8.1849 5.75547 8.11978 5.84564 8.03963C5.9358 7.94947 5.98088 7.84428 5.98088 7.72406C5.98088 7.53371 5.87569 7.38344 5.66531 7.27324C5.45493 7.16304 5.17442 7.07287 4.82378 7.00275C4.48316 6.9226 4.10748 6.84245 3.69673 6.76231C3.28598 6.67214 2.87022 6.55693 2.44946 6.41668C2.03871 6.27642 1.65802 6.09109 1.30738 5.86067C0.966759 5.63025 0.691258 5.3297 0.480875 4.95903C0.270492 4.57833 0.165301 4.10748 0.165301 3.54645C0.165301 2.89527 0.345629 2.30419 0.706285 1.77323C1.07696 1.23224 1.62295 0.801459 2.34427 0.480875C3.0756 0.160292 3.98225 0 5.06422 0C5.77551 0 6.47679 0.075137 7.16804 0.22541C7.8593 0.375684 8.48043 0.606103 9.03144 0.916668L7.96449 3.48635C7.44355 3.22587 6.93763 3.03052 6.44673 2.90028C5.96586 2.77004 5.495 2.70492 5.03416 2.70492C4.69354 2.70492 4.42305 2.73498 4.22268 2.79509C4.02232 2.8552 3.87706 2.93534 3.78689 3.03553C3.70675 3.13571 3.66667 3.24591 3.66667 3.36613C3.66667 3.54645 3.77186 3.69172 3.98225 3.80192C4.19263 3.9021 4.46813 3.98726 4.80875 4.05738C5.15939 4.12751 5.54008 4.20265 5.95083 4.28279C6.3716 4.36294 6.78735 4.47314 7.1981 4.6134C7.60885 4.75365 7.98453 4.93899 8.32515 5.16941C8.67579 5.39983 8.9563 5.70037 9.16668 6.07105C9.37707 6.44172 9.48226 6.90256 9.48226 7.45357C9.48226 8.09473 9.29692 8.68581 8.92625 9.22679C8.56559 9.75776 8.0246 10.1885 7.30329 10.5191C6.58198 10.8397 5.67533 11 4.58334 11Z" fill="black"/>
</svg>
