<svg width="168" height="101" viewBox="0 0 168 101" fill="none" xmlns="http://www.w3.org/2000/svg">
<path d="M137.578 101C134.751 101 132.207 100.313 129.945 98.9405C127.724 97.5675 125.968 95.6897 124.675 93.3071C123.383 90.8842 122.737 88.1786 122.737 85.1903C122.737 82.1616 123.383 79.4762 124.675 77.134C125.968 74.7515 127.724 72.8939 129.945 71.5613C132.207 70.1883 134.751 69.5018 137.578 69.5018C139.839 69.5018 141.797 69.9258 143.453 70.7738C145.149 71.6218 146.502 72.7929 147.512 74.2871V56.6602H155.386V100.273H147.512V95.9724C146.583 97.305 145.311 98.4761 143.695 99.4856C142.121 100.495 140.081 101 137.578 101ZM139.274 94.1552C140.929 94.1552 142.383 93.7715 143.635 93.0043C144.927 92.237 145.916 91.1871 146.603 89.8545C147.33 88.4815 147.693 86.9469 147.693 85.2509C147.693 83.5144 147.33 81.9799 146.603 80.6473C145.916 79.3147 144.927 78.2647 143.635 77.4975C142.383 76.7302 140.929 76.3466 139.274 76.3466C137.658 76.3466 136.205 76.7302 134.912 77.4975C133.62 78.2647 132.61 79.3147 131.884 80.6473C131.157 81.9395 130.793 83.4539 130.793 85.1903C130.793 86.9267 131.157 88.4815 131.884 89.8545C132.61 91.1871 133.62 92.237 134.912 93.0043C136.205 93.7715 137.658 94.1552 139.274 94.1552Z" fill="black"/>
<path d="M101.895 101C98.4622 101 95.7364 99.8288 93.7173 97.4867C91.7385 95.1041 90.7492 91.6514 90.7492 87.1286V70.2286H98.6237V86.4017C98.6237 88.9862 99.1083 90.9649 100.077 92.3379C101.087 93.6705 102.541 94.3369 104.439 94.3369C106.579 94.3369 108.235 93.5898 109.406 92.0956C110.577 90.5611 111.162 88.441 111.162 85.7354V70.2286H119.037V100.273H111.162V95.8512C110.274 97.4261 109.063 98.678 107.528 99.6067C105.993 100.536 104.116 101 101.895 101Z" fill="black"/>
<path d="M71.4157 101C68.387 101 65.6612 100.334 63.2382 99.0011C60.8153 97.6685 58.8971 95.8109 57.4838 93.4283C56.0704 91.0458 55.3637 88.32 55.3637 85.2509C55.3637 82.1415 56.0704 79.4157 57.4838 77.0735C58.8971 74.6909 60.8153 72.8333 63.2382 71.5007C65.7016 70.1681 68.4274 69.5018 71.4157 69.5018C74.4443 69.5018 77.1701 70.1681 79.5931 71.5007C82.016 72.8333 83.9342 74.6909 85.3476 77.0735C86.7609 79.4157 87.4676 82.1415 87.4676 85.2509C87.4676 88.32 86.7609 91.0458 85.3476 93.4283C83.9342 95.8109 82.016 97.6685 79.5931 99.0011C77.1701 100.334 74.4443 101 71.4157 101ZM71.4157 94.2158C72.8694 94.2158 74.202 93.8927 75.4135 93.2466C76.625 92.5601 77.574 91.5505 78.2605 90.2179C78.9873 88.8853 79.3508 87.2296 79.3508 85.2509C79.3508 83.2722 78.9873 81.6165 78.2605 80.2839C77.5336 78.9513 76.5644 77.9619 75.3529 77.3158C74.1818 76.6293 72.8896 76.286 71.4762 76.286C70.0225 76.286 68.6899 76.6293 67.4784 77.3158C66.2669 78.0023 65.2977 79.0118 64.5709 80.3444C63.844 81.6367 63.4805 83.2722 63.4805 85.2509C63.4805 87.2296 63.8238 88.8853 64.5103 90.2179C65.2372 91.5505 66.2063 92.5601 67.4178 93.2466C68.6293 93.8927 69.9619 94.2158 71.4157 94.2158Z" fill="black"/>
<path d="M43.6177 100.273V56.6602H51.4922V100.273H43.6177Z" fill="black"/>
<path d="M20.7768 101C16.5366 101 12.8618 100.091 9.75238 98.2741C6.68332 96.4165 4.32095 93.8522 2.66528 90.5812C1.0096 87.2699 0.181764 83.4538 0.181764 79.1329C0.181764 74.8119 1.0096 70.9958 2.66528 67.6845C4.32095 64.3731 6.68332 61.7886 9.75238 59.9311C12.8618 58.0735 16.5366 57.1447 20.7768 57.1447C25.9053 57.1447 30.0849 58.4167 33.3155 60.9608C36.5864 63.5049 38.6257 67.0585 39.4334 71.6217H30.7108C30.2262 69.3199 29.1359 67.5229 27.4398 66.2307C25.7438 64.9385 23.4824 64.2923 20.6556 64.2923C18.0711 64.2923 15.8501 64.8981 13.9925 66.1096C12.1349 67.2806 10.7014 68.9767 9.6918 71.1977C8.68225 73.4188 8.17747 76.0638 8.17747 79.1329C8.17747 82.2019 8.68225 84.847 9.6918 87.068C10.7014 89.2486 12.1349 90.9447 13.9925 92.1562C15.8501 93.3272 18.0711 93.9128 20.6556 93.9128C23.4824 93.9128 25.7236 93.3071 27.3793 92.0956C29.0753 90.8841 30.1858 89.1275 30.7108 86.8257H39.3728C38.6056 91.3081 36.5864 94.8012 33.3155 97.3049C30.0849 99.7682 25.9053 101 20.7768 101Z" fill="black"/>
<path d="M161.68 43.1281C159.66 43.1281 157.944 42.906 156.531 42.4618C155.158 41.9772 154.128 41.0686 153.442 39.736C152.755 38.363 152.412 36.4044 152.412 33.8603V19.6862H147.263V13.0836H152.412V5.02737H160.286V13.0836H167.858V19.6862H160.286V32.8912C160.286 33.9007 160.387 34.668 160.589 35.193C160.791 35.6776 161.175 36.0006 161.74 36.1621C162.306 36.3237 163.073 36.4044 164.042 36.4044H167.676V43.1281H161.68Z" fill="black"/>
<path d="M126.374 43.1283V13.0838H134.248V17.6874C135.016 16.1529 136.005 14.9616 137.216 14.1136C138.428 13.2252 139.821 12.7809 141.396 12.7809H145.212V19.8075H140.609C139.155 19.8075 137.943 20.1911 136.974 20.9584C136.045 21.7256 135.359 22.8765 134.915 24.4111C134.47 25.9456 134.248 27.8436 134.248 30.105V43.1283H126.374Z" fill="black"/>
<path d="M102.48 43.8552C100.219 43.8552 98.2605 43.4514 96.6048 42.6437C94.9895 41.8361 93.7578 40.7458 92.9098 39.3728C92.0618 37.9998 91.6378 36.4854 91.6378 34.8298C91.6378 31.6799 92.7685 29.257 95.0299 27.5609C97.2913 25.8245 100.259 24.9563 103.934 24.9563C105.671 24.9563 107.165 25.0774 108.417 25.3197C109.668 25.562 110.698 25.8245 111.506 26.1072V24.6534C111.506 22.5535 110.9 21.019 109.689 20.0498C108.518 19.0807 106.983 18.5961 105.085 18.5961C103.752 18.5961 102.561 18.8787 101.511 19.4441C100.461 19.9691 99.795 20.918 99.5123 22.291H92.0618C92.3041 20.1508 93.0309 18.3538 94.2424 16.9C95.4539 15.4059 96.9884 14.2752 98.846 13.5079C100.744 12.7406 102.824 12.357 105.085 12.357C109.568 12.357 113.061 13.4271 115.564 15.5674C118.108 17.7077 119.38 20.7363 119.38 24.6534V31.4377C119.38 32.9722 119.461 34.1029 119.623 34.8298C119.825 35.5566 120.127 36.021 120.531 36.223C120.935 36.4249 121.48 36.5258 122.167 36.5258H122.409V43.1283H120.713C118.573 43.1283 116.796 42.8457 115.383 42.2803C113.969 41.715 112.939 40.6044 112.293 38.9488C111.284 40.3621 109.951 41.5332 108.295 42.462C106.64 43.3908 104.701 43.8552 102.48 43.8552ZM104.237 37.8584C105.529 37.8584 106.62 37.5758 107.508 37.0104C108.437 36.4047 109.204 35.597 109.81 34.5875C110.416 33.5375 110.84 32.4068 111.082 31.1954C110.234 30.9531 109.244 30.731 108.114 30.529C107.023 30.2868 105.913 30.1656 104.782 30.1656C103.207 30.1656 101.935 30.529 100.966 31.2559C100.037 31.9424 99.5729 32.9116 99.5729 34.1635C99.5729 35.2538 99.9767 36.1422 100.784 36.8287C101.632 37.5152 102.783 37.8584 104.237 37.8584Z" fill="black"/>
<path d="M37.7022 43.1283V13.0839H45.5768V16.7789C46.5459 15.4059 47.818 14.3357 49.3929 13.5685C50.9678 12.7608 52.7446 12.357 54.7234 12.357C57.0251 12.357 59.0039 12.8214 60.6596 13.7502C62.3152 14.6386 63.6075 15.951 64.5363 17.6875C65.667 16.0318 67.1409 14.7396 68.9581 13.8108C70.7753 12.8416 72.7944 12.357 75.0155 12.357C78.9326 12.357 81.941 13.5483 84.0409 15.9308C86.1408 18.273 87.1907 21.7055 87.1907 26.2283V43.1283H79.3768V26.9552C79.3768 24.3707 78.872 22.4122 77.8624 21.0796C76.8933 19.7066 75.3587 19.0201 73.2588 19.0201C71.1993 19.0201 69.5437 19.7873 68.2918 21.3219C67.04 22.816 66.414 24.9159 66.414 27.6215V43.1283H58.6001V26.9552C58.6001 24.3707 58.0751 22.4122 57.0251 21.0796C56.0156 19.7066 54.4811 19.0201 52.4216 19.0201C50.4024 19.0201 48.7468 19.7873 47.4545 21.3219C46.2027 22.816 45.5768 24.9159 45.5768 27.6215V43.1283H37.7022Z" fill="black"/>
<path d="M17.1423 43.8552C15.1636 43.8552 13.205 43.5927 11.2667 43.0678C9.32832 42.5024 7.5515 41.6342 5.9362 40.4631C4.32091 39.2516 2.9681 37.7171 1.87778 35.8595C0.827838 33.9615 0.201912 31.7001 0 29.0753H7.26882C7.59188 31.1348 8.25819 32.7501 9.26775 33.9212C10.3177 35.0922 11.5493 35.9201 12.9627 36.4047C14.4165 36.8489 15.8501 37.071 17.2634 37.071C18.8384 37.071 20.2316 36.8287 21.443 36.3441C22.6949 35.8595 23.664 35.173 24.3505 34.2846C25.0774 33.3558 25.4409 32.2857 25.4409 31.0742C25.4409 29.8224 25.0976 28.7118 24.4111 27.7427C23.7246 26.7331 22.2507 26.0264 19.9893 25.6226L12.781 24.29C9.30813 23.6439 6.58232 22.2709 4.60359 20.171C2.66523 18.0307 1.69606 15.5068 1.69606 12.5993C1.69606 9.93405 2.36237 7.67264 3.69498 5.81505C5.0276 3.95747 6.82461 2.52389 9.08603 1.51434C11.3474 0.504779 13.8309 0 16.5366 0C19.3633 0 21.9074 0.484588 24.1688 1.45376C26.4302 2.42294 28.2676 3.91708 29.681 5.9362C31.0944 7.91494 31.9424 10.4792 32.2251 13.629H24.8351C24.5928 11.8118 24.0477 10.4186 23.1996 9.44946C22.392 8.43991 21.4026 7.73321 20.2315 7.32939C19.1008 6.92557 17.9298 6.72366 16.7183 6.72366C15.5876 6.72366 14.4165 6.90538 13.205 7.26882C11.9936 7.63226 10.984 8.238 10.1763 9.08602C9.3687 9.89367 8.96488 11.0042 8.96488 12.4176C8.96488 13.629 9.40908 14.7194 10.2975 15.6885C11.2263 16.6173 12.7002 17.2634 14.7194 17.6269L21.3824 18.8384C24.9361 19.4845 27.7225 20.7565 29.7416 22.6545C31.8011 24.5121 32.8308 27.2379 32.8308 30.8319C32.8308 32.9722 32.3664 34.85 31.4376 36.4652C30.5492 38.0402 29.358 39.393 27.8638 40.5237C26.3697 41.614 24.6938 42.4418 22.8362 43.0072C20.9786 43.5725 19.0807 43.8552 17.1423 43.8552Z" fill="black"/>
</svg>
