<svg width="196" height="106" viewBox="0 0 196 106" fill="none" xmlns="http://www.w3.org/2000/svg">
<path d="M181.089 105.924C178.697 105.924 176.417 105.532 174.249 104.747C172.119 103.962 170.307 102.729 168.812 101.047C167.317 99.4028 166.42 97.2725 166.121 94.6565H173.352C173.689 96.1887 174.548 97.4033 175.931 98.3003C177.351 99.1972 179.014 99.6457 180.92 99.6457C182.34 99.6457 183.63 99.3467 184.788 98.7487C185.984 98.1508 186.937 97.2538 187.647 96.0579C188.357 94.8994 188.712 93.4045 188.712 91.5733V88.0977C188.152 88.9946 187.423 89.8168 186.526 90.5642C185.629 91.3117 184.564 91.9283 183.331 92.4141C182.135 92.8626 180.752 93.0868 179.183 93.0868C176.529 93.0868 174.137 92.4515 172.007 91.1809C169.914 89.9102 168.251 88.1911 167.018 86.0235C165.822 83.8559 165.224 81.4267 165.224 78.7359C165.224 76.0077 165.822 73.5785 167.018 71.4483C168.251 69.2807 169.914 67.5803 172.007 66.347C174.137 65.0764 176.529 64.441 179.183 64.441C181.313 64.441 183.2 64.8895 184.844 65.7864C186.489 66.646 187.778 67.7111 188.712 68.9818V65.1137H196V91.1809C196 94.3949 195.309 97.0857 193.926 99.2533C192.58 101.458 190.768 103.121 188.488 104.242C186.246 105.364 183.779 105.924 181.089 105.924ZM180.64 86.7523C182.247 86.7523 183.63 86.3972 184.788 85.6871C185.984 84.9771 186.919 84.0241 187.591 82.8282C188.264 81.6323 188.6 80.2869 188.6 78.792C188.6 77.2223 188.264 75.8396 187.591 74.6437C186.919 73.4477 185.984 72.5134 184.788 71.8407C183.63 71.1307 182.247 70.7756 180.64 70.7756C179.07 70.7756 177.688 71.1307 176.492 71.8407C175.296 72.5134 174.343 73.4477 173.633 74.6437C172.96 75.8396 172.624 77.2037 172.624 78.7359C172.624 80.2308 172.96 81.5949 173.633 82.8282C174.343 84.0241 175.296 84.9771 176.492 85.6871C177.688 86.3972 179.07 86.7523 180.64 86.7523Z" fill="black"/>
<path d="M133.925 92.9187V65.1137H141.212V69.3181C142.109 67.8232 143.342 66.646 144.912 65.7864C146.482 64.8895 148.313 64.441 150.406 64.441C153.881 64.441 156.554 65.5435 158.422 67.7485C160.291 69.9161 161.225 73.0927 161.225 77.2784V92.9187H153.937V77.9511C153.937 75.5593 153.452 73.7467 152.48 72.5134C151.546 71.2428 150.051 70.6075 147.995 70.6075C146.015 70.6075 144.389 71.3175 143.118 72.7377C141.848 74.1204 141.212 76.0638 141.212 78.5677V92.9187H133.925Z" fill="black"/>
<path d="M105.345 92.9185V71.2239H101.533V65.1136H105.345V61.5259C105.345 58.9472 105.643 57.0225 106.241 55.7518C106.839 54.4438 107.811 53.5843 109.156 53.1732C110.502 52.7621 112.296 52.5565 114.538 52.5565H118.014V58.779H115.996C114.65 58.779 113.753 58.9845 113.305 59.3956C112.856 59.8067 112.632 60.6663 112.632 61.9743V65.1136H128.497V92.9185H121.209V71.2239H112.632V92.9185H105.345Z" fill="black"/>
<path d="M86.4537 92.9185V61.5259C86.4537 58.9472 86.7527 57.0225 87.3507 55.7518C87.9486 54.4438 88.9203 53.5843 90.2657 53.1732C91.6485 52.7621 93.461 52.5565 95.7033 52.5565H99.1229V58.779H97.1048C95.7594 58.779 94.8625 58.9845 94.414 59.3956C93.9655 59.8067 93.7413 60.6663 93.7413 61.9743V92.9185H86.4537ZM82.6418 71.2239V65.1136H99.1229V71.2239H82.6418Z" fill="black"/>
<path d="M62.8707 93.5914C60.7779 93.5914 58.9653 93.2176 57.4331 92.4702C55.9382 91.7228 54.7983 90.7137 54.0135 89.4431C53.2287 88.1724 52.8363 86.7709 52.8363 85.2387C52.8363 82.3236 53.8827 80.0813 55.9756 78.5117C58.0684 76.9047 60.8153 76.1012 64.2161 76.1012C65.8231 76.1012 67.2059 76.2133 68.3644 76.4375C69.523 76.6617 70.476 76.9047 71.2234 77.1663V75.8209C71.2234 73.8775 70.6628 72.4574 69.5417 71.5604C68.4579 70.6635 67.0377 70.215 65.2812 70.215C64.048 70.215 62.9455 70.4767 61.9738 70.9999C61.0021 71.4857 60.3855 72.3639 60.1239 73.6346H53.2287C53.4529 71.6539 54.1256 69.9908 55.2468 68.6454C56.368 67.2626 57.7881 66.2162 59.5072 65.5061C61.2637 64.7961 63.1884 64.441 65.2812 64.441C69.4296 64.441 72.6622 65.4314 74.9793 67.4121C77.3338 69.3929 78.511 72.1958 78.511 75.8209V82.0994C78.511 83.5196 78.5858 84.566 78.7352 85.2387C78.9221 85.9114 79.2024 86.3412 79.5761 86.528C79.9498 86.7149 80.4544 86.8083 81.0897 86.8083H81.3139V92.9187H79.7443C77.7636 92.9187 76.1192 92.6571 74.8112 92.1338C73.5031 91.6106 72.5501 90.5829 71.9522 89.0506C71.0179 90.3587 69.7846 91.4425 68.2523 92.302C66.7201 93.1616 64.9262 93.5914 62.8707 93.5914ZM64.4964 88.0416C65.6923 88.0416 66.7014 87.78 67.5236 87.2568C68.3831 86.6962 69.0932 85.9487 69.6538 85.0144C70.2144 84.0428 70.6068 82.9963 70.831 81.8752C70.0462 81.6509 69.1306 81.4454 68.0842 81.2585C67.0751 81.0343 66.0474 80.9222 65.0009 80.9222C63.5434 80.9222 62.3662 81.2585 61.4693 81.9312C60.6097 82.5666 60.1799 83.4635 60.1799 84.622C60.1799 85.6311 60.5537 86.4533 61.3011 87.0886C62.0859 87.7239 63.151 88.0416 64.4964 88.0416Z" fill="black"/>
<path d="M45.5588 92.9185C43.6902 92.9185 42.1018 92.713 40.7938 92.3019C39.5232 91.8534 38.5702 91.0125 37.9348 89.7793C37.2995 88.5086 36.9818 86.696 36.9818 84.3416V71.2239H32.2169V65.1136H36.9818V57.6578H44.2694V65.1136H51.2767V71.2239H44.2694V83.4447C44.2694 84.379 44.3629 85.089 44.5497 85.5749C44.7366 86.0233 45.0916 86.3223 45.6148 86.4718C46.138 86.6213 46.8481 86.6961 47.745 86.6961H51.1085V92.9185H45.5588Z" fill="black"/>
<path d="M15.8645 93.5914C14.0333 93.5914 12.2207 93.3484 10.4269 92.8626C8.63298 92.3394 6.98861 91.5359 5.49372 90.4521C3.99883 89.3309 2.74686 87.9108 1.73781 86.1917C0.766131 84.4352 0.186861 82.3423 0 79.9131H6.727C7.02598 81.8191 7.64262 83.314 8.57693 84.3978C9.5486 85.4816 10.6885 86.2477 11.9965 86.6962C13.3419 87.1073 14.6686 87.3128 15.9766 87.3128C17.4341 87.3128 18.7235 87.0886 19.8447 86.6401C21.0032 86.1917 21.9001 85.5563 22.5355 84.7341C23.2082 83.8746 23.5445 82.8842 23.5445 81.763C23.5445 80.6045 23.2268 79.5768 22.5915 78.6798C21.9562 77.7455 20.5921 77.0915 18.4992 76.7178L11.8283 75.4845C8.6143 74.8866 6.09167 73.6159 4.26043 71.6725C2.46657 69.6918 1.56963 67.3561 1.56963 64.6653C1.56963 62.1987 2.18627 60.1058 3.41956 58.3867C4.65284 56.6676 6.31591 55.3409 8.40875 54.4066C10.5016 53.4723 12.8 53.0051 15.3039 53.0051C17.92 53.0051 20.2744 53.4536 22.3673 54.3505C24.4601 55.2475 26.1606 56.6302 27.4686 58.4988C28.7766 60.3301 29.5614 62.7032 29.823 65.6183H22.9839C22.7597 63.9365 22.2552 62.6472 21.4703 61.7502C20.7229 60.8159 19.8073 60.1619 18.7235 59.7882C17.6771 59.4145 16.5933 59.2276 15.4721 59.2276C14.4257 59.2276 13.3419 59.3958 12.2207 59.7321C11.0996 60.0685 10.1652 60.6291 9.4178 61.4139C8.67036 62.1613 8.29663 63.1891 8.29663 64.4971C8.29663 65.6182 8.70773 66.6273 9.52992 67.5242C10.3895 68.3838 11.7536 68.9817 13.6222 69.3181L19.7886 70.4393C23.0773 71.0372 25.656 72.2144 27.5246 73.9709C29.4306 75.6901 30.3836 78.2127 30.3836 81.5388C30.3836 83.5195 29.9538 85.2574 29.0943 86.7522C28.2721 88.2098 27.1696 89.4617 25.7868 90.5081C24.4041 91.5172 22.8531 92.2833 21.134 92.8065C19.4149 93.3298 17.6584 93.5914 15.8645 93.5914Z" fill="black"/>
<path d="M149.706 39.9135C147.838 39.9135 146.249 39.708 144.941 39.2969C143.671 38.8484 142.718 38.0075 142.082 36.7743C141.447 35.5036 141.129 33.691 141.129 31.3366V18.2189H136.364V12.1086H141.129V4.65283H148.417V12.1086H155.424V18.2189H148.417V30.4397C148.417 31.374 148.51 32.084 148.697 32.5699C148.884 33.0183 149.239 33.3173 149.762 33.4668C150.286 33.6163 150.996 33.691 151.893 33.691H155.256V39.9135H149.706Z" fill="black"/>
<path d="M117.032 39.9136V12.1087H124.32V16.3691C125.03 14.949 125.945 13.8465 127.067 13.0617C128.188 12.2395 129.477 11.8284 130.935 11.8284H134.466V18.3311H130.206C128.86 18.3311 127.739 18.6862 126.842 19.3962C125.983 20.1063 125.347 21.1714 124.936 22.5916C124.525 24.0117 124.32 25.7682 124.32 27.8611V39.9136H117.032Z" fill="black"/>
<path d="M94.9198 40.5862C92.8269 40.5862 91.0144 40.2125 89.4821 39.4651C87.9872 38.7176 86.8474 37.7086 86.0626 36.4379C85.2778 35.1673 84.8853 33.7658 84.8853 32.2336C84.8853 29.3185 85.9318 27.0762 88.0246 25.5066C90.1175 23.8995 92.8643 23.096 96.2652 23.096C97.8722 23.096 99.255 23.2082 100.414 23.4324C101.572 23.6566 102.525 23.8995 103.272 24.1612V22.8158C103.272 20.8724 102.712 19.4523 101.591 18.5553C100.507 17.6584 99.0868 17.2099 97.3303 17.2099C96.097 17.2099 94.9945 17.4715 94.0229 17.9947C93.0512 18.4806 92.4345 19.3588 92.1729 20.6295H85.2778C85.502 18.6488 86.1747 16.9857 87.2959 15.6403C88.417 14.2575 89.8372 13.2111 91.5563 12.501C93.3128 11.7909 95.2375 11.4359 97.3303 11.4359C101.479 11.4359 104.711 12.4263 107.028 14.407C109.383 16.3877 110.56 19.1906 110.56 22.8158V29.0943C110.56 30.5144 110.635 31.5609 110.784 32.2336C110.971 32.9063 111.251 33.336 111.625 33.5229C111.999 33.7098 112.503 33.8032 113.139 33.8032H113.363V39.9135H111.793C109.813 39.9135 108.168 39.6519 106.86 39.1287C105.552 38.6055 104.599 37.5778 104.001 36.0455C103.067 37.3535 101.834 38.4373 100.301 39.2969C98.7691 40.1565 96.9753 40.5862 94.9198 40.5862ZM96.5455 35.0365C97.7414 35.0365 98.7504 34.7749 99.5726 34.2517C100.432 33.6911 101.142 32.9436 101.703 32.0093C102.263 31.0376 102.656 29.9912 102.88 28.8701C102.095 28.6458 101.18 28.4403 100.133 28.2534C99.1242 28.0292 98.0964 27.9171 97.05 27.9171C95.5925 27.9171 94.4153 28.2534 93.5183 28.9261C92.6588 29.5614 92.229 30.4584 92.229 31.6169C92.229 32.626 92.6027 33.4481 93.3502 34.0835C94.135 34.7188 95.2001 35.0365 96.5455 35.0365Z" fill="black"/>
<path d="M34.9702 39.9135V12.1086H42.2578V15.5282C43.1548 14.2575 44.332 13.2671 45.7895 12.5571C47.247 11.8096 48.8914 11.4359 50.7226 11.4359C52.8529 11.4359 54.6841 11.8657 56.2164 12.7253C57.7486 13.5474 58.9445 14.762 59.8041 16.369C60.8505 14.8368 62.2146 13.6409 63.8963 12.7813C65.5781 11.8844 67.4467 11.4359 69.5022 11.4359C73.1273 11.4359 75.9115 12.5384 77.8549 14.7434C79.7982 16.9109 80.7699 20.0876 80.7699 24.2733V39.9135H73.5384V24.946C73.5384 22.5541 73.0712 20.7416 72.1369 19.5083C71.24 18.2377 69.8198 17.6023 67.8765 17.6023C65.9705 17.6023 64.4382 18.3124 63.2797 19.7325C62.1212 21.1153 61.5419 23.0587 61.5419 25.5626V39.9135H54.3104V24.946C54.3104 22.5541 53.8245 20.7416 52.8529 19.5083C51.9185 18.2377 50.4984 17.6023 48.5924 17.6023C46.7238 17.6023 45.1915 18.3124 43.9956 19.7325C42.8371 21.1153 42.2578 23.0587 42.2578 25.5626V39.9135H34.9702Z" fill="black"/>
<path d="M15.9428 40.5862C14.1116 40.5862 12.299 40.3433 10.5052 39.8575C8.71128 39.3343 7.06691 38.5308 5.57202 37.447C4.07713 36.3258 2.82516 34.9056 1.81611 33.1865C0.844431 31.43 0.265162 29.3372 0.0783005 26.908H6.8053C7.10428 28.814 7.72092 30.3089 8.65523 31.3927C9.6269 32.4765 10.7668 33.2426 12.0748 33.6911C13.4202 34.1021 14.7469 34.3077 16.0549 34.3077C17.5124 34.3077 18.8018 34.0835 19.923 33.635C21.0815 33.1865 21.9784 32.5512 22.6138 31.729C23.2865 30.8694 23.6228 29.8791 23.6228 28.7579C23.6228 27.5994 23.3051 26.5716 22.6698 25.6747C22.0345 24.7404 20.6704 24.0864 18.5775 23.7127L11.9066 22.4794C8.6926 21.8814 6.16997 20.6108 4.33873 18.6674C2.54487 16.6867 1.64793 14.3509 1.64793 11.6601C1.64793 9.19356 2.26458 7.10072 3.49786 5.3816C4.73114 3.66248 6.39421 2.33576 8.48705 1.40146C10.5799 0.467153 12.8783 0 15.3822 0C17.9983 0 20.3527 0.448468 22.4456 1.3454C24.5384 2.24233 26.2389 3.6251 27.5469 5.49372C28.8549 7.32495 29.6397 9.69809 29.9013 12.6131H23.0622C22.838 10.9314 22.3335 9.64203 21.5486 8.7451C20.8012 7.81079 19.8856 7.15678 18.8018 6.78306C17.7554 6.40934 16.6716 6.22247 15.5504 6.22247C14.504 6.22247 13.4202 6.39065 12.299 6.727C11.1779 7.06335 10.2435 7.62393 9.4961 8.40875C8.74866 9.15619 8.37493 10.1839 8.37493 11.492C8.37493 12.6131 8.78603 13.6222 9.60822 14.5191C10.4678 15.3787 11.8319 15.9766 13.7005 16.313L19.8669 17.4341C23.1556 18.0321 25.7343 19.2093 27.6029 20.9658C29.5089 22.6849 30.4619 25.2076 30.4619 28.5337C30.4619 30.5144 30.0321 32.2522 29.1726 33.7471C28.3504 35.2046 27.2479 36.4566 25.8651 37.503C24.4824 38.5121 22.9314 39.2782 21.2123 39.8014C19.4932 40.3246 17.7367 40.5862 15.9428 40.5862Z" fill="black"/>
</svg>
