<svg width="887" height="127" viewBox="0 0 887 127" fill="none" xmlns="http://www.w3.org/2000/svg">
<path d="M850.635 126.965C844.944 126.965 839.521 126.031 834.364 124.164C829.296 122.297 824.984 119.363 821.428 115.362C817.871 111.45 815.737 106.382 815.026 100.158H832.23C833.03 103.803 835.075 106.693 838.365 108.827C841.744 110.961 845.7 112.028 850.235 112.028C853.613 112.028 856.681 111.316 859.437 109.894C862.282 108.471 864.549 106.337 866.239 103.492C867.928 100.736 868.772 97.1797 868.772 92.823V84.5543C867.439 86.6882 865.705 88.6442 863.571 90.4224C861.437 92.2007 858.903 93.6677 855.969 94.8235C853.124 95.8904 849.834 96.4239 846.1 96.4239C839.788 96.4239 834.097 94.9124 829.029 91.8895C824.05 88.8665 820.094 84.7766 817.16 79.6198C814.315 74.4629 812.892 68.6838 812.892 62.2822C812.892 55.7917 814.315 50.0125 817.16 44.9446C820.094 39.7878 824.05 35.7423 829.029 32.8083C834.097 29.7853 839.788 28.2738 846.1 28.2738C851.168 28.2738 855.658 29.3408 859.57 31.4746C863.482 33.5196 866.55 36.0535 868.772 39.0765V29.8742H886.11V91.8895C886.11 99.5358 884.465 105.937 881.176 111.094C877.975 116.34 873.663 120.296 868.239 122.964C862.904 125.631 857.036 126.965 850.635 126.965ZM849.568 81.3535C853.391 81.3535 856.681 80.5089 859.437 78.8196C862.282 77.1303 864.505 74.8631 866.105 72.0179C867.706 69.1728 868.506 65.972 868.506 62.4156C868.506 58.6813 867.706 55.3916 866.105 52.5465C864.505 49.7013 862.282 47.4786 859.437 45.8782C856.681 44.1889 853.391 43.3442 849.568 43.3442C845.834 43.3442 842.544 44.1889 839.699 45.8782C836.854 47.4786 834.586 49.7013 832.897 52.5465C831.297 55.3916 830.496 58.6369 830.496 62.2822C830.496 65.8386 831.297 69.0839 832.897 72.0179C834.586 74.8631 836.854 77.1303 839.699 78.8196C842.544 80.5089 845.834 81.3535 849.568 81.3535Z" fill="black"/>
<path d="M738.429 96.0238V29.8742H755.767V39.8767C757.901 36.3203 760.835 33.5196 764.569 31.4746C768.303 29.3408 772.66 28.2738 777.639 28.2738C785.908 28.2738 792.265 30.8967 796.71 36.1424C801.156 41.2992 803.379 48.8567 803.379 58.8147V96.0238H786.041V60.4151C786.041 54.7248 784.885 50.4126 782.573 47.4785C780.351 44.4556 776.794 42.9441 771.904 42.9441C767.192 42.9441 763.324 44.6334 760.301 48.012C757.278 51.3017 755.767 55.9251 755.767 61.8821V96.0238H738.429Z" fill="black"/>
<path d="M670.435 96.0236V44.4109H661.366V29.874H670.435V21.3386C670.435 15.2037 671.146 10.6248 672.569 7.60187C673.992 4.49 676.303 2.44505 679.504 1.46703C682.705 0.489014 686.972 0 692.307 0H700.576V14.8036H695.775C692.574 14.8036 690.44 15.2926 689.373 16.2707C688.306 17.2487 687.773 19.2936 687.773 22.4055V29.874H725.515V96.0236H708.178V44.4109H687.773V96.0236H670.435Z" fill="black"/>
<path d="M625.492 96.0236V21.3386C625.492 15.2037 626.204 10.6248 627.626 7.60187C629.049 4.49 631.36 2.44505 634.561 1.46703C637.851 0.489014 642.163 0 647.498 0H655.633V14.8036H650.832C647.631 14.8036 645.497 15.2926 644.43 16.2707C643.363 17.2487 642.83 19.2936 642.83 22.4055V96.0236H625.492ZM616.423 44.4109V29.874H655.633V44.4109H616.423Z" fill="black"/>
<path d="M569.388 97.6242C564.409 97.6242 560.096 96.7351 556.451 94.9569C552.895 93.1787 550.183 90.7781 548.316 87.7551C546.449 84.7321 545.515 81.398 545.515 77.7526C545.515 70.8176 548.005 65.483 552.984 61.7487C557.963 57.9256 564.498 56.014 572.588 56.014C576.412 56.014 579.701 56.2807 582.458 56.8142C585.214 57.3476 587.481 57.9256 589.259 58.5479V55.3472C589.259 50.7238 587.926 47.3452 585.258 45.2113C582.68 43.0775 579.301 42.0105 575.122 42.0105C572.188 42.0105 569.565 42.6329 567.254 43.8777C564.942 45.0335 563.475 47.1229 562.853 50.1459H546.449C546.982 45.4336 548.583 41.4771 551.25 38.2763C553.917 34.9866 557.296 32.4971 561.386 30.8078C565.565 29.1185 570.143 28.2738 575.122 28.2738C584.992 28.2738 592.682 30.63 598.195 35.3422C603.796 40.0545 606.597 46.7228 606.597 55.3472V70.2841C606.597 73.6628 606.775 76.1522 607.13 77.7526C607.575 79.353 608.242 80.3755 609.131 80.8201C610.02 81.2646 611.22 81.4869 612.732 81.4869H613.265V96.0238H609.531C604.819 96.0238 600.907 95.4014 597.795 94.1567C594.683 92.9119 592.416 90.4669 590.993 86.8215C588.77 89.9334 585.836 92.5118 582.191 94.5568C578.545 96.6017 574.278 97.6242 569.388 97.6242ZM573.255 84.421C576.1 84.421 578.501 83.7986 580.457 82.5538C582.502 81.2202 584.191 79.442 585.525 77.2192C586.859 74.9075 587.792 72.418 588.326 69.7507C586.459 69.2172 584.28 68.7282 581.791 68.2837C579.39 67.7502 576.945 67.4835 574.456 67.4835C570.988 67.4835 568.187 68.2837 566.054 69.8841C564.009 71.3955 562.986 73.5294 562.986 76.2856C562.986 78.6862 563.875 80.6423 565.653 82.1537C567.521 83.6652 570.055 84.421 573.255 84.421Z" fill="black"/>
<path d="M528.201 96.0238C523.755 96.0238 519.976 95.5348 516.864 94.5567C513.842 93.4898 511.574 91.4893 510.063 88.5553C508.551 85.5323 507.796 81.2201 507.796 75.6187V44.4111H496.459V29.8742H507.796V12.1365H525.133V29.8742H541.804V44.4111H525.133V73.4849C525.133 75.7076 525.355 77.3969 525.8 78.5528C526.245 79.6197 527.089 80.331 528.334 80.6866C529.579 81.0423 531.268 81.2201 533.402 81.2201H541.404V96.0238H528.201Z" fill="black"/>
<path d="M457.557 97.522C453.2 97.522 448.888 96.944 444.62 95.7882C440.352 94.5434 436.44 92.6319 432.884 90.0534C429.327 87.3861 426.349 84.0075 423.948 79.9176C421.637 75.7388 420.259 70.7598 419.814 64.9806H435.818C436.529 69.5151 437.996 73.0715 440.219 75.6499C442.531 78.2283 445.242 80.051 448.354 81.1179C451.555 82.0959 454.711 82.5849 457.823 82.5849C461.291 82.5849 464.358 82.0515 467.026 80.9846C469.782 79.9176 471.916 78.4061 473.427 76.4501C475.028 74.4052 475.828 72.049 475.828 69.3817C475.828 66.6255 475.072 64.1804 473.561 62.0466C472.049 59.8238 468.804 58.2679 463.825 57.3788L447.954 54.4447C440.308 53.0221 434.306 49.9992 429.95 45.3758C425.682 40.6635 423.548 35.1066 423.548 28.705C423.548 22.8369 425.015 17.8579 427.949 13.768C430.883 9.67815 434.84 6.52182 439.819 4.29905C444.798 2.07629 450.266 0.964905 456.223 0.964905C462.447 0.964905 468.048 2.03183 473.027 4.16569C478.006 6.29955 482.051 9.58924 485.163 14.0348C488.275 18.3914 490.142 24.0372 490.765 30.9723H474.494C473.961 26.9713 472.76 23.9039 470.893 21.77C469.115 19.5473 466.937 17.9913 464.358 17.1022C461.869 16.2131 459.29 15.7685 456.623 15.7685C454.134 15.7685 451.555 16.1686 448.888 16.9688C446.22 17.769 443.998 19.1027 442.219 20.9698C440.441 22.748 439.552 25.1931 439.552 28.3049C439.552 30.9723 440.53 33.3729 442.486 35.5067C444.531 37.5517 447.776 38.9742 452.222 39.7744L466.892 42.4418C474.716 43.8643 480.851 46.665 485.297 50.8438C489.831 54.9337 492.098 60.9352 492.098 68.8482C492.098 73.5605 491.076 77.6949 489.031 81.2513C487.075 84.7188 484.452 87.6973 481.162 90.1868C477.873 92.5874 474.183 94.4101 470.093 95.6548C466.003 96.8996 461.824 97.522 457.557 97.522Z" fill="black"/>
<path d="M355.974 96.9566C351.528 96.9566 347.75 96.4676 344.638 95.4896C341.615 94.4227 339.348 92.4222 337.836 89.4881C336.325 86.4652 335.569 82.153 335.569 76.5516V45.344H324.233V30.8071H335.569V13.0694H352.907V30.8071H369.577V45.344H352.907V74.4178C352.907 76.6405 353.129 78.3298 353.573 79.4857C354.018 80.5526 354.863 81.2639 356.107 81.6195C357.352 81.9752 359.041 82.153 361.175 82.153H369.177V96.9566H355.974Z" fill="black"/>
<path d="M278.241 96.9568V30.8072H295.578V40.9431C297.268 37.5644 299.446 34.9416 302.113 33.0744C304.781 31.1184 307.848 30.1404 311.316 30.1404H319.718V45.6109H309.582C306.381 45.6109 303.714 46.4555 301.58 48.1448C299.535 49.8341 298.023 52.3681 297.045 55.7467C296.067 59.1253 295.578 63.3041 295.578 68.2831V96.9568H278.241Z" fill="black"/>
<path d="M225.634 98.5572C220.655 98.5572 216.343 97.6681 212.697 95.8899C209.141 94.1117 206.429 91.7111 204.562 88.6881C202.695 85.6652 201.761 82.331 201.761 78.6857C201.761 71.7507 204.251 66.416 209.23 62.6818C214.209 58.8586 220.744 56.947 228.835 56.947C232.658 56.947 235.947 57.2137 238.704 57.7472C241.46 58.2807 243.727 58.8586 245.505 59.481V56.2802C245.505 51.6568 244.172 48.2782 241.504 46.1444C238.926 44.0105 235.547 42.9436 231.369 42.9436C228.434 42.9436 225.812 43.5659 223.5 44.8107C221.188 45.9665 219.721 48.0559 219.099 51.0789H202.695C203.228 46.3666 204.829 42.4101 207.496 39.2093C210.163 35.9196 213.542 33.4301 217.632 31.7408C221.811 30.0515 226.39 29.2069 231.369 29.2069C241.238 29.2069 248.928 31.563 254.441 36.2753C260.042 40.9875 262.843 47.6558 262.843 56.2802V71.2172C262.843 74.5958 263.021 77.0853 263.376 78.6857C263.821 80.2861 264.488 81.3086 265.377 81.7531C266.266 82.1977 267.466 82.4199 268.978 82.4199H269.511V96.9568H265.777C261.065 96.9568 257.153 96.3345 254.041 95.0897C250.929 93.845 248.662 91.3999 247.239 87.7546C245.016 90.8665 242.082 93.4449 238.437 95.4898C234.792 97.5348 230.524 98.5572 225.634 98.5572ZM229.501 85.354C232.347 85.354 234.747 84.7316 236.703 83.4869C238.748 82.1532 240.437 80.375 241.771 78.1522C243.105 75.8405 244.038 73.351 244.572 70.6837C242.705 70.1503 240.526 69.6612 238.037 69.2167C235.636 68.6832 233.191 68.4165 230.702 68.4165C227.234 68.4165 224.433 69.2167 222.3 70.8171C220.255 72.3286 219.232 74.4624 219.232 77.2187C219.232 79.6192 220.121 81.5753 221.9 83.0868C223.767 84.5982 226.301 85.354 229.501 85.354Z" fill="black"/>
<path d="M83.0103 96.9568V30.8073H100.348V38.9426C102.482 35.9196 105.282 33.5635 108.75 31.8742C112.217 30.096 116.13 29.2069 120.486 29.2069C125.554 29.2069 129.911 30.2293 133.556 32.2743C137.201 34.2303 140.046 37.1199 142.091 40.9431C144.581 37.2977 147.826 34.4526 151.827 32.4076C155.828 30.2738 160.274 29.2069 165.164 29.2069C173.788 29.2069 180.412 31.8297 185.035 37.0755C189.659 42.2323 191.97 49.7897 191.97 59.7477V96.9568H174.766V61.3481C174.766 55.6578 173.655 51.3456 171.432 48.4116C169.298 45.3886 165.92 43.8771 161.296 43.8771C156.762 43.8771 153.116 45.5664 150.36 48.945C147.604 52.2347 146.226 56.8581 146.226 62.8151V96.9568H129.022V61.3481C129.022 55.6578 127.866 51.3456 125.554 48.4116C123.331 45.3886 119.953 43.8771 115.418 43.8771C110.973 43.8771 107.327 45.5664 104.482 48.945C101.726 52.2347 100.348 56.8581 100.348 62.8151V96.9568H83.0103Z" fill="black"/>
<path d="M37.7426 98.5571C33.386 98.5571 29.0738 97.9791 24.8061 96.8233C20.5384 95.5786 16.6263 93.667 13.0699 91.0886C9.51345 88.4212 6.53494 85.0426 4.13435 80.9527C1.82267 76.7739 0.444554 71.7949 0 66.0157H16.0039C16.7152 70.5502 18.1822 74.1066 20.405 76.685C22.7167 79.2634 25.4285 81.0861 28.5403 82.153C31.7411 83.131 34.8975 83.62 38.0093 83.62C41.4769 83.62 44.5443 83.0866 47.2116 82.0197C49.9678 80.9527 52.1017 79.4412 53.6132 77.4852C55.2136 75.4403 56.0138 73.0841 56.0138 70.4168C56.0138 67.6606 55.258 65.2155 53.7465 63.0817C52.2351 60.8589 48.9898 59.303 44.0108 58.4139L28.1402 55.4798C20.4939 54.0572 14.4925 51.0343 10.1358 46.4109C5.86811 41.6986 3.73425 36.1417 3.73425 29.7402C3.73425 23.872 5.20128 18.893 8.13533 14.8031C11.0694 10.7132 15.0259 7.55692 20.0049 5.33415C24.9839 3.11138 30.4519 2 36.4089 2C42.6327 2 48.2341 3.06693 53.2131 5.20079C58.1921 7.33464 62.2375 10.6243 65.3494 15.0699C68.4613 19.4265 70.3284 25.0723 70.9508 32.0074H54.6801C54.1466 28.0064 52.9463 24.939 51.0792 22.8051C49.301 20.5823 47.1227 19.0264 44.5443 18.1373C42.0548 17.2482 39.4764 16.8036 36.809 16.8036C34.3195 16.8036 31.7411 17.2037 29.0738 18.0039C26.4065 18.8041 24.1837 20.1378 22.4055 22.0049C20.6273 23.7831 19.7382 26.2282 19.7382 29.34C19.7382 32.0074 20.7162 34.408 22.6722 36.5418C24.7172 38.5868 27.9624 40.0093 32.408 40.8095L47.0782 43.4769C54.9024 44.8994 61.0372 47.7001 65.4828 51.8789C70.0172 55.9688 72.2844 61.9703 72.2844 69.8833C72.2844 74.5956 71.262 78.73 69.217 82.2864C67.261 85.7539 64.6381 88.7324 61.3484 91.2219C58.0587 93.6225 54.3689 95.4452 50.279 96.6899C46.1891 97.9347 42.0103 98.5571 37.7426 98.5571Z" fill="black"/>
</svg>
