<svg width="160" height="109" viewBox="0 0 160 109" fill="none" xmlns="http://www.w3.org/2000/svg">
<path d="M130.368 96.2717C127.442 96.2717 124.864 95.6558 122.631 94.4241C120.398 93.1538 118.647 91.4217 117.377 89.2277C116.107 86.9951 115.472 84.4162 115.472 81.4908C115.472 78.5269 116.087 75.8902 117.319 73.5807C118.589 71.2712 120.341 69.4813 122.573 68.2111C124.806 66.9024 127.404 66.248 130.368 66.248C133.216 66.248 135.718 66.8639 137.874 68.0956C140.029 69.3274 141.704 71.0018 142.897 73.1188C144.129 75.2359 144.745 77.6416 144.745 80.336C144.745 80.721 144.745 81.1444 144.745 81.6063C144.745 82.0682 144.706 82.5493 144.629 83.0497H120.899V78.4307H137.181C137.065 76.5831 136.373 75.1011 135.102 73.9849C133.832 72.8686 132.273 72.3105 130.426 72.3105C129.04 72.3105 127.77 72.6184 126.615 73.2343C125.46 73.8502 124.536 74.774 123.843 76.0057C123.189 77.1989 122.862 78.7386 122.862 80.6247V82.2414C122.862 83.858 123.189 85.263 123.843 86.4562C124.498 87.6495 125.383 88.5733 126.499 89.2277C127.616 89.8435 128.886 90.1515 130.31 90.1515C131.773 90.1515 133.005 89.8243 134.005 89.1699C135.006 88.5156 135.776 87.6495 136.315 86.5717H143.936C143.397 88.3808 142.493 90.036 141.223 91.5372C139.991 92.9999 138.451 94.1546 136.604 95.0014C134.756 95.8483 132.677 96.2717 130.368 96.2717Z" fill="black"/>
<path d="M96.4113 108.974C93.9478 108.974 91.5998 108.57 89.3673 107.761C87.1733 106.953 85.3064 105.683 83.7667 103.951C82.2271 102.257 81.3033 100.063 80.9953 97.3687H88.4435C88.7899 98.9468 89.6752 100.198 91.0994 101.122C92.5621 102.045 94.275 102.507 96.2381 102.507C97.7008 102.507 99.0288 102.199 100.222 101.584C101.454 100.968 102.435 100.044 103.167 98.8121C103.898 97.6189 104.264 96.0792 104.264 94.1931V90.6134C103.686 91.5372 102.936 92.384 102.012 93.1538C101.088 93.9237 99.9911 94.5588 98.7208 95.0592C97.4891 95.5211 96.0649 95.752 94.4482 95.752C91.7153 95.752 89.2518 95.0977 87.0578 93.7889C84.9022 92.4802 83.1894 90.7096 81.9191 88.4771C80.6874 86.2445 80.0715 83.7426 80.0715 80.9711C80.0715 78.1612 80.6874 75.6593 81.9191 73.4652C83.1894 71.2327 84.9022 69.4813 87.0578 68.2111C89.2518 66.9024 91.7153 66.248 94.4482 66.248C96.6423 66.248 98.5861 66.7099 100.28 67.6337C101.973 68.519 103.301 69.616 104.264 70.9248V66.9409H111.77V93.7889C111.77 97.0992 111.057 99.8706 109.633 102.103C108.248 104.374 106.381 106.087 104.033 107.242C101.723 108.397 99.1827 108.974 96.4113 108.974ZM95.9494 89.2277C97.6046 89.2277 99.0288 88.862 100.222 88.1306C101.454 87.3993 102.416 86.4177 103.109 85.186C103.802 83.9543 104.148 82.5686 104.148 81.0289C104.148 79.4122 103.802 77.988 103.109 76.7563C102.416 75.5246 101.454 74.5623 100.222 73.8694C99.0288 73.1381 97.6046 72.7724 95.9494 72.7724C94.3328 72.7724 92.9086 73.1381 91.6768 73.8694C90.4451 74.5623 89.4635 75.5246 88.7322 76.7563C88.0393 77.988 87.6929 79.393 87.6929 80.9711C87.6929 82.5108 88.0393 83.9158 88.7322 85.186C89.4635 86.4177 90.4451 87.3993 91.6768 88.1306C92.9086 88.862 94.3328 89.2277 95.9494 89.2277Z" fill="black"/>
<path d="M61.1412 95.5789V66.941H68.6471V71.3291C69.3784 69.8664 70.3215 68.7309 71.4762 67.9225C72.631 67.0757 73.959 66.6523 75.4601 66.6523H79.0976V73.3499H74.7096C73.3238 73.3499 72.1691 73.7156 71.2453 74.4469C70.36 75.1782 69.7056 76.2753 69.2822 77.738C68.8588 79.2006 68.6471 81.0098 68.6471 83.1653V95.5789H61.1412Z" fill="black"/>
<path d="M42.1355 96.2717C39.2486 96.2717 36.6504 95.6365 34.3409 94.3663C32.0313 93.0961 30.203 91.3255 28.8558 89.0544C27.5086 86.7834 26.8349 84.1852 26.8349 81.2598C26.8349 78.296 27.5086 75.6978 28.8558 73.4652C30.203 71.1942 32.0313 69.4236 34.3409 68.1534C36.6889 66.8831 39.2871 66.248 42.1355 66.248C45.0223 66.248 47.6205 66.8831 49.9301 68.1534C52.2396 69.4236 54.0679 71.1942 55.4151 73.4652C56.7624 75.6978 57.436 78.296 57.436 81.2598C57.436 84.1852 56.7624 86.7834 55.4151 89.0544C54.0679 91.3255 52.2396 93.0961 49.9301 94.3663C47.6205 95.6365 45.0223 96.2717 42.1355 96.2717ZM42.1355 89.805C43.5212 89.805 44.7914 89.4971 45.9462 88.8812C47.1009 88.2269 48.0055 87.2646 48.6598 85.9943C49.3527 84.7241 49.6991 83.1459 49.6991 81.2598C49.6991 79.3737 49.3527 77.7956 48.6598 76.5253C47.967 75.2551 47.0432 74.3121 45.8884 73.6962C44.7721 73.0418 43.5404 72.7146 42.1932 72.7146C40.8075 72.7146 39.5373 73.0418 38.3825 73.6962C37.2277 74.3506 36.3039 75.3128 35.6111 76.5831C34.9182 77.8148 34.5718 79.3737 34.5718 81.2598C34.5718 83.1459 34.899 84.7241 35.5533 85.9943C36.2462 87.2646 37.17 88.2269 38.3248 88.8812C39.4795 89.4971 40.7497 89.805 42.1355 89.805Z" fill="black"/>
<path d="M1.44348 95.5789V55.1624H27.6564V61.2249H8.94939V72.3683H24.0767V78.2576H8.94939V95.5789H1.44348Z" fill="black"/>
<path d="M154.111 41.1093C152.186 41.1093 150.55 40.8976 149.203 40.4742C147.894 40.0123 146.913 39.1462 146.258 37.876C145.604 36.5673 145.277 34.7004 145.277 32.2754V18.7648H140.369V12.4714H145.277V4.79223H152.783V12.4714H160V18.7648H152.783V31.3516C152.783 32.3139 152.879 33.0453 153.071 33.5456C153.264 34.0075 153.63 34.3155 154.168 34.4695C154.707 34.6234 155.439 34.7004 156.363 34.7004H159.827V41.1093H154.111Z" fill="black"/>
<path d="M120.458 41.1093V12.4714H127.964V16.8594C128.695 15.3967 129.638 14.2612 130.793 13.4529C131.948 12.6061 133.275 12.1827 134.777 12.1827H138.414V18.8802H134.026C132.64 18.8802 131.486 19.2459 130.562 19.9773C129.676 20.7086 129.022 21.8056 128.599 23.2683C128.175 24.731 127.964 26.5401 127.964 28.6957V41.1093H120.458Z" fill="black"/>
<path d="M97.6829 41.8022C95.5273 41.8022 93.6605 41.4172 92.0823 40.6474C90.5427 39.8776 89.3686 38.8383 88.5603 37.5296C87.752 36.2208 87.3478 34.7774 87.3478 33.1992C87.3478 30.1969 88.4256 27.8873 90.5811 26.2707C92.7367 24.6155 95.5658 23.788 99.0686 23.788C100.724 23.788 102.148 23.9034 103.341 24.1344C104.534 24.3653 105.516 24.6155 106.286 24.885V23.4993C106.286 21.4977 105.708 20.035 104.554 19.1112C103.437 18.1874 101.975 17.7255 100.166 17.7255C98.8954 17.7255 97.7599 17.9949 96.7591 18.5338C95.7583 19.0342 95.1232 19.9388 94.8537 21.2475H87.752C87.9829 19.2074 88.6758 17.4945 89.8305 16.1088C90.9853 14.6846 92.448 13.6069 94.2186 12.8755C96.0277 12.1442 98.0101 11.7785 100.166 11.7785C104.438 11.7785 107.768 12.7985 110.154 14.8386C112.579 16.8787 113.792 19.7656 113.792 23.4993V29.9659C113.792 31.4286 113.869 32.5064 114.023 33.1992C114.215 33.8921 114.504 34.3347 114.889 34.5272C115.274 34.7196 115.793 34.8159 116.448 34.8159H116.679V41.1093H115.062C113.022 41.1093 111.328 40.8399 109.981 40.301C108.634 39.7621 107.652 38.7036 107.036 37.1254C106.074 38.4726 104.804 39.5889 103.226 40.4742C101.648 41.3595 99.7999 41.8022 97.6829 41.8022ZM99.3573 36.0861C100.589 36.0861 101.628 35.8167 102.475 35.2778C103.36 34.7004 104.092 33.9306 104.669 32.9683C105.247 31.9675 105.651 30.8897 105.882 29.7349C105.073 29.504 104.13 29.2923 103.053 29.0998C102.013 28.8689 100.955 28.7534 99.8769 28.7534C98.3757 28.7534 97.1633 29.0998 96.2394 29.7927C95.3541 30.4471 94.9115 31.3709 94.9115 32.5641C94.9115 33.6034 95.2964 34.4502 96.0662 35.1046C96.8746 35.7589 97.9716 36.0861 99.3573 36.0861Z" fill="black"/>
<path d="M35.9373 41.1093V12.4714H43.4432V15.9934C44.367 14.6846 45.5795 13.6646 47.0807 12.9333C48.5818 12.1634 50.2755 11.7785 52.1616 11.7785C54.3556 11.7785 56.2417 12.2212 57.8199 13.1065C59.3981 13.9533 60.6298 15.2043 61.5151 16.8594C62.5929 15.2813 63.9978 14.0495 65.73 13.1642C67.4621 12.2404 69.3867 11.7785 71.5037 11.7785C75.2375 11.7785 78.1051 12.914 80.1067 15.185C82.1083 17.4176 83.109 20.6894 83.109 25.0005V41.1093H75.6609V25.6933C75.6609 23.2298 75.1797 21.363 74.2174 20.0927C73.2936 18.784 71.8309 18.1297 69.8294 18.1297C67.8663 18.1297 66.2881 18.861 65.0948 20.3237C63.9016 21.7479 63.305 23.7495 63.305 26.3284V41.1093H55.8568V25.6933C55.8568 23.2298 55.3564 21.363 54.3556 20.0927C53.3933 18.784 51.9306 18.1297 49.9676 18.1297C48.043 18.1297 46.4648 18.861 45.2331 20.3237C44.0398 21.7479 43.4432 23.7495 43.4432 26.3284V41.1093H35.9373Z" fill="black"/>
<path d="M16.3398 41.8022C14.4537 41.8022 12.5868 41.552 10.7392 41.0516C8.89162 40.5127 7.19798 39.6851 5.6583 38.5688C4.11863 37.4141 2.82915 35.9514 1.78987 34.1808C0.789083 32.3717 0.192459 30.2161 0 27.7141H6.92853C7.23647 29.6772 7.87158 31.2169 8.83388 32.3332C9.83467 33.4494 11.0087 34.2385 12.3559 34.7004C13.7416 35.1238 15.1081 35.3355 16.4553 35.3355C17.9565 35.3355 19.2844 35.1046 20.4392 34.6427C21.6324 34.1808 22.5562 33.5264 23.2106 32.6796C23.9034 31.7943 24.2499 30.7742 24.2499 29.6195C24.2499 28.4262 23.9227 27.3677 23.2683 26.4439C22.614 25.4816 21.209 24.808 19.0535 24.4231L12.1827 23.1529C8.87237 22.537 6.27417 21.2283 4.38807 19.2267C2.54046 17.1866 1.61666 14.7809 1.61666 12.0095C1.61666 9.469 2.25177 7.31345 3.522 5.54282C4.79224 3.7722 6.50512 2.40574 8.66067 1.44344C10.8162 0.481148 13.1835 0 15.7624 0C18.4568 0 20.8818 0.461902 23.0374 1.38571C25.1929 2.30951 26.9443 3.73371 28.2915 5.6583C29.6387 7.5444 30.4471 9.98864 30.7165 12.991H23.6725C23.4415 11.2589 22.9219 9.9309 22.1136 9.00709C21.3437 8.0448 20.4007 7.37119 19.2844 6.98627C18.2066 6.60135 17.0904 6.40889 15.9356 6.40889C14.8579 6.40889 13.7416 6.58211 12.5868 6.92854C11.4321 7.27496 10.4698 7.85234 9.69995 8.66067C8.93011 9.4305 8.54519 10.489 8.54519 11.8362C8.54519 12.991 8.9686 14.0303 9.81542 14.9541C10.7007 15.8394 12.1057 16.4553 14.0303 16.8017L20.3814 17.9564C23.7687 18.5723 26.4247 19.7848 28.3493 21.5939C30.3123 23.3646 31.2939 25.9628 31.2939 29.3885C31.2939 31.4286 30.8512 33.2185 29.9659 34.7581C29.1191 36.2593 27.9836 37.5488 26.5594 38.6266C25.1352 39.6659 23.5378 40.4549 21.7671 40.9938C19.9965 41.5327 18.1874 41.8022 16.3398 41.8022Z" fill="black"/>
</svg>
