<svg width="209" height="87" viewBox="0 0 209 87" fill="none" xmlns="http://www.w3.org/2000/svg">
<path d="M13.5476 17.28V2.808H8.60364V0.479998H21.3476V2.808H16.4276V17.28H13.5476ZM24.3165 17.568C23.4045 17.568 22.6285 17.408 21.9885 17.088C21.3485 16.752 20.8605 16.312 20.5245 15.768C20.1885 15.224 20.0205 14.632 20.0205 13.992C20.0205 12.744 20.4685 11.776 21.3645 11.088C22.2765 10.4 23.4685 10.056 24.9405 10.056C25.6125 10.056 26.2045 10.112 26.7165 10.224C27.2445 10.32 27.6685 10.416 27.9885 10.512V9.96C27.9885 9.08 27.7405 8.432 27.2445 8.016C26.7645 7.6 26.1325 7.392 25.3485 7.392C24.7725 7.392 24.2605 7.512 23.8125 7.752C23.3645 7.976 23.0765 8.392 22.9485 9H20.2125C20.3085 8.136 20.5965 7.416 21.0765 6.84C21.5565 6.264 22.1645 5.832 22.9005 5.544C23.6525 5.24 24.4685 5.088 25.3485 5.088C27.0925 5.088 28.4445 5.52 29.4045 6.384C30.3805 7.232 30.8685 8.424 30.8685 9.96V12.864C30.8685 13.472 30.9005 13.92 30.9645 14.208C31.0445 14.48 31.1645 14.656 31.3245 14.736C31.5005 14.8 31.7245 14.832 31.9965 14.832H32.1165V17.28H31.4685C30.6525 17.28 29.9645 17.168 29.4045 16.944C28.8605 16.704 28.4765 16.24 28.2525 15.552C27.8525 16.128 27.3245 16.608 26.6685 16.992C26.0125 17.376 25.2285 17.568 24.3165 17.568ZM24.9405 15.336C25.5005 15.336 25.9805 15.208 26.3805 14.952C26.7805 14.68 27.1005 14.328 27.3405 13.896C27.5965 13.448 27.7645 12.96 27.8445 12.432C27.5085 12.336 27.1085 12.24 26.6445 12.144C26.1805 12.048 25.7085 12 25.2285 12C24.5085 12 23.9405 12.16 23.5245 12.48C23.1245 12.8 22.9245 13.232 22.9245 13.776C22.9245 14.224 23.1005 14.6 23.4525 14.904C23.8205 15.192 24.3165 15.336 24.9405 15.336ZM33.645 17.28V-1.90735e-06H36.525V17.28H33.645ZM44.347 17.568C43.147 17.568 42.083 17.312 41.155 16.8C40.243 16.272 39.523 15.544 38.995 14.616C38.483 13.688 38.227 12.616 38.227 11.4C38.227 10.168 38.483 9.08 38.995 8.136C39.507 7.176 40.227 6.432 41.155 5.904C42.083 5.36 43.155 5.088 44.371 5.088C45.539 5.088 46.563 5.344 47.443 5.856C48.339 6.368 49.027 7.064 49.507 7.944C50.003 8.808 50.251 9.784 50.251 10.872C50.251 11.032 50.251 11.208 50.251 11.4C50.251 11.592 50.235 11.8 50.203 12.024H40.315V10.152H47.347C47.299 9.32 46.995 8.664 46.435 8.184C45.875 7.688 45.187 7.44 44.371 7.44C43.779 7.44 43.227 7.576 42.715 7.848C42.219 8.104 41.819 8.496 41.515 9.024C41.211 9.536 41.059 10.192 41.059 10.992V11.688C41.059 12.424 41.203 13.056 41.491 13.584C41.795 14.112 42.195 14.512 42.691 14.784C43.187 15.056 43.739 15.192 44.347 15.192C45.003 15.192 45.555 15.048 46.003 14.76C46.451 14.456 46.779 14.056 46.987 13.56H49.915C49.707 14.328 49.339 15.016 48.811 15.624C48.299 16.216 47.667 16.688 46.915 17.04C46.163 17.392 45.307 17.568 44.347 17.568ZM52.0663 17.28V5.376H54.9463V7.224C55.3463 6.568 55.8823 6.048 56.5543 5.664C57.2423 5.28 58.0263 5.088 58.9063 5.088C60.3783 5.088 61.5223 5.552 62.3383 6.48C63.1543 7.392 63.5623 8.736 63.5623 10.512V17.28H60.6823V10.8C60.6823 9.728 60.4583 8.92 60.0103 8.376C59.5783 7.816 58.9143 7.536 58.0183 7.536C57.1383 7.536 56.4023 7.848 55.8103 8.472C55.2343 9.096 54.9463 9.984 54.9463 11.136V17.28H52.0663ZM70.0348 17.28C69.2668 17.28 68.6188 17.192 68.0908 17.016C67.5628 16.824 67.1628 16.472 66.8908 15.96C66.6188 15.448 66.4828 14.704 66.4828 13.728V7.8H64.4428V5.376H66.4828V2.256H69.3628V5.376H72.4828V7.8H69.3628V13.344C69.3628 13.776 69.4028 14.096 69.4828 14.304C69.5788 14.512 69.7388 14.656 69.9628 14.736C70.1868 14.8 70.5148 14.832 70.9468 14.832H72.3628V17.28H70.0348ZM79.2733 17.568C78.0893 17.568 77.0173 17.312 76.0573 16.8C75.1133 16.272 74.3613 15.536 73.8013 14.592C73.2413 13.648 72.9613 12.56 72.9613 11.328C72.9613 10.08 73.2413 8.992 73.8013 8.064C74.3613 7.12 75.1213 6.392 76.0813 5.88C77.0413 5.352 78.1053 5.088 79.2733 5.088C80.4733 5.088 81.5453 5.352 82.4893 5.88C83.4333 6.392 84.1853 7.12 84.7453 8.064C85.3053 8.992 85.5853 10.08 85.5853 11.328C85.5853 12.56 85.3053 13.648 84.7453 14.592C84.1853 15.536 83.4253 16.272 82.4653 16.8C81.5213 17.312 80.4573 17.568 79.2733 17.568ZM79.2733 15.072C79.8813 15.072 80.4333 14.936 80.9293 14.664C81.4413 14.376 81.8493 13.96 82.1533 13.416C82.4573 12.856 82.6093 12.16 82.6093 11.328C82.6093 10.496 82.4573 9.808 82.1533 9.264C81.8493 8.704 81.4413 8.288 80.9293 8.016C80.4333 7.728 79.8893 7.584 79.2973 7.584C78.6893 7.584 78.1293 7.728 77.6173 8.016C77.1053 8.288 76.6973 8.704 76.3933 9.264C76.0893 9.808 75.9373 10.496 75.9373 11.328C75.9373 12.16 76.0893 12.856 76.3933 13.416C76.6973 13.96 77.0973 14.376 77.5933 14.664C78.1053 14.936 78.6653 15.072 79.2733 15.072ZM100.269 17.568C99.0688 17.568 98.0048 17.312 97.0768 16.8C96.1648 16.272 95.4448 15.544 94.9168 14.616C94.4048 13.688 94.1488 12.616 94.1488 11.4C94.1488 10.168 94.4048 9.08 94.9168 8.136C95.4288 7.176 96.1488 6.432 97.0768 5.904C98.0048 5.36 99.0768 5.088 100.293 5.088C101.461 5.088 102.485 5.344 103.365 5.856C104.261 6.368 104.949 7.064 105.429 7.944C105.925 8.808 106.173 9.784 106.173 10.872C106.173 11.032 106.173 11.208 106.173 11.4C106.173 11.592 106.157 11.8 106.125 12.024H96.2368V10.152H103.269C103.221 9.32 102.917 8.664 102.357 8.184C101.797 7.688 101.109 7.44 100.293 7.44C99.7008 7.44 99.1488 7.576 98.6368 7.848C98.1408 8.104 97.7408 8.496 97.4368 9.024C97.1328 9.536 96.9808 10.192 96.9808 10.992V11.688C96.9808 12.424 97.1248 13.056 97.4128 13.584C97.7168 14.112 98.1168 14.512 98.6128 14.784C99.1088 15.056 99.6608 15.192 100.269 15.192C100.925 15.192 101.477 15.048 101.925 14.76C102.373 14.456 102.701 14.056 102.909 13.56H105.837C105.629 14.328 105.261 15.016 104.733 15.624C104.221 16.216 103.589 16.688 102.837 17.04C102.085 17.392 101.229 17.568 100.269 17.568ZM106.665 17.28L110.961 11.328L106.665 5.376H109.761L112.857 9.72L115.905 5.376H119.001L114.705 11.328L119.001 17.28H115.905L112.857 12.936L109.761 17.28H106.665ZM120.715 22.56V5.376H123.595V7.128C123.979 6.584 124.499 6.112 125.155 5.712C125.811 5.296 126.643 5.088 127.651 5.088C128.787 5.088 129.795 5.36 130.675 5.904C131.555 6.448 132.243 7.192 132.739 8.136C133.251 9.08 133.507 10.152 133.507 11.352C133.507 12.536 133.251 13.6 132.739 14.544C132.243 15.488 131.555 16.232 130.675 16.776C129.795 17.304 128.787 17.568 127.651 17.568C126.739 17.568 125.939 17.392 125.251 17.04C124.563 16.688 124.011 16.2 123.595 15.576V22.56H120.715ZM127.075 15.048C127.763 15.048 128.371 14.888 128.899 14.568C129.427 14.248 129.835 13.816 130.123 13.272C130.427 12.712 130.579 12.072 130.579 11.352C130.579 10.616 130.427 9.968 130.123 9.408C129.835 8.832 129.427 8.392 128.899 8.088C128.371 7.768 127.763 7.608 127.075 7.608C126.387 7.608 125.779 7.768 125.251 8.088C124.723 8.392 124.307 8.824 124.003 9.384C123.699 9.944 123.547 10.592 123.547 11.328C123.547 12.064 123.699 12.712 124.003 13.272C124.307 13.816 124.723 14.248 125.251 14.568C125.779 14.888 126.387 15.048 127.075 15.048ZM140.792 17.568C139.592 17.568 138.528 17.312 137.6 16.8C136.688 16.272 135.968 15.544 135.44 14.616C134.928 13.688 134.672 12.616 134.672 11.4C134.672 10.168 134.928 9.08 135.44 8.136C135.952 7.176 136.672 6.432 137.6 5.904C138.528 5.36 139.6 5.088 140.816 5.088C141.984 5.088 143.008 5.344 143.888 5.856C144.784 6.368 145.472 7.064 145.952 7.944C146.448 8.808 146.696 9.784 146.696 10.872C146.696 11.032 146.696 11.208 146.696 11.4C146.696 11.592 146.68 11.8 146.648 12.024H136.76V10.152H143.792C143.744 9.32 143.44 8.664 142.88 8.184C142.32 7.688 141.632 7.44 140.816 7.44C140.224 7.44 139.672 7.576 139.16 7.848C138.664 8.104 138.264 8.496 137.96 9.024C137.656 9.536 137.504 10.192 137.504 10.992V11.688C137.504 12.424 137.648 13.056 137.936 13.584C138.24 14.112 138.64 14.512 139.136 14.784C139.632 15.056 140.184 15.192 140.792 15.192C141.448 15.192 142 15.048 142.448 14.76C142.896 14.456 143.224 14.056 143.432 13.56H146.36C146.152 14.328 145.784 15.016 145.256 15.624C144.744 16.216 144.112 16.688 143.36 17.04C142.608 17.392 141.752 17.568 140.792 17.568ZM148.512 17.28V5.376H151.392V7.2C151.696 6.608 152.088 6.144 152.568 5.808C153.048 5.456 153.6 5.28 154.224 5.28H155.832V7.848H153.936C153.376 7.848 152.904 8 152.52 8.304C152.152 8.592 151.872 9.048 151.68 9.672C151.488 10.28 151.392 11.048 151.392 11.976V17.28H148.512ZM162.308 17.28C161.54 17.28 160.892 17.192 160.364 17.016C159.836 16.824 159.436 16.472 159.164 15.96C158.892 15.448 158.756 14.704 158.756 13.728V7.8H156.716V5.376H158.756V2.256H161.636V5.376H164.756V7.8H161.636V13.344C161.636 13.776 161.676 14.096 161.756 14.304C161.852 14.512 162.012 14.656 162.236 14.736C162.46 14.8 162.788 14.832 163.22 14.832H164.636V17.28H162.308ZM171.547 17.568C170.363 17.568 169.291 17.312 168.331 16.8C167.387 16.272 166.635 15.536 166.075 14.592C165.515 13.648 165.235 12.56 165.235 11.328C165.235 10.08 165.515 8.992 166.075 8.064C166.635 7.12 167.395 6.392 168.355 5.88C169.315 5.352 170.379 5.088 171.547 5.088C172.747 5.088 173.819 5.352 174.763 5.88C175.707 6.392 176.459 7.12 177.019 8.064C177.579 8.992 177.859 10.08 177.859 11.328C177.859 12.56 177.579 13.648 177.019 14.592C176.459 15.536 175.699 16.272 174.739 16.8C173.795 17.312 172.731 17.568 171.547 17.568ZM171.547 15.072C172.155 15.072 172.707 14.936 173.203 14.664C173.715 14.376 174.123 13.96 174.427 13.416C174.731 12.856 174.883 12.16 174.883 11.328C174.883 10.496 174.731 9.808 174.427 9.264C174.123 8.704 173.715 8.288 173.203 8.016C172.707 7.728 172.163 7.584 171.571 7.584C170.963 7.584 170.403 7.728 169.891 8.016C169.379 8.288 168.971 8.704 168.667 9.264C168.363 9.808 168.211 10.496 168.211 11.328C168.211 12.16 168.363 12.856 168.667 13.416C168.971 13.96 169.371 14.376 169.867 14.664C170.379 14.936 170.939 15.072 171.547 15.072ZM186.662 22.56V20.256H189.182C189.422 20.256 189.614 20.224 189.758 20.16C189.918 20.096 190.07 19.968 190.214 19.776C190.374 19.584 190.542 19.272 190.718 18.84L191.822 16.416L191.654 17.736L186.446 5.376H189.59L193.022 13.896L196.622 5.376H199.694L193.31 19.776C193.038 20.384 192.806 20.872 192.614 21.24C192.422 21.608 192.23 21.888 192.038 22.08C191.846 22.272 191.614 22.4 191.342 22.464C191.086 22.528 190.766 22.56 190.382 22.56H186.662ZM11.379 49.568C10.467 49.568 9.69102 49.408 9.05102 49.088C8.41102 48.752 7.92302 48.312 7.58702 47.768C7.25102 47.224 7.08302 46.632 7.08302 45.992C7.08302 44.744 7.53102 43.776 8.42702 43.088C9.33902 42.4 10.531 42.056 12.003 42.056C12.675 42.056 13.267 42.112 13.779 42.224C14.307 42.32 14.731 42.416 15.051 42.512V41.96C15.051 41.08 14.803 40.432 14.307 40.016C13.827 39.6 13.195 39.392 12.411 39.392C11.835 39.392 11.323 39.512 10.875 39.752C10.427 39.976 10.139 40.392 10.011 41H7.27502C7.37102 40.136 7.65902 39.416 8.13902 38.84C8.61902 38.264 9.22702 37.832 9.96302 37.544C10.715 37.24 11.531 37.088 12.411 37.088C14.155 37.088 15.507 37.52 16.467 38.384C17.443 39.232 17.931 40.424 17.931 41.96V44.864C17.931 45.472 17.963 45.92 18.027 46.208C18.107 46.48 18.227 46.656 18.387 46.736C18.563 46.8 18.787 46.832 19.059 46.832H19.179V49.28H18.531C17.715 49.28 17.027 49.168 16.467 48.944C15.923 48.704 15.539 48.24 15.315 47.552C14.915 48.128 14.387 48.608 13.731 48.992C13.075 49.376 12.291 49.568 11.379 49.568ZM12.003 47.336C12.563 47.336 13.043 47.208 13.443 46.952C13.843 46.68 14.163 46.328 14.403 45.896C14.659 45.448 14.827 44.96 14.907 44.432C14.571 44.336 14.171 44.24 13.707 44.144C13.243 44.048 12.771 44 12.291 44C11.571 44 11.003 44.16 10.587 44.48C10.187 44.8 9.98702 45.232 9.98702 45.776C9.98702 46.224 10.163 46.6 10.515 46.904C10.883 47.192 11.379 47.336 12.003 47.336ZM26.2303 49.568C25.0303 49.568 23.9663 49.304 23.0383 48.776C22.1103 48.248 21.3823 47.52 20.8543 46.592C20.3263 45.648 20.0623 44.56 20.0623 43.328C20.0623 42.096 20.3263 41.016 20.8543 40.088C21.3823 39.144 22.1103 38.408 23.0383 37.88C23.9663 37.352 25.0303 37.088 26.2303 37.088C27.7183 37.088 28.9743 37.48 29.9983 38.264C31.0223 39.048 31.6783 40.12 31.9663 41.48H28.9663C28.8063 40.872 28.4783 40.4 27.9823 40.064C27.4863 39.728 26.8943 39.56 26.2063 39.56C25.6303 39.56 25.0943 39.712 24.5983 40.016C24.1183 40.304 23.7343 40.728 23.4463 41.288C23.1583 41.832 23.0143 42.512 23.0143 43.328C23.0143 44.128 23.1583 44.816 23.4463 45.392C23.7343 45.952 24.1183 46.384 24.5983 46.688C25.0943 46.976 25.6303 47.12 26.2063 47.12C26.8943 47.12 27.4863 46.952 27.9823 46.616C28.4783 46.28 28.8063 45.8 28.9663 45.176H31.9663C31.6943 46.488 31.0383 47.552 29.9983 48.368C28.9743 49.168 27.7183 49.568 26.2303 49.568ZM38.1364 49.28C37.3684 49.28 36.7204 49.192 36.1924 49.016C35.6644 48.824 35.2644 48.472 34.9924 47.96C34.7204 47.448 34.5844 46.704 34.5844 45.728V39.8H32.5444V37.376H34.5844V34.256H37.4644V37.376H40.5844V39.8H37.4644V45.344C37.4644 45.776 37.5044 46.096 37.5844 46.304C37.6804 46.512 37.8404 46.656 38.0644 46.736C38.2884 46.8 38.6164 46.832 39.0484 46.832H40.4644V49.28H38.1364ZM46.2116 49.568C44.8676 49.568 43.7956 49.112 42.9956 48.2C42.2116 47.272 41.8196 45.92 41.8196 44.144V37.376H44.6756V43.856C44.6756 44.928 44.8836 45.744 45.2996 46.304C45.7156 46.848 46.3156 47.12 47.0996 47.12C47.9796 47.12 48.6676 46.808 49.1636 46.184C49.6756 45.56 49.9316 44.672 49.9316 43.52V37.376H52.8116V49.28H49.9316V47.48C49.5796 48.136 49.0916 48.648 48.4676 49.016C47.8436 49.384 47.0916 49.568 46.2116 49.568ZM58.9337 49.568C58.0217 49.568 57.2457 49.408 56.6057 49.088C55.9657 48.752 55.4777 48.312 55.1417 47.768C54.8057 47.224 54.6377 46.632 54.6377 45.992C54.6377 44.744 55.0857 43.776 55.9817 43.088C56.8937 42.4 58.0857 42.056 59.5577 42.056C60.2297 42.056 60.8217 42.112 61.3337 42.224C61.8617 42.32 62.2857 42.416 62.6057 42.512V41.96C62.6057 41.08 62.3577 40.432 61.8617 40.016C61.3817 39.6 60.7497 39.392 59.9657 39.392C59.3897 39.392 58.8777 39.512 58.4297 39.752C57.9817 39.976 57.6937 40.392 57.5657 41H54.8297C54.9257 40.136 55.2137 39.416 55.6937 38.84C56.1737 38.264 56.7817 37.832 57.5177 37.544C58.2697 37.24 59.0857 37.088 59.9657 37.088C61.7097 37.088 63.0617 37.52 64.0217 38.384C64.9977 39.232 65.4857 40.424 65.4857 41.96V44.864C65.4857 45.472 65.5177 45.92 65.5817 46.208C65.6617 46.48 65.7817 46.656 65.9417 46.736C66.1177 46.8 66.3417 46.832 66.6137 46.832H66.7337V49.28H66.0857C65.2697 49.28 64.5817 49.168 64.0217 48.944C63.4777 48.704 63.0937 48.24 62.8697 47.552C62.4697 48.128 61.9417 48.608 61.2857 48.992C60.6297 49.376 59.8457 49.568 58.9337 49.568ZM59.5577 47.336C60.1177 47.336 60.5977 47.208 60.9977 46.952C61.3977 46.68 61.7177 46.328 61.9577 45.896C62.2137 45.448 62.3817 44.96 62.4617 44.432C62.1257 44.336 61.7257 44.24 61.2617 44.144C60.7977 44.048 60.3257 44 59.8457 44C59.1257 44 58.5577 44.16 58.1417 44.48C57.7417 44.8 57.5417 45.232 57.5417 45.776C57.5417 46.224 57.7177 46.6 58.0697 46.904C58.4377 47.192 58.9337 47.336 59.5577 47.336ZM68.2622 49.28V32H71.1422V49.28H68.2622ZM73.3481 49.28V37.376H76.2281V49.28H73.3481ZM73.3481 35.336V32.384H76.2521V35.336H73.3481ZM78.0501 49.28V46.952L84.2181 39.752H78.1461V37.376H87.5061V39.704L81.2661 46.904H87.6261V49.28H78.0501ZM93.2228 49.568C92.3108 49.568 91.5348 49.408 90.8948 49.088C90.2548 48.752 89.7668 48.312 89.4308 47.768C89.0948 47.224 88.9268 46.632 88.9268 45.992C88.9268 44.744 89.3748 43.776 90.2708 43.088C91.1828 42.4 92.3748 42.056 93.8468 42.056C94.5188 42.056 95.1108 42.112 95.6228 42.224C96.1508 42.32 96.5748 42.416 96.8948 42.512V41.96C96.8948 41.08 96.6468 40.432 96.1508 40.016C95.6708 39.6 95.0388 39.392 94.2548 39.392C93.6788 39.392 93.1668 39.512 92.7188 39.752C92.2708 39.976 91.9828 40.392 91.8548 41H89.1188C89.2148 40.136 89.5028 39.416 89.9828 38.84C90.4628 38.264 91.0708 37.832 91.8068 37.544C92.5588 37.24 93.3748 37.088 94.2548 37.088C95.9988 37.088 97.3508 37.52 98.3108 38.384C99.2868 39.232 99.7748 40.424 99.7748 41.96V44.864C99.7748 45.472 99.8068 45.92 99.8708 46.208C99.9508 46.48 100.071 46.656 100.231 46.736C100.407 46.8 100.631 46.832 100.903 46.832H101.023V49.28H100.375C99.5588 49.28 98.8708 49.168 98.3108 48.944C97.7668 48.704 97.3828 48.24 97.1588 47.552C96.7588 48.128 96.2308 48.608 95.5748 48.992C94.9188 49.376 94.1348 49.568 93.2228 49.568ZM93.8468 47.336C94.4068 47.336 94.8868 47.208 95.2868 46.952C95.6868 46.68 96.0068 46.328 96.2468 45.896C96.5028 45.448 96.6708 44.96 96.7508 44.432C96.4148 44.336 96.0148 44.24 95.5508 44.144C95.0868 44.048 94.6148 44 94.1348 44C93.4148 44 92.8468 44.16 92.4308 44.48C92.0308 44.8 91.8308 45.232 91.8308 45.776C91.8308 46.224 92.0068 46.6 92.3588 46.904C92.7268 47.192 93.2228 47.336 93.8468 47.336ZM107.762 49.568C106.642 49.568 105.634 49.296 104.738 48.752C103.858 48.208 103.162 47.464 102.65 46.52C102.154 45.56 101.906 44.488 101.906 43.304C101.906 42.104 102.154 41.04 102.65 40.112C103.162 39.168 103.858 38.432 104.738 37.904C105.634 37.36 106.65 37.088 107.786 37.088C108.698 37.088 109.498 37.264 110.186 37.616C110.874 37.968 111.418 38.456 111.818 39.08V32H114.698V49.28H111.818V47.528C111.45 48.056 110.938 48.528 110.282 48.944C109.626 49.36 108.786 49.568 107.762 49.568ZM108.338 47.048C109.026 47.048 109.634 46.888 110.162 46.568C110.69 46.248 111.106 45.808 111.41 45.248C111.714 44.688 111.866 44.048 111.866 43.328C111.866 42.592 111.714 41.944 111.41 41.384C111.106 40.824 110.69 40.392 110.162 40.088C109.634 39.768 109.026 39.608 108.338 39.608C107.666 39.608 107.066 39.768 106.538 40.088C106.01 40.392 105.594 40.824 105.29 41.384C104.986 41.944 104.834 42.584 104.834 43.304C104.834 44.04 104.986 44.688 105.29 45.248C105.594 45.808 106.01 46.248 106.538 46.568C107.066 46.888 107.666 47.048 108.338 47.048ZM122.68 49.568C121.496 49.568 120.424 49.312 119.464 48.8C118.52 48.272 117.768 47.536 117.208 46.592C116.648 45.648 116.368 44.56 116.368 43.328C116.368 42.08 116.648 40.992 117.208 40.064C117.768 39.12 118.528 38.392 119.488 37.88C120.448 37.352 121.512 37.088 122.68 37.088C123.88 37.088 124.952 37.352 125.896 37.88C126.84 38.392 127.592 39.12 128.152 40.064C128.712 40.992 128.992 42.08 128.992 43.328C128.992 44.56 128.712 45.648 128.152 46.592C127.592 47.536 126.832 48.272 125.872 48.8C124.928 49.312 123.864 49.568 122.68 49.568ZM122.68 47.072C123.288 47.072 123.84 46.936 124.336 46.664C124.848 46.376 125.256 45.96 125.56 45.416C125.864 44.856 126.016 44.16 126.016 43.328C126.016 42.496 125.864 41.808 125.56 41.264C125.256 40.704 124.848 40.288 124.336 40.016C123.84 39.728 123.296 39.584 122.704 39.584C122.096 39.584 121.536 39.728 121.024 40.016C120.512 40.288 120.104 40.704 119.8 41.264C119.496 41.808 119.344 42.496 119.344 43.328C119.344 44.16 119.496 44.856 119.8 45.416C120.104 45.96 120.504 46.376 121 46.664C121.512 46.936 122.072 47.072 122.68 47.072ZM143.675 49.568C142.475 49.568 141.411 49.312 140.483 48.8C139.571 48.272 138.851 47.544 138.323 46.616C137.811 45.688 137.555 44.616 137.555 43.4C137.555 42.168 137.811 41.08 138.323 40.136C138.835 39.176 139.555 38.432 140.483 37.904C141.411 37.36 142.483 37.088 143.699 37.088C144.867 37.088 145.891 37.344 146.771 37.856C147.667 38.368 148.355 39.064 148.835 39.944C149.331 40.808 149.579 41.784 149.579 42.872C149.579 43.032 149.579 43.208 149.579 43.4C149.579 43.592 149.563 43.8 149.531 44.024H139.643V42.152H146.675C146.627 41.32 146.323 40.664 145.763 40.184C145.203 39.688 144.515 39.44 143.699 39.44C143.107 39.44 142.555 39.576 142.043 39.848C141.547 40.104 141.147 40.496 140.843 41.024C140.539 41.536 140.387 42.192 140.387 42.992V43.688C140.387 44.424 140.531 45.056 140.819 45.584C141.123 46.112 141.523 46.512 142.019 46.784C142.515 47.056 143.067 47.192 143.675 47.192C144.331 47.192 144.883 47.048 145.331 46.76C145.779 46.456 146.107 46.056 146.315 45.56H149.243C149.035 46.328 148.667 47.016 148.139 47.624C147.627 48.216 146.995 48.688 146.243 49.04C145.491 49.392 144.635 49.568 143.675 49.568ZM151.394 49.28V37.376H154.274V39.224C154.674 38.568 155.21 38.048 155.882 37.664C156.57 37.28 157.354 37.088 158.234 37.088C159.706 37.088 160.85 37.552 161.666 38.48C162.482 39.392 162.89 40.736 162.89 42.512V49.28H160.01V42.8C160.01 41.728 159.786 40.92 159.338 40.376C158.906 39.816 158.242 39.536 157.346 39.536C156.466 39.536 155.73 39.848 155.138 40.472C154.562 41.096 154.274 41.984 154.274 43.136V49.28H151.394ZM172.442 49.28V32H175.322V49.28H172.442ZM181.512 49.568C180.6 49.568 179.824 49.408 179.184 49.088C178.544 48.752 178.056 48.312 177.72 47.768C177.384 47.224 177.216 46.632 177.216 45.992C177.216 44.744 177.664 43.776 178.56 43.088C179.472 42.4 180.664 42.056 182.136 42.056C182.808 42.056 183.4 42.112 183.912 42.224C184.44 42.32 184.864 42.416 185.184 42.512V41.96C185.184 41.08 184.936 40.432 184.44 40.016C183.96 39.6 183.328 39.392 182.544 39.392C181.968 39.392 181.456 39.512 181.008 39.752C180.56 39.976 180.272 40.392 180.144 41H177.408C177.504 40.136 177.792 39.416 178.272 38.84C178.752 38.264 179.36 37.832 180.096 37.544C180.848 37.24 181.664 37.088 182.544 37.088C184.288 37.088 185.64 37.52 186.6 38.384C187.576 39.232 188.064 40.424 188.064 41.96V44.864C188.064 45.472 188.096 45.92 188.16 46.208C188.24 46.48 188.36 46.656 188.52 46.736C188.696 46.8 188.92 46.832 189.192 46.832H189.312V49.28H188.664C187.848 49.28 187.16 49.168 186.6 48.944C186.056 48.704 185.672 48.24 185.448 47.552C185.048 48.128 184.52 48.608 183.864 48.992C183.208 49.376 182.424 49.568 181.512 49.568ZM182.136 47.336C182.696 47.336 183.176 47.208 183.576 46.952C183.976 46.68 184.296 46.328 184.536 45.896C184.792 45.448 184.96 44.96 185.04 44.432C184.704 44.336 184.304 44.24 183.84 44.144C183.376 44.048 182.904 44 182.424 44C181.704 44 181.136 44.16 180.72 44.48C180.32 44.8 180.12 45.232 180.12 45.776C180.12 46.224 180.296 46.6 180.648 46.904C181.016 47.192 181.512 47.336 182.136 47.336ZM195.736 49.568C194.2 49.568 192.928 49.208 191.92 48.488C190.912 47.768 190.336 46.776 190.192 45.512H193.144C193.256 46.072 193.552 46.52 194.032 46.856C194.528 47.176 195.128 47.336 195.832 47.336C196.552 47.336 197.104 47.2 197.488 46.928C197.888 46.64 198.088 46.288 198.088 45.872C198.088 45.536 197.952 45.28 197.68 45.104C197.424 44.912 196.96 44.768 196.288 44.672C196.032 44.624 195.712 44.576 195.328 44.528C194.96 44.464 194.64 44.4 194.368 44.336C193.744 44.224 193.16 44.032 192.616 43.76C192.072 43.472 191.632 43.088 191.296 42.608C190.976 42.128 190.816 41.536 190.816 40.832C190.816 39.776 191.208 38.888 191.992 38.168C192.792 37.448 193.928 37.088 195.4 37.088C196.872 37.088 198.048 37.416 198.928 38.072C199.808 38.712 200.312 39.656 200.44 40.904H197.632C197.584 40.376 197.344 39.984 196.912 39.728C196.496 39.472 195.992 39.344 195.4 39.344C194.76 39.344 194.264 39.472 193.912 39.728C193.56 39.968 193.384 40.272 193.384 40.64C193.384 41.296 193.936 41.72 195.04 41.912C195.2 41.944 195.4 41.984 195.64 42.032C195.896 42.064 196.152 42.104 196.408 42.152C196.664 42.184 196.88 42.216 197.056 42.248C197.488 42.296 197.92 42.392 198.352 42.536C198.8 42.68 199.208 42.88 199.576 43.136C199.944 43.376 200.232 43.696 200.44 44.096C200.664 44.496 200.776 45 200.776 45.608C200.776 46.392 200.576 47.08 200.176 47.672C199.792 48.264 199.224 48.728 198.472 49.064C197.72 49.4 196.808 49.568 195.736 49.568ZM-7.80821e-05 81.28V69.376H2.87992V71.224C3.27992 70.568 3.81592 70.048 4.48792 69.664C5.17592 69.28 5.95992 69.088 6.83992 69.088C8.31192 69.088 9.45592 69.552 10.2719 70.48C11.0879 71.392 11.4959 72.736 11.4959 74.512V81.28H8.61592V74.8C8.61592 73.728 8.39192 72.92 7.94392 72.376C7.51192 71.816 6.84792 71.536 5.95192 71.536C5.07192 71.536 4.33592 71.848 3.74392 72.472C3.16792 73.096 2.87992 73.984 2.87992 75.136V81.28H-7.80821e-05ZM17.864 81.568C16.52 81.568 15.448 81.112 14.648 80.2C13.864 79.272 13.472 77.92 13.472 76.144V69.376H16.328V75.856C16.328 76.928 16.536 77.744 16.952 78.304C17.368 78.848 17.968 79.12 18.752 79.12C19.632 79.12 20.32 78.808 20.816 78.184C21.328 77.56 21.584 76.672 21.584 75.52V69.376H24.464V81.28H21.584V79.48C21.232 80.136 20.744 80.648 20.12 81.016C19.496 81.384 18.744 81.568 17.864 81.568ZM32.218 81.568C31.018 81.568 29.954 81.312 29.026 80.8C28.114 80.272 27.394 79.544 26.866 78.616C26.354 77.688 26.098 76.616 26.098 75.4C26.098 74.168 26.354 73.08 26.866 72.136C27.378 71.176 28.098 70.432 29.026 69.904C29.954 69.36 31.026 69.088 32.242 69.088C33.41 69.088 34.434 69.344 35.314 69.856C36.21 70.368 36.898 71.064 37.378 71.944C37.874 72.808 38.122 73.784 38.122 74.872C38.122 75.032 38.122 75.208 38.122 75.4C38.122 75.592 38.106 75.8 38.074 76.024H28.186V74.152H35.218C35.17 73.32 34.866 72.664 34.306 72.184C33.746 71.688 33.058 71.44 32.242 71.44C31.65 71.44 31.098 71.576 30.586 71.848C30.09 72.104 29.69 72.496 29.386 73.024C29.082 73.536 28.93 74.192 28.93 74.992V75.688C28.93 76.424 29.074 77.056 29.362 77.584C29.666 78.112 30.066 78.512 30.562 78.784C31.058 79.056 31.61 79.192 32.218 79.192C32.874 79.192 33.426 79.048 33.874 78.76C34.322 78.456 34.65 78.056 34.858 77.56H37.786C37.578 78.328 37.21 79.016 36.682 79.624C36.17 80.216 35.538 80.688 34.786 81.04C34.034 81.392 33.178 81.568 32.218 81.568ZM42.8862 81.28L38.4942 69.376H41.4942L44.6382 78.544L47.7582 69.376H50.7582L46.3422 81.28H42.8862ZM55.4298 81.568C54.5178 81.568 53.7418 81.408 53.1018 81.088C52.4618 80.752 51.9738 80.312 51.6378 79.768C51.3018 79.224 51.1338 78.632 51.1338 77.992C51.1338 76.744 51.5818 75.776 52.4778 75.088C53.3898 74.4 54.5818 74.056 56.0538 74.056C56.7258 74.056 57.3178 74.112 57.8298 74.224C58.3578 74.32 58.7818 74.416 59.1018 74.512V73.96C59.1018 73.08 58.8538 72.432 58.3578 72.016C57.8778 71.6 57.2458 71.392 56.4618 71.392C55.8858 71.392 55.3738 71.512 54.9258 71.752C54.4778 71.976 54.1898 72.392 54.0618 73H51.3258C51.4218 72.136 51.7098 71.416 52.1898 70.84C52.6698 70.264 53.2778 69.832 54.0138 69.544C54.7658 69.24 55.5818 69.088 56.4618 69.088C58.2058 69.088 59.5578 69.52 60.5178 70.384C61.4938 71.232 61.9818 72.424 61.9818 73.96V76.864C61.9818 77.472 62.0138 77.92 62.0778 78.208C62.1578 78.48 62.2778 78.656 62.4378 78.736C62.6138 78.8 62.8378 78.832 63.1098 78.832H63.2298V81.28H62.5818C61.7658 81.28 61.0778 81.168 60.5178 80.944C59.9738 80.704 59.5898 80.24 59.3658 79.552C58.9658 80.128 58.4378 80.608 57.7818 80.992C57.1258 81.376 56.3418 81.568 55.4298 81.568ZM56.0538 79.336C56.6138 79.336 57.0938 79.208 57.4938 78.952C57.8938 78.68 58.2138 78.328 58.4538 77.896C58.7098 77.448 58.8778 76.96 58.9578 76.432C58.6218 76.336 58.2218 76.24 57.7578 76.144C57.2938 76.048 56.8218 76 56.3418 76C55.6218 76 55.0538 76.16 54.6378 76.48C54.2378 76.8 54.0378 77.232 54.0378 77.776C54.0378 78.224 54.2138 78.6 54.5658 78.904C54.9338 79.192 55.4298 79.336 56.0538 79.336ZM69.6543 81.568C68.1183 81.568 66.8463 81.208 65.8383 80.488C64.8303 79.768 64.2543 78.776 64.1103 77.512H67.0623C67.1743 78.072 67.4703 78.52 67.9503 78.856C68.4463 79.176 69.0463 79.336 69.7503 79.336C70.4703 79.336 71.0223 79.2 71.4063 78.928C71.8063 78.64 72.0063 78.288 72.0063 77.872C72.0063 77.536 71.8703 77.28 71.5983 77.104C71.3423 76.912 70.8783 76.768 70.2063 76.672C69.9503 76.624 69.6303 76.576 69.2463 76.528C68.8783 76.464 68.5583 76.4 68.2863 76.336C67.6623 76.224 67.0783 76.032 66.5343 75.76C65.9903 75.472 65.5503 75.088 65.2143 74.608C64.8943 74.128 64.7343 73.536 64.7343 72.832C64.7343 71.776 65.1263 70.888 65.9103 70.168C66.7103 69.448 67.8463 69.088 69.3183 69.088C70.7903 69.088 71.9663 69.416 72.8463 70.072C73.7263 70.712 74.2303 71.656 74.3583 72.904H71.5503C71.5023 72.376 71.2623 71.984 70.8303 71.728C70.4143 71.472 69.9103 71.344 69.3183 71.344C68.6783 71.344 68.1823 71.472 67.8303 71.728C67.4783 71.968 67.3023 72.272 67.3023 72.64C67.3023 73.296 67.8543 73.72 68.9583 73.912C69.1183 73.944 69.3183 73.984 69.5583 74.032C69.8143 74.064 70.0703 74.104 70.3263 74.152C70.5823 74.184 70.7983 74.216 70.9743 74.248C71.4063 74.296 71.8383 74.392 72.2703 74.536C72.7183 74.68 73.1263 74.88 73.4943 75.136C73.8623 75.376 74.1503 75.696 74.3583 76.096C74.5823 76.496 74.6943 77 74.6943 77.608C74.6943 78.392 74.4943 79.08 74.0943 79.672C73.7103 80.264 73.1423 80.728 72.3903 81.064C71.6383 81.4 70.7263 81.568 69.6543 81.568ZM88.6325 81.28C87.8645 81.28 87.2165 81.192 86.6885 81.016C86.1605 80.824 85.7605 80.472 85.4885 79.96C85.2165 79.448 85.0805 78.704 85.0805 77.728V71.8H83.0405V69.376H85.0805V66.256H87.9605V69.376H91.0805V71.8H87.9605V77.344C87.9605 77.776 88.0005 78.096 88.0805 78.304C88.1765 78.512 88.3365 78.656 88.5605 78.736C88.7845 78.8 89.1125 78.832 89.5445 78.832H90.9605V81.28H88.6325ZM97.679 81.568C96.479 81.568 95.415 81.312 94.487 80.8C93.575 80.272 92.855 79.544 92.327 78.616C91.815 77.688 91.559 76.616 91.559 75.4C91.559 74.168 91.815 73.08 92.327 72.136C92.839 71.176 93.559 70.432 94.487 69.904C95.415 69.36 96.487 69.088 97.703 69.088C98.871 69.088 99.895 69.344 100.775 69.856C101.671 70.368 102.359 71.064 102.839 71.944C103.335 72.808 103.583 73.784 103.583 74.872C103.583 75.032 103.583 75.208 103.583 75.4C103.583 75.592 103.567 75.8 103.535 76.024H93.647V74.152H100.679C100.631 73.32 100.327 72.664 99.767 72.184C99.207 71.688 98.519 71.44 97.703 71.44C97.111 71.44 96.559 71.576 96.047 71.848C95.551 72.104 95.151 72.496 94.847 73.024C94.543 73.536 94.391 74.192 94.391 74.992V75.688C94.391 76.424 94.535 77.056 94.823 77.584C95.127 78.112 95.527 78.512 96.023 78.784C96.519 79.056 97.071 79.192 97.679 79.192C98.335 79.192 98.887 79.048 99.335 78.76C99.783 78.456 100.111 78.056 100.319 77.56H103.247C103.039 78.328 102.671 79.016 102.143 79.624C101.631 80.216 100.999 80.688 100.247 81.04C99.495 81.392 98.639 81.568 97.679 81.568ZM111.062 81.568C109.862 81.568 108.798 81.304 107.87 80.776C106.942 80.248 106.214 79.52 105.686 78.592C105.158 77.648 104.894 76.56 104.894 75.328C104.894 74.096 105.158 73.016 105.686 72.088C106.214 71.144 106.942 70.408 107.87 69.88C108.798 69.352 109.862 69.088 111.062 69.088C112.55 69.088 113.806 69.48 114.83 70.264C115.854 71.048 116.51 72.12 116.798 73.48H113.798C113.638 72.872 113.31 72.4 112.814 72.064C112.318 71.728 111.726 71.56 111.038 71.56C110.462 71.56 109.926 71.712 109.43 72.016C108.95 72.304 108.566 72.728 108.278 73.288C107.99 73.832 107.846 74.512 107.846 75.328C107.846 76.128 107.99 76.816 108.278 77.392C108.566 77.952 108.95 78.384 109.43 78.688C109.926 78.976 110.462 79.12 111.038 79.12C111.726 79.12 112.318 78.952 112.814 78.616C113.31 78.28 113.638 77.8 113.798 77.176H116.798C116.526 78.488 115.87 79.552 114.83 80.368C113.806 81.168 112.55 81.568 111.062 81.568ZM118.547 81.28V69.376H121.427V71.224C121.827 70.568 122.363 70.048 123.035 69.664C123.723 69.28 124.507 69.088 125.387 69.088C126.859 69.088 128.003 69.552 128.819 70.48C129.635 71.392 130.043 72.736 130.043 74.512V81.28H127.163V74.8C127.163 73.728 126.939 72.92 126.491 72.376C126.059 71.816 125.395 71.536 124.499 71.536C123.619 71.536 122.883 71.848 122.291 72.472C121.715 73.096 121.427 73.984 121.427 75.136V81.28H118.547ZM138.043 81.568C136.859 81.568 135.787 81.312 134.827 80.8C133.883 80.272 133.131 79.536 132.571 78.592C132.011 77.648 131.731 76.56 131.731 75.328C131.731 74.08 132.011 72.992 132.571 72.064C133.131 71.12 133.891 70.392 134.851 69.88C135.811 69.352 136.875 69.088 138.043 69.088C139.243 69.088 140.315 69.352 141.259 69.88C142.203 70.392 142.955 71.12 143.515 72.064C144.075 72.992 144.355 74.08 144.355 75.328C144.355 76.56 144.075 77.648 143.515 78.592C142.955 79.536 142.195 80.272 141.235 80.8C140.291 81.312 139.227 81.568 138.043 81.568ZM138.043 79.072C138.651 79.072 139.203 78.936 139.699 78.664C140.211 78.376 140.619 77.96 140.923 77.416C141.227 76.856 141.379 76.16 141.379 75.328C141.379 74.496 141.227 73.808 140.923 73.264C140.619 72.704 140.211 72.288 139.699 72.016C139.203 71.728 138.659 71.584 138.067 71.584C137.459 71.584 136.899 71.728 136.387 72.016C135.875 72.288 135.467 72.704 135.163 73.264C134.859 73.808 134.707 74.496 134.707 75.328C134.707 76.16 134.859 76.856 135.163 77.416C135.467 77.96 135.867 78.376 136.363 78.664C136.875 78.936 137.435 79.072 138.043 79.072ZM146.063 81.28V64H148.943V81.28H146.063ZM156.957 81.568C155.773 81.568 154.701 81.312 153.741 80.8C152.797 80.272 152.045 79.536 151.485 78.592C150.925 77.648 150.645 76.56 150.645 75.328C150.645 74.08 150.925 72.992 151.485 72.064C152.045 71.12 152.805 70.392 153.765 69.88C154.725 69.352 155.789 69.088 156.957 69.088C158.157 69.088 159.229 69.352 160.173 69.88C161.117 70.392 161.869 71.12 162.429 72.064C162.989 72.992 163.269 74.08 163.269 75.328C163.269 76.56 162.989 77.648 162.429 78.592C161.869 79.536 161.109 80.272 160.149 80.8C159.205 81.312 158.141 81.568 156.957 81.568ZM156.957 79.072C157.565 79.072 158.117 78.936 158.613 78.664C159.125 78.376 159.533 77.96 159.837 77.416C160.141 76.856 160.293 76.16 160.293 75.328C160.293 74.496 160.141 73.808 159.837 73.264C159.533 72.704 159.125 72.288 158.613 72.016C158.117 71.728 157.573 71.584 156.981 71.584C156.373 71.584 155.813 71.728 155.301 72.016C154.789 72.288 154.381 72.704 154.077 73.264C153.773 73.808 153.621 74.496 153.621 75.328C153.621 76.16 153.773 76.856 154.077 77.416C154.381 77.96 154.781 78.376 155.277 78.664C155.789 78.936 156.349 79.072 156.957 79.072ZM171.337 86.848C170.313 86.848 169.345 86.68 168.433 86.344C167.521 86.008 166.753 85.488 166.129 84.784C165.505 84.08 165.121 83.184 164.977 82.096H167.833C168.009 82.784 168.409 83.328 169.033 83.728C169.657 84.144 170.409 84.352 171.289 84.352C171.913 84.352 172.489 84.216 173.017 83.944C173.561 83.688 173.985 83.288 174.289 82.744C174.609 82.2 174.769 81.512 174.769 80.68V79.144C174.529 79.544 174.217 79.912 173.833 80.248C173.449 80.584 172.985 80.856 172.441 81.064C171.897 81.272 171.273 81.376 170.569 81.376C169.449 81.376 168.433 81.112 167.521 80.584C166.625 80.04 165.913 79.304 165.385 78.376C164.857 77.432 164.593 76.376 164.593 75.208C164.593 74.056 164.857 73.016 165.385 72.088C165.913 71.16 166.625 70.432 167.521 69.904C168.433 69.36 169.457 69.088 170.593 69.088C171.537 69.088 172.369 69.288 173.089 69.688C173.809 70.072 174.369 70.56 174.769 71.152V69.376H177.649V80.56C177.649 81.92 177.361 83.064 176.785 83.992C176.225 84.936 175.465 85.648 174.505 86.128C173.561 86.608 172.505 86.848 171.337 86.848ZM171.145 78.88C171.849 78.88 172.465 78.72 172.993 78.4C173.537 78.08 173.961 77.648 174.265 77.104C174.585 76.544 174.745 75.92 174.745 75.232C174.745 74.528 174.585 73.904 174.265 73.36C173.961 72.816 173.537 72.392 172.993 72.088C172.465 71.768 171.849 71.608 171.145 71.608C170.441 71.608 169.817 71.768 169.273 72.088C168.729 72.392 168.305 72.816 168.001 73.36C167.697 73.888 167.545 74.504 167.545 75.208C167.545 75.912 167.697 76.544 168.001 77.104C168.305 77.648 168.729 78.08 169.273 78.4C169.817 78.72 170.441 78.88 171.145 78.88ZM179.836 81.28V69.376H182.716V81.28H179.836ZM180.532 67.696L181.876 63.328H184.636L182.62 67.696H180.532ZM188.883 81.568C187.971 81.568 187.195 81.408 186.555 81.088C185.915 80.752 185.427 80.312 185.091 79.768C184.755 79.224 184.587 78.632 184.587 77.992C184.587 76.744 185.035 75.776 185.931 75.088C186.843 74.4 188.035 74.056 189.507 74.056C190.179 74.056 190.771 74.112 191.283 74.224C191.811 74.32 192.235 74.416 192.555 74.512V73.96C192.555 73.08 192.307 72.432 191.811 72.016C191.331 71.6 190.699 71.392 189.915 71.392C189.339 71.392 188.827 71.512 188.379 71.752C187.931 71.976 187.643 72.392 187.515 73H184.779C184.875 72.136 185.163 71.416 185.643 70.84C186.123 70.264 186.731 69.832 187.467 69.544C188.219 69.24 189.035 69.088 189.915 69.088C191.659 69.088 193.011 69.52 193.971 70.384C194.947 71.232 195.435 72.424 195.435 73.96V76.864C195.435 77.472 195.467 77.92 195.531 78.208C195.611 78.48 195.731 78.656 195.891 78.736C196.067 78.8 196.291 78.832 196.563 78.832H196.683V81.28H196.035C195.219 81.28 194.531 81.168 193.971 80.944C193.427 80.704 193.043 80.24 192.819 79.552C192.419 80.128 191.891 80.608 191.235 80.992C190.579 81.376 189.795 81.568 188.883 81.568ZM189.507 79.336C190.067 79.336 190.547 79.208 190.947 78.952C191.347 78.68 191.667 78.328 191.907 77.896C192.163 77.448 192.331 76.96 192.411 76.432C192.075 76.336 191.675 76.24 191.211 76.144C190.747 76.048 190.275 76 189.795 76C189.075 76 188.507 76.16 188.091 76.48C187.691 76.8 187.491 77.232 187.491 77.776C187.491 78.224 187.667 78.6 188.019 78.904C188.387 79.192 188.883 79.336 189.507 79.336ZM203.107 81.568C201.571 81.568 200.299 81.208 199.291 80.488C198.283 79.768 197.707 78.776 197.563 77.512H200.515C200.627 78.072 200.923 78.52 201.403 78.856C201.899 79.176 202.499 79.336 203.203 79.336C203.923 79.336 204.475 79.2 204.859 78.928C205.259 78.64 205.459 78.288 205.459 77.872C205.459 77.536 205.323 77.28 205.051 77.104C204.795 76.912 204.331 76.768 203.659 76.672C203.403 76.624 203.083 76.576 202.699 76.528C202.331 76.464 202.011 76.4 201.739 76.336C201.115 76.224 200.531 76.032 199.987 75.76C199.443 75.472 199.003 75.088 198.667 74.608C198.347 74.128 198.187 73.536 198.187 72.832C198.187 71.776 198.579 70.888 199.363 70.168C200.163 69.448 201.299 69.088 202.771 69.088C204.243 69.088 205.419 69.416 206.299 70.072C207.179 70.712 207.683 71.656 207.811 72.904H205.003C204.955 72.376 204.715 71.984 204.283 71.728C203.867 71.472 203.363 71.344 202.771 71.344C202.131 71.344 201.635 71.472 201.283 71.728C200.931 71.968 200.755 72.272 200.755 72.64C200.755 73.296 201.307 73.72 202.411 73.912C202.571 73.944 202.771 73.984 203.011 74.032C203.267 74.064 203.523 74.104 203.779 74.152C204.035 74.184 204.251 74.216 204.427 74.248C204.859 74.296 205.291 74.392 205.723 74.536C206.171 74.68 206.579 74.88 206.947 75.136C207.315 75.376 207.603 75.696 207.811 76.096C208.035 76.496 208.147 77 208.147 77.608C208.147 78.392 207.947 79.08 207.547 79.672C207.163 80.264 206.595 80.728 205.843 81.064C205.091 81.4 204.179 81.568 203.107 81.568Z" fill="#08B8A2"/>
</svg>
