<svg width="81" height="81" viewBox="0 0 81 81" fill="none" xmlns="http://www.w3.org/2000/svg">
<path d="M6.69049 44.8572C7.70173 43.8921 9.30462 43.9284 10.2698 44.9396L20.2498 55.3942L21.8747 53.6935C22.84 52.6825 24.4429 52.6459 25.454 53.6111C26.465 54.5764 26.5016 56.1793 25.5364 57.1904L22.0823 60.8093C21.6047 61.3097 20.9416 61.5938 20.2498 61.5938C19.5581 61.5938 18.8949 61.3097 18.4173 60.8093L6.60479 48.4365C5.63963 47.4253 5.67929 45.8224 6.69049 44.8572ZM53.8548 20.1907C54.8197 19.1799 56.4228 19.1409 57.4341 20.105C58.445 21.0698 58.4839 22.673 57.5198 23.6843L37.0556 45.1209C36.0904 46.132 34.4875 46.1717 33.4763 45.2065C32.4651 44.2414 32.4288 42.6384 33.3939 41.6272L53.8548 20.1907Z" fill="white"/>
<path d="M70.7298 20.1907C71.6947 19.1799 73.2978 19.1409 74.3091 20.105C75.32 21.0698 75.3589 22.673 74.3948 23.6843L38.9573 60.8093C38.4797 61.3097 37.8166 61.5938 37.1248 61.5938C36.4331 61.5938 35.7699 61.3097 35.2923 60.8093L23.4798 48.4365C22.5146 47.4253 22.5543 45.8224 23.5655 44.8572C24.5767 43.8921 26.1796 43.9284 27.1448 44.9396L37.1248 55.3942L70.7298 20.1907Z" fill="white"/>
</svg>
